<svg width="240" height="196" viewBox="0 0 240 196" fill="none" xmlns="http://www.w3.org/2000/svg">
<g clip-path="url(#clip0_761_3967)">
<path d="M117.992 63.2176L120.514 60.1865C120.798 59.8845 120.957 59.4849 120.957 59.0696C120.957 58.6542 120.798 58.2546 120.514 57.9526C120.216 57.6597 119.815 57.4956 119.398 57.4956C118.981 57.4956 118.58 57.6597 118.282 57.9526C110.098 66.504 101.935 75.0786 93.7933 83.6763C85.6515 92.2741 77.6084 100.887 69.6641 109.514C61.6778 118.171 53.7734 126.897 45.951 135.693C38.1286 144.489 30.3944 153.418 22.7486 162.48C15.5041 171.061 8.13355 179.667 2.28251 189.305C1.56374 190.507 0.870189 191.712 0.201858 192.918C-0.649317 194.462 1.3935 196.146 2.67973 194.817L7.77417 189.602C9.1991 188.147 6.97343 185.907 5.5485 187.362L0.447754 192.595L2.92562 194.494C8.28487 184.723 15.3906 176.111 22.5216 167.618C30.0497 158.645 37.6956 149.773 45.4592 141.003C53.2227 132.232 61.1082 123.488 69.1156 114.773C77.1019 106.09 85.1324 97.4674 93.207 88.9033C101.282 80.3393 109.367 71.8302 117.462 63.3758L120.533 60.1675L118.301 57.9337L115.779 60.9648C115.493 61.266 115.334 61.6659 115.334 62.0817C115.334 62.4975 115.493 62.8974 115.779 63.1986C116.077 63.4916 116.478 63.6557 116.895 63.6557C117.312 63.6557 117.713 63.4916 118.011 63.1986L117.992 63.2176Z" fill="#483D3F" fill-opacity="0.65"/>
<path d="M6.99862 195.494C12.112 197.19 17.1686 194.291 21.5001 191.893L36.3989 183.667L66.0324 167.34L95.6974 151.007L125.501 134.599L155.135 118.266L158.861 116.215C160.639 115.241 159.05 112.507 157.272 113.488L127.992 129.682L98.5788 145.863L69.1912 162.044L39.8036 178.224L25.0372 186.35C22.6413 187.666 20.258 189.014 17.8432 190.305C15.7815 191.4 13.5747 192.501 11.223 192.785C10.0831 192.926 8.92626 192.81 7.83719 192.444C5.90155 191.811 5.0756 194.861 6.99862 195.494Z" fill="#483D3F" fill-opacity="0.65"/>
<path d="M131.201 57.0731C142.241 55.9467 153.533 60.8067 159.933 69.9951C163.105 74.4921 165.06 79.7381 165.607 85.2205C166.027 90.9494 165.071 96.6957 162.821 101.977C160.38 108.021 156.661 113.551 152.613 118.62C152.328 118.923 152.17 119.324 152.17 119.74C152.17 120.157 152.328 120.557 152.613 120.86C152.91 121.153 153.309 121.317 153.726 121.317C154.142 121.317 154.541 121.153 154.838 120.86C162.499 111.261 169.34 99.7118 168.867 86.9923C168.712 82.2871 167.597 77.6638 165.589 73.4089C163.581 69.1541 160.725 65.3583 157.196 62.2567C153.667 59.1552 149.541 56.8139 145.074 55.378C140.607 53.9421 135.894 53.4421 131.226 53.9091C130.812 53.9202 130.417 54.0905 130.124 54.3848C129.831 54.6791 129.661 55.075 129.65 55.4911C129.653 55.9096 129.82 56.3101 130.115 56.6061C130.41 56.9021 130.809 57.0698 131.226 57.0731H131.201Z" fill="#483D3F" fill-opacity="0.65"/>
<path d="M174.649 24.9833C179.492 23.9043 184.532 24.1119 189.271 25.5857C194.011 27.0595 198.285 29.7484 201.672 33.387C204.887 36.9153 207.183 41.187 208.355 45.8217C209.557 50.9513 209.457 56.3016 208.065 61.3825C206.508 67.4701 203.652 73.1085 200.379 78.4304C199.307 80.1706 202.031 81.759 203.097 80.0314C209.2 70.1153 214.074 58.4146 211.754 46.5621C210.932 42.4157 209.289 38.4772 206.922 34.9801C204.556 31.4831 201.513 28.4987 197.976 26.204C194.438 23.9094 190.477 22.3512 186.328 21.6219C182.179 20.8926 177.927 21.007 173.823 21.9585C171.843 22.4078 172.681 25.4579 174.661 25.0086L174.649 24.9833Z" fill="#483D3F" fill-opacity="0.65"/>
<path d="M146.427 47.3848C154.889 45.3218 163.804 48.9984 169.504 55.3392C175.639 62.1609 178.167 71.5265 178.142 80.5566C178.044 86.5074 177.16 92.4189 175.512 98.1361C174.983 100.104 178.034 100.939 178.558 98.9777C181.395 88.5617 182.587 77.2977 179.346 66.8247C176.483 57.5857 170.292 49.4604 161.225 45.6825C156.286 43.5872 150.812 43.1154 145.589 44.3346C143.615 44.8092 144.454 47.8657 146.427 47.3848Z" fill="#483D3F" fill-opacity="0.65"/>
<path d="M138.748 47.6948C138.01 46.5305 138.565 45.132 139.473 44.2334C140.652 43.05 142.335 42.4109 143.886 41.8224C147.499 40.4456 151.289 39.5933 155.141 39.2911C155.556 39.283 155.953 39.1137 156.247 38.8188C156.54 38.5238 156.709 38.1261 156.717 37.7091C156.714 37.2905 156.547 36.8901 156.252 36.5941C155.957 36.2981 155.558 36.1304 155.141 36.1271C150.379 36.4899 145.709 37.6313 141.314 39.5063C139.353 40.3416 137.411 41.449 136.239 43.3031C135.651 44.1889 135.322 45.2222 135.29 46.2859C135.258 47.3496 135.523 48.4011 136.056 49.3211C137.14 51.0297 139.87 49.4477 138.773 47.7201L138.748 47.6948Z" fill="#483D3F" fill-opacity="0.65"/>
<path d="M157.827 39.867C159.857 39.867 159.864 36.703 157.827 36.703C155.791 36.703 155.797 39.867 157.827 39.867Z" fill="#483D3F" fill-opacity="0.65"/>
<path d="M157.31 39.5126C159.649 39.405 161.969 40.601 164.018 41.6325C166.029 42.6436 167.955 43.8182 169.775 45.1446C173.325 47.7234 176.405 50.8982 178.879 54.5292C181.428 58.2364 183.202 62.4243 184.091 66.8393C184.981 71.2544 184.969 75.8047 184.056 80.2149C183.029 85.2031 180.753 89.8464 177.442 93.7064C177.156 94.0086 176.996 94.4096 176.996 94.8265C176.996 95.2433 177.156 95.6443 177.442 95.9465C177.741 96.238 178.141 96.4011 178.558 96.4011C178.974 96.4011 179.375 96.238 179.674 95.9465C186.363 88.2959 188.974 77.8292 187.498 67.8435C186.073 58.1931 180.418 49.492 172.82 43.512C170.697 41.8287 168.424 40.3458 166.03 39.0823C163.388 37.7154 160.355 36.1777 157.31 36.3169C155.286 36.4055 155.273 39.5696 157.31 39.481V39.5126Z" fill="#483D3F" fill-opacity="0.65"/>
<path d="M173.829 33.9692C173.766 34.0262 173.608 33.887 173.98 34.0262C174.277 34.1229 174.565 34.248 174.838 34.3995C175.563 34.8172 176.263 35.3045 176.956 35.7727C178.331 36.7156 179.674 37.6712 180.966 38.7659C183.621 40.928 186.042 43.3628 188.192 46.0306C192.479 51.3905 195.329 58.0033 195.651 64.9136C195.881 68.8126 195.205 72.7121 193.677 76.3042C193.478 76.6693 193.426 77.0972 193.531 77.4998C193.637 77.9024 193.892 78.2491 194.245 78.4684C194.607 78.6766 195.036 78.7336 195.439 78.627C195.843 78.5204 196.188 78.2589 196.401 77.8989C199.698 70.438 199.497 61.8445 196.565 54.2887C193.772 47.0937 188.753 40.9997 182.795 36.1967C181.089 34.8165 179.315 33.5239 177.48 32.3239C175.721 31.1785 173.419 29.9825 171.597 31.6911C170.128 33.1023 172.36 35.3424 173.829 33.9313V33.9692Z" fill="#483D3F" fill-opacity="0.65"/>
<path d="M166.452 31.5962L165.702 31.805L166.54 34.8615C169.961 33.742 173.675 33.9497 176.95 35.4437C177.314 35.6438 177.74 35.6963 178.141 35.5903C178.542 35.4844 178.888 35.228 179.106 34.8741C179.314 34.5109 179.37 34.0803 179.264 33.6754C179.158 33.2704 178.898 32.9237 178.539 32.7099C174.524 30.8053 169.943 30.4824 165.702 31.805C165.298 31.9166 164.955 32.1847 164.748 32.5502C164.541 32.9157 164.487 33.3488 164.598 33.7541C164.71 34.1594 164.977 34.5038 165.341 34.7114C165.705 34.9191 166.137 34.9731 166.54 34.8615L167.291 34.6463C167.49 34.5911 167.677 34.4969 167.84 34.3692C168.004 34.2415 168.14 34.0828 168.242 33.9021C168.344 33.7214 168.41 33.5223 168.436 33.3161C168.461 33.1099 168.446 32.9007 168.391 32.7004C168.336 32.5002 168.242 32.3127 168.115 32.1489C167.988 31.985 167.829 31.8478 167.649 31.7453C167.469 31.6428 167.271 31.5768 167.066 31.5512C166.86 31.5257 166.652 31.5409 166.452 31.5962Z" fill="#483D3F" fill-opacity="0.65"/>
<path d="M184.012 32.172C187.746 34.3461 190.956 37.3216 193.412 40.8857C195.868 44.4498 197.508 48.5144 198.217 52.7889C198.613 55.2154 198.685 57.684 198.431 60.1295C198.433 60.5486 198.599 60.95 198.895 61.2464C199.19 61.5427 199.59 61.7099 200.007 61.7116C200.422 61.7019 200.818 61.5321 201.111 61.2375C201.405 60.9429 201.574 60.5461 201.584 60.1295C202.517 50.6374 198.753 40.9238 192.019 34.2856C190.101 32.3937 187.943 30.7639 185.6 29.4383C183.835 28.4385 182.24 31.1722 184.012 32.172Z" fill="#483D3F" fill-opacity="0.65"/>
<path d="M203.961 72.0517C201.475 77.2937 197.289 81.5329 192.088 84.0751C191.731 84.2898 191.471 84.6371 191.366 85.0419C191.261 85.4467 191.319 85.8768 191.527 86.2393C191.743 86.5956 192.089 86.854 192.491 86.9601C192.893 87.0663 193.32 87.0121 193.683 86.8088C199.362 83.9983 203.939 79.3599 206.684 73.6337C206.884 73.2686 206.936 72.8407 206.831 72.4381C206.725 72.0354 206.47 71.6888 206.117 71.4695C205.755 71.263 205.326 71.2069 204.923 71.3133C204.52 71.4198 204.175 71.6802 203.961 72.039V72.0517Z" fill="#483D3F" fill-opacity="0.65"/>
<path d="M165.475 25.0719L164.151 26.2616C163.859 26.5608 163.696 26.9629 163.696 27.3817C163.696 27.8005 163.859 28.2026 164.151 28.5018C164.451 28.7885 164.849 28.9484 165.264 28.9484C165.678 28.9484 166.077 28.7885 166.377 28.5018C169.415 26.067 173.126 24.6288 177.007 24.3822C177.422 24.3741 177.819 24.2048 178.112 23.9099C178.406 23.6149 178.575 23.2172 178.583 22.8002C178.581 22.3811 178.415 21.9797 178.12 21.6833C177.824 21.387 177.424 21.2198 177.007 21.2181C172.298 21.509 167.8 23.2802 164.151 26.2806L166.377 28.4765L167.713 27.3058C168.006 27.0084 168.171 26.6071 168.171 26.1889C168.171 25.7706 168.006 25.3693 167.713 25.0719C167.414 24.7819 167.014 24.6199 166.597 24.6199C166.181 24.6199 165.781 24.7819 165.481 25.0719H165.475Z" fill="#483D3F" fill-opacity="0.65"/>
<path d="M194.674 20.2119C199.844 22.8447 204.283 26.7236 207.592 31.5012C207.811 31.8552 208.157 32.1113 208.558 32.2161C208.96 32.321 209.386 32.2667 209.749 32.0644C210.105 31.8485 210.363 31.5013 210.468 31.0969C210.573 30.6926 210.516 30.2631 210.31 29.9002C206.722 24.6606 201.898 20.3932 196.269 17.4782C195.906 17.2749 195.478 17.2206 195.076 17.3268C194.674 17.433 194.329 17.6914 194.112 18.0477C193.904 18.4102 193.847 18.8402 193.952 19.2451C194.057 19.6499 194.316 19.9971 194.674 20.2119Z" fill="#483D3F" fill-opacity="0.65"/>
<path d="M214.036 55.9024C213.476 65.4518 209.437 74.4611 202.687 81.2148C201.25 82.6513 203.482 84.8914 204.919 83.4549C212.232 76.0875 216.592 66.2794 217.17 55.8961C217.277 53.8585 214.124 53.8648 214.017 55.8961L214.036 55.9024Z" fill="#483D3F" fill-opacity="0.65"/>
<path d="M140.173 49.3907C140.217 49.6249 140.261 49.859 140.299 50.0932C140.301 50.1959 140.316 50.2979 140.343 50.3969C140.309 50.1438 140.309 50.1058 140.343 50.283C140.346 50.3504 140.346 50.418 140.343 50.4855C140.391 50.9225 140.408 51.3623 140.393 51.8017C140.393 51.922 140.393 52.0359 140.393 52.1498C140.393 52.2637 140.393 52.2194 140.393 51.9789C140.393 52.0422 140.393 52.1118 140.362 52.1751C140.326 52.3898 140.273 52.6013 140.204 52.8079C140.16 52.9408 139.984 53.2129 140.204 52.8459C140.154 52.9281 140.122 53.0294 140.072 53.118C140.021 53.2066 139.984 53.2635 139.939 53.3395C139.769 53.6369 140.173 53.08 139.984 53.2888C139.866 53.4195 139.742 53.5441 139.612 53.6622C139.416 53.8394 139.933 53.4407 139.694 53.5989L139.504 53.7255C139.419 53.7769 139.33 53.8234 139.24 53.8647C139.114 53.9343 138.905 53.9406 139.347 53.8267C139.177 53.871 139.019 53.9406 138.855 53.9786C138.691 54.0166 138.508 53.9786 138.987 53.9786H138.773H138.496C138.905 53.9786 138.811 54.0292 138.641 53.9786C138.47 53.928 138.483 53.928 138.407 53.9153C138.332 53.9027 138.805 54.1178 138.502 53.9153C138.439 53.9153 138.382 53.833 138.319 53.8077C138.546 53.9849 138.597 54.0229 138.47 53.9216L138.363 53.8204C138.22 53.6599 138.046 53.5305 137.852 53.4398C137.657 53.3492 137.446 53.2994 137.232 53.2933C137.018 53.2873 136.805 53.3252 136.605 53.4048C136.406 53.4844 136.225 53.6039 136.073 53.7561C135.922 53.9083 135.803 54.0899 135.724 54.2898C135.644 54.4898 135.606 54.7039 135.612 54.919C135.618 55.1341 135.668 55.3457 135.758 55.5409C135.849 55.7361 135.978 55.9108 136.138 56.0542C137.815 57.7185 140.595 57.2439 142.115 55.6049C143.899 53.7065 143.659 50.9095 143.205 48.5301C143.086 48.1337 142.816 47.8 142.454 47.6002C142.093 47.4004 141.668 47.3504 141.27 47.4607C140.874 47.5814 140.539 47.8504 140.335 48.212C140.13 48.5736 140.072 49.0001 140.173 49.4034V49.3907Z" fill="#483D3F" fill-opacity="0.65"/>
<path d="M140.299 49.0428C140.299 49.106 140.255 49.1693 140.23 49.2263C140.16 49.4288 140.23 49.182 140.28 49.1187C140.217 49.2453 140.16 49.3845 140.097 49.511C139.972 49.7551 139.833 49.9917 139.681 50.2198C139.612 50.3274 139.524 50.4286 139.461 50.5362C139.492 50.4792 139.662 50.2831 139.53 50.4476L139.372 50.6311C139.196 50.8399 139 51.0361 138.805 51.2259C138.71 51.3145 138.609 51.3968 138.508 51.4791C138.408 51.5613 138.408 51.5613 138.363 51.5993C138.414 51.555 138.622 51.4095 138.452 51.5297C138.228 51.6891 137.997 51.837 137.758 51.9727C137.632 52.0486 137.506 52.1119 137.374 52.1752L137.203 52.2638C137.008 52.3523 137.247 52.2638 137.311 52.2131C137.033 52.2954 136.768 52.4156 136.491 52.4916L137.701 55.3835C138.547 54.7637 139.188 53.9041 139.542 52.9155C139.855 52.0082 139.892 51.0282 139.65 50.0995L136.768 51.3209L137.802 53.3585L140.526 51.7638C139.8 50.6445 138.882 49.6632 137.815 48.8656L136.598 51.7575C138.138 52.0357 139.726 51.8451 141.158 51.2102C142.589 50.5753 143.799 49.5252 144.631 48.1948C144.836 47.8311 144.892 47.4011 144.786 46.9967C144.68 46.5922 144.421 46.2455 144.063 46.0306C143.7 45.8289 143.273 45.7755 142.871 45.8816C142.47 45.9877 142.124 46.245 141.907 46.6001C141.831 46.7203 141.756 46.8406 141.674 46.9608C141.592 47.081 141.503 47.1886 141.674 46.9925C141.844 46.7963 141.674 46.9925 141.617 47.0557C141.44 47.2617 141.248 47.4541 141.043 47.6316C140.985 47.6877 140.924 47.7405 140.86 47.7898C140.703 47.9227 140.898 47.7455 140.955 47.7202C140.832 47.793 140.714 47.8733 140.602 47.9607C140.359 48.117 140.106 48.2565 139.845 48.3783C139.587 48.4922 139.795 48.3783 139.845 48.3783C140.104 48.2644 139.845 48.3783 139.807 48.3783L139.397 48.5175L138.981 48.6251C138.839 48.6375 138.697 48.663 138.559 48.701C138.616 48.701 138.918 48.701 138.691 48.701H138.458C138.326 48.701 138.2 48.701 138.073 48.701H137.645C137.582 48.701 137.292 48.6567 137.569 48.701L137.449 48.7263C137.083 48.6341 136.696 48.6763 136.358 48.8455C136.02 49.0147 135.753 49.2997 135.606 49.649C135.459 49.9982 135.441 50.3887 135.556 50.7499C135.671 51.111 135.911 51.4191 136.232 51.6183C135.879 51.3462 136.276 51.6563 136.346 51.7132L136.592 51.9347C136.762 52.0929 136.932 52.2638 137.096 52.4346C137.265 52.6026 137.419 52.7846 137.556 52.9788C137.512 52.9345 137.348 52.6371 137.556 52.9788L137.796 53.3459C137.9 53.5254 138.039 53.6825 138.204 53.8082C138.369 53.934 138.556 54.026 138.757 54.0788C138.957 54.1317 139.166 54.1445 139.371 54.1165C139.576 54.0884 139.773 54.0201 139.952 53.9154C140.131 53.8107 140.288 53.6716 140.413 53.5062C140.538 53.3408 140.63 53.1522 140.683 52.9512C140.735 52.7503 140.748 52.5409 140.72 52.3349C140.692 52.129 140.624 51.9307 140.52 51.7512L139.486 49.7072C139.291 49.3797 138.983 49.1348 138.621 49.0183C138.259 48.9019 137.867 48.9218 137.519 49.0744C137.161 49.2238 136.871 49.4996 136.702 49.8494C136.534 50.1992 136.499 50.5989 136.604 50.9728C136.604 51.0361 136.636 51.0994 136.648 51.1563C136.724 51.4727 136.648 50.8842 136.648 51.0677C136.648 51.2513 136.648 51.3525 136.648 51.4981C136.648 51.6436 136.648 51.6309 136.648 51.6879C136.648 51.574 136.705 51.3399 136.648 51.5993C136.618 51.7405 136.58 51.8799 136.535 52.017C136.51 52.0768 136.489 52.138 136.472 52.2005C136.472 52.1309 136.611 51.8967 136.51 52.0802C136.447 52.2094 136.375 52.3342 136.295 52.4536C136.157 52.6688 136.245 52.4536 136.346 52.403C136.299 52.4468 136.256 52.4956 136.22 52.5485C136.138 52.6371 135.741 52.9662 136.113 52.6814C135.792 52.8829 135.553 53.1916 135.438 53.5529C135.322 53.9143 135.338 54.3049 135.482 54.6558C135.629 55.0085 135.899 55.2958 136.241 55.4645C136.583 55.6332 136.974 55.6719 137.342 55.5733C138.722 55.1831 139.989 54.4654 141.034 53.4807C142.08 52.4961 142.875 51.2735 143.351 49.916C143.459 49.5116 143.404 49.0806 143.197 48.7168C142.991 48.3529 142.649 48.0857 142.247 47.9733C141.846 47.8726 141.421 47.9307 141.06 48.1356C140.7 48.3406 140.432 48.6767 140.312 49.0744L140.299 49.0428Z" fill="#483D3F" fill-opacity="0.65"/>
<path d="M159.649 38.171C159.718 38.1805 159.788 38.1805 159.857 38.171C159.63 38.1331 159.58 38.1267 159.7 38.171H159.8C159.971 38.171 159.573 38.0318 159.712 38.1331L159.807 38.1837C159.901 38.247 159.87 38.1837 159.7 38.0951C159.747 38.1469 159.797 38.1955 159.851 38.2407C159.744 38.2407 159.756 37.9432 159.8 38.171C159.845 38.3989 159.756 37.9369 159.8 38.1267C159.8 38.2153 159.845 38.2976 159.857 38.3799L161.408 36.3865C161.643 36.3926 161.867 36.4849 162.039 36.646L162.171 36.8358C162.108 36.7346 162.108 36.7219 162.171 36.8358C162.234 36.9371 162.228 36.975 162.203 36.8991C162.177 36.8232 162.203 36.8421 162.234 37.1016L162.196 37.3547C162.077 37.5889 162.064 37.6395 162.152 37.5003L160.778 38.3103C163.412 38.0145 165.934 37.0759 168.123 35.5765C168.477 35.3583 168.733 35.0116 168.839 34.6086C168.945 34.2055 168.891 33.7771 168.691 33.4123C168.476 33.0535 168.131 32.7931 167.728 32.6866C167.325 32.5802 166.897 32.6362 166.534 32.8428C165.783 33.3694 164.986 33.8248 164.151 34.2033C164.025 34.2603 163.892 34.3109 164.1 34.2033L163.785 34.3236C163.575 34.4037 163.365 34.4797 163.155 34.5514C162.707 34.6969 162.253 34.8235 161.799 34.9311L161.169 35.064L160.841 35.1146H160.778C160.49 35.131 160.211 35.218 159.965 35.3681C159.718 35.5182 159.513 35.7266 159.365 35.9752C159.193 36.2976 159.091 36.6539 159.069 37.0193C159.051 37.6031 159.244 38.1737 159.611 38.6267C159.824 38.9049 160.095 39.1322 160.406 39.292C160.717 39.4518 161.059 39.5401 161.408 39.5506C161.654 39.5574 161.898 39.5032 162.118 39.3928C162.338 39.2824 162.527 39.1192 162.669 38.9178C162.815 38.7244 162.916 38.5008 162.965 38.2633C163.015 38.0258 163.01 37.7802 162.953 37.5446C162.789 36.8097 162.375 36.155 161.783 35.693C161.19 35.2311 160.456 34.9908 159.706 35.0133C159.288 35.0133 158.887 35.18 158.591 35.4767C158.296 35.7734 158.13 36.1758 158.13 36.5953C158.13 37.0149 158.296 37.4173 158.591 37.714C158.887 38.0107 159.288 38.1774 159.706 38.1774L159.649 38.171Z" fill="#483D3F" fill-opacity="0.65"/>
<path d="M165.128 32.7353C164.298 32.4526 163.417 32.3549 162.546 32.4488C161.675 32.5428 160.835 32.8263 160.084 33.2795C159.697 33.5152 159.336 33.7909 159.006 34.1021C158.687 34.3353 158.443 34.6559 158.302 35.0253C158.161 35.3947 158.13 35.7971 158.211 36.1841C158.407 36.7464 158.728 37.2565 159.15 37.6754C159.571 38.0944 160.083 38.4111 160.645 38.6014C160.914 38.6769 161.198 38.6785 161.467 38.6062C161.737 38.5338 161.982 38.3901 162.177 38.1901C162.377 37.9946 162.52 37.7482 162.591 37.4774C162.663 37.2065 162.659 36.9213 162.581 36.6523L161.692 34.4881L159.378 36.279C159.712 36.4427 160.033 36.6332 160.336 36.8485L160.563 37.0067C160.79 37.1713 160.355 36.8359 160.507 36.9624C160.658 37.089 160.79 37.2029 160.923 37.3295C161.188 37.57 161.434 37.8302 161.66 38.1078C161.692 38.1395 161.717 38.1774 161.749 38.2154L161.641 38.0762C161.691 38.1557 161.746 38.2318 161.805 38.304C161.913 38.4559 162.013 38.6141 162.114 38.7723C162.273 39.0397 162.506 39.2544 162.785 39.3895C163.064 39.5246 163.377 39.574 163.684 39.5316C163.99 39.4933 164.277 39.3654 164.51 39.1639C164.744 38.9624 164.912 38.6963 164.996 38.3989C165.102 37.8757 165.091 37.3354 164.964 36.8169C164.816 36.3177 164.56 35.8575 164.214 35.469L162.669 38.1205C162.789 38.1584 162.902 38.2154 163.016 38.247L162.896 38.1964L163.06 38.285C163.249 38.387 163.432 38.4989 163.609 38.6204C163.747 38.7153 163.709 38.69 163.514 38.5381L163.659 38.6584L163.861 38.8419L164.119 39.1077C164.189 39.1899 164.46 39.5443 164.163 39.1456C164.38 39.4938 164.717 39.7504 165.109 39.867C165.451 39.9532 165.811 39.9266 166.137 39.7911C166.495 39.6428 166.786 39.3672 166.955 39.017C167.124 38.6668 167.158 38.2666 167.051 37.8927L166.654 36.627C166.599 36.4268 166.505 36.2393 166.378 36.0755C166.251 35.9116 166.092 35.7744 165.912 35.6719C165.732 35.5694 165.534 35.5034 165.329 35.4778C165.123 35.4522 164.915 35.4675 164.715 35.5228C164.516 35.578 164.329 35.6722 164.166 35.7999C164.002 35.9276 163.866 36.0863 163.763 36.267C163.661 36.4477 163.596 36.6468 163.57 36.853C163.545 37.0592 163.56 37.2684 163.615 37.4687L164.012 38.7343L166.893 37.513C166.053 36.3519 164.871 35.4844 163.514 35.0324C163.18 34.9407 162.825 34.9616 162.504 35.092C162.183 35.2223 161.913 35.4548 161.736 35.7538C161.578 36.0574 161.517 36.4023 161.561 36.7418C161.605 37.0814 161.752 37.3992 161.982 37.6522C161.692 37.3041 161.868 37.5256 161.938 37.6205C162.102 37.8547 161.831 37.2535 161.938 37.6205C162.045 37.9876 161.938 37.3927 161.938 37.5446C161.938 37.6965 161.881 38.0066 161.938 37.5446L164.819 37.1649C163.894 35.622 162.56 34.3669 160.967 33.5389C160.695 33.386 160.385 33.3164 160.075 33.3389C159.764 33.3614 159.467 33.475 159.22 33.6655C158.969 33.8515 158.781 34.1097 158.679 34.4058C158.578 34.7019 158.569 35.0219 158.653 35.3235L159.517 37.5003L161.452 35.5576C161.559 35.5956 161.774 35.7095 161.553 35.5892L161.408 35.5006C161.175 35.3488 161.459 35.5006 161.484 35.5639C161.484 35.5133 161.364 35.4563 161.326 35.412C161.288 35.3677 161.162 35.2095 161.326 35.412C161.49 35.6145 161.326 35.412 161.295 35.3551C161.263 35.2981 161.238 35.2538 161.206 35.2032C161.049 34.9374 161.339 35.5576 161.206 35.2602L160.803 36.8042C160.936 36.628 161.084 36.463 161.244 36.3106C161.326 36.2347 161.421 36.1714 161.496 36.0955C161.396 36.1777 161.156 36.4309 161.496 36.0955C161.683 35.9767 161.877 35.8689 162.076 35.7727C161.686 35.9183 162.322 35.6525 162.076 35.7727L162.354 35.6842C162.556 35.6272 162.757 35.6019 162.984 35.5576C162.839 35.5576 162.474 35.6652 162.984 35.5576H163.312H163.646C163.924 35.5576 163.211 35.4817 163.646 35.5576C163.861 35.6027 164.072 35.664 164.277 35.7411C164.681 35.8501 165.111 35.795 165.474 35.5876C165.838 35.3803 166.105 35.0376 166.219 34.6337C166.319 34.2296 166.26 33.8024 166.055 33.4406C165.849 33.0789 165.513 32.8104 165.115 32.691L165.128 32.7353Z" fill="#483D3F" fill-opacity="0.65"/>
<path d="M158.93 36.7979L159.126 36.5194C159.126 36.5194 159.321 36.2663 159.208 36.4055C159.094 36.5447 159.321 36.2726 159.346 36.241L159.523 36.0322C159.795 35.7219 160.086 35.4282 160.393 35.1526L160.86 34.7539C160.998 34.6337 160.683 34.8805 160.923 34.7096L161.143 34.5451C161.5 34.2966 161.871 34.0684 162.253 33.8616C162.43 33.7604 162.612 33.6655 162.802 33.5769L163.047 33.463C163.319 33.3427 162.94 33.463 163.117 33.463C163.508 33.3301 163.886 33.1782 164.283 33.0706C164.68 32.963 165.084 32.8934 165.487 32.8175C165.727 32.7669 165.235 32.8175 165.487 32.8175L165.828 32.7795C166.055 32.7795 166.282 32.7795 166.509 32.7795C166.927 32.7795 167.328 32.6128 167.623 32.3162C167.919 32.0195 168.085 31.6171 168.085 31.1975C168.085 30.7779 167.919 30.3755 167.623 30.0788C167.328 29.7822 166.927 29.6155 166.509 29.6155C164.47 29.672 162.474 30.2132 160.684 31.1944C158.894 32.1757 157.362 33.569 156.213 35.2601C156.005 35.6234 155.949 36.054 156.055 36.4589C156.161 36.8638 156.422 37.2106 156.78 37.4243C157.144 37.626 157.571 37.6794 157.972 37.5733C158.374 37.4673 158.719 37.2099 158.937 36.8548L158.93 36.7979Z" fill="#483D3F" fill-opacity="0.65"/>
<path d="M167.713 32.9062C168.18 32.5939 168.666 32.3128 169.17 32.0645L169.573 31.881C169.869 31.7418 169.283 31.9886 169.611 31.881C169.939 31.7734 170.134 31.6848 170.405 31.5962C170.919 31.4306 171.444 31.2995 171.975 31.2039C172.118 31.1572 172.267 31.1316 172.417 31.128H172.221H172.442C172.745 31.128 173.041 31.0773 173.337 31.0647C173.755 31.0647 174.156 30.898 174.452 30.6013C174.747 30.3046 174.913 29.9022 174.913 29.4827C174.913 29.0631 174.747 28.6607 174.452 28.364C174.156 28.0673 173.755 27.9006 173.337 27.9006C170.768 27.9928 168.273 28.7846 166.118 30.1914C165.798 30.4216 165.575 30.7637 165.493 31.1506C165.412 31.5374 165.478 31.9409 165.678 32.2814C165.878 32.622 166.198 32.875 166.575 32.9907C166.951 33.1063 167.357 33.0761 167.713 32.9062Z" fill="#483D3F" fill-opacity="0.65"/>
<path d="M168.905 27.331C168.949 27.388 169.081 27.6095 168.987 27.4259C168.966 27.3701 168.938 27.317 168.905 27.2677C168.955 27.3247 168.999 27.5905 168.962 27.3816C168.962 27.3184 168.905 27.0462 168.962 27.3247C169.018 27.6031 169.018 26.9387 168.962 27.2867C168.962 27.3247 168.905 27.6348 168.962 27.2867C168.962 27.2487 169.081 26.964 168.911 27.3627L166.755 27.9259C166.938 28.0398 166.692 27.8816 166.654 27.8373C166.616 27.793 166.748 27.9195 166.786 27.9575C166.95 28.1094 166.711 27.9005 166.711 27.8499C166.711 27.7993 166.805 28.0081 166.824 28.0398C166.919 28.179 166.742 27.7487 166.774 27.9132C166.782 27.9736 166.797 28.033 166.818 28.0904C166.875 28.2486 166.818 27.7677 166.818 27.9385C166.818 28.0081 166.818 28.0904 166.818 28.16C166.818 28.5709 166.977 28.9659 167.262 29.2611C167.546 29.5564 167.934 29.7289 168.344 29.742C169.244 29.7135 170.102 29.3475 170.747 28.7162C171.392 28.085 171.779 27.2341 171.83 26.3312L169.46 27.698C170.647 28.528 171.98 29.1268 173.388 29.4636C173.587 29.5188 173.796 29.5341 174.001 29.5085C174.206 29.4829 174.405 29.417 174.585 29.3145C174.765 29.2119 174.923 29.0748 175.05 28.9109C175.178 28.747 175.271 28.5596 175.326 28.3593C175.381 28.1591 175.397 27.9499 175.371 27.7437C175.346 27.5375 175.28 27.3384 175.178 27.1577C175.076 26.977 174.939 26.8183 174.776 26.6906C174.612 26.5629 174.426 26.4687 174.226 26.4134C173.93 26.3375 173.634 26.2552 173.337 26.154L172.877 25.9895C172.681 25.9135 172.877 25.9895 172.953 25.9895C172.866 25.9601 172.782 25.9242 172.7 25.8819C172.124 25.6111 171.574 25.2892 171.055 24.92C170.815 24.7742 170.54 24.6971 170.26 24.6971C169.98 24.6971 169.705 24.7742 169.466 24.92C169.234 25.0643 169.041 25.264 168.904 25.5015C168.768 25.7389 168.692 26.0066 168.684 26.2805C168.741 25.768 168.684 26.1603 168.653 26.2805C168.583 26.5527 168.829 25.9705 168.653 26.2236C168.608 26.2932 168.552 26.3691 168.514 26.4451C168.709 26.0844 168.621 26.3059 168.514 26.4451C168.779 26.3059 168.249 26.6982 168.514 26.4451C168.432 26.4757 168.356 26.5184 168.287 26.5716C168.533 26.4767 168.577 26.4577 168.426 26.5084L168.344 26.578L168.18 26.6159C168.451 26.5843 168.508 26.5716 168.337 26.5843L169.914 28.1663C169.946 27.5724 169.817 26.9809 169.54 26.4549C169.264 25.9288 168.85 25.488 168.344 25.1795C167.983 24.969 167.554 24.9102 167.15 25.0156C166.746 25.1211 166.4 25.3824 166.187 25.7427C165.889 26.3553 165.778 27.043 165.869 27.7188C165.96 28.3946 166.248 29.0282 166.698 29.5395C166.994 29.8336 167.394 29.9985 167.811 29.9985C168.228 29.9985 168.627 29.8336 168.924 29.5395C169.21 29.2373 169.369 28.8363 169.369 28.4194C169.369 28.0026 169.21 27.6016 168.924 27.2994L168.905 27.331Z" fill="#483D3F" fill-opacity="0.65"/>
<path d="M173.766 28.0081C178.056 27.1072 182.526 27.9174 186.231 30.2673C187.952 31.3494 189.535 28.6156 187.82 27.5335C183.378 24.7648 178.036 23.841 172.928 24.958C172.728 25.0133 172.541 25.1074 172.378 25.2351C172.215 25.3628 172.078 25.5216 171.976 25.7022C171.874 25.8829 171.808 26.0821 171.783 26.2882C171.757 26.4944 171.772 26.7036 171.827 26.9039C171.882 27.1042 171.976 27.2916 172.103 27.4555C172.231 27.6194 172.389 27.7565 172.569 27.859C172.749 27.9616 172.947 28.0275 173.153 28.0531C173.358 28.0787 173.567 28.0634 173.766 28.0081Z" fill="#483D3F" fill-opacity="0.65"/>
<path d="M177.505 28.9827L182.99 31.2798C183.293 31.3606 183.612 31.3497 183.908 31.2485C184.204 31.1473 184.464 30.9603 184.654 30.7111C184.844 30.4619 184.956 30.1618 184.977 29.8485C184.997 29.5353 184.925 29.223 184.768 28.9511C184.543 28.6135 184.213 28.3599 183.829 28.2297L178.344 25.9452C178.144 25.8896 177.935 25.8742 177.73 25.8998C177.524 25.9255 177.326 25.9917 177.146 26.0946C176.966 26.1975 176.808 26.3352 176.682 26.4996C176.555 26.664 176.462 26.852 176.408 27.0527C176.351 27.2554 176.336 27.4675 176.363 27.6763C176.39 27.8851 176.459 28.0862 176.566 28.2677C176.79 28.6073 177.121 28.8631 177.505 28.9954V28.9827Z" fill="#483D3F" fill-opacity="0.65"/>
<path d="M182.215 28.2676C182.912 28.6254 183.708 28.7424 184.478 28.6005C185.249 28.4587 185.951 28.0659 186.477 27.483C186.665 27.2839 186.799 27.0399 186.867 26.774C186.934 26.5082 186.933 26.2294 186.863 25.9643C186.793 25.6991 186.656 25.4564 186.466 25.2592C186.276 25.062 186.039 24.917 185.777 24.8378C183.602 24.0931 181.299 23.8 179.008 23.9763C176.716 24.1525 174.485 24.7944 172.448 25.863C172.119 26.0875 171.887 26.4285 171.798 26.8177C171.709 27.2068 171.77 27.6153 171.969 27.9613C172.168 28.3072 172.489 28.5649 172.869 28.6828C173.249 28.8006 173.66 28.7699 174.018 28.5967C175.692 27.7368 177.523 27.2303 179.399 27.1084C181.275 26.9865 183.156 27.2518 184.926 27.888L184.226 25.2428C184.226 25.2428 183.898 25.5909 184.068 25.4326L183.923 25.5086C184.024 25.4706 184.024 25.4643 183.923 25.5086C183.823 25.5529 184.125 25.5845 183.778 25.5086C184.043 25.5592 183.551 25.4263 183.778 25.5086C183.415 25.3085 182.988 25.256 182.587 25.3619C182.186 25.4679 181.841 25.7242 181.622 26.0781C181.414 26.4406 181.356 26.8707 181.461 27.2755C181.566 27.6803 181.826 28.0275 182.183 28.2423L182.215 28.2676Z" fill="#483D3F" fill-opacity="0.65"/>
<path d="M173.791 24.5024L170.412 26.578L172.303 29.0649C172.748 28.5793 173.217 28.1168 173.709 27.6791L174.094 27.35L174.27 27.2108C174.27 27.2108 174.573 26.9766 174.377 27.1222C174.182 27.2677 174.377 27.1222 174.441 27.0716L174.667 26.907C174.8 26.8058 174.939 26.7109 175.077 26.6159C175.619 26.2429 176.181 25.9007 176.761 25.5908C177.044 25.4389 177.328 25.2934 177.618 25.1605C177.779 25.109 177.934 25.0389 178.078 24.9517C177.952 25.0529 177.858 25.0466 178.078 24.9517L178.343 24.8504C178.733 24.7283 179.066 24.4701 179.283 24.1227C179.44 23.8512 179.514 23.5389 179.494 23.2253C179.474 22.9118 179.361 22.6114 179.171 22.3622C178.98 22.1131 178.72 21.9267 178.423 21.8266C178.126 21.7265 177.807 21.7173 177.505 21.8003C174.683 22.8805 172.146 24.5974 170.09 26.8184C169.828 27.0905 169.671 27.4481 169.649 27.8262C169.627 28.2043 169.741 28.5778 169.97 28.8788C170.199 29.1798 170.528 29.3885 170.897 29.4667C171.266 29.545 171.651 29.4878 171.982 29.3054L175.361 27.2171C175.722 27.0048 175.985 26.6572 176.09 26.2507C176.196 25.8443 176.137 25.4123 175.925 25.0497C175.714 24.6872 175.367 24.4239 174.962 24.3177C174.557 24.2115 174.127 24.2711 173.766 24.4834L173.791 24.5024Z" fill="#483D3F" fill-opacity="0.65"/>
<path d="M168.136 22.218L166.679 23.4836L169.151 25.3821C170.661 23.2491 172.663 21.5147 174.987 20.3268C177.31 19.1389 179.885 18.5329 182.492 18.5604C184.522 18.5604 184.522 15.3963 182.492 15.3963C179.342 15.3818 176.235 16.137 173.441 17.5967C170.646 19.0564 168.248 21.1768 166.452 23.7747C166.26 24.1063 166.195 24.4969 166.269 24.8732C166.343 25.2495 166.552 25.5857 166.856 25.8187C167.159 26.0469 167.534 26.1595 167.913 26.1363C168.292 26.1131 168.65 25.9557 168.924 25.6921L170.38 24.4265C170.672 24.1273 170.836 23.7252 170.836 23.3064C170.836 22.8877 170.672 22.4856 170.38 22.1864C170.081 21.8982 169.682 21.7374 169.267 21.7374C168.853 21.7374 168.454 21.8982 168.154 22.1864L168.136 22.218Z" fill="#483D3F" fill-opacity="0.65"/>
<path d="M187.536 18.592C189.922 17.7201 192.166 16.4982 194.194 14.966C194.54 14.7459 194.797 14.4095 194.919 14.0168C195.029 13.6068 194.973 13.1698 194.762 12.8018C194.346 12.169 193.305 11.6944 192.605 12.2323C191.668 12.948 190.682 13.5972 189.655 14.175C189.138 14.4597 188.614 14.7319 188.078 14.9786L187.675 15.1558L187.473 15.2444C187.681 15.1622 187.7 15.1495 187.542 15.2444L186.723 15.5672C186.517 15.6166 186.324 15.707 186.154 15.833C185.984 15.9589 185.841 16.1178 185.734 16.3003C185.626 16.4828 185.556 16.6851 185.528 16.8952C185.5 17.1053 185.515 17.3189 185.57 17.5234C185.626 17.7278 185.722 17.9189 185.853 18.0854C185.984 18.2518 186.147 18.3901 186.332 18.4922C186.517 18.5942 186.721 18.6579 186.931 18.6794C187.141 18.7009 187.353 18.6798 187.555 18.6173L187.536 18.592Z" fill="#483D3F" fill-opacity="0.65"/>
<path d="M125.381 59.1993C125.464 59.2977 125.52 59.4153 125.546 59.5414C125.571 59.6675 125.564 59.7979 125.526 59.9207C125.463 60.1295 125.482 60.1232 125.589 59.9207C125.64 59.8827 125.703 59.8131 125.753 59.7688C126.074 59.5431 126.419 59.3542 126.781 59.2056C127.601 58.7817 128.439 58.383 129.303 58.0286C134.66 55.8226 140.478 54.9792 146.238 55.5733C146.656 55.5716 147.056 55.4044 147.351 55.1081C147.646 54.8118 147.813 54.4104 147.815 53.9913C147.805 53.5747 147.636 53.1779 147.342 52.8833C147.049 52.5887 146.653 52.4189 146.238 52.4093C141.497 51.932 136.709 52.3615 132.128 53.6749C129.868 54.3291 127.673 55.1913 125.57 56.2504C124.555 56.763 123.502 57.2882 122.885 58.2944C122.536 58.7647 122.373 59.3472 122.425 59.9307C122.478 60.5142 122.742 61.058 123.168 61.4584C123.468 61.7451 123.867 61.905 124.281 61.905C124.695 61.905 125.094 61.7451 125.394 61.4584C125.686 61.1592 125.849 60.7571 125.849 60.3384C125.849 59.9196 125.686 59.5175 125.394 59.2183L125.381 59.1993Z" fill="#483D3F" fill-opacity="0.65"/>
<path d="M135.52 44.0752C133.305 46.6451 131.534 49.569 130.28 52.7257C130.17 53.1301 130.223 53.562 130.429 53.9272C130.634 54.2923 130.975 54.561 131.377 54.6747C131.781 54.7722 132.206 54.712 132.566 54.5064C132.927 54.3007 133.196 53.965 133.319 53.5673C133.351 53.4787 133.389 53.3965 133.42 53.3079C133.49 53.156 133.452 53.2193 133.42 53.3079C133.496 53.137 133.565 52.9662 133.647 52.7953C133.798 52.4536 133.956 52.1182 134.126 51.7891C134.467 51.0994 134.839 50.4286 135.236 49.7705C135.633 49.1124 136.037 48.5049 136.497 47.91L136.819 47.4607C136.964 47.2582 136.674 47.6379 136.819 47.4607C136.875 47.3848 136.932 47.3088 136.995 47.2392C137.239 46.9313 137.491 46.6275 137.752 46.328C138.048 46.0309 138.214 45.628 138.214 45.2079C138.214 44.7878 138.048 44.3849 137.752 44.0878C137.456 43.7908 137.054 43.6239 136.636 43.6239C136.217 43.6239 135.816 43.7908 135.52 44.0878V44.0752Z" fill="#483D3F" fill-opacity="0.65"/>
<path d="M134.076 50.0489C133.67 50.792 133.334 51.5716 133.073 52.3776C132.82 53.2027 132.647 54.0504 132.556 54.9089L132.613 55.3265C132.66 55.5274 132.758 55.7127 132.897 55.8644C133.099 56.1407 133.388 56.3411 133.717 56.4339C134.053 56.5169 134.408 56.4892 134.728 56.3548C135.048 56.2203 135.317 55.9863 135.495 55.6872C135.57 55.5607 135.652 55.4468 135.74 55.3265L135.495 55.6493C135.68 55.4153 135.892 55.2031 136.125 55.0165L135.81 55.2632C136.076 55.0676 136.361 54.9 136.661 54.7633L136.283 54.9279C136.625 54.7818 136.986 54.6818 137.355 54.6304L136.932 54.6874C137.259 54.6462 137.589 54.6462 137.916 54.6874L137.5 54.6304C137.713 54.664 137.924 54.7147 138.13 54.7823C138.532 54.8914 138.961 54.8369 139.323 54.6308C139.686 54.4247 139.952 54.0835 140.066 53.6812C140.169 53.277 140.113 52.8482 139.909 52.4847C139.704 52.1213 139.367 51.8515 138.969 51.7322C137.812 51.3842 136.573 51.4281 135.444 51.857C134.315 52.2859 133.358 53.0759 132.72 54.1052L135.652 54.9089V54.8266L135.595 55.2506C135.732 54.2386 136.001 53.2492 136.396 52.308L136.239 52.6877C136.384 52.346 136.547 52.0043 136.724 51.6752C136.842 51.4958 136.922 51.2941 136.96 51.0825C136.998 50.8709 136.992 50.6538 136.943 50.4444C136.895 50.235 136.804 50.0378 136.677 49.8648C136.55 49.6918 136.389 49.5466 136.204 49.4381C136.019 49.3296 135.814 49.2601 135.602 49.2337C135.389 49.2074 135.173 49.2248 134.968 49.2849C134.762 49.345 134.571 49.4466 134.405 49.5834C134.24 49.7202 134.104 49.8893 134.007 50.0805L134.076 50.0489Z" fill="#483D3F" fill-opacity="0.65"/>
<path d="M140.488 54.4216C143.381 53.3596 146.209 52.1256 148.956 50.726C149.313 50.5112 149.573 50.164 149.678 49.7592C149.782 49.3543 149.725 48.9243 149.517 48.5618C149.299 48.2067 148.954 47.9493 148.552 47.8433C148.151 47.7372 147.724 47.7905 147.36 47.9923C146.074 48.6504 144.769 49.2705 143.445 49.8527L143.016 50.0426L142.733 50.1628H142.682L141.68 50.5741L139.656 51.3525C139.25 51.4632 138.905 51.7311 138.696 52.0973C138.488 52.4634 138.433 52.8977 138.543 53.3047C138.653 53.7117 138.92 54.058 139.285 54.2675C139.65 54.4769 140.083 54.5324 140.488 54.4216Z" fill="#483D3F" fill-opacity="0.65"/>
<path d="M144.385 48.9984C144.459 49.2185 144.512 49.4452 144.542 49.6755L144.492 49.2578C144.527 49.5669 144.527 49.879 144.492 50.1881L144.549 49.7641C144.502 50.1125 144.408 50.453 144.271 50.7766L144.429 50.3969C144.307 50.6831 144.15 50.9531 143.962 51.2006L144.208 50.8842C144.024 51.1193 143.812 51.3317 143.578 51.517L143.899 51.2702L143.805 51.3398C143.459 51.5575 143.202 51.8918 143.08 52.2827C143.024 52.4834 143.009 52.6931 143.034 52.8998C143.06 53.1065 143.125 53.3061 143.228 53.4872C143.331 53.6683 143.468 53.8273 143.632 53.955C143.795 54.0828 143.983 54.1768 144.183 54.2317C144.386 54.2883 144.598 54.3035 144.807 54.2763C145.016 54.2492 145.218 54.1802 145.4 54.0735C145.917 53.7015 146.368 53.246 146.737 52.7256C147.037 52.2912 147.268 51.8132 147.424 51.3081C147.761 50.2806 147.761 49.1717 147.424 48.1441C147.308 47.75 147.049 47.4136 146.699 47.2012C146.428 47.0378 146.114 46.9604 145.798 46.979C145.482 46.9977 145.18 47.1116 144.93 47.3059C144.679 47.5001 144.494 47.7656 144.396 48.0676C144.299 48.3696 144.295 48.694 144.385 48.9984Z" fill="#483D3F" fill-opacity="0.65"/>
<path d="M168.88 101.25C168.955 101.015 169.031 100.781 169.119 100.547C169.157 100.433 169.207 100.319 169.251 100.205C169.113 100.56 169.251 100.205 169.289 100.129C169.493 99.68 169.723 99.2426 169.977 98.8195C170.109 98.6044 170.241 98.4019 170.38 98.1867L170.594 97.8893C170.632 97.8387 170.891 97.5223 170.651 97.8134C170.966 97.4337 171.282 97.054 171.628 96.7059C171.975 96.3579 172.354 96.0288 172.732 95.7124C172.984 95.5036 172.511 95.8643 172.801 95.6555L173.104 95.4403C173.306 95.3011 173.514 95.1619 173.734 95.0353C174.142 94.787 174.563 94.5609 174.995 94.3582C175.033 94.3582 175.405 94.1747 175.197 94.2633C174.989 94.3519 175.367 94.2 175.411 94.181C175.655 94.084 175.907 93.9954 176.168 93.9152C176.571 93.8036 176.913 93.5359 177.12 93.171C177.326 92.8061 177.38 92.3738 177.268 91.9694C177.157 91.5649 176.89 91.2213 176.527 91.0142C176.163 90.8071 175.733 90.7535 175.33 90.8651C173.107 91.5788 171.087 92.8183 169.441 94.479C167.795 96.1397 166.571 98.1731 165.872 100.408C165.765 100.811 165.82 101.241 166.025 101.604C166.23 101.967 166.569 102.235 166.969 102.351C167.373 102.455 167.801 102.397 168.163 102.191C168.525 101.984 168.793 101.644 168.911 101.243L168.88 101.25Z" fill="#483D3F" fill-opacity="0.65"/>
<path d="M169.554 99.3891V99.4207L169.769 98.617L170.014 98.3006L170.33 98.0538L170.702 97.8956L171.124 97.8387H171.093L171.515 97.8956H171.452L171.83 98.0538H171.773L172.095 98.3006L172.051 98.2563L172.297 98.5791L172.454 98.9588L172.511 99.3764V99.3448L172.454 99.7688V99.7371L172.291 100.11C172.304 100.081 172.321 100.053 172.341 100.028L172.095 100.351L172.127 100.313L171.811 100.566C171.835 100.543 171.863 100.526 171.893 100.515L171.515 100.674C171.58 100.648 171.648 100.629 171.717 100.617L171.294 100.674C171.87 100.616 172.449 100.592 173.028 100.604C173.621 100.604 174.214 100.604 174.813 100.648C175.019 100.649 175.223 100.608 175.413 100.529C175.604 100.449 175.777 100.333 175.922 100.186C176.218 99.8886 176.385 99.4865 176.389 99.0663C176.378 98.6503 176.208 98.2544 175.915 97.9601C175.622 97.6658 175.227 97.4955 174.813 97.4843C173.677 97.402 172.537 97.402 171.402 97.4843C170.848 97.4897 170.314 97.6966 169.901 98.0665C169.622 98.3363 169.439 98.6902 169.38 99.0742C169.321 99.4582 169.389 99.851 169.573 100.193C169.732 100.462 169.957 100.686 170.226 100.845C170.495 101.003 170.8 101.09 171.111 101.098C171.332 101.102 171.551 101.061 171.756 100.979C171.961 100.896 172.147 100.773 172.303 100.617C172.413 100.511 172.507 100.389 172.581 100.256C172.703 99.9957 172.776 99.7144 172.795 99.427C172.796 99.2191 172.755 99.0131 172.676 98.8208C172.597 98.6286 172.481 98.4539 172.335 98.307C172.039 98.0113 171.639 97.8453 171.222 97.8453C170.805 97.8453 170.404 98.0113 170.109 98.307L169.857 98.6297C169.717 98.8721 169.643 99.147 169.642 99.427L169.554 99.3891Z" fill="#483D3F" fill-opacity="0.65"/>
<path d="M174.119 98.8132C174.388 98.2517 174.713 97.7194 175.09 97.2249L174.844 97.5476C175.299 96.9636 175.824 96.4386 176.408 95.9846L176.086 96.2377C176.334 96.0476 176.59 95.8702 176.855 95.7061C177.206 95.4937 177.465 95.1574 177.581 94.7632C177.664 94.4594 177.656 94.1373 177.556 93.8384C177.456 93.5394 177.27 93.2772 177.02 93.0855C176.771 92.8937 176.47 92.7811 176.157 92.762C175.843 92.743 175.531 92.8185 175.26 92.9787C173.595 93.9902 172.254 95.4593 171.395 97.2122C171.193 97.5855 171.137 98.0209 171.238 98.4335C171.351 98.8374 171.619 99.1802 171.982 99.3875C172.346 99.5948 172.776 99.6499 173.18 99.541C173.575 99.4305 173.912 99.1694 174.119 98.8132Z" fill="#483D3F" fill-opacity="0.65"/>
<path d="M187.612 84.7458C187.738 84.3978 187.864 84.0497 187.996 83.708C188.129 83.3663 187.845 84.0561 187.996 83.746L188.11 83.4929C188.185 83.3283 188.267 83.1638 188.356 83.0056C188.444 82.8474 188.538 82.6892 188.639 82.5437C188.74 82.3981 188.91 82.2779 188.608 82.5437C188.657 82.4896 188.704 82.4325 188.747 82.3728C188.866 82.2399 188.992 82.107 189.125 81.9868C189.383 81.759 188.967 82.0817 189.068 82.0248L189.251 81.9045L189.409 81.8159L189.541 81.7463L189.301 81.8476C189.43 81.7771 189.572 81.732 189.718 81.7147L189.938 81.6641C190.216 81.6071 189.522 81.6641 189.806 81.6641H190.241C190.518 81.6641 189.831 81.5818 190.102 81.6641L190.31 81.7083C190.377 81.7247 190.442 81.7459 190.506 81.7716C190.506 81.7716 190.077 81.5628 190.38 81.7273L190.556 81.8286C190.764 81.9551 190.316 81.5944 190.43 81.7273C190.473 81.7825 190.522 81.8334 190.575 81.8792C190.657 81.9678 190.607 81.8792 190.436 81.6957L190.518 81.8096C190.729 82.1721 191.074 82.4358 191.479 82.5426C191.883 82.6494 192.313 82.5906 192.675 82.3791C193.036 82.1677 193.298 81.8209 193.405 81.415C193.511 81.0091 193.453 80.5774 193.242 80.2149C192.063 78.3798 189.686 78.1267 187.851 79.0632C186.016 79.9998 185.228 82.0754 184.585 83.8789C184.476 84.2833 184.53 84.7144 184.736 85.0791C184.941 85.4438 185.281 85.7128 185.682 85.8279C186.086 85.9286 186.512 85.8698 186.874 85.6637C187.235 85.4576 187.504 85.1199 187.624 84.7205L187.612 84.7458Z" fill="#483D3F" fill-opacity="0.65"/>
<path d="M190.077 85.4293C190.43 84.8787 190.796 84.3345 191.18 83.803C191.37 83.5372 191.559 83.2714 191.76 83.0056C191.798 82.9487 192.126 82.512 191.88 82.8411L192.183 82.4551C193.003 81.4299 193.866 80.4449 194.774 79.4999L192.139 77.9621C192.315 77.5381 192.17 77.8799 192.139 77.9621L192.006 78.2406C191.931 78.4114 191.842 78.576 191.754 78.7405C191.564 79.088 191.353 79.4239 191.124 79.7467C191.01 79.9175 190.89 80.082 190.771 80.2466C190.651 80.4111 190.922 80.0631 190.802 80.2466C190.682 80.4301 190.676 80.4048 190.607 80.4807C190.359 80.7852 190.096 81.0767 189.819 81.354C189.557 81.6217 189.281 81.8752 188.993 82.1134L188.759 82.3032C189.043 82.0944 188.482 82.5373 188.759 82.3032C188.595 82.4234 188.431 82.5437 188.261 82.6576C187.613 83.094 186.925 83.4669 186.206 83.7713C185.85 83.9783 185.59 84.3168 185.481 84.7142C185.37 85.1262 185.427 85.5653 185.638 85.9355C185.851 86.2894 186.188 86.5495 186.584 86.6633C186.994 86.7508 187.421 86.6949 187.795 86.5051C191.152 85.0105 193.795 82.2582 195.159 78.8354C195.251 78.4984 195.23 78.1403 195.099 77.8165C194.968 77.4928 194.734 77.2214 194.434 77.0446C194.133 76.8796 193.788 76.8147 193.448 76.859C193.108 76.9034 192.791 77.0547 192.542 77.2914C190.604 79.3087 188.866 81.5108 187.353 83.8662C187.146 84.2295 187.089 84.6601 187.195 85.065C187.301 85.4699 187.562 85.8167 187.921 86.0304C188.284 86.2306 188.711 86.2831 189.112 86.1771C189.513 86.0712 189.859 85.8148 190.077 85.4609V85.4293Z" fill="#483D3F" fill-opacity="0.65"/>
<path d="M190.638 83.0626C190.871 82.3222 191.111 81.5882 191.395 80.8668C191.464 80.6769 191.262 81.1642 191.395 80.8668L191.527 80.5757C191.603 80.4175 191.685 80.2529 191.773 80.1011C191.861 79.9492 191.968 79.7593 192.069 79.5948L192.221 79.367L192.315 79.2404C192.385 79.1392 192.353 79.1772 192.214 79.3607C192.328 79.3037 192.448 79.0886 192.536 78.9937C192.656 78.8629 192.782 78.7383 192.914 78.6203C192.946 78.6203 193.097 78.5064 193.103 78.4621L192.977 78.557L193.097 78.4747C193.227 78.381 193.362 78.2944 193.501 78.2153L193.759 78.0824C194.005 77.9558 193.507 78.171 193.69 78.0824C193.851 78.0202 194.015 77.9674 194.182 77.9242L194.415 77.8736C194.604 77.823 194.037 77.8736 194.32 77.8736C194.604 77.8736 194.699 77.8736 194.894 77.8736C195.312 77.8719 195.711 77.7047 196.007 77.4084C196.302 77.112 196.469 76.7106 196.47 76.2916C196.462 75.8745 196.294 75.4768 196 75.1819C195.706 74.8869 195.31 74.7176 194.894 74.7095C193.963 74.6985 193.042 74.9015 192.202 75.303C191.362 75.7045 190.624 76.2937 190.045 77.0256C188.91 78.566 188.083 80.3133 187.612 82.1704C187.503 82.5748 187.558 83.0058 187.765 83.3696C187.972 83.7335 188.313 84.0007 188.715 84.1131C189.117 84.2154 189.543 84.158 189.903 83.9528C190.264 83.7477 190.532 83.4106 190.651 83.012L190.638 83.0626Z" fill="#483D3F" fill-opacity="0.65"/>
<path d="M197.416 71.5075C196.947 72.9298 196.378 74.317 195.714 75.6587C195.018 77.0789 194.239 78.4566 193.381 79.7846C193.173 80.1471 193.115 80.5771 193.22 80.982C193.325 81.3868 193.584 81.734 193.942 81.9488C194.305 82.1505 194.732 82.2039 195.134 82.0978C195.536 81.9917 195.881 81.7344 196.098 81.3793C197.913 78.5594 199.376 75.5267 200.455 72.3491C200.564 71.9447 200.51 71.5136 200.305 71.1489C200.099 70.7842 199.759 70.5152 199.358 70.4C198.955 70.2977 198.527 70.3558 198.165 70.5622C197.804 70.7685 197.535 71.1072 197.416 71.5075Z" fill="#483D3F" fill-opacity="0.65"/>
<path d="M197.788 83.6384C199.771 79.2286 203.023 75.515 207.126 72.9755C207.313 72.8758 207.479 72.7391 207.612 72.5736C207.746 72.4082 207.844 72.2174 207.903 72.0127C207.961 71.808 207.978 71.5935 207.951 71.3823C207.925 71.171 207.857 70.9672 207.75 70.7831C207.644 70.599 207.501 70.4384 207.331 70.3109C207.161 70.1834 206.968 70.0916 206.761 70.0411C206.555 69.9905 206.341 69.9823 206.132 70.0167C205.923 70.0512 205.722 70.1278 205.543 70.2418C200.969 73.0496 197.325 77.154 195.071 82.0374C194.871 82.4024 194.819 82.8304 194.924 83.233C195.03 83.6356 195.285 83.9823 195.638 84.2016C196 84.4081 196.429 84.4642 196.832 84.3577C197.235 84.2513 197.58 83.9908 197.794 83.632L197.788 83.6384Z" fill="#483D3F" fill-opacity="0.65"/>
<path d="M203.305 75.3929C203.835 74.7415 204.438 74.1534 205.102 73.64L204.78 73.8868C205.334 73.46 205.927 73.0871 206.552 72.7731C206.905 72.5641 207.165 72.2264 207.277 71.8302C207.332 71.6295 207.348 71.4198 207.322 71.2131C207.297 71.0064 207.231 70.8067 207.129 70.6257C207.026 70.4446 206.889 70.2856 206.725 70.1578C206.561 70.0301 206.374 69.936 206.174 69.8811C205.764 69.7866 205.335 69.8427 204.963 70.0393C203.467 70.8011 202.143 71.863 201.073 73.1591C200.789 73.4638 200.625 73.862 200.613 74.2791C200.612 74.4871 200.652 74.6932 200.731 74.8856C200.81 75.0779 200.926 75.2526 201.072 75.3997C201.219 75.5467 201.393 75.6632 201.585 75.7425C201.776 75.8217 201.982 75.862 202.189 75.8612C202.396 75.8619 202.601 75.8214 202.793 75.7422C202.984 75.6629 203.158 75.5463 203.305 75.3992V75.3929Z" fill="#483D3F" fill-opacity="0.65"/>
<path d="M192.643 12.9916C193.784 10.5553 195.928 8.77712 198.11 7.29635C200.355 5.72529 202.846 4.54248 205.48 3.79691C210.612 2.41106 216.199 3.16411 220.473 6.42307C220.835 6.63182 221.263 6.68976 221.666 6.58441C222.07 6.47905 222.416 6.21885 222.63 5.85987C222.831 5.49514 222.884 5.06669 222.778 4.66362C222.672 4.26055 222.416 3.91387 222.062 3.69567C214.086 -2.39196 203.021 -0.335329 195.455 5.32831C193.242 6.96096 191.105 8.85939 189.926 11.3906C189.724 11.7546 189.67 12.1825 189.774 12.5855C189.879 12.9885 190.134 13.3356 190.487 13.5548C190.849 13.763 191.278 13.82 191.681 13.7134C192.085 13.6069 192.43 13.3453 192.643 12.9853V12.9916Z" fill="#483D3F" fill-opacity="0.65"/>
<path d="M231.066 15.7759C234.835 20.8209 236.864 26.9602 236.848 33.2658C236.832 39.5713 234.772 45.7002 230.978 50.726C228.507 53.9363 225.398 56.5956 221.848 58.5348C220.07 59.5157 221.659 62.2494 223.437 61.2686C229.744 57.8009 234.7 52.2973 237.501 45.6494C240.303 39.0016 240.785 31.5992 238.871 24.6416C237.844 20.8666 236.12 17.3186 233.79 14.1812C233.57 13.8285 233.225 13.5732 232.824 13.4673C232.423 13.3615 231.997 13.4131 231.633 13.6117C231.275 13.8254 231.014 14.1722 230.908 14.5771C230.802 14.982 230.858 15.4126 231.066 15.7759Z" fill="#483D3F" fill-opacity="0.65"/>
<path d="M221.69 59.484C221.735 59.2989 221.792 59.1171 221.861 58.9398L221.703 59.3195C221.783 59.1284 221.882 58.946 221.999 58.7753C222.075 58.6614 222.226 58.5348 221.898 58.8955L221.98 58.8006C222.055 58.7137 222.135 58.6313 222.22 58.5538C222.277 58.4905 222.567 58.2564 222.321 58.4526C222.075 58.6487 222.378 58.4146 222.441 58.3703C222.628 58.2521 222.824 58.1484 223.027 58.0602L222.649 58.2184C222.98 58.0795 223.327 57.9838 223.683 57.9337L223.267 57.9906C223.576 57.9527 223.89 57.9527 224.2 57.9906L223.777 57.9337C224.043 57.9763 224.303 58.0484 224.553 58.1488L224.174 57.9906C224.329 58.0586 224.478 58.1368 224.622 58.2247C224.983 58.4335 225.412 58.4914 225.815 58.3861C226.219 58.2807 226.564 58.0205 226.778 57.6615C226.981 57.2972 227.035 56.8682 226.929 56.4647C226.823 56.0611 226.566 55.7144 226.211 55.4973C223.487 53.7571 219.339 55.4594 218.645 58.6614C218.536 59.0667 218.592 59.4987 218.801 59.8625C219.01 60.2262 219.354 60.4918 219.758 60.6009C220.162 60.71 220.592 60.6536 220.955 60.4442C221.317 60.2347 221.582 59.8893 221.69 59.484Z" fill="#483D3F" fill-opacity="0.65"/>
<path d="M220.341 59.8574L220.423 59.7309L220.328 59.8574C220.366 59.8574 220.461 59.6992 220.486 59.6676C220.511 59.636 220.707 59.4335 220.827 59.3196C220.946 59.2056 221.009 59.1993 221.016 59.1614C220.833 59.3006 220.795 59.3322 220.89 59.2626L221.003 59.174C221.142 59.0854 221.281 58.9968 221.419 58.9209C221.558 58.8449 221.791 58.788 221.854 58.6994L221.709 58.7627L221.842 58.7121L222.075 58.6361C222.232 58.5843 222.392 58.5421 222.554 58.5096L222.794 58.4589C223.134 58.3893 222.415 58.4906 222.794 58.4589C223.121 58.4367 223.45 58.4367 223.777 58.4589C223.874 58.4715 223.971 58.4715 224.067 58.4589C223.96 58.4589 223.714 58.402 223.985 58.4589C224.149 58.4969 224.307 58.5285 224.465 58.5728C224.622 58.6171 224.893 58.769 224.975 58.7374C224.9 58.7374 224.641 58.5792 224.906 58.7374L225.089 58.8513C225.232 58.9282 225.371 59.0127 225.505 59.1044L225.625 59.193L225.499 59.0981C225.499 59.0981 225.7 59.2753 225.719 59.2942C226.015 59.5913 226.417 59.7582 226.835 59.7582C227.254 59.7582 227.655 59.5913 227.951 59.2942C228.247 58.9972 228.413 58.5943 228.413 58.1742C228.413 57.7541 228.247 57.3512 227.951 57.0541C227.212 56.4051 226.346 55.9189 225.408 55.6271C224.47 55.3353 223.481 55.2443 222.506 55.36C221.531 55.4757 220.591 55.7955 219.746 56.2988C218.902 56.8021 218.173 57.4777 217.605 58.2817C217.396 58.6446 217.338 59.0758 217.444 59.4812C217.55 59.8866 217.812 60.2334 218.172 60.446C218.535 60.6482 218.961 60.7026 219.363 60.5977C219.764 60.4928 220.11 60.2368 220.328 59.8828L220.341 59.8574Z" fill="#483D3F" fill-opacity="0.65"/>
<path d="M214.944 63.3443C214.851 63.5024 214.747 63.6546 214.635 63.7999L214.887 63.4835C214.67 63.754 214.423 63.9982 214.15 64.2112L214.471 63.9644C214.249 64.1377 214.011 64.2882 213.759 64.4137L215.65 66.9007C215.965 66.6159 216.281 66.3501 216.634 66.0843L216.312 66.3375C217 65.8015 217.72 65.309 218.469 64.863C218.82 64.6498 219.077 64.3104 219.187 63.9138C219.243 63.711 219.258 63.499 219.231 63.2903C219.204 63.0816 219.136 62.8805 219.03 62.6988C218.825 62.3408 218.487 62.0791 218.09 61.9711C217.68 61.8637 217.243 61.9204 216.873 62.1293C215.652 62.8728 214.496 63.7197 213.418 64.6605C213.272 64.8075 213.156 64.9821 213.077 65.1744C212.998 65.3666 212.957 65.5726 212.958 65.7806C212.965 66.1277 213.085 66.4631 213.298 66.7361C213.495 67.0152 213.783 67.2167 214.112 67.3057C214.523 67.4001 214.955 67.344 215.329 67.1475C216.294 66.6477 217.098 65.8843 217.649 64.9453C217.857 64.574 217.914 64.1362 217.807 63.724C217.695 63.3278 217.435 62.9901 217.081 62.7811C216.715 62.5793 216.285 62.5315 215.884 62.6482C215.492 62.764 215.158 63.021 214.944 63.3696V63.3443Z" fill="#483D3F" fill-opacity="0.65"/>
<path d="M174.977 98.6044C175.146 98.646 175.319 98.6715 175.494 98.6804H175.601C175.773 98.6727 175.944 98.6494 176.112 98.6107L176.212 98.5791C176.371 98.5257 176.525 98.4601 176.673 98.3829H176.717C176.834 98.3036 176.945 98.2169 177.051 98.1235C177.081 98.1038 177.109 98.0804 177.133 98.0539C177.221 97.9463 177.31 97.8324 177.391 97.7185L177.423 97.6742C177.534 97.4967 177.599 97.2945 177.612 97.0857C177.655 96.8755 177.644 96.6577 177.581 96.4529C177.534 96.252 177.436 96.0667 177.297 95.915C177.188 95.7428 177.036 95.6029 176.856 95.51L176.477 95.3454C176.204 95.2758 175.918 95.2758 175.645 95.3454L175.267 95.51C175.032 95.6453 174.837 95.8393 174.699 96.0732C174.691 96.0914 174.68 96.1084 174.668 96.1238L174.914 95.8011C174.883 95.8433 174.847 95.8816 174.806 95.915L175.122 95.6682C175.081 95.6995 175.037 95.725 174.989 95.7441L175.368 95.5859C175.313 95.6066 175.255 95.6214 175.197 95.6302L175.613 95.5733H175.462L175.878 95.6302H175.784C175.58 95.563 175.362 95.552 175.153 95.5986C174.949 95.6178 174.752 95.6809 174.575 95.7835C174.397 95.8862 174.244 96.026 174.125 96.1934C173.987 96.3448 173.891 96.5305 173.848 96.7313L173.791 97.1553C173.789 97.4357 173.863 97.7114 174.006 97.9526L174.252 98.2754C174.444 98.4681 174.683 98.6077 174.945 98.6804L174.977 98.6044Z" fill="#483D3F" fill-opacity="0.65"/>
<path d="M200.096 79.1771C200.422 78.5185 200.795 77.8841 201.212 77.2787C201.319 77.1205 201.432 76.9623 201.546 76.8104C201.659 76.6585 201.634 76.7155 201.546 76.8104C201.615 76.7345 201.672 76.6459 201.741 76.5636C201.975 76.2788 202.214 76.0004 202.466 75.7346C202.967 75.1961 203.507 74.6948 204.08 74.2349C204.181 74.1653 204.251 74.0957 204.08 74.2349C204.169 74.1779 204.244 74.1083 204.333 74.045L204.761 73.7413C205.077 73.5261 205.392 73.3173 205.732 73.1085C205.911 73.0038 206.068 72.8647 206.193 72.6993C206.318 72.5339 206.41 72.3453 206.463 72.1443C206.515 71.9434 206.528 71.7339 206.5 71.528C206.472 71.3221 206.404 71.1238 206.3 70.9443C206.196 70.7648 206.057 70.6076 205.892 70.4819C205.727 70.3561 205.539 70.2642 205.339 70.2113C205.139 70.1584 204.93 70.1456 204.725 70.1737C204.52 70.2017 204.322 70.27 204.144 70.3747C201.227 72.0585 198.864 74.5617 197.347 77.5761C197.135 77.9386 197.076 78.3706 197.182 78.7771C197.287 79.1836 197.55 79.5312 197.911 79.7435C198.272 79.9558 198.703 80.0154 199.108 79.9092C199.513 79.803 199.859 79.5396 200.071 79.1771H200.096Z" fill="#483D3F" fill-opacity="0.65"/>
<path d="M202.655 73.8426C202.693 73.7159 202.737 73.5912 202.788 73.4692L202.63 73.8426C202.755 73.5494 202.916 73.2731 203.109 73.0199L202.863 73.3363C203.073 73.0699 203.312 72.8279 203.576 72.6149L203.254 72.8617C203.542 72.6453 203.852 72.4627 204.181 72.3175L203.803 72.4757C204.116 72.346 204.445 72.2567 204.78 72.2099L204.358 72.2669C204.601 72.2448 204.846 72.2448 205.089 72.2669C205.296 72.2677 205.502 72.2274 205.693 72.1482C205.885 72.069 206.059 71.9525 206.206 71.8054C206.352 71.6583 206.468 71.4836 206.547 71.2913C206.626 71.099 206.666 70.8929 206.665 70.6849C206.661 70.2659 206.497 69.8647 206.205 69.5648C205.898 69.2844 205.504 69.121 205.089 69.1028C203.874 69.062 202.679 69.4242 201.69 70.1335C200.701 70.8427 199.972 71.8594 199.616 73.0263C199.561 73.2265 199.546 73.4357 199.572 73.6419C199.597 73.8481 199.663 74.0472 199.765 74.2279C199.867 74.4086 200.004 74.5673 200.167 74.695C200.33 74.8227 200.517 74.9169 200.717 74.9721C200.916 75.0274 201.125 75.0427 201.33 75.0171C201.535 74.9915 201.734 74.9256 201.914 74.823C202.094 74.7205 202.252 74.5834 202.379 74.4195C202.506 74.2556 202.6 74.0682 202.655 73.8679V73.8426Z" fill="#483D3F" fill-opacity="0.65"/>
<path d="M219.294 64.0213L219.483 63.7682C219.578 63.6417 219.641 63.5594 219.483 63.7302C219.616 63.5594 219.748 63.3949 219.887 63.2303C220.158 62.9013 220.436 62.5975 220.719 62.2621C221.28 61.6438 221.871 61.0546 222.491 60.4966C222.787 60.2245 223.121 59.965 223.411 59.7056L223.657 59.5094C223.777 59.4145 223.865 59.3512 223.695 59.4778L224.206 59.0981C224.898 58.5995 225.616 58.1369 226.356 57.7122C226.535 57.6075 226.691 57.4685 226.817 57.3031C226.942 57.1376 227.034 56.9491 227.086 56.7481C227.139 56.5471 227.152 56.3377 227.124 56.1318C227.096 55.9259 227.028 55.7275 226.923 55.548C226.819 55.3685 226.681 55.2114 226.516 55.0856C226.351 54.9599 226.163 54.8679 225.963 54.815C225.762 54.7622 225.554 54.7494 225.349 54.7774C225.144 54.8055 224.946 54.8738 224.767 54.9785C221.546 56.8593 218.754 59.3965 216.571 62.4267C216.359 62.7884 216.3 63.2195 216.405 63.6253C216.51 64.0311 216.771 64.3784 217.132 64.5909C217.495 64.791 217.922 64.8435 218.323 64.7375C218.724 64.6316 219.07 64.3752 219.288 64.0213H219.294Z" fill="#483D3F" fill-opacity="0.65"/>
<path d="M219.446 60.4903C219.446 60.4523 219.389 60.1296 219.414 60.3954C219.44 60.6611 219.414 60.3511 219.414 60.2878C219.408 60.1845 219.408 60.081 219.414 59.9777C219.414 59.7499 219.414 60.022 219.414 60.0853C219.477 59.9015 219.525 59.7132 219.559 59.5221L219.597 59.4208L219.54 59.5537C219.54 59.5537 219.648 59.3449 219.666 59.3196C219.705 59.2408 219.75 59.1646 219.799 59.0918C219.83 59.0412 219.982 58.7754 219.862 58.9905C219.742 59.2057 219.893 58.9526 219.938 58.9019L220.114 58.7121C220.253 58.5729 220.398 58.4463 220.543 58.3198C220.688 58.1932 220.543 58.3198 220.474 58.3767C220.564 58.3213 220.65 58.26 220.732 58.1932C221.026 57.9967 221.332 57.8172 221.646 57.6553L222.157 57.4085L222.296 57.3452C222.081 57.4465 222.397 57.3136 222.441 57.2946C223.218 56.9924 224.022 56.7677 224.843 56.6238C225.245 56.5101 225.586 56.2414 225.792 55.8762C225.997 55.5111 226.051 55.0792 225.94 54.6748C225.82 54.2771 225.552 53.941 225.191 53.736C224.831 53.5311 224.406 53.473 224.004 53.5737C223.08 53.7359 222.175 53.9968 221.306 54.352C220.412 54.6874 219.564 55.1361 218.784 55.6873C217.956 56.2686 217.279 57.0412 216.81 57.9401C216.283 58.9812 216.14 60.1761 216.407 61.3129C216.52 61.7154 216.787 62.0571 217.149 62.2642C217.511 62.4714 217.94 62.5274 218.342 62.4204C218.741 62.3009 219.079 62.0315 219.284 61.6683C219.49 61.3051 219.548 60.8763 219.446 60.4713V60.4903Z" fill="#483D3F" fill-opacity="0.65"/>
<path d="M215.001 70.6911C216.852 66.2266 220.196 62.5498 224.458 60.294C224.669 60.21 224.858 60.0814 225.015 59.9171C225.171 59.7528 225.291 59.5566 225.365 59.3419C225.439 59.1272 225.466 58.8989 225.444 58.6727C225.423 58.4465 225.353 58.2277 225.239 58.0311C225.125 57.8344 224.971 57.6647 224.786 57.5333C224.602 57.4019 224.391 57.3121 224.168 57.2698C223.946 57.2275 223.717 57.2339 223.497 57.2884C223.277 57.3429 223.072 57.4442 222.895 57.5856C218.163 60.115 214.428 64.1826 212.302 69.1217C212.104 69.4871 212.053 69.9146 212.158 70.3168C212.264 70.7189 212.518 71.0656 212.87 71.2859C213.232 71.4941 213.661 71.5511 214.064 71.4445C214.467 71.338 214.813 71.0765 215.026 70.7164L215.001 70.6911Z" fill="#483D3F" fill-opacity="0.65"/>
<path d="M194.68 14.8837C194.331 15.1234 193.964 15.335 193.583 15.5165L193.28 15.6621C193.576 15.5482 193.103 15.7507 193.28 15.6621C192.984 15.776 192.864 15.8203 192.649 15.8836C192.259 16.0017 191.861 16.0947 191.458 16.162C191.817 16.1304 191.08 16.2253 191.458 16.162H191.13C190.903 16.162 190.682 16.162 190.462 16.162V19.3261C192.078 19.2166 193.629 18.6458 194.932 17.6808L193.04 15.2001L192.303 15.8203C192.008 16.118 191.842 16.5206 191.842 16.9404C191.851 17.2891 191.971 17.626 192.183 17.9022C192.418 18.201 192.752 18.4059 193.124 18.4801C193.496 18.5543 193.882 18.493 194.213 18.3072L197.788 16.529C197.994 16.4047 198.169 16.2353 198.3 16.0334C198.432 15.8316 198.516 15.6026 198.547 15.3635C198.578 15.1244 198.555 14.8814 198.479 14.6526C198.403 14.4238 198.277 14.2151 198.11 14.0421C197.766 13.6838 197.329 13.4301 196.848 13.3103C196.367 13.1905 195.863 13.2095 195.392 13.365C194.994 13.4844 194.657 13.7541 194.452 14.1175C194.248 14.481 194.191 14.9098 194.295 15.314C194.408 15.7163 194.675 16.0575 195.038 16.2636C195.4 16.4697 195.829 16.5242 196.231 16.4151C196.294 16.4151 196.559 16.3392 196.287 16.3772C196.155 16.3772 196.13 16.3772 196.218 16.3772C196.306 16.3772 196.281 16.3772 196.029 16.3772C196.231 16.4215 195.972 16.3455 195.909 16.3139C196.18 16.4531 195.67 16.0734 195.878 16.3139L196.199 13.8269L192.624 15.6051L194.516 18.0921L195.222 17.5352C195.368 17.3894 195.484 17.2159 195.563 17.0247C195.642 16.8335 195.683 16.6284 195.682 16.4215C195.673 16.0727 195.554 15.7359 195.342 15.4596C195.113 15.1519 194.779 14.9401 194.404 14.8653C194.029 14.7905 193.64 14.858 193.312 15.0546C193.06 15.2463 192.797 15.4217 192.523 15.5798C192.397 15.6558 192.265 15.7254 192.132 15.7887L191.931 15.8836C192.296 15.7507 191.742 15.9785 191.931 15.8836C191.654 15.9883 191.372 16.0771 191.086 16.1494L190.594 16.2506C190.55 16.2506 190.298 16.3012 190.531 16.2506C190.764 16.2 190.436 16.2506 190.411 16.2506C189.993 16.2506 189.592 16.4173 189.297 16.714C189.001 17.0107 188.835 17.4131 188.835 17.8326C188.835 18.2522 189.001 18.6546 189.297 18.9513C189.592 19.248 189.993 19.4147 190.411 19.4147C192.484 19.4376 194.514 18.8189 196.224 17.6428C196.403 17.5381 196.56 17.399 196.685 17.2336C196.81 17.0682 196.902 16.8796 196.955 16.6786C197.007 16.4777 197.02 16.2683 196.992 16.0624C196.964 15.8564 196.896 15.6581 196.792 15.4786C196.688 15.2991 196.549 15.142 196.384 15.0162C196.219 14.8904 196.031 14.7985 195.831 14.7456C195.631 14.6927 195.422 14.6799 195.217 14.708C195.012 14.736 194.814 14.8043 194.636 14.9091L194.68 14.8837Z" fill="#483D3F" fill-opacity="0.65"/>
<path d="M190.884 16.143L192.492 16.1113C192.734 16.1077 192.971 16.0489 193.187 15.9395C193.403 15.83 193.591 15.6727 193.738 15.4794C193.884 15.2862 193.985 15.0621 194.032 14.824C194.08 14.5859 194.072 14.3402 194.011 14.1053C193.785 13.4068 193.405 12.7683 192.9 12.237C192.395 11.7058 191.777 11.2954 191.092 11.0362C190.725 10.9408 190.337 10.981 189.998 11.1494C189.658 11.3179 189.39 11.6034 189.244 11.9536C189.097 12.3039 189.08 12.6955 189.197 13.0569C189.314 13.4183 189.557 13.7254 189.881 13.9218C190.942 14.421 192.096 14.6905 193.267 14.7128C193.611 14.7065 193.944 14.5902 194.217 14.3807C194.491 14.1713 194.69 13.8797 194.787 13.5484C194.878 13.2124 194.856 12.8556 194.725 12.5332C194.594 12.2108 194.361 11.9405 194.062 11.7639L192.095 10.916L191.3 13.8649C191.779 13.8614 192.255 13.9428 192.706 14.1053L192.006 11.4602C191.463 12.1449 190.765 12.6895 189.97 13.0485L192.126 15.2127C192.289 14.9012 192.38 14.5571 192.393 14.2057C192.406 13.8542 192.341 13.5043 192.202 13.1814C192.054 12.8475 191.836 12.5496 191.563 12.3082C191.29 12.0668 190.968 11.8876 190.619 11.7829C189.358 11.4285 188.135 12.074 186.975 12.5486C186.613 12.6577 186.302 12.8915 186.095 13.2088C185.889 13.5261 185.801 13.9063 185.846 14.2825C185.895 14.6601 186.078 15.0072 186.362 15.2596C186.646 15.512 187.012 15.6527 187.391 15.6557C189.005 15.6114 190.127 14.08 191.174 13.0422L194.459 9.87815L192.233 7.64434L188.816 11.2956C188.651 11.4377 188.517 11.6124 188.423 11.8088C188.329 12.0052 188.276 12.2191 188.268 12.437C188.26 12.6549 188.297 12.8721 188.376 13.075C188.456 13.2779 188.576 13.4621 188.73 13.616C188.884 13.77 189.068 13.8904 189.27 13.9696C189.472 14.0489 189.689 14.0853 189.906 14.0765C190.123 14.0678 190.336 14.0142 190.531 13.9189C190.727 13.8237 190.901 13.6889 191.042 13.5231L192.303 12.498C192.711 12.2424 193.09 11.9409 193.431 11.5994C192.977 11.9664 192.448 11.7576 191.849 10.9666C191.849 10.7704 191.849 10.7641 191.849 10.9666C191.849 11.1691 191.849 11.3906 191.849 11.5994V13.3017C191.844 13.6563 191.958 14.0023 192.171 14.285C192.385 14.5676 192.686 14.7707 193.028 14.8622C193.369 14.9537 193.731 14.9283 194.057 14.7901C194.382 14.6519 194.652 14.4087 194.825 14.099L197.384 9.66933L194.472 8.85933C194.569 10.1017 194.538 11.3509 194.377 12.5866H197.529C197.529 12.4663 197.529 12.3524 197.529 12.2322C197.529 12.3651 197.529 12.3271 197.529 12.131C197.529 11.9348 197.649 11.6753 197.719 11.4475C197.763 11.2936 197.829 11.1467 197.914 11.0109C198.023 10.7925 198.145 10.5812 198.28 10.3781L195.808 10.6945C195.581 10.4983 195.751 9.83386 195.808 9.75792L198.69 10.9792L199.471 8.31512H196.464C196.676 9.86216 196.496 11.438 195.941 12.8967C195.832 13.3002 195.886 13.7305 196.092 14.0942C196.297 14.4579 196.637 14.7256 197.038 14.8394C197.44 14.9436 197.868 14.8871 198.23 14.6818C198.592 14.4764 198.861 14.1383 198.98 13.7383C199.687 11.7297 199.867 9.57222 199.503 7.47348C199.4 7.14922 199.197 6.8666 198.922 6.66724C198.647 6.46787 198.316 6.3623 197.977 6.36606C197.633 6.37237 197.3 6.48873 197.027 6.69817C196.754 6.90762 196.554 7.19921 196.458 7.53043L195.669 10.1946C195.571 10.5641 195.61 10.9568 195.778 11.3C195.946 11.6432 196.232 11.9136 196.584 12.0613C196.932 12.2153 197.324 12.236 197.687 12.1194C198.049 12.0028 198.357 11.7571 198.551 11.4285C198.801 10.961 198.89 10.4239 198.806 9.90017C198.722 9.3764 198.468 8.89502 198.084 8.53027C197.912 8.3632 197.705 8.23708 197.478 8.16125C197.251 8.08543 197.01 8.06183 196.773 8.09222C196.535 8.1226 196.308 8.20619 196.107 8.33679C195.906 8.46739 195.737 8.64165 195.613 8.84668C194.857 9.97384 194.421 11.2864 194.352 12.6435C194.355 13.0621 194.522 13.4626 194.817 13.7585C195.112 14.0545 195.511 14.2222 195.928 14.2256C196.343 14.2175 196.74 14.0482 197.034 13.7532C197.327 13.4583 197.496 13.0606 197.504 12.6435C197.665 11.4078 197.697 10.1586 197.599 8.91629C197.591 8.57252 197.475 8.24 197.268 7.96614C197.061 7.69229 196.773 7.49108 196.445 7.39121C196.11 7.3044 195.756 7.32832 195.436 7.45942C195.116 7.59052 194.846 7.82181 194.667 8.11895L192.101 12.5486L195.064 13.289C195.064 11.7133 195.461 9.12511 193.463 8.59355C192.366 8.30879 191.571 9.11246 190.777 9.73261L188.841 11.2703L191.042 13.5231L194.459 9.8655C194.619 9.72207 194.748 9.54742 194.838 9.35223C194.928 9.15704 194.978 8.9454 194.984 8.73028C194.99 8.51516 194.952 8.30107 194.873 8.10112C194.794 7.90116 194.675 7.71954 194.523 7.56737C194.371 7.41519 194.19 7.29567 193.991 7.2161C193.792 7.13653 193.579 7.0986 193.364 7.10462C193.15 7.11064 192.939 7.16049 192.745 7.25111C192.55 7.34174 192.376 7.47124 192.233 7.63168L189.396 10.3781L188.047 11.6753L187.303 12.4031C187.271 12.4031 187.069 12.5802 187.069 12.6119C187.069 12.536 187.341 12.498 187.366 12.498L187.788 15.6051C188.305 15.3963 188.816 15.1684 189.339 14.9723C189.466 14.9495 189.589 14.909 189.705 14.852C189.85 14.7255 189.781 14.89 189.705 14.8204C189.629 14.7508 189.554 14.7634 189.503 14.7191C189.362 14.5753 189.272 14.3886 189.248 14.1881C189.224 13.9877 189.267 13.785 189.371 13.6117C189.195 13.9136 189.124 14.2656 189.168 14.6124C189.213 14.9593 189.371 15.2816 189.617 15.5289C189.863 15.7762 190.184 15.9345 190.53 15.9792C190.876 16.0239 191.226 15.9525 191.527 15.7759C192.552 15.278 193.463 14.5711 194.2 13.7003C194.389 13.5017 194.523 13.2581 194.591 12.9926C194.659 12.7272 194.658 12.4487 194.589 12.1836C194.519 11.9186 194.383 11.6757 194.194 11.4782C194.005 11.2807 193.768 11.1351 193.507 11.0552C192.781 10.8243 192.024 10.7049 191.262 10.7008C190.924 10.7145 190.599 10.835 190.332 11.0452C190.066 11.2555 189.873 11.5446 189.781 11.8715C189.687 12.2069 189.707 12.5639 189.837 12.8867C189.967 13.2096 190.2 13.4801 190.499 13.656L192.467 14.504L193.267 11.5551C192.651 11.5535 192.04 11.4309 191.47 11.1944L190.26 14.0863C190.001 13.9788 190.499 14.2572 190.55 14.2952C190.348 14.1306 190.663 14.4281 190.688 14.4534C190.928 14.6875 190.689 14.3268 190.815 14.6242C190.865 14.7128 190.915 14.8014 190.96 14.8963C190.903 14.7508 190.909 14.7698 190.96 14.947L192.479 12.9473L190.871 12.9789C190.453 12.9789 190.052 13.1456 189.757 13.4423C189.461 13.739 189.295 14.1414 189.295 14.5609C189.295 14.9805 189.461 15.3829 189.757 15.6796C190.052 15.9763 190.453 16.143 190.871 16.143H190.884Z" fill="#483D3F" fill-opacity="0.65"/>
<path d="M202.498 2.99317C201.619 3.48619 200.832 4.12852 200.171 4.8916C199.441 5.75177 198.866 6.73236 198.469 7.78986C198.36 8.1951 198.415 8.62695 198.622 8.99181C198.829 9.35666 199.17 9.62509 199.572 9.73892C199.983 9.84628 200.419 9.78957 200.789 9.58071C201.127 9.35099 201.381 9.01805 201.514 8.6315C201.546 8.53658 201.584 8.44799 201.622 8.35306L201.464 8.73275C201.71 8.14449 202.032 7.5913 202.422 7.08745L202.176 7.40385C202.567 6.9009 203.018 6.4482 203.519 6.05597L203.198 6.30276C203.481 6.08208 203.78 5.88324 204.093 5.70792C204.445 5.49869 204.703 5.16076 204.812 4.76504C204.922 4.35302 204.866 3.9139 204.654 3.54371C204.437 3.18861 204.091 2.93126 203.69 2.82519C203.288 2.71912 202.861 2.77248 202.498 2.97419V2.99317Z" fill="#483D3F" fill-opacity="0.65"/>
<path d="M132.922 57.8261C119.892 71.035 106.727 84.113 93.4277 97.0603C80.1283 110.008 66.7008 122.795 53.145 135.421C45.5033 142.555 37.8196 149.645 30.0939 156.69C28.5933 158.063 30.8253 160.297 32.3259 158.93C46.0288 146.426 59.6034 133.782 73.0499 120.999C86.4964 108.217 99.8104 95.3053 112.992 82.2652C120.419 74.912 127.805 67.5123 135.148 60.0663C136.579 58.6172 134.353 56.3833 132.922 57.8325V57.8261Z" fill="#483D3F" fill-opacity="0.65"/>
<path d="M200.594 6.82176C200.411 6.4041 201.451 5.80294 201.886 5.6827C203.141 5.37966 204.416 5.16817 205.701 5.04989L214.105 3.89818C214.95 3.78428 215.411 2.69584 215.203 1.94913C215.084 1.55052 214.816 1.21344 214.455 1.00827C214.094 0.803099 213.669 0.745693 213.267 0.848041C209.799 1.32476 206.346 1.79936 202.908 2.27186C201.42 2.48069 199.881 2.80975 198.765 3.89185C198.162 4.45768 197.751 5.19949 197.59 6.0125C197.43 6.8255 197.527 7.66862 197.87 8.42277C198.084 8.78174 198.43 9.04195 198.833 9.1473C199.237 9.25265 199.665 9.19471 200.026 8.98597C200.38 8.76776 200.637 8.42108 200.742 8.01801C200.848 7.61494 200.795 7.1865 200.594 6.82176Z" fill="#483D3F" fill-opacity="0.65"/>
<path d="M215.896 3.27794C219.61 3.42981 222.649 6.13191 225.146 8.63783C228.058 11.565 230.619 14.8252 232.775 18.3515C233.834 20.079 236.558 18.4907 235.498 16.7504C233.104 12.8348 230.244 9.22655 226.98 6.00535C223.941 3.01216 220.316 0.310065 215.902 0.113894C213.872 0.0379569 213.878 3.202 215.902 3.27794H215.896Z" fill="#483D3F" fill-opacity="0.65"/>
</g>
<defs>
<clipPath id="clip0_761_3967">
<rect width="240" height="196" fill="white"/>
</clipPath>
</defs>
</svg>
