<svg width="338" height="72" viewBox="0 0 338 72" fill="none" xmlns="http://www.w3.org/2000/svg">
<circle cx="36" cy="36" r="32" fill="white"/>
<path d="M43.8635 54.9986H27.8949C26.1897 54.8649 22.3369 53.8111 20.5672 50.6658C18.3551 46.7341 18.6038 43.0315 20.5672 40.0744C22.059 37.8277 26.374 36.9451 28.517 37.0254H41.5823C46.2139 36.4637 48.1495 37.8277 49.3938 39.1918C53.5415 43.5246 52.9119 50.0402 50.4924 52.6078C48.5568 54.6619 44.9004 55.0254 43.8635 54.9986Z" fill="#483D3F"/>
<path d="M40.1654 40.6006H30.7713C27.1053 40.6006 25.8451 37.4843 25.3868 36.5609C24.4703 33.6755 26.0742 30.4438 27.7926 28.5971C31.6878 23.7495 33.9905 22.6338 36.5109 23.0954C48.1963 25.6346 47.4974 31.3671 45.6644 33.0984C43.8314 34.8297 45.7789 36.3301 44.8624 38.4076C44.1292 40.0696 41.4256 40.5621 40.1654 40.6006Z" fill="#BF6E52"/>
<path d="M46.3313 20.6667C46.3313 26.5599 43.8846 25.7357 40.9075 25.7357C37.3964 27.0154 34.4746 23.3324 34.4746 20.3678C34.4746 18.5428 37.3515 17.8018 38.7492 16.8319C39.6219 16.2264 39.7631 15 40.9075 15C43.8846 15 46.3313 19.3333 46.3313 20.6667Z" fill="#ECD8A3"/>
<path d="M260 59.1288C259.3 59.1288 258.8 58.5288 258.8 57.9288L260.3 30.1288C260.3 29.8288 260.4 29.5288 260.7 29.3288C261.4 28.7288 262.3 28.2288 263.4 27.8288C264.7 27.3288 266.2 26.9288 267.8 26.6288C269.4 26.3288 270.8 26.2288 272.3 26.2288C276.4 26.2288 279.4 27.3288 281.4 29.6288C283.4 31.8288 284.4 34.8288 284.4 38.5288C284.4 41.3288 283.9 43.6288 282.8 45.4288C281.8 47.2288 280.4 48.6288 278.6 49.5288C276.8 50.4288 274.9 50.8288 272.8 50.8288C271.8 50.8288 270.8 50.7288 270 50.5288C269.1 50.3288 268.1 51.1288 268.3 52.0288L269.3 57.7288C269.4 58.4288 268.9 59.1288 268.1 59.1288H260ZM272 44.3288C273.4 44.3288 274.5 43.8288 275.3 42.8288C276.1 41.8288 276.5 40.4288 276.5 38.6288C276.5 36.5288 276 34.9288 275 33.9288C274 32.8288 272.8 32.3288 271.3 32.3288C270.3 32.3288 269.4 32.5288 268.5 32.8288C268.1 33.0288 267.8 33.4288 267.8 33.8288V40.2288C267.8 41.7288 268.2 42.7288 269.1 43.3288C270 44.0288 271 44.3288 272 44.3288Z" fill="white"/>
<path d="M292.6 50.9288C291.9 50.9288 291.4 50.3288 291.4 49.6288L293.5 29.3288C293.6 28.7288 294.1 28.2288 294.7 28.2288H300.1C300.7 28.2288 301.2 28.7288 301.3 29.3288L303.4 49.6288C303.5 50.3288 302.9 50.9288 302.2 50.9288H292.6Z" fill="white"/>
<path d="M216.7 50.8289C214.9 50.8289 213.3 50.5289 211.9 49.9289C210.5 49.3289 209.4 48.4289 208.6 47.0289C207.8 45.7289 207.4 44.0289 207.4 41.8289V34.0289C207.4 33.4289 206.9 32.8289 206.2 32.8289H204.7C204.1 32.8289 203.5 32.3289 203.5 31.6289V28.4289C203.5 27.8289 204 27.2289 204.7 27.2289H206.4C207 27.2289 207.6 26.7289 207.6 26.0289V21.8289C207.6 21.2289 208.1 20.6289 208.8 20.6289H214C214.6 20.6289 215.2 21.1289 215.2 21.8289V26.1289C215.2 26.7289 215.7 27.3289 216.4 27.3289H220.4C221 27.3289 221.6 27.8289 221.6 28.5289V31.8289C221.6 32.4289 221.1 33.0289 220.4 33.0289H216.4C215.8 33.0289 215.2 33.5289 215.2 34.2289V41.7289C215.2 42.9289 215.5 43.7289 216 44.1289C216.6 44.5289 217.3 44.8289 218.1 44.8289C218.6 44.8289 219.1 44.8289 219.7 44.7289C220.4 44.6289 221.3 45.0289 221.5 45.7289L222.2 48.9289C222.3 49.4289 222.1 49.9289 221.6 50.1289C221 50.3289 220.4 50.5289 219.7 50.7289C218.7 50.7289 217.7 50.8289 216.7 50.8289Z" fill="white"/>
<path d="M179.7 50.5288C179 50.5288 178.4 49.9288 178.5 49.2288L179.7 39.4288C179.8 38.7288 179.2 38.1288 178.5 38.1288H177.1C176.5 38.1288 175.9 37.6288 175.9 36.9288V33.3288C175.9 32.7288 176.4 32.1288 177.1 32.1288H178.6C179.2 32.1288 179.8 31.6288 179.8 30.9288V29.4288C179.8 27.2288 180.2 25.5288 181.1 24.1288C182 22.7288 183.2 21.6288 184.8 21.0288C186.4 20.4288 188.1 20.0288 190 20.0288C191.3 20.0288 192.7 20.2288 194.2 20.5288C195.4 20.7288 196.5 21.1288 197.4 21.5288C197.9 21.7288 198.1 22.3288 197.9 22.8288L196.9 26.0288C196.7 26.7288 195.8 27.0288 195.1 26.8288C194.8 26.7288 194.5 26.6288 194.2 26.5288C193.3 26.3288 192.5 26.2288 191.6 26.2288C188.7 26.2288 187.2 27.4288 187.2 29.8288V31.1288C187.2 31.7288 187.7 32.3288 188.4 32.3288H193.8C194.4 32.3288 195 32.8288 195 33.5288V37.1288C195 37.7288 194.5 38.3288 193.8 38.3288H188.8C188.1 38.3288 187.5 38.9288 187.6 39.6288L188.8 49.4288C188.9 50.1288 188.3 50.7288 187.6 50.7288H179.7V50.5288Z" fill="white"/>
<path d="M165.5 52.2289C165 52.6289 164.3 52.5289 163.8 52.0289L162.2 50.1289C161.8 49.7289 161.2 49.6289 160.7 49.8289C159.4 50.4289 157.9 50.7289 156.1 50.7289C153.2 50.7289 150.9 49.9289 149.3 48.4289C147.7 46.9289 146.9 44.9289 146.9 42.4289C146.9 40.1289 147.6 38.4289 149 37.2289C150.4 35.9289 152.4 35.3289 155 35.3289H160C160.4 35.3289 160.8 35.0289 160.8 34.5289C160.8 33.6289 160.4 32.9289 159.6 32.5289C158.8 32.0289 157.6 31.8289 156.1 31.8289C154.9 31.8289 153.9 31.9289 152.9 32.2289C152.4 32.3289 151.9 32.5289 151.4 32.7289C150.7 33.0289 149.9 32.7289 149.7 32.0289L148.5 29.0289C148.3 28.5289 148.5 27.9289 149.1 27.6289C150.1 27.2289 151.1 26.8289 152.2 26.6289C153.7 26.3289 155.1 26.1289 156.6 26.1289C160.2 26.1289 163.1 26.9289 165.1 28.4289C167.2 29.9289 168.2 32.0289 168.2 34.6289V45.0289C168.2 45.3289 168.3 45.5289 168.5 45.7289L169.7 47.1289C170.1 47.6289 170 48.3289 169.5 48.7289L165.5 52.2289ZM157.4 44.9289C158.6 44.9289 159.5 44.5289 160 43.8289C160.6 43.0289 160.8 42.2289 160.8 41.5289V41.4289C160.8 40.8289 160.3 40.2289 159.6 40.2289H157.3C156.3 40.2289 155.6 40.4289 155.1 40.8289C154.6 41.2289 154.4 41.8289 154.4 42.5289C154.4 43.3289 154.7 43.9289 155.2 44.3289C155.8 44.7289 156.5 44.9289 157.4 44.9289Z" fill="white"/>
<path d="M329.1 52.2287C328.6 52.6287 327.9 52.5287 327.5 52.0287L325.9 50.1287C325.5 49.7287 324.9 49.6287 324.4 49.8287C323.1 50.4287 321.5 50.7287 319.7 50.7287C316.8 50.7287 314.5 49.9287 312.8 48.4287C311.2 46.9287 310.3 44.9287 310.3 42.4287C310.3 40.1287 311 38.4287 312.4 37.2287C313.8 35.9287 315.8 35.3287 318.5 35.3287H323.6C324 35.3287 324.4 35.0287 324.4 34.5287C324.4 33.6287 324 32.9287 323.2 32.5287C322.4 32.0287 321.2 31.8287 319.7 31.8287C318.5 31.8287 317.4 31.9287 316.4 32.2287C315.9 32.3287 315.3 32.5287 314.8 32.7287C314.1 33.0287 313.3 32.7287 313.1 32.0287L312 28.8287C311.8 28.3287 312 27.7287 312.6 27.4287C313.6 27.0287 314.6 26.6287 315.8 26.4287C317.3 26.1287 318.8 25.9287 320.3 25.9287C324 25.9287 326.9 26.7287 329 28.2287C331.1 29.7287 332.1 31.8287 332.1 34.4287V45.0287C332.1 45.3287 332.2 45.5287 332.4 45.8287L333.6 47.2287C334 47.7287 333.9 48.4287 333.4 48.9287L329.1 52.2287ZM320.8 44.9287C322 44.9287 322.9 44.5287 323.5 43.8287C324.1 43.0287 324.4 42.2287 324.4 41.5287V41.4287C324.4 40.8287 323.9 40.2287 323.2 40.2287H320.9C319.9 40.2287 319.2 40.4287 318.7 40.8287C318.2 41.2287 318 41.8287 318 42.5287C318 43.3287 318.3 43.9287 318.8 44.3287C319.2 44.7287 319.9 44.9287 320.8 44.9287Z" fill="white"/>
<path d="M124.7 50.5289C124 50.5289 123.5 49.9289 123.5 49.2289L124.9 31.0289C124.9 30.7289 125 30.5289 125.2 30.3289C126.2 29.2289 127.5 28.2289 129 27.4289C130.6 26.6289 132.5 26.1289 134.6 26.1289C136.8 26.1289 138.8 26.6289 140.6 27.6289C141.1 27.9289 141.2 28.4289 141.1 28.9289L140 32.0289C139.7 32.7289 138.9 33.0289 138.1 32.8289C138 32.8289 137.9 32.7289 137.8 32.7289C137.2 32.5289 136.6 32.5289 136.1 32.5289C135.4 32.5289 134.8 32.6289 134.3 32.8289C134 32.9289 133.8 33.0289 133.6 33.0289C133.3 33.2289 133.1 33.5289 133.1 33.9289L134.5 49.0289C134.6 49.7289 134 50.3289 133.3 50.3289H124.7V50.5289Z" fill="white"/>
<path d="M107 50.7288C104 50.7288 101.4 50.1288 99.2 49.0288C96.9 47.8288 95.2 46.1288 93.9 43.8288C92.6 41.5288 92 38.7288 92 35.3288C92 30.7288 93.2 27.1288 95.7 24.5288C98.1 21.8288 101.8 20.5288 106.6 20.5288C108.3 20.5288 110 20.7288 111.6 21.1288C113 21.4288 114.2 21.9288 115.4 22.5288C115.9 22.8288 116.1 23.3288 115.9 23.9288L114.6 27.5288C114.3 28.2288 113.5 28.5288 112.8 28.2288C112.3 28.0288 111.8 27.9288 111.3 27.8288C110.2 27.5288 109.1 27.4288 108.1 27.4288C105.7 27.4288 103.8 28.2288 102.4 29.7288C101.1 31.2288 100.4 33.2288 100.4 35.7288C100.4 38.5288 101.2 40.5288 102.7 42.0288C104.2 43.4288 106.2 44.1288 108.6 44.1288C109.9 44.1288 111.2 43.9288 112.4 43.5288C113.1 43.3288 113.7 43.0288 114.3 42.7288C114.9 42.4288 115.8 42.6288 116.1 43.3288L117.6 46.4288C117.8 46.9288 117.7 47.5288 117.2 47.8288C116.2 48.5288 115 49.1288 113.7 49.7288C111.9 50.3288 109.7 50.7288 107 50.7288Z" fill="white"/>
<path d="M242.7 26.4288C238.1 25.5288 235 27.0288 231.4 33.9288C229.2 36.6288 226.5 40.7288 227.7 44.9288C228.3 46.2288 229.9 50.8288 234.5 50.8288H246.4C248 50.7288 251.4 50.0288 252.4 47.6288C253.6 44.6288 254.1 43.2288 254.2 39.6288C254.2 35.6288 255.6 30.5288 242.7 26.4288ZM242.2 44.6288C239 45.8288 236.1 43.2288 235.6 40.5288C235.3 38.9288 236.4 38.3288 237.5 37.2288C238.2 36.5288 239.1 35.4288 240.1 35.2288C242.7 34.7288 245.1 36.8288 245.6 38.1288C247.5 43.2288 244.7 43.6288 242.2 44.6288Z" fill="white"/>
<path d="M298.3 13.1288C296.2 12.7288 294.5 13.1288 292.8 16.2288C291.8 17.4288 290.9 19.6288 291.4 21.5288C291.7 22.1288 292.4 24.2288 294.5 24.2288H299.9C300.6 24.2288 302.2 23.8288 302.6 22.7288C303.1 21.3288 303.4 20.7288 303.4 19.0288C303.5 17.3288 304.2 15.0288 298.3 13.1288ZM298.1 21.4288C296.7 21.9288 295.3 20.8288 295.1 19.5288C295 18.7288 295.6 18.0288 296.1 17.5288C296.4 17.2288 296.8 16.9288 297.3 16.8288C298.5 16.6288 299.7 18.0288 299.9 18.6288C300.7 21.0288 299.2 21.0288 298.1 21.4288Z" fill="white"/>
</svg>
