<svg width="24" height="24" viewBox="0 0 24 24" fill="none" xmlns="http://www.w3.org/2000/svg">
<path d="M8.45059 9.29866C9.14658 10.7483 10.0954 12.1069 11.2969 13.3085C12.4985 14.5101 13.8572 15.4589 15.3068 16.1549C15.4315 16.2147 15.4938 16.2447 15.5727 16.2677C15.8531 16.3494 16.1973 16.2907 16.4347 16.1207C16.5016 16.0728 16.5587 16.0157 16.673 15.9014C17.0226 15.5517 17.1974 15.3769 17.3732 15.2627C18.0361 14.8317 18.8907 14.8317 19.5536 15.2627C19.7294 15.3769 19.9042 15.5517 20.2538 15.9014L20.4486 16.0962C20.9801 16.6277 21.2458 16.8934 21.3901 17.1788C21.6772 17.7463 21.6772 18.4166 21.3901 18.9842C21.2458 19.2695 20.9801 19.5353 20.4486 20.0667L20.291 20.2243C19.7614 20.754 19.4966 21.0188 19.1365 21.221C18.737 21.4454 18.1165 21.6068 17.6583 21.6054C17.2454 21.6042 16.9631 21.5241 16.3987 21.3639C13.3653 20.5029 10.5029 18.8785 8.11497 16.4905C5.72699 14.1025 4.10252 11.2401 3.24155 8.20675C3.08134 7.6423 3.00123 7.36008 3.00001 6.94713C2.99864 6.48891 3.16 5.86842 3.38442 5.46891C3.58667 5.10888 3.85148 4.84407 4.38111 4.31444L4.53874 4.15681C5.07018 3.62537 5.33591 3.35964 5.62129 3.2153C6.18885 2.92823 6.85911 2.92823 7.42667 3.2153C7.71205 3.35964 7.97778 3.62537 8.50922 4.15681L8.70409 4.35168C9.05369 4.70128 9.2285 4.87609 9.34278 5.05186C9.77378 5.71476 9.77378 6.56934 9.34278 7.23223C9.2285 7.408 9.05369 7.58281 8.70409 7.93241C8.58978 8.04673 8.53262 8.10388 8.48478 8.17069C8.31477 8.40812 8.25607 8.75238 8.33779 9.03274C8.36079 9.11163 8.39072 9.17397 8.45059 9.29866Z" fill="#B07662"/>
</svg>
