<svg width="44" height="52" viewBox="0 0 44 52" fill="none" xmlns="http://www.w3.org/2000/svg">
<g filter="url(#filter0_d_815_3937)">
<path d="M32.1613 3.31277C28.7131 0.780421 24.4108 0.0447594 20.1654 0.00235786C15.8834 -0.0404089 11.4497 0.480279 7.99796 3.07144C4.5555 5.65566 2.81175 9.83782 1.51958 13.9996C0.235382 18.1357 -0.688973 22.5591 0.670995 26.6698C2.02241 30.7546 5.31286 33.7668 8.84102 36.1296C11.1445 37.6723 13.6771 38.7148 16.3346 39.268L19.0013 47.5395C19.1755 48.0799 19.9082 48.1667 20.2054 47.6822L25.2338 39.4852C27.6717 39.1268 30.013 38.3576 32.0544 36.9242C35.5444 34.4735 37.7836 30.5977 39.0474 26.4663C40.3006 22.3698 40.3177 18.0114 39.0963 13.9049C37.8571 9.73793 35.6212 5.85362 32.1613 3.31277Z" fill="#D4B86F"/>
<path fill-rule="evenodd" clip-rule="evenodd" d="M27.046 10.0731L24.81 9.39236L26.0733 11.3588L25.3926 13.5948L27.3591 12.3315L29.595 13.0123L28.3318 11.0458L29.0125 8.80981L27.046 10.0731ZM15.0001 20.0001C15.0001 17.2387 17.2387 15.0001 20.0001 15.0001C22.7615 15.0001 25.0001 17.2387 25.0001 20.0001C25.0001 22.7615 22.7615 25.0001 20.0001 25.0001C17.2387 25.0001 15.0001 22.7615 15.0001 20.0001ZM20.0001 13.0001C16.1341 13.0001 13.0001 16.1341 13.0001 20.0001C13.0001 23.8661 16.1341 27.0001 20.0001 27.0001C23.8661 27.0001 27.0001 23.8661 27.0001 20.0001C27.0001 16.1341 23.8661 13.0001 20.0001 13.0001ZM11.9438 26.446L12.006 24.1095L10.4458 25.8499L8.10938 25.7876L9.84972 27.3478L9.78748 29.6843L11.3477 27.9439L13.6841 28.0062L11.9438 26.446ZM30.4905 14.8372L30.3665 16.3905L31.47 17.4906L29.9167 17.3666L28.8165 18.4701L28.9405 16.9168L27.8371 15.8167L29.3903 15.9407L30.4905 14.8372Z" fill="white"/>
</g>
<defs>
<filter id="filter0_d_815_3937" x="0" y="0" width="44" height="52" filterUnits="userSpaceOnUse" color-interpolation-filters="sRGB">
<feFlood flood-opacity="0" result="BackgroundImageFix"/>
<feColorMatrix in="SourceAlpha" type="matrix" values="0 0 0 0 0 0 0 0 0 0 0 0 0 0 0 0 0 0 127 0" result="hardAlpha"/>
<feOffset dx="2" dy="2"/>
<feGaussianBlur stdDeviation="1"/>
<feComposite in2="hardAlpha" operator="out"/>
<feColorMatrix type="matrix" values="0 0 0 0 0.282353 0 0 0 0 0.239216 0 0 0 0 0.247059 0 0 0 0.27 0"/>
<feBlend mode="normal" in2="BackgroundImageFix" result="effect1_dropShadow_815_3937"/>
<feBlend mode="normal" in="SourceGraphic" in2="effect1_dropShadow_815_3937" result="shape"/>
</filter>
</defs>
</svg>
