<svg width="44" height="52" viewBox="0 0 44 52" fill="none" xmlns="http://www.w3.org/2000/svg">
<g filter="url(#filter0_d_815_3926)">
<path d="M32.1613 3.31277C28.7131 0.780421 24.4108 0.0447594 20.1654 0.00235786C15.8834 -0.0404089 11.4497 0.480279 7.99796 3.07144C4.5555 5.65566 2.81175 9.83782 1.51958 13.9996C0.235382 18.1357 -0.688973 22.5591 0.670995 26.6698C2.02241 30.7546 5.31286 33.7668 8.84102 36.1296C11.1445 37.6723 13.6771 38.7148 16.3346 39.268L19.0013 47.5395C19.1755 48.0799 19.9082 48.1667 20.2054 47.6822L25.2338 39.4852C27.6717 39.1268 30.013 38.3576 32.0544 36.9242C35.5444 34.4735 37.7836 30.5977 39.0474 26.4663C40.3006 22.3698 40.3177 18.0114 39.0963 13.9049C37.8571 9.73793 35.6212 5.85362 32.1613 3.31277Z" fill="#B07662"/>
<path fill-rule="evenodd" clip-rule="evenodd" d="M11 13C10.4477 13 10 13.4477 10 14V26C10 26.5523 10.4477 27 11 27H29.125C29.6773 27 30.125 26.5523 30.125 26V20.7592C29.9429 21.0064 29.6498 21.1667 29.3193 21.1667H23.8332C23.2809 21.1667 22.8332 20.719 22.8332 20.1667V18.9584C22.8332 18.4061 23.2809 17.9584 23.8332 17.9584H27.875V16.75C27.875 16.5873 27.8493 16.4316 27.8021 16.2862C27.7168 16.0235 27.8605 15.7415 28.1232 15.6562C28.3858 15.5709 28.6679 15.7147 28.7532 15.9773C28.8324 16.2213 28.875 16.4812 28.875 16.75V17.9584H29.3193C29.6498 17.9584 29.9429 18.1188 30.125 18.366V14C30.125 13.4477 29.6773 13 29.125 13H11ZM13.2862 15.3229C13.4316 15.2757 13.5873 15.25 13.75 15.25H14.5917C14.8678 15.25 15.0917 15.0261 15.0917 14.75C15.0917 14.4739 14.8678 14.25 14.5917 14.25H13.75C13.4812 14.25 13.2213 14.2926 12.9773 14.3718C12.7147 14.4571 12.5709 14.7392 12.6562 15.0018C12.7415 15.2645 13.0235 15.4082 13.2862 15.3229ZM17.1167 14.25C16.8405 14.25 16.6167 14.4739 16.6167 14.75C16.6167 15.0261 16.8405 15.25 17.1167 15.25H18.8C19.0761 15.25 19.3 15.0261 19.3 14.75C19.3 14.4739 19.0761 14.25 18.8 14.25H17.1167ZM21.325 14.25C21.0489 14.25 20.825 14.4739 20.825 14.75C20.825 15.0261 21.0489 15.25 21.325 15.25H23.0083C23.2845 15.25 23.5083 15.0261 23.5083 14.75C23.5083 14.4739 23.2845 14.25 23.0083 14.25H21.325ZM25.5333 14.25C25.2572 14.25 25.0333 14.4739 25.0333 14.75C25.0333 15.0261 25.2572 15.25 25.5333 15.25H26.375C26.5377 15.25 26.6934 15.2757 26.8388 15.3229C27.1015 15.4082 27.3835 15.2645 27.4688 15.0018C27.5541 14.7392 27.4103 14.4571 27.1477 14.3718C26.9037 14.2926 26.6438 14.25 26.375 14.25H25.5333ZM12.3229 16.2862C12.4082 16.0235 12.2645 15.7415 12.0018 15.6562C11.7392 15.5709 11.4571 15.7147 11.3718 15.9773C11.2926 16.2213 11.25 16.4812 11.25 16.75V18.05C11.25 18.3261 11.4739 18.55 11.75 18.55C12.0261 18.55 12.25 18.3261 12.25 18.05V16.75C12.25 16.5873 12.2757 16.4316 12.3229 16.2862ZM12.25 21.95C12.25 21.6739 12.0261 21.45 11.75 21.45C11.4739 21.45 11.25 21.6739 11.25 21.95V23.25C11.25 23.5188 11.2926 23.7787 11.3718 24.0227C11.4571 24.2853 11.7392 24.4291 12.0018 24.3438C12.2645 24.2585 12.4082 23.9765 12.3229 23.7138C12.2757 23.5684 12.25 23.4127 12.25 23.25V21.95ZM28.875 21.95C28.875 21.6739 28.6511 21.45 28.375 21.45C28.0989 21.45 27.875 21.6739 27.875 21.95V23.25C27.875 23.4127 27.8493 23.5684 27.8021 23.7138C27.7168 23.9765 27.8605 24.2585 28.1232 24.3438C28.3858 24.4291 28.6679 24.2853 28.7532 24.0227C28.8324 23.7787 28.875 23.5188 28.875 23.25V21.95ZM13.2862 24.6771C13.0235 24.5918 12.7415 24.7355 12.6562 24.9982C12.5709 25.2608 12.7147 25.5429 12.9773 25.6282C13.2213 25.7074 13.4812 25.75 13.75 25.75H14.5917C14.8678 25.75 15.0917 25.5261 15.0917 25.25C15.0917 24.9739 14.8678 24.75 14.5917 24.75H13.75C13.5873 24.75 13.4316 24.7243 13.2862 24.6771ZM27.1477 25.6282C27.4103 25.5429 27.5541 25.2608 27.4688 24.9982C27.3835 24.7355 27.1015 24.5918 26.8388 24.6771C26.6934 24.7243 26.5377 24.75 26.375 24.75H25.5333C25.2572 24.75 25.0333 24.9739 25.0333 25.25C25.0333 25.5261 25.2572 25.75 25.5333 25.75H26.375C26.6438 25.75 26.9037 25.7074 27.1477 25.6282ZM17.1167 24.75C16.8405 24.75 16.6167 24.9739 16.6167 25.25C16.6167 25.5261 16.8405 25.75 17.1167 25.75H18.8C19.0761 25.75 19.3 25.5261 19.3 25.25C19.3 24.9739 19.0761 24.75 18.8 24.75H17.1167ZM21.325 24.75C21.0489 24.75 20.825 24.9739 20.825 25.25C20.825 25.5261 21.0489 25.75 21.325 25.75H23.0083C23.2845 25.75 23.5083 25.5261 23.5083 25.25C23.5083 24.9739 23.2845 24.75 23.0083 24.75H21.325ZM24.7047 20.3647C25.1476 20.3647 25.5068 20.0056 25.5068 19.5626C25.5068 19.1197 25.1476 18.7606 24.7047 18.7606C24.2617 18.7606 23.9026 19.1197 23.9026 19.5626C23.9026 20.0056 24.2617 20.3647 24.7047 20.3647Z" fill="white"/>
</g>
<defs>
<filter id="filter0_d_815_3926" x="0" y="0" width="44" height="52" filterUnits="userSpaceOnUse" color-interpolation-filters="sRGB">
<feFlood flood-opacity="0" result="BackgroundImageFix"/>
<feColorMatrix in="SourceAlpha" type="matrix" values="0 0 0 0 0 0 0 0 0 0 0 0 0 0 0 0 0 0 127 0" result="hardAlpha"/>
<feOffset dx="2" dy="2"/>
<feGaussianBlur stdDeviation="1"/>
<feComposite in2="hardAlpha" operator="out"/>
<feColorMatrix type="matrix" values="0 0 0 0 0.282353 0 0 0 0 0.239216 0 0 0 0 0.247059 0 0 0 0.27 0"/>
<feBlend mode="normal" in2="BackgroundImageFix" result="effect1_dropShadow_815_3926"/>
<feBlend mode="normal" in="SourceGraphic" in2="effect1_dropShadow_815_3926" result="shape"/>
</filter>
</defs>
</svg>
