<svg width="24" height="24" viewBox="0 0 24 24" fill="none" xmlns="http://www.w3.org/2000/svg">
<path fill-rule="evenodd" clip-rule="evenodd" d="M15.8955 18.4046C14.3587 19.8823 12.8547 21.3286 12 23C11.1453 21.3286 9.64125 19.8823 8.10452 18.4046C5.59581 15.9922 3 13.4961 3 9.8C3 4.93989 7.02943 1 12 1C16.9706 1 21 4.93989 21 9.8C21 13.4961 18.4042 15.9922 15.8955 18.4046ZM16 9C16 11.2092 14.2092 13 12 13C9.7908 13 8 11.2092 8 9C8 6.79087 9.7908 5 12 5C14.2092 5 16 6.79087 16 9Z" fill="#B07662"/>
</svg>
