<svg width="24" height="24" viewBox="0 0 24 24" fill="none" xmlns="http://www.w3.org/2000/svg">
<path d="M3 8C3 9.65685 4.34315 11 6 11C7.65685 11 9 9.65685 9 8C9 9.65685 10.3431 11 12 11C13.6569 11 15 9.65685 15 8C15 9.65685 16.3431 11 18 11C19.6569 11 21 9.65685 21 8C21 6.8799 21 5.51984 20.782 5.09202C20.5903 4.71569 20.2843 4.40973 19.908 4.21799C19.4802 4 18.9201 4 17.8 4H6.2C5.0799 4 4.51984 4 4.09202 4.21799C3.71569 4.40973 3.40973 4.71569 3.21799 5.09202C3 5.51984 3 6.87989 3 8Z" fill="#483D3F"/>
<path fill-rule="evenodd" clip-rule="evenodd" d="M3 10C3 11.8075 4.34315 12.2727 6 12.2727C7.65685 12.2727 9 11.8075 9 10C9 11.8075 10.3431 12.2727 12 12.2727C13.6569 12.2727 15 11.8075 15 10C15 11.8075 16.3431 12.2727 18 12.2727C19.6569 12.2727 21 11.8075 21 10V17.5091C21 18.731 21 19.342 20.782 19.8087C20.5903 20.2192 20.2843 20.5531 19.908 20.7622C19.4802 21 18.9201 21 17.8 21H17.8H6.2H6.19997C5.07988 21 4.51984 21 4.09202 20.7622C3.71569 20.5531 3.40973 20.2192 3.21799 19.8087C3 19.342 3 18.731 3 17.5091V10ZM10.5 14C9.94772 14 9.5 14.4477 9.5 15V19.5H14.5V15C14.5 14.4477 14.0523 14 13.5 14H10.5Z" fill="#483D3F"/>
</svg>
