<svg width="24" height="24" viewBox="0 0 24 24" fill="none" xmlns="http://www.w3.org/2000/svg">
<path fill-rule="evenodd" clip-rule="evenodd" d="M15.4626 17.8223C14.0967 19.1657 12.7597 20.4805 12 22C11.2403 20.4805 9.90334 19.1657 8.53735 17.8223C6.30739 15.6293 4 13.3601 4 10C4 5.58172 7.58172 2 12 2C16.4183 2 20 5.58172 20 10C20 13.3601 17.6926 15.6293 15.4626 17.8223ZM15 9.5C15 11.1569 13.6569 12.5 12 12.5C10.3431 12.5 9 11.1569 9 9.5C9 7.84315 10.3431 6.5 12 6.5C13.6569 6.5 15 7.84315 15 9.5Z" fill="#483D3F"/>
</svg>
