<svg width="231" height="48" viewBox="0 0 231 48" fill="none" xmlns="http://www.w3.org/2000/svg">
<path d="M31.709 43.9989H16.0535C14.3817 43.8652 10.6045 42.8114 8.86951 39.6661C6.70077 35.7344 6.94453 32.0318 8.86951 29.0746C10.332 26.828 14.5624 25.9454 16.6634 26.0256H29.4725C34.0133 25.4639 35.9109 26.828 37.1308 28.192C41.1972 32.5249 40.58 39.0405 38.2079 41.6081C36.3103 43.6622 32.7256 44.0257 31.709 43.9989Z" fill="#483D3F"/>
<path d="M28.0833 29.6006H18.8733C15.2792 29.6006 14.0438 26.4843 13.5945 25.561C12.696 22.6755 14.2684 19.4438 15.9531 17.5971C19.7719 12.7495 22.0295 11.6338 24.5004 12.0954C35.9567 14.6346 35.2715 20.3671 33.4744 22.0984C31.6774 23.8297 33.5868 25.3301 32.6882 27.4076C31.9694 29.0697 29.3187 29.5621 28.0833 29.6006Z" fill="#BF6E52"/>
<path d="M32.9572 9.66667C32.9572 15.5599 30.5585 14.7357 27.6398 14.7357C24.1976 16.0154 21.333 12.3324 21.333 9.36784C21.333 7.54283 24.1535 6.8018 25.5237 5.83195C26.3794 5.22636 26.5178 4 27.6398 4C30.5585 4 32.9572 8.33333 32.9572 9.66667Z" fill="#ECD8A3"/>
<path d="M178.667 39.4192C178.201 39.4192 177.867 39.0192 177.867 38.6192L178.867 20.0858C178.867 19.8858 178.934 19.6858 179.134 19.5525C179.601 19.1525 180.201 18.8192 180.934 18.5525C181.801 18.2192 182.801 17.9525 183.867 17.7525C184.934 17.5525 185.867 17.4858 186.867 17.4858C189.601 17.4858 191.601 18.2192 192.934 19.7525C194.267 21.2192 194.934 23.2192 194.934 25.6858C194.934 27.5525 194.601 29.0858 193.867 30.2858C193.201 31.4858 192.267 32.4192 191.067 33.0192C189.867 33.6192 188.601 33.8858 187.201 33.8858C186.534 33.8858 185.867 33.8192 185.334 33.6858C184.734 33.5525 184.067 34.0858 184.201 34.6858L184.867 38.4858C184.934 38.9525 184.601 39.4192 184.067 39.4192H178.667ZM186.667 29.5525C187.601 29.5525 188.334 29.2192 188.867 28.5525C189.401 27.8858 189.667 26.9525 189.667 25.7525C189.667 24.3525 189.334 23.2858 188.667 22.6192C188.001 21.8858 187.201 21.5525 186.201 21.5525C185.534 21.5525 184.934 21.6858 184.334 21.8858C184.067 22.0192 183.867 22.2858 183.867 22.5525V26.8192C183.867 27.8192 184.134 28.4858 184.734 28.8858C185.334 29.3525 186.001 29.5525 186.667 29.5525Z" fill="black"/>
<path d="M200.401 33.9522C199.934 33.9522 199.601 33.5522 199.601 33.0855L201.001 19.5522C201.067 19.1522 201.401 18.8188 201.801 18.8188H205.401C205.801 18.8188 206.134 19.1522 206.201 19.5522L207.601 33.0855C207.667 33.5522 207.267 33.9522 206.801 33.9522H200.401Z" fill="black"/>
<path d="M149.8 33.8858C148.6 33.8858 147.533 33.6858 146.6 33.2858C145.667 32.8858 144.933 32.2858 144.4 31.3524C143.867 30.4858 143.6 29.3524 143.6 27.8858V22.6858C143.6 22.2858 143.267 21.8858 142.8 21.8858H141.8C141.4 21.8858 141 21.5524 141 21.0858V18.9524C141 18.5524 141.333 18.1524 141.8 18.1524H142.933C143.333 18.1524 143.733 17.8191 143.733 17.3524V14.5524C143.733 14.1524 144.067 13.7524 144.533 13.7524H148C148.4 13.7524 148.8 14.0858 148.8 14.5524V17.4191C148.8 17.8191 149.133 18.2191 149.6 18.2191H152.267C152.667 18.2191 153.067 18.5524 153.067 19.0191V21.2191C153.067 21.6191 152.733 22.0191 152.267 22.0191H149.6C149.2 22.0191 148.8 22.3524 148.8 22.8191V27.8191C148.8 28.6191 149 29.1524 149.333 29.4191C149.733 29.6858 150.2 29.8858 150.733 29.8858C151.067 29.8858 151.4 29.8858 151.8 29.8191C152.267 29.7524 152.867 30.0191 153 30.4858L153.467 32.6191C153.533 32.9524 153.4 33.2858 153.067 33.4191C152.667 33.5524 152.267 33.6858 151.8 33.8191C151.133 33.8191 150.467 33.8858 149.8 33.8858Z" fill="black"/>
<path d="M125.134 33.6859C124.667 33.6859 124.267 33.2859 124.334 32.8192L125.134 26.2859C125.201 25.8192 124.801 25.4192 124.334 25.4192H123.401C123.001 25.4192 122.601 25.0859 122.601 24.6192V22.2192C122.601 21.8192 122.934 21.4192 123.401 21.4192H124.401C124.801 21.4192 125.201 21.0859 125.201 20.6192V19.6192C125.201 18.1525 125.467 17.0192 126.067 16.0859C126.667 15.1525 127.467 14.4192 128.534 14.0192C129.601 13.6192 130.734 13.3525 132.001 13.3525C132.867 13.3525 133.801 13.4859 134.801 13.6859C135.601 13.8192 136.334 14.0859 136.934 14.3525C137.267 14.4859 137.401 14.8859 137.267 15.2192L136.601 17.3525C136.467 17.8192 135.867 18.0192 135.401 17.8859C135.201 17.8192 135.001 17.7525 134.801 17.6859C134.201 17.5525 133.667 17.4859 133.067 17.4859C131.134 17.4859 130.134 18.2859 130.134 19.8859V20.7525C130.134 21.1525 130.467 21.5525 130.934 21.5525H134.534C134.934 21.5525 135.334 21.8859 135.334 22.3525V24.7525C135.334 25.1525 135.001 25.5525 134.534 25.5525H131.201C130.734 25.5525 130.334 25.9525 130.401 26.4192L131.201 32.9525C131.267 33.4192 130.867 33.8192 130.401 33.8192H125.134V33.6859Z" fill="black"/>
<path d="M115.667 34.8189C115.333 35.0856 114.867 35.0189 114.533 34.6856L113.467 33.4189C113.2 33.1523 112.8 33.0856 112.467 33.2189C111.6 33.6189 110.6 33.8189 109.4 33.8189C107.467 33.8189 105.933 33.2856 104.867 32.2856C103.8 31.2856 103.267 29.9523 103.267 28.2856C103.267 26.7523 103.733 25.6189 104.667 24.8189C105.6 23.9523 106.933 23.5523 108.667 23.5523H112C112.267 23.5523 112.533 23.3523 112.533 23.0189C112.533 22.4189 112.267 21.9523 111.733 21.6856C111.2 21.3523 110.4 21.2189 109.4 21.2189C108.6 21.2189 107.933 21.2856 107.267 21.4856C106.933 21.5523 106.6 21.6856 106.267 21.8189C105.8 22.0189 105.267 21.8189 105.133 21.3523L104.333 19.3523C104.2 19.0189 104.333 18.6189 104.733 18.4189C105.4 18.1523 106.067 17.8856 106.8 17.7523C107.8 17.5523 108.733 17.4189 109.733 17.4189C112.133 17.4189 114.067 17.9523 115.4 18.9523C116.8 19.9523 117.467 21.3523 117.467 23.0856V30.0189C117.467 30.2189 117.533 30.3523 117.667 30.4856L118.467 31.4189C118.733 31.7523 118.667 32.2189 118.333 32.4856L115.667 34.8189ZM110.267 29.9523C111.067 29.9523 111.667 29.6856 112 29.2189C112.4 28.6856 112.533 28.1523 112.533 27.6856V27.6189C112.533 27.2189 112.2 26.8189 111.733 26.8189H110.2C109.533 26.8189 109.067 26.9523 108.733 27.2189C108.4 27.4856 108.267 27.8856 108.267 28.3523C108.267 28.8856 108.467 29.2856 108.8 29.5523C109.2 29.8189 109.667 29.9523 110.267 29.9523Z" fill="black"/>
<path d="M224.734 34.819C224.4 35.0856 223.934 35.019 223.667 34.6856L222.6 33.419C222.334 33.1523 221.934 33.0856 221.6 33.219C220.734 33.619 219.667 33.819 218.467 33.819C216.534 33.819 215 33.2856 213.867 32.2856C212.8 31.2856 212.2 29.9523 212.2 28.2856C212.2 26.7523 212.667 25.619 213.6 24.819C214.534 23.9523 215.867 23.5523 217.667 23.5523H221.067C221.334 23.5523 221.6 23.3523 221.6 23.019C221.6 22.419 221.334 21.9523 220.8 21.6856C220.267 21.3523 219.467 21.219 218.467 21.219C217.667 21.219 216.934 21.2856 216.267 21.4856C215.934 21.5523 215.534 21.6856 215.2 21.819C214.734 22.019 214.2 21.819 214.067 21.3523L213.334 19.219C213.2 18.8856 213.334 18.4856 213.734 18.2856C214.4 18.019 215.067 17.7523 215.867 17.619C216.867 17.419 217.867 17.2856 218.867 17.2856C221.334 17.2856 223.267 17.819 224.667 18.819C226.067 19.819 226.734 21.219 226.734 22.9523V30.019C226.734 30.219 226.8 30.3523 226.934 30.5523L227.734 31.4856C228 31.819 227.934 32.2856 227.6 32.619L224.734 34.819ZM219.2 29.9523C220 29.9523 220.6 29.6856 221 29.219C221.4 28.6856 221.6 28.1523 221.6 27.6856V27.619C221.6 27.219 221.267 26.819 220.8 26.819H219.267C218.6 26.819 218.134 26.9523 217.8 27.219C217.467 27.4856 217.334 27.8856 217.334 28.3523C217.334 28.8856 217.534 29.2856 217.867 29.5523C218.134 29.819 218.6 29.9523 219.2 29.9523Z" fill="black"/>
<path d="M88.467 33.6856C88.0003 33.6856 87.667 33.2856 87.667 32.8189L88.6003 20.6856C88.6003 20.4856 88.667 20.3523 88.8003 20.2189C89.467 19.4856 90.3337 18.8189 91.3337 18.2856C92.4003 17.7523 93.667 17.4189 95.067 17.4189C96.5337 17.4189 97.867 17.7523 99.067 18.4189C99.4003 18.6189 99.467 18.9523 99.4003 19.2856L98.667 21.3523C98.467 21.8189 97.9337 22.0189 97.4003 21.8856C97.3337 21.8856 97.267 21.8189 97.2003 21.8189C96.8003 21.6856 96.4003 21.6856 96.067 21.6856C95.6003 21.6856 95.2003 21.7523 94.867 21.8856C94.667 21.9523 94.5337 22.0189 94.4003 22.0189C94.2003 22.1523 94.067 22.3523 94.067 22.6189L95.0003 32.6856C95.067 33.1523 94.667 33.5523 94.2003 33.5523H88.467V33.6856Z" fill="black"/>
<path d="M76.667 33.8189C74.667 33.8189 72.9337 33.4189 71.467 32.6855C69.9337 31.8855 68.8003 30.7522 67.9337 29.2189C67.067 27.6855 66.667 25.8189 66.667 23.5522C66.667 20.4855 67.467 18.0855 69.1337 16.3522C70.7337 14.5522 73.2003 13.6855 76.4003 13.6855C77.5337 13.6855 78.667 13.8189 79.7337 14.0855C80.667 14.2855 81.467 14.6189 82.267 15.0189C82.6003 15.2189 82.7337 15.5522 82.6003 15.9522L81.7337 18.3522C81.5337 18.8189 81.0003 19.0189 80.5337 18.8189C80.2003 18.6855 79.867 18.6189 79.5337 18.5522C78.8003 18.3522 78.067 18.2855 77.4003 18.2855C75.8003 18.2855 74.5337 18.8189 73.6003 19.8189C72.7337 20.8189 72.267 22.1522 72.267 23.8189C72.267 25.6855 72.8003 27.0189 73.8003 28.0189C74.8003 28.9522 76.1337 29.4189 77.7337 29.4189C78.6003 29.4189 79.467 29.2855 80.267 29.0189C80.7337 28.8855 81.1337 28.6855 81.5337 28.4855C81.9337 28.2855 82.5337 28.4189 82.7337 28.8855L83.7337 30.9522C83.867 31.2855 83.8003 31.6855 83.467 31.8855C82.8003 32.3522 82.0003 32.7522 81.1337 33.1522C79.9337 33.5522 78.467 33.8189 76.667 33.8189Z" fill="black"/>
<path d="M167.134 17.6189C164.067 17.0189 162 18.0189 159.6 22.6189C158.134 24.4189 156.334 27.1522 157.134 29.9522C157.534 30.8189 158.6 33.8855 161.667 33.8855H169.6C170.667 33.8189 172.934 33.3522 173.6 31.7522C174.4 29.7522 174.734 28.8189 174.8 26.4189C174.8 23.7522 175.734 20.3522 167.134 17.6189ZM166.8 29.7522C164.667 30.5522 162.734 28.8189 162.4 27.0189C162.2 25.9522 162.934 25.5522 163.667 24.8189C164.134 24.3522 164.734 23.6189 165.4 23.4855C167.134 23.1522 168.734 24.5522 169.067 25.4189C170.334 28.8189 168.467 29.0855 166.8 29.7522Z" fill="black"/>
<path d="M204.201 8.75238C202.801 8.48571 201.667 8.75238 200.534 10.819C199.867 11.619 199.267 13.0857 199.601 14.3524C199.801 14.7524 200.267 16.1524 201.667 16.1524H205.267C205.734 16.1524 206.801 15.8857 207.068 15.1524C207.401 14.219 207.601 13.819 207.601 12.6857C207.667 11.5524 208.134 10.019 204.201 8.75238ZM204.067 14.2857C203.134 14.619 202.201 13.8857 202.067 13.019C202.001 12.4857 202.401 12.019 202.734 11.6857C202.934 11.4857 203.201 11.2857 203.534 11.219C204.334 11.0857 205.134 12.019 205.267 12.419C205.801 14.019 204.801 14.019 204.067 14.2857Z" fill="black"/>
</svg>
