<svg width="265" height="240" viewBox="0 0 265 240" fill="none" xmlns="http://www.w3.org/2000/svg">
<path fill-rule="evenodd" clip-rule="evenodd" d="M124.225 9.84459C149.34 0.701998 177.991 -4.69458 202.665 5.5763C228.649 16.3923 249.288 39.6519 259.156 66.0105C268.767 91.6825 264.59 120.661 255.421 146.494C247.259 169.489 231.68 190.112 210.691 202.554C192.33 213.437 168.763 203.566 148.393 209.938C127.442 216.492 113.139 241.659 91.2564 239.913C69.2842 238.161 54.5904 217.094 39.2827 201.235C23.1816 184.553 1.76671 168.602 0.106129 145.477C-1.54745 122.45 16.4541 103.007 30.9381 85.0285C42.8004 70.3045 60.8073 63.7238 75.5293 51.8588C92.5666 38.1278 103.664 17.3298 124.225 9.84459Z" fill="#D9D9D9"/>
</svg>
