<svg width="284" height="240" viewBox="0 0 284 240" fill="none" xmlns="http://www.w3.org/2000/svg">
<path fill-rule="evenodd" clip-rule="evenodd" d="M143.623 0.100742C168.115 0.928072 194.504 3.86534 212.799 20.1534C230.392 35.8159 227.034 63.8202 238.373 84.4565C251.04 107.509 280.038 121.54 282.876 147.684C285.835 174.942 275.176 206.029 253.379 222.689C231.807 239.178 200.966 227.933 173.97 230.928C152.543 233.305 131.923 243.891 111.057 238.479C89.8989 232.99 75.5001 215.214 58.8494 201.065C39.0523 184.241 12.6282 172.277 4.23536 147.703C-4.55367 121.97 1.20813 92.5774 13.5131 68.3247C25.5824 44.5366 47.7357 27.7709 71.3738 15.3761C93.6208 3.71075 118.512 -0.747494 143.623 0.100742Z" fill="#D9D9D9"/>
</svg>
