<svg width="40" height="38" viewBox="0 0 40 38" fill="none" xmlns="http://www.w3.org/2000/svg">
<path fill-rule="evenodd" clip-rule="evenodd" d="M20.1654 0.00225425C24.4108 0.0427925 28.7131 0.746127 32.1613 3.1672C35.6212 5.59639 37.8571 9.31002 39.0963 13.2939C40.3177 17.22 40.3006 21.3868 39.0474 25.3033C37.7836 29.2531 35.5444 32.9587 32.0544 35.3016C28.6179 37.6086 24.3319 38.1159 20.1654 37.9795C16.1159 37.847 12.2304 36.7121 8.84102 34.542C5.31286 32.283 2.02241 29.4032 0.670995 25.4978C-0.688973 21.5678 0.235382 17.3387 1.51958 13.3844C2.81175 9.40552 4.5555 5.40713 7.99796 2.93647C11.4497 0.459174 15.8834 -0.0386332 20.1654 0.00225425Z" fill="#C98871"/>
</svg>
