<svg width="62" height="35" viewBox="0 0 62 35" fill="none" xmlns="http://www.w3.org/2000/svg">
<path fill-rule="evenodd" clip-rule="evenodd" d="M61.9906 17.3691C62.1868 20.4774 59.2561 23.221 57.0878 26.03C54.7516 29.0564 53.6953 33.0498 48.7798 34.4832C43.8193 35.9298 38.0632 33.9674 32.7471 33.1282C28.5118 32.4596 24.985 30.9403 20.8454 30.0736C15.5133 28.9571 8.85268 29.7406 4.86482 27.2901C0.838118 24.8157 0.521619 20.8669 0.170682 17.3691C-0.195331 13.7211 -0.232449 9.85446 2.80032 6.71354C5.82143 3.5847 11.0062 1.20459 16.7051 0.245072C22.0071 -0.647621 27.3172 1.14645 32.7471 1.67147C37.2944 2.11116 42.0357 1.78652 46.1242 3.08965C50.305 4.42218 53.3592 6.69531 56.0186 9.0887C58.8357 11.6241 61.7969 14.2986 61.9906 17.3691Z" fill="#78686B"/>
</svg>
