<svg width="292" height="42" viewBox="0 0 292 42" fill="none" xmlns="http://www.w3.org/2000/svg">
<path d="M158.347 14.7784L158.523 14.3916L160.131 14.3916L160.131 14.1103L159.341 13.9169L158.669 14.0048L158.669 13.8115C159 13.495 159.488 13.3661 160.131 13.4247L160.95 13.7236L160.95 13.5302L160.774 13.2313L159.809 12.8445L159.809 12.6511L159.341 12.6511L158.844 12.7566L158.844 12.95L159.663 12.2819L159.488 11.8951L159.809 11.8951L159.809 12.0885L160.306 12.0885L160.628 11.5084L159.809 11.5084L159.809 11.315L159.02 11.315L159.02 10.9282L159.663 10.9282L159.663 10.7348L159.809 10.4535L159.663 10.0667L159.809 9.87334L159.488 9.57446L159.02 9.57446L159.341 9.57446L159.341 8.713L159.809 8.713L159.985 7.93944L159.341 7.93944L159.341 7.65814L159.663 7.65814L159.809 6.97249L159.488 6.97249L159.166 7.27136L158.844 7.27136L158.844 7.07797L159.809 6.7791L160.628 6.97249L160.628 6.69119L159.985 6.4978L159.166 5.72424L159.341 5.14407L159.166 4.95068L159.985 4.95068L159.985 4.75729L159.809 4.476L159.02 4.476L159.02 4.28261L159.663 3.70244L159.02 3.70244L159.02 3.50905L159.166 3.22775L161.271 3.03436L161.739 3.12227C161.953 3.7669 162.061 4.41153 162.061 5.05617L161.914 5.24956L162.061 5.72424L161.096 5.82973L161.096 6.11102L161.914 6.21651L162.382 6.11102L162.382 6.7791L161.739 6.88458L161.739 7.16588L162.061 7.16588L162.061 7.65814L162.382 7.65814L162.558 8.32622L162.382 8.51961L162.558 8.99429L161.914 10.1546L162.382 10.1546L162.879 9.67995L163.026 10.5414L162.558 10.5414L162.558 10.7348L163.026 10.9282L163.026 11.1216L162.558 11.1216L161.914 11.0161L161.914 11.2095L163.026 11.8951L162.704 12.1764L161.914 12.1764L161.271 12.0885L161.096 12.4753L162.879 12.5632L162.879 12.7566L163.201 12.7566L163.201 13.0379L163.026 13.5302L163.201 13.8115L162.382 13.9169L162.382 14.4971L162.704 14.4971L163.347 14.1103L163.201 14.585L163.347 14.8663L162.704 15.0597L162.558 14.7784L162.061 14.7784L162.061 14.9718L161.417 14.9718L161.417 15.3586L160.306 15.4465L161.096 15.2531L161.096 15.0597L160.774 15.0597L160.774 14.4971L160.131 14.4971L159.809 14.7784L159.341 15.3586L159.341 15.1652L158.347 14.7784ZM159.809 4.38809L160.95 4.58148L160.95 4.38809L159.809 4.08922L159.809 4.38809ZM159.985 7.55266L160.452 7.16588L160.131 7.16588L159.985 7.55266ZM160.131 3.50905L160.452 3.50905L160.452 3.31566L160.131 3.31566L160.131 3.50905ZM160.131 10.1546L160.774 9.76785L159.985 9.76785L160.131 10.1546ZM160.131 12.8445L160.452 12.6511L160.131 12.6511L160.131 12.8445ZM160.628 3.89583L160.95 3.61453L160.628 3.61453L160.628 3.89583ZM160.628 10.8227L161.593 10.8227L161.739 10.5414L161.271 10.4535L160.628 10.5414L160.628 10.8227ZM160.95 9.38107L161.417 9.38107L161.417 9.18768L160.95 9.18768L160.95 9.38107ZM161.096 8.04492L161.914 8.23831L162.236 7.74605L161.739 7.74605L161.096 8.04492ZM161.096 6.88458L161.739 6.88458L162.382 6.7791L162.382 6.4978L161.417 6.4978L161.096 6.88458ZM161.096 13.7236L161.593 13.7236L161.593 13.4247L161.096 13.4247L161.096 13.7236ZM161.271 13.0379L161.593 13.0379L161.593 12.8445L161.271 12.8445L161.271 13.0379ZM161.914 13.4247L162.382 13.5302L162.382 13.3368L161.914 13.2313L161.914 13.4247ZM161.914 12.8445L162.382 12.8445L162.382 12.5632L161.914 12.5632L161.914 12.8445Z" fill="#483D3F"/>
<path d="M151.635 18.5495L151.167 18.4169L150.669 17.0912L150.347 16.9586V16.2295L150.523 15.1468L150.991 15.0142L151.167 14.1746L150.669 13.3129L151.313 12.5837L151.167 12.2302L151.459 11.6115L151.313 11.0149C151.84 10.6909 151.996 10.2784 151.781 9.7776L151.635 8.3193L151.781 7.10405L151.459 6.3749L151.635 5.8888C150.991 5.07863 150.62 4.15062 150.523 3.10477H150.845C151.176 3.50249 151.644 3.78237 152.249 3.9444L152.893 3.34782L153.361 3.4583L153.683 3.21525L153.859 3.4583L153.683 4.07697H154.151L154.649 3.21525L155.585 2.9722L156.551 3.21525L157.165 2.9722L157.663 2.61867L157.809 3.21525H158.599L158.921 2.86172L159.565 2.72915V2.13257H159.887L160.355 2.72915H160.677L161.935 2.61867V2.37562L161.789 2H162.579L162.725 2.4861C161.359 3.38465 159.877 3.99596 158.277 4.32002C156.697 4.64409 155.117 5.04917 153.537 5.53527L153.361 5.8888L154.151 8.45187L154.649 8.56235L155.117 8.45187L155.907 8.56235L156.873 8.45187L157.341 8.69492C157.965 9.50509 158.443 10.3594 158.775 11.258L158.131 11.1254L157.487 11.258L157.019 11.0149L156.873 11.3685H155.439L154.327 11.258L154.005 11.7441H153.683L153.361 13.3129L153.215 13.5559L153.859 14.5281L154.473 14.6607L159.067 14.1746L160.033 14.5281L160.677 14.2851V14.7712L161.291 14.042L161.789 13.9315L162.725 14.5281L163.193 14.042L164.305 14.4176C164.832 14.0936 165.417 13.9315 166.061 13.9315L166.705 14.1746V13.9315L167.319 13.799L167.641 13.9315L168.109 14.042L168.753 13.5559L169.543 13.3129L169.689 12.9593L169.543 12.5837L170.011 12.4732L170.187 11.501H170.509V11.258L170.011 11.1254L169.397 11.258L169.221 10.8824L168.753 10.7719L168.607 11.1254H167.963L167.173 10.7719L166.705 10.8824V10.6393H166.207V10.8824H165.885L165.417 11.0149L164.305 10.0207L163.983 8.8054C165.251 8.40768 166.685 8.24565 168.285 8.3193V8.07625H168.607L169.543 8.56235L170.333 8.8054L170.655 7.72272L170.187 7.59015L170.011 6.50747L167.787 6.13185L167.641 5.4027L166.997 5.04917L167.173 4.80612L166.851 3.83392H167.319L168.285 4.07697C169.026 3.75291 169.865 3.6277 170.801 3.70135L171.123 4.07697H171.913L172.089 5.15965L172.557 5.29222L172.703 6.3749L172.089 6.50747V6.99357L172.703 7.96577L173.025 8.07625L173.347 10.0207C172.82 9.947 172.508 10.0722 172.411 10.3963L172.879 11.3685L172.703 11.8546L173.025 11.9871V12.4732L172.879 12.9593L173.201 14.2851L173.025 15.7434L172.089 15.8759L171.913 16.2295L170.801 16.4725L170.655 16.7156H169.865L169.221 16.4725V16.2295H168.753L168.109 16.7156C167.895 16.4799 167.524 16.3989 166.997 16.4725C166.373 16.7966 165.583 16.9586 164.627 16.9586V17.2017L163.983 17.5773L163.837 17.9308L163.369 18.0634L162.579 16.7156C163.32 16.7156 163.847 16.5535 164.159 16.2295L162.725 15.9864V15.7434H162.403L161.613 16.6051L159.887 16.8481V17.3342H159.389L157.341 17.0912L157.165 17.6878C156.541 17.6141 155.965 17.6951 155.439 17.9308C154.619 17.813 153.878 17.5699 153.215 17.2017L153.069 18.3064L151.635 18.5495ZM156.053 17.6878V17.4447L155.439 17.2017V17.4447L156.053 17.6878ZM159.067 16.9586L159.887 16.4725L159.067 16.362L158.599 16.9586H159.067ZM155.761 16.8481L156.375 16.7156V16.362H155.439L155.263 16.9586L155.761 16.8481ZM168.109 16.2295V15.8759H167.641V16.2295H168.109ZM161.613 16.119V15.8759L161.789 15.5003L161.145 15.3898V16.119H161.613ZM169.865 11.1254V10.7719H169.397V11.1254H169.865ZM167.319 10.5288L166.997 10.2858V10.5288H167.319ZM167.963 10.3963V10.0207H167.495V10.2858L167.963 10.3963ZM170.655 10.1532L170.801 9.66712H170.187V10.1532H170.655ZM167.173 10.1532V9.7776H166.705V10.1532H167.173ZM170.509 9.2915L170.655 8.93797H170.187L169.689 9.42407L170.509 9.2915Z" fill="#483D3F"/>
<path d="M174.709 39.2113L173.191 38.5705L172.802 37.7873L172.237 37.6449L170.896 38.0483L170.719 37.5262L168.989 37.1227L168.813 36.743L167.294 36.6243L166.341 36.4819L166.906 35.8411H166.341L165.564 35.9598L164.999 35.6987L164.823 35.1766L164.258 35.0579L163.658 35.1766L163.481 34.5358L163.658 34.2747L161.398 33.895L161.186 33.3729L160.621 33.2305L160.445 32.8507L159.28 32.5897L158.326 32.7083V32.9694L158.538 33.3729H157.761L156.632 34.5358L155.113 34.9155L153.983 36.3633C152.948 36.7905 151.806 36.9566 150.559 36.8617L149.782 36.6243L149.005 36.743V36.2209L148.264 35.5801L149.217 34.9155H149.782V34.6545L150.347 34.3934V34.1323L152.253 33.7526L152.43 33.2305H153.207L153.983 31.9252L155.113 31.6641V30.9046L156.455 30.7622L156.632 30.1214L155.855 29.0772L155.502 28.9348L155.113 27.9142C155.231 26.9491 154.654 26.1659 153.383 25.5646L152.818 25.0425L153.207 24.5204L153.03 24.1406L153.207 23.7372L152.818 23.2388L154.548 22.8353L154.901 22.1945C156.573 21.8464 158.162 21.4509 159.668 21.0079L160.621 21.1503L163.305 20.2484L164.046 20.3671L164.258 20.106L167.294 19.5839L168.248 19.7263L169.378 19.5839V20.5095L169.942 20.8892C169.566 22.3607 168.871 23.7451 167.859 25.0425L167.294 25.1849L166.341 26.7276L165.564 27.5108C165.07 28.1278 164.505 28.6025 163.87 28.9348L163.481 29.979L164.611 30.5012L164.999 31.1657L165.564 31.2844L165.953 32.0676L167.471 32.1862L167.859 32.5897H168.248L168.813 33.1118L169.942 33.2305L170.154 33.895C170.908 33.721 171.472 33.8475 171.849 34.2747V34.6545L173.191 34.7969V35.319H173.756L175.662 35.5801L176.227 36.1022C176.863 36.1022 177.369 36.2762 177.745 36.6243L178.31 36.8617L178.699 37.2651L179.264 37.5262L178.699 38.0483L178.911 38.3094L177.957 38.167V38.8315L177.569 38.6891L177.004 39.0926L176.792 38.6891H176.404C176.027 39.1321 175.462 39.3062 174.709 39.2113ZM174.532 38.5705L175.274 38.4281V38.167L174.709 38.0483L173.932 38.6891L174.532 38.5705ZM168.248 35.9598V35.5801H167.859V35.9598H168.248ZM157.408 29.5993V29.3382L156.808 29.1958V29.5993H157.408ZM153.207 27.3921L153.772 26.9886L153.595 27.3921H153.207ZM161.01 27.5108V26.9886H160.621V26.6089L161.398 26.4665L161.963 26.6089L162.528 25.446L164.258 25.0425V24.6628L164.046 24.2593L164.999 22.7167H164.258C161.834 22.9698 159.421 23.3574 157.02 23.8796L156.808 24.5204L159.28 26.3478L159.491 26.7276L159.88 26.87L160.233 27.5108H161.01Z" fill="#483D3F"/>
<path d="M140.883 33.899L140.672 33.2808L139.161 33.099L138.985 32.4808H138.211L137.262 32.8808C135.997 32.6141 134.743 32.2869 133.5 31.899V31.099L134.45 30.699V30.1172H135.575L136.911 30.699L137.86 30.299L138.598 30.5172L140.11 28.9172L139.934 27.899H140.321V27.3172H139.723V26.5172L139.934 25.9354L140.883 25.5354V24.9172H140.321C140.321 23.8505 139.934 23.1232 139.161 22.7354V23.7172L136.313 24.1172V24.5172H135.575L135.364 24.9172C135.364 24.1172 135.176 23.4626 134.801 22.9535L135.364 22.1535C137.028 21.6202 138.68 20.9535 140.321 20.1535L140.672 19.3535H141.446V18.9535L140.672 18.7717C141.071 17.5596 141.2 16.3596 141.059 15.1717H141.622V14.7717L140.883 13.5717L140.321 13.3899L139.372 13.7899C137.333 13.7899 135.375 13.5838 133.5 13.1717V12.7717C134.883 12.1172 136.266 11.4626 137.649 10.8081L138.036 11.3899H138.422V10.5899L139.161 10.4081V10.8081L140.11 10.9899V10.4081L140.497 11.5717H140.883L141.27 10.4081L142.184 9.60808L142.008 8.5899C142.383 7.28081 142.641 5.88687 142.782 4.40808H144.856L144.469 4.62626V5.20808H145.032L144.68 6.40808L145.418 6.80808L145.981 6.62626L145.418 6.9899L145.032 9.3899H145.418L145.805 10.9899L146.368 11.1717L146.93 10.9899L147.493 11.9717H148.442V11.1717L149.602 11.7899C149.977 11.1354 150.481 10.8687 151.114 10.9899L151.29 12.7717L150.165 12.1899V12.9899L150.34 13.5717L149.602 14.3717L148.442 13.9717L147.879 14.1899L146.543 13.9717C145.793 14.2384 145.418 14.7717 145.418 15.5717L144.68 15.9717V16.7717C144.797 17.6929 145.102 18.4202 145.594 18.9535L146.368 18.7717C146.485 19.2808 146.86 19.4747 147.493 19.3535L147.879 20.3354L146.192 20.5535V21.1354L146.754 21.3535V21.9354L145.243 23.5354C144.61 23.3899 144.293 23.5838 144.293 24.1172L144.856 24.3354L145.032 25.1354L144.293 25.9354L145.243 26.7354L144.083 27.1354V27.7172L145.032 27.899L145.243 28.5172L144.856 29.3172L143.907 29.099V29.499L144.68 30.699H144.293L144.083 32.4808L143.52 32.8808V33.499H141.833L141.059 33.2808L140.883 33.899ZM135.364 30.9172L134.625 30.5172V30.9172H135.364ZM136.137 23.7172V23.3172L135.575 23.1354V23.5354L136.137 23.7172ZM143.344 19.3535L143.133 18.3717H142.571V18.7717L143.344 19.3535ZM144.68 18.9535L143.907 18.3717V18.7717L144.68 18.9535ZM147.141 12.1899V11.7899L146.543 11.5717V12.1899H147.141ZM144.083 9.3899L143.731 8.9899V9.3899H144.083Z" fill="#483D3F"/>
<path d="M274.576 38.8777V38.4777L274.751 37.8959H274.365L273.24 38.4777L273.064 37.2777L273.626 35.314L273.064 34.6959L273.626 33.4959C273.251 32.9625 272.748 32.7686 272.115 32.914V32.514L270.99 32.114L270.216 33.314L269.478 33.714L269.267 33.0959L268.705 32.914L268.529 34.2959L267.017 34.514L266.455 34.2959L265.33 35.314L264.38 34.6959L264.205 33.8959H262.869V33.314L263.642 32.914V31.714C264.884 31.8595 265.951 31.5928 266.841 30.914L267.58 31.1322V30.114H268.142L268.705 29.5322L269.267 29.714L269.478 28.7322L271.341 27.9322L272.501 26.7322L273.416 26.5504L273.626 25.5322L273.416 24.9504L272.291 24.5504L271.904 25.1322L270.779 24.1504V24.7322H271.166L270.779 24.9504L270.041 23.9322L268.916 23.7504V24.1504L269.654 24.9504H268.142L267.193 24.3322V23.9322L266.455 23.7504L267.017 23.5686V22.7686L266.279 22.3686L265.505 22.7686L264.556 22.5504V22.1504L266.068 21.7504V22.1504H266.455L267.58 21.7504L268.353 21.9686L273.978 21.3504L274.751 19.1686L274.365 18.9868V18.5868L274.576 17.3868L273.802 16.9868L272.853 17.3868L272.501 17.1686L272.291 18.3686H271.552L271.341 17.5686H270.779L270.041 18.5868C270.041 17.908 269.853 17.3747 269.478 16.9868C268.962 16.5747 268.33 16.4413 267.58 16.5868L267.017 15.205H266.63L266.068 11.605L266.63 11.4231V10.805L266.068 9.02314H266.63V8.40496H266.068C266.279 6.95041 266.279 5.49587 266.068 4.04132L269.267 3.82314L270.216 4.04132L271.341 3.64132L271.728 4.62314H272.291L272.501 3.42314C273.486 3.56859 274.423 3.44738 275.314 3.0595L276.052 3.42314C277.201 3.03526 278.396 2.91405 279.638 3.0595L280.763 3.64132L281.361 3.42314V4.04132H281.923L282.099 3.42314L283.611 3.24132L285.123 3.42314V3.82314C286.435 3.72617 287.748 3.66556 289.06 3.64132V4.22314H289.623L288.884 4.84132V5.64132L288.322 6.04132V6.84132L288.146 7.42314H288.708V7.82314H287.759V8.62314C288.251 8.62314 288.498 8.95041 288.498 9.60496C288.169 10.8656 287.548 11.9322 286.634 12.805V14.5868L286.986 16.3686L285.861 15.9686V16.7686L284.912 17.1686L284.736 16.5868C283.728 16.708 282.849 16.5747 282.099 16.1868L281.361 16.5868V16.9868L281.712 17.3868L280.587 18.1868V19.1686L279.287 18.3686V18.9868L279.638 20.7686H279.076V21.3504L282.099 21.5686L282.837 21.1686L284.912 21.5686L285.685 21.3504L286.634 21.7504L288.884 21.5686L290.009 21.7504L290.396 21.5686L291.697 21.7504V22.1504C291.322 22.6837 291.205 23.2777 291.345 23.9322L290.783 24.1504L289.06 23.1686L288.146 23.7504L286.072 23.1686L285.123 23.5686L282.099 22.7686V23.3504H281.361C281.103 23.7383 280.658 23.8716 280.025 23.7504L279.076 26.1504C279.826 26.4171 280.517 26.6837 281.15 26.9504L281.537 28.114L282.486 28.3322L283.787 30.7322H284.349V31.314H284.912V31.714L284.56 32.6959L285.474 33.0959L286.072 32.2959C285.931 32.9747 286.177 33.508 286.81 33.8959L287.548 34.114L287.759 35.314L287.548 35.8959L285.298 36.114V36.8777H284.912V36.4777L283.611 36.6959L281.923 34.914V34.514L280.974 34.2959C281.091 33.6413 280.904 33.314 280.412 33.314L279.287 33.8959L279.076 34.514H279.462V35.0959H279.076V35.8959L279.462 36.8777L278.9 37.4959V36.8777H278.126L277.388 38.6959L277.212 38.0777H276.615C276.005 38.4898 275.326 38.7565 274.576 38.8777ZM277.951 36.2959V35.714H277.388V36.2959H277.951ZM264.556 33.0959L263.994 32.514V32.914L264.556 33.0959ZM279.076 33.314V32.914L278.337 32.514V32.914L279.076 33.314ZM270.427 31.714V31.314H270.041V31.714H270.427ZM278.9 31.714V31.314L278.689 30.7322H278.126V31.314L278.9 31.714ZM281.923 31.714L280.763 31.1322V31.5322L281.923 31.714ZM271.552 31.714V31.314L270.99 31.1322V31.714H271.552ZM279.849 31.314V30.7322H279.462V31.314H279.849ZM273.064 31.1322V30.7322L272.291 30.3322V30.7322L273.064 31.1322ZM281.537 30.3322V29.714H280.974V30.3322H281.537ZM270.779 29.9322L270.041 29.1322V29.5322L270.427 29.714L270.779 29.9322ZM280.587 30.114V29.5322H280.201V29.1322H279.076V29.9322L280.587 30.114ZM277.212 29.714V29.1322H276.615V29.714H277.212ZM273.064 28.7322L271.552 27.9322V28.3322L273.064 28.7322ZM279.849 27.9322L280.412 26.9504H280.025L279.462 27.9322H279.849ZM272.501 23.5686V22.9504H271.728V23.3504L272.501 23.5686ZM271.904 17.5686L272.291 16.7686L271.341 16.3686V16.9868L271.904 17.5686ZM270.427 16.9868V16.3686H269.83V16.9868H270.427ZM280.974 14.405L280.587 12.5868L279.849 12.405V13.3868L280.974 14.405ZM282.099 14.5868V14.1868L282.486 12.9868L283.224 12.405L283.4 11.205L283.998 10.405L283.048 10.2231V10.805H282.099V11.205L281.537 11.4231L281.15 14.005L281.361 14.5868H282.099ZM276.263 14.1868C275.888 13.1201 275.572 11.9928 275.314 10.805L275.701 10.005H275.138L273.802 10.405L272.291 10.005L271.552 9.42314V10.005L271.728 10.405L271.552 11.0231L271.904 11.205L270.427 10.005L271.166 9.82314V9.42314C272.666 8.88981 274.365 8.68375 276.263 8.80496L277.001 9.02314V6.62314H277.388V6.22314L276.052 5.64132L275.701 4.44132H275.314L273.626 4.62314L273.24 5.64132C271.904 5.68981 270.58 5.75041 269.267 5.82314L269.091 7.24132C269.091 8.28375 269.337 9.20496 269.83 10.005L269.654 10.6231L270.427 14.1868L270.216 15.205H271.552L276.263 14.1868ZM286.072 14.1868V13.7868L285.474 13.605V14.1868H286.072ZM276.439 12.5868V11.7868L275.701 11.4231L276.439 12.5868ZM267.193 12.1868V11.605H266.63V12.1868H267.193ZM283.224 9.60496L284.736 8.62314L284.912 7.60496H285.298L285.861 4.84132H285.123L284.349 5.24132L283.611 5.64132L284.736 5.02314L284.912 4.44132L284.349 4.22314V4.84132C283.341 4.96253 282.275 5.09587 281.15 5.24132L280.763 5.82314V5.42314H279.849L279.638 4.84132L279.076 4.62314L278.9 5.82314H278.337L278.126 5.24132L278.513 4.22314H278.126L277.212 4.44132V5.24132L277.775 6.04132L279.849 6.62314L280.412 6.44132L280.974 6.84132V7.82314H281.712L281.923 9.02314L282.486 9.20496V9.82314L283.224 9.60496ZM280.587 7.24132L280.201 6.84132V7.24132H280.587ZM282.662 4.84132V4.22314H282.099V4.84132H282.662ZM276.826 4.22314V3.42314H276.263V4.04132L276.826 4.22314Z" fill="#483D3F"/>
<path d="M227.56 38.0545L225.837 37.6545L225.099 37.4364V37.0364H224.536V36.6364L224.888 36.2364C224.653 35.1697 224.466 34.0424 224.325 32.8545H224.712V32.2364L224.536 31.4364C224.911 30.903 225.099 30.1758 225.099 29.2545L224.888 28.2364L225.274 27.4364H224.888V27.0364H225.485V26.6364L225.099 23.0364L225.485 22.0182H226.048V20.6364H225.661L225.485 18.8182L225.661 18.2364L225.099 17.4364L223.763 17.2182L223.376 18.0182L222.603 18.2364C221.97 17.9697 221.337 17.703 220.704 17.4364L220.142 16.2364L220.704 15.6182L220.317 15.4364V14.8182L221.267 14.4182L221.478 14.0182L222.813 13.6182L222.989 13.2182L224.536 12.4182L224.888 11.4364L223.763 11.0364V10.6364H223.376L222.989 11.2182H222.603C222.228 10.6848 221.724 10.4909 221.091 10.6364L220.915 9.43636H220.528L220.142 7.61818L221.267 7.21818L221.864 7.43636L222.04 6.81818C223.821 6.40606 225.567 5.83636 227.278 5.10909C228.989 4.38182 230.735 3.67879 232.517 3L233.079 3.8C232.587 4.47879 232.024 4.81818 231.392 4.81818C230.993 5.47273 230.349 5.73939 229.458 5.61818L229.106 6.2H228.122V6.6L226.997 7.03636L226.048 7.83636L224.712 7.61818V8.41818H225.485L225.837 9.03636L226.997 9.61818L227.384 10.6364H228.122L228.333 10.0182L229.458 9.61818C230.114 8.81818 231.005 8.35758 232.13 8.23636L232.517 7.61818L233.466 7.03636L233.853 8.01818L232.728 9.43636L231.392 9.83636L231.181 9.21818H230.794L230.231 10.2364C230.864 10.0909 231.181 10.2848 231.181 10.8182H230.442L229.845 10.6364L229.669 11.6182L228.896 12.2364V12.6364L227.56 12.8182V13.8364L226.821 14.2364L226.61 14.8182L228.333 15.0364L229.845 14.6364L230.442 14.8182L230.618 14.2364L231.567 13.6182V13.0364H230.794L231.392 11.2182L232.728 11.0364L233.466 12.0182L234.028 12.2364C234.685 13.4242 235.013 14.6848 235.013 16.0182C235.646 16.4303 236.149 17.0364 236.524 17.8364L237.474 19.8364L235.364 20.0182L235.013 19.8364L234.028 20.2364C233.536 19.4364 233.349 18.503 233.466 17.4364H232.903V18.0182H232.341C231.825 17.3636 231.567 16.6364 231.567 15.8364H231.181L229.845 16.8182L229.106 16.2364V17.0364C228.591 18.103 228.204 19.303 227.946 20.6364L228.122 22.4182H227.56V23.2182L228.333 23.4364C228.192 24.7212 228.192 25.9939 228.333 27.2545L228.122 28.2364L227.771 28.6364L228.122 32.4545L227.946 36.4545L227.384 36.8545V37.4364L227.946 37.6545L227.56 38.0545ZM240.532 37.4364L238.423 36.6364L238.036 35.8364H237.474L236.524 36.4545V36.0545L237.474 35.0364V34.4545L236.7 34.2364V33.6545L236.911 33.2545L237.649 33.4364V33.0364L237.087 32.6364C237.228 31.0364 236.911 29.7758 236.138 28.8545L235.364 29.4364L234.626 28.8545V29.4364L234.802 30.0545L233.29 31.0364C232.774 30.6485 232.587 30.0545 232.728 29.2545H232.341L231.743 30.0545L230.618 27.4364L229.669 27.0364V25.6545L230.231 24.0182L232.13 23.2182L232.517 24.2364L233.677 25.0364V25.8364L234.415 26.0545L234.802 27.2545L234.626 28.2364L235.575 28.6364V28.2364L235.364 27.8364H235.751L235.962 28.4545L236.7 28.6364L237.298 27.8364H237.86V27.4364L237.298 27.0364V26.6364L238.81 26.0545L239.935 26.2364L240.532 26.0545L240.708 26.8545H241.868L247.388 26.0545L247.563 26.4545H247.95L249.075 26.2364L250.235 26.6364L250.798 26.4545L251.185 29.2545H251.958V28.6364H252.345L252.521 29.2545L252.134 29.4364V30.2364L252.521 31.4364L251.571 32.8545H251.185V33.2545L251.958 34.0545L249.673 35.2545L249.075 35.6545L248.724 36.2364H248.126L247.177 35.6545L246.228 36.2364V36.6364L247.388 37.2545L247.001 37.4364L246.228 37.0364L245.489 37.2545L242.817 36.8545L241.868 37.2545L241.095 37.0364L240.532 37.4364ZM221.653 36.4545L220.142 35.6545L219.755 33.6545L219.966 33.2545H220.528V32.6364L219.966 32.0545C220.833 32.0545 221.466 31.7879 221.864 31.2545L221.091 30.8545L221.478 29.2545L221.267 28.6364H221.864V27.8364L222.603 28.0545L222.813 27.2545L221.478 27.0364L219.966 28.4545L220.317 27.6545L219.755 27.2545V26.8545L221.267 26.2364L221.478 25.2182L220.704 24.8182V24.4182L220.915 23.6182H220.528L220.142 24.0182V23.6182H220.704V22.8182L222.251 22.4182L223.376 23.2182V25.4364L223.2 26.0545L223.552 27.6545L223.2 29.0364L223.763 30.2364H222.813V30.6364L223.552 31.2545V31.8364L223.2 32.4545H223.763V32.8545L223.2 33.0364V33.6545L223.376 34.4545L222.989 35.4364L221.653 36.4545ZM245.103 35.6545L244.505 35.4364V35.8364L245.103 35.6545ZM249.462 34.6364V34.2364H249.075V34.6364H249.462ZM244.329 34.4545L246.438 33.6545L248.513 34.0545L248.724 32.0545L248.513 31.0364L248.724 30.4545L248.337 29.0364L247.177 28.6364L247.388 28.0545L246.438 27.6545L246.228 28.6364H245.489L244.716 28.2364C244.2 29.0364 243.368 29.303 242.22 29.0364L240.919 28.8545L240.321 29.0364V29.4364L241.095 31.8364L240.708 32.2364L239.759 32.6364V33.8364L240.321 34.0545L240.919 33.8364L241.271 33.6545L243.556 34.0545V34.6364L244.329 34.4545ZM225.274 33.2545L224.712 33.0364V33.4364L225.274 33.2545ZM238.247 32.4545L237.649 31.8364V32.2364L238.247 32.4545ZM240.146 31.8364L240.708 31.0364L239.583 30.6364V31.8364H240.146ZM249.849 32.0545V31.4364H249.462L249.286 32.0545H249.849ZM238.247 31.2545V30.8545L237.087 30.6364V31.2545H238.247ZM251.36 31.4364V31.0364L251.571 29.6545H250.798L250.622 31.0364L251.36 31.4364ZM239.759 30.4545V30.0545L239.935 29.4364L239.196 30.4545H239.759ZM220.704 29.8364L220.528 29.2545H220.915L221.091 29.6545L220.704 29.8364ZM233.466 30.0545V29.4364H232.903V30.0545H233.466ZM234.415 29.8364V29.2545H233.853V29.8364H234.415ZM233.079 28.4545L232.728 28.0545V28.4545H233.079ZM227.56 28.2364L226.821 27.8364V28.4545L227.56 28.2364ZM232.341 28.4545V27.8364L231.392 27.2545V27.8364L232.341 28.4545ZM245.841 27.8364L246.052 27.2545H245.489L245.278 27.8364H245.841ZM233.853 27.6545L233.466 27.2545L233.29 27.8364L233.853 27.6545ZM232.728 26.8545L232.903 25.6545L232.13 25.2182V26.6364L232.728 26.8545ZM221.653 26.6364L221.267 26.2364V26.6364H221.653ZM239.372 25.6545L238.985 25.4364L239.583 25.2182L239.372 25.6545ZM231.005 25.4364L230.618 25.0364V25.4364H231.005ZM225.837 25.2182V24.2364L225.274 25.2182H225.837ZM222.813 24.4182L222.989 23.8364H222.251V24.2364L222.813 24.4182ZM243.556 23.0364L243.38 22.2364H242.817L242.606 22.8182H241.657C241.165 22.697 240.978 22.297 241.095 21.6182L241.481 21.0364L240.146 20.4182V19.8364C239.513 19.9576 239.196 19.7515 239.196 19.2182C239.829 18.6848 240.521 18.4909 241.271 18.6364L242.044 18.8182L242.817 18.6364V18.2364L242.606 17.6182H242.993V17.0364L242.22 14.8182L237.86 13.8364V12.8182H237.474L237.298 13.2182H236.911L236.7 12.6364L238.247 12.4182L238.599 13.2182L239.759 13.4364C239.501 12.4909 239.688 11.8848 240.321 11.6182V12.2364H241.657L242.431 12.6364L242.817 11.8364L241.271 11.4364L242.431 11.2182L242.993 12.0182H243.556L244.329 11.6182V10.8182H243.767V11.2182H243.204V7.61818L243.556 7.21818L243.204 5.8L243.942 5L244.505 5.8L243.767 6.01818V6.41818L244.716 6.81818V7.43636L244.329 8.63636L244.892 8.81818L245.103 8.01818L245.665 7.83636V8.23636L245.103 9.43636H244.716V10.2364L245.278 11.8364H245.841V10.4182L247.177 10.8182V11.6182L248.724 11.8364V11.4364L248.337 11.0364H248.899L250.06 11.8364L250.411 11.0364H250.798L252.345 12.6364L252.521 12.0182L253.083 11.8364V11.0364L253.681 13.8364H253.083V14.2364L253.294 15.0364C252.38 15.1818 251.548 14.9758 250.798 14.4182L250.622 14.8182H249.075L248.513 14.6364L247.388 14.8182L246.614 14.6364V15.2182L246.79 15.8364L246.614 16.8182L247.001 18.0182L247.774 18.2364L249.286 18.0182L250.235 18.2364L251.185 17.8364V18.2364H252.134L252.345 19.0364H253.294V19.6182L252.521 19.8364L251.958 20.6364V20.0182H251.571L251.185 21.6182L250.235 21.8364C249.228 21.6909 248.337 21.3515 247.563 20.8182V19.8364H246.79L246.614 21.2182C247.247 21.3636 247.563 21.7636 247.563 22.4182H247.177L246.614 21.8364L246.438 22.2364H245.841L245.665 21.6182H245.278L244.892 22.4182H244.329L244.153 23.0364H243.556ZM242.431 22.6364L242.044 22.2364V22.6364H242.431ZM244.892 21.6182L244.505 21.2182L244.329 21.8364L244.892 21.6182ZM242.817 20.8182L242.606 19.6182L242.044 19.4364V19.8364L242.22 21.0364L242.817 20.8182ZM243.942 20.2364L244.153 19.6182H243.556L243.204 20.4182L243.942 20.2364ZM248.899 19.8364L248.337 19.6182V20.0182L248.899 19.8364ZM244.329 18.8182V18.2364L242.993 17.6182V18.0182L243.556 18.4182V18.8182H244.329ZM235.364 17.0364L234.626 16.6364L234.028 16.8182V17.4364H234.802L235.364 17.0364ZM232.728 15.4364V14.0182H232.13V15.4364H232.728ZM225.661 14.6364L224.888 14.4182V14.8182L225.661 14.6364ZM226.997 13.8364V13.2182H226.224V13.8364H226.997ZM241.271 13.2182L240.919 12.8182V13.2182H241.271ZM233.466 12.8182L233.079 12.4182V12.8182H233.466ZM247.388 13.0364V11.6182H247.001L246.614 13.0364H247.388ZM226.61 12.4182L226.821 11.6182L225.274 11.2182V12.0182L226.61 12.4182ZM237.649 11.6182V11.2182H239.372L237.649 11.6182ZM246.79 11.2182L245.841 10.6364V11.0364L246.79 11.2182ZM229.458 10.6364V10.0182H228.896V10.6364H229.458Z" fill="#483D3F"/>
<path d="M198.332 41.4182L198.719 41.2364V40.6182H198.332V40.2182L198.895 40.4364L199.492 39.4182L198.332 39.2364V38.8364L198.719 37.8182L198.156 35.0545L198.719 34.8364L199.105 33.6364L199.492 32.8727H199.105L198.543 33.0545V32.6545L198.719 31.8545H197.945L196.82 30.6545H196.258L195.871 31.2727H195.098L194.922 30.4727L193.762 30.2545L193.199 31.0545H192.039L191.477 30.8727L191.301 28.8727H190.703L190.527 30.0727L190.703 30.6545L190.352 31.2727C189.719 30.7394 189.461 30.0727 189.578 29.2727H188.805L188.629 30.4727H187.68V29.6727C188.312 29.0182 189.074 28.6909 189.965 28.6909L190.527 28.8727L191.09 27.8909H192.637V28.2909C194.09 28.1212 195.543 28.1212 196.996 28.2909L198.543 26.4727L199.879 25.8909L200.441 25.0909V24.2909L198.895 24.1091L196.82 24.6909V23.0909H195.871V21.0909L196.258 20.3273L195.66 20.1091V19.3091H197.207V18.9091L196.996 18.3273L197.77 18.1091L198.156 17.3091C199.68 17.3091 201.016 16.8485 202.164 15.9273L202.516 17.1273L203.289 17.3091V16.7273L203.113 16.3273L204.238 16.9091L205.012 16.3273L205.398 17.1273L205.961 17.3091L206.348 16.1455L208.809 15.7455V16.7273H209.371V16.1455L209.582 16.9091L209.371 17.5273L209.758 18.7273L209.582 19.5273H209.195V20.1091H209.758L210.32 19.7091L210.707 21.4909L211.48 21.7091L211.867 23.4909L210.145 23.8909L208.246 23.7091L206.137 24.8727L202.727 23.7091L202.34 24.2909L201.953 25.2727L202.164 26.0727L201.391 26.6909L201.566 27.6727H203.289L204.449 27.0909L206.348 27.8909V28.6909L206.137 29.6727L206.348 30.0727L205.961 30.6545C206.336 31.3333 206.465 32.1333 206.348 33.0545H205.574V33.4545H205.012V33.0545H204.062V33.8545L205.75 34.4364L205.961 35.2364L205.398 35.6364V36.2545L206.348 37.2364L206.734 38.0364L206.137 38.2182V39.4182L206.348 40.0364L206.137 41.0182L206.523 41.4182H198.332ZM195.66 38.6182L193.973 37.6364L193.762 37.0545H193.199V38.0364H192.812L191.301 37.4182L191.477 36.4364H190.914L191.09 36.0364L189.578 35.8545L188.805 36.0364L188.242 35.0545L189.191 34.0364L189.402 33.2364H189.965C192.238 34.1818 194.523 35.2485 196.82 36.4364V37.8182L195.66 38.6182ZM196.047 37.8182V37.4182H195.66V37.8182H196.047ZM199.879 37.6364L199.105 37.0545V37.6364H199.879ZM199.492 36.2545V35.8545H199.105V36.2545H199.492ZM190.141 35.4545V35.0545H189.754V35.4545H190.141ZM204.625 35.4545L204.238 35.0545V35.4545H204.625ZM204.062 31.0545L203.676 30.6545L203.465 31.2727L204.062 31.0545ZM192.988 30.0727V29.2727H192.25V30.0727H192.988ZM194.535 29.8545V29.4545L194.324 28.8727H193.762V29.8545H194.535ZM180.051 27.6727V27.0909L180.438 26.0727H180.824L181.562 26.2909C182.852 25.103 184.316 24.4364 185.957 24.2909L186.133 24.8727H186.73L186.906 24.2909L186.52 24.1091L185.957 23.3091L186.133 22.6909L185.57 22.5091L185.395 21.4909L185.781 20.7273C184 20.0485 182.148 19.7091 180.227 19.7091V19.3091C180.883 18.5091 181.645 18.0485 182.512 17.9273L183.285 18.3273C186.215 18.0606 189.074 17.5879 191.863 16.9091V17.5273H192.637V17.9273L191.688 18.1091V18.7273L192.039 19.1273L191.301 19.5273L190.703 22.1091L189.578 22.5091L189.402 23.4909L190.914 24.1091L191.863 23.7091L192.039 25.0909L191.09 26.2909H190.527L189.578 26.0727C186.648 26.3394 183.859 26.8121 181.211 27.4909L180.613 27.2727L180.051 27.6727ZM200.828 27.6727L201.004 26.8727H200.441L200.23 27.8909L200.828 27.6727ZM201.18 25.0909L200.828 24.6909V25.0909H201.18ZM189.016 23.8909V23.0909L188.418 22.9091V23.8909H189.016ZM204.625 23.7091V23.3091L204.801 22.6909H204.238V23.7091H204.625ZM197.207 22.5091L197.383 21.8909H196.82L196.434 22.6909L197.207 22.5091ZM202.164 21.8909V21.4909L204.062 21.3091L205.012 21.4909L205.188 19.7091L205.012 19.1273H204.062L202.516 19.5273L201.566 19.3091L201.391 20.1091L201.566 21.8909H202.164ZM186.344 21.7091V21.3091H185.957V21.7091H186.344ZM200.23 20.9091L200.441 20.3273H199.492V20.7273L200.23 20.9091ZM198.543 20.3273V19.9273H198.156V20.3273H198.543ZM201.566 19.1273L201.777 18.1091H201.391L201.18 19.1273H201.566ZM203.852 18.3273V17.7091H203.465L203.289 18.5091L203.852 18.3273ZM191.477 17.9273L191.688 17.3091H190.914V18.1091L191.477 17.9273ZM208.035 17.9273L207.684 17.5273V17.9273H208.035ZM201.953 17.7091L201.391 17.5273V17.9273L201.953 17.7091ZM196.82 15.5273L196.047 14.3273L195.484 14.1455V14.7273L194.324 14.9455L192.988 14.5455V15.1273L192.25 14.9455L191.688 15.1273L190.914 14.9455L189.965 15.1273C189.449 14.4727 188.746 14.2061 187.855 14.3273V13.9273L188.418 13.1273H189.578L190.141 13.3455L190.703 13.1273V12.7273V13.5273H191.301L191.863 12.7273L192.812 13.3455V12.9455L192.426 12.3636L194.711 12.1455L195.273 12.3636L196.258 11.9636L197.945 12.3636L198.156 11.3455H198.543V12.3636C199.668 11.1515 200.301 9.75758 200.441 8.18182H199.492V7.78182H199.105L198.332 8.94545L196.82 8.18182V8.76364L196.047 9.56364H195.484L195.871 8.76364L195.273 8.54545L194.922 9.16364H194.535V8.76364H193.762V9.56364H194.148V9.96364H193.762L193.199 9.74545L192.637 9.96364C191.77 9.45455 190.879 8.98182 189.965 8.54545L190.352 7.78182H189.965L188.805 8.36364V7.96364L189.016 7.56364L189.965 7.16364H190.352V6.76364V7.56364L191.863 6.36364H192.988L193.586 6.58182V5.78182H193.973L194.922 6.36364L195.098 5.16364H195.484L196.609 6.18182L197.207 6.98182L197.383 4.98182H197.945L198.332 6.58182H198.895L200.441 5.16364L201.18 5.96364V5.16364L202.164 3.6L201.391 3.2V2.8C197.359 3.11515 193.293 3.44242 189.191 3.78182L188.629 1.78182C191.043 1.24848 193.457 0.787879 195.871 0.4L196.82 0.8L197.207 0H197.77L198.543 0.4L200.23 0.181818V0.581818H200.617C201.766 0.193939 203.043 0.0606061 204.449 0.181818L205.961 0.981818L206.348 0.8C205.715 2.25455 205.141 3.70909 204.625 5.16364L203.852 5.38182L203.465 7.56364L203.113 7.96364C203.746 8.61818 203.992 9.41818 203.852 10.3636L203.113 10.5455L202.902 11.3455H201.004V12.1455L202.164 12.5455V13.1273L201.391 13.5273L200.617 13.3455V13.9273L199.492 14.1455L198.543 13.9273L197.77 14.3273L196.996 13.9273L196.609 13.3455H196.047V13.7455L197.207 15.3455L196.82 15.5273ZM199.668 13.7455L199.105 13.3455V13.9273L199.668 13.7455ZM190.914 10.7636C190.281 10.0848 189.578 9.68485 188.805 9.56364L189.754 9.34545C190.27 10.2909 191.031 10.6303 192.039 10.3636L190.914 10.7636ZM192.988 9.56364L193.199 8.36364L192.426 8.18182V8.94545L192.988 9.56364ZM194.148 7.96364V7.56364H193.762V7.96364H194.148ZM196.047 7.56364L195.871 6.98182L195.484 6.58182H194.922V7.38182H195.484V7.78182L196.047 7.56364Z" fill="#483D3F"/>
<path d="M97.2949 40.4364L97.1191 39.2364L97.2949 37.6364H96.7324V36.0364L97.5059 34.4364L96.5566 34.0364V33.2364L96.9434 31.4545L97.5059 30.6545L96.9434 30.4364L96.7324 28.6545L96.9434 27.8545L95.7832 27.2364C95.291 27.9152 94.6582 28.1212 93.8848 27.8545V28.6545L92.9355 28.8364L92.7598 29.6364L91.6348 29.8545L91.0371 29.6364C91.2949 30.5818 91.0488 31.1879 90.2988 31.4545L89.9121 30.6545L89.5254 29.8545L90.8613 28.4364V27.8545L91.9863 27.6364L92.1973 26.8364L93.8848 25.8545C94.5176 24.7879 95.3379 23.9152 96.3457 23.2364L97.2949 22.8364L97.5059 21.6364L97.8574 21.2364L97.6816 19.6364L97.8574 17.8182L97.1191 17.4182L96.9434 18.0364H95.9941L94.834 17.8182C94.834 18.497 94.5176 18.8364 93.8848 18.8364C92.877 18.1576 91.8105 17.7576 90.6855 17.6364L90.123 16.0364C92.2559 15.0909 94.459 14.2182 96.7324 13.4182L97.2949 13.6364V13.0182L98.2441 12.4364L98.4551 9.81818L98.2441 9.01818L99.0176 8.61818L99.1934 7.23636L98.6309 7.01818L98.4551 7.81818H97.5059L96.7324 7.41818L96.1699 7.63636V8.43636L95.2207 8.83636L94.834 9.63636H94.2715L93.709 9.41818V9.81818L93.8848 10.2182L91.8105 9.81818L91.6348 8.61818L92.1973 7.81818L93.3223 7.41818L93.5332 6.43636L95.3965 5.63636V5.23636H96.5566V4.83636C97.5645 4.15758 98.7012 3.81818 99.9668 3.81818V3.2H99.4043C100.529 3.07879 101.666 2.88485 102.814 2.61818L105.275 5.01818C104.268 5.01818 103.248 5.22424 102.217 5.63636V6.03636L100.529 6.61818L100.354 8.21818H99.9668V9.01818H100.705L100.916 10.8364L100.705 11.6364H101.268C101.783 11.2242 102.357 11.0909 102.99 11.2364V10.8364H103.553L102.814 11.0182V11.4182L104.502 12.0364L104.678 14.2182H105.064V14.6182L103.764 15.6364L102.99 15.2364L102.814 16.0364H102.041L101.479 18.2182C102.111 19.0182 102.932 19.3576 103.939 19.2364L104.502 20.0364C106.025 21.103 107.607 21.9636 109.248 22.6182L109.635 24.0364C108.744 24.4485 107.795 24.7152 106.787 24.8364V25.2364C104.771 25.1879 103.061 24.4606 101.654 23.0545V22.4364H101.268L101.092 26.4364L101.268 27.0545H100.705V27.6364L100.916 29.2364H100.529V30.6545L100.916 32.2545L100.529 33.8545C100.904 35.0424 101.033 36.303 100.916 37.6364L101.479 38.2545L100.143 39.2364L99.9668 39.6364C98.959 39.5152 98.0684 39.7818 97.2949 40.4364ZM105.627 36.0364V35.6364L105.838 35.0545L105.627 34.4364L107.174 34.0364L107.35 33.2364C108.24 33.1152 109.119 32.9212 109.986 32.6545L110.76 32.8364C112.518 32.5697 114.158 32.0364 115.682 31.2364V30.6545L115.506 29.4545L115.857 28.4364L115.119 28.2545L114.943 27.8545L115.119 26.8364C114.604 26.303 113.912 26.1091 113.045 26.2545C113.045 26.7879 112.729 27.0545 112.096 27.0545L110.584 26.6545C110.068 27.0424 109.436 27.1758 108.686 27.0545L107.525 26.8364L108.123 26.6545V26.2545L109.248 25.6364H109.811V26.0364H110.373L110.584 25.4545L113.045 24.8364L113.607 25.2364L114.732 24.2545L114.943 22.8364H114.557V22.0364L114.732 21.4182L114.346 20.2182L113.783 19.8182H113.221V20.2182L109.986 20.8364L109.248 19.8182L109.635 19.2364C112.143 18.1697 114.721 17.4061 117.369 16.9455C120.041 16.4606 122.701 16.0242 125.35 15.6364L126.123 16.8364L124.576 17.0182L124.4 17.6364L122.115 18.8364L121.166 18.6182L119.865 19.2364V19.6364L120.041 20.6182L119.865 21.4182L120.217 21.8182L118.916 22.0364L118.354 21.8182V22.4364C119.854 22.8485 121.365 23.1152 122.889 23.2364L123.275 24.6545L122.678 25.4545L123.275 26.0364L121.939 26.4364L121.377 28.8364L120.428 29.6364L121.939 30.0364L122.115 30.6545C123.006 30.6545 123.709 30.9818 124.225 31.6364V30.6545H124.787L126.299 31.4545V30.8364L126.123 30.2545L127.424 31.0545V31.4545H127.986H126.475V32.0364L127.248 32.8364L126.123 32.6545V33.4545L127.037 34.0364C123.639 34.5697 120.229 34.6424 116.807 34.2545V34.6545C116.057 34.6545 115.365 34.7879 114.732 35.0545L113.994 34.4364V35.2364H113.607L112.447 34.8364L111.709 35.0545L110.373 33.8545L110.197 35.2364H108.299C107.291 35.2364 106.4 35.503 105.627 36.0364ZM108.299 34.6545V34.2545H107.912V34.6545H108.299ZM117.756 32.4364L117.404 32.0364V32.4364H117.756ZM120.99 32.2545V31.8545L120.428 31.6364L120.217 32.2545H120.99ZM119.479 32.0364V31.4545H118.916V32.0364H119.479ZM120.041 28.6545L120.814 28.2545L121.377 28.4364V27.6364L120.428 27.4545V27.8545H119.865L119.654 28.6545H120.041ZM115.857 28.0364V27.4545H115.295V28.0364H115.857ZM97.6816 27.6364L97.1191 27.0545V27.8545L97.6816 27.6364ZM124.576 24.8364L124.787 24.4364L124.963 24.8364H124.576ZM115.682 24.6545L114.943 24.2545V24.8364L115.682 24.6545ZM104.889 23.4545L104.326 23.2364V23.6364L104.889 23.4545ZM115.857 23.2364V22.8364L115.506 23.2364H115.857ZM120.604 18.8364L120.814 18.2182H120.217V18.8364H120.604ZM103.939 14.8364L103.377 14.6182V15.0182L103.939 14.8364ZM110.584 14.6182L110.373 13.8182H109.986L109.424 14.0364L108.123 13.6364C108.732 13.6364 109.037 13.3697 109.037 12.8364L108.475 12.0364L107.912 10.8364L108.299 10.0364L107.525 9.63636V9.23636H107.912V7.01818L108.686 6.83636L108.861 6.21818C111.393 5.15152 113.924 4.14545 116.455 3.2L116.631 3.81818H117.018L117.404 3.01818L118.143 2.8L120.428 3.01818C121.553 2.33939 122.818 2 124.225 2L124.4 2.8H124.787L125.174 2.61818V3.01818L124.787 4.43636L124.225 4.61818V5.01818L124.576 6.43636L124.225 7.81818L123.275 8.83636V9.41818L124.225 10.0364V10.4364L123.275 10.8364L122.889 11.6364L121.939 11.8182L121.764 12.2182C120.1 12.7515 118.33 13.0909 116.455 13.2364L115.295 13.0182L114.732 13.2364V13.8182H114.17L112.834 13.2364V14.0364L111.146 14.2182V14.6182H110.584ZM109.424 12.4364L109.037 12.0364V12.4364H109.424ZM118.143 11.0182L118.529 10.0364H118.916C119.408 8.70303 119.783 7.29697 120.041 5.81818C119.291 5.28485 118.471 5.09091 117.58 5.23636L117.018 5.41818L116.068 5.23636L115.682 6.03636H114.17L113.607 5.81818L113.045 6.83636H112.447V7.23636L111.146 7.81818L110.936 8.61818H111.322L112.096 8.43636L112.447 9.01818L112.271 9.81818H113.396V10.2182L112.658 10.6182L112.447 11.2364L115.682 11.4182L118.143 11.0182ZM111.146 10.2182L111.322 9.63636H110.76V10.2182H111.146ZM122.678 9.23636L122.115 8.61818V9.01818L122.678 9.23636ZM110.373 8.43636L110.584 7.81818H109.635V8.21818L110.373 8.43636ZM120.428 5.23636V4.61818H119.865V5.23636H120.428ZM123.627 3.81818L123.838 3.2H123.451L123.275 3.81818H123.627Z" fill="#483D3F"/>
<path d="M66.1377 39.4364L65.5752 39.2182V38.4182H64.9775L64.8018 36.6364H64.2041V36.2364L64.3799 35.6545H63.9932L64.2041 34.8545H65.1885L65.3643 32.8545L65.751 33.8364L66.3486 34.0545L65.9619 35.0364L67.1221 35.4364V34.6364H68.1064L69.2666 35.2545V34.6364L67.7197 33.8364V33.4364L69.8291 32.4545L70.2158 31.6545H70.8135L71.4111 31.8727V31.4727L71.0244 31.2545V30.8545H70.4268H71.0244L71.4111 31.0727V31.4727H71.9736V31.0727H72.3604L73.3447 31.2545L73.5557 30.2727H74.3291L74.5049 32.0545H73.3447L72.7471 31.6545L72.1846 32.6364L71.7979 32.2727L71.2002 34.4545L70.4268 35.2545H70.04L69.4424 36.6364L67.8955 37.2182L67.5088 38.2364L66.1377 38.6364V39.0364V39.4364ZM72.1846 38.6364L71.9736 37.8364L72.5713 38.6364H72.1846ZM74.8916 38.2364L75.2783 37.8364V38.2364H74.8916ZM72.958 38.0182L72.7471 37.4364L73.5557 37.0364V36.4545L72.5713 35.2545L73.1689 34.6364L72.7471 34.2364H73.1689V33.0364L74.1182 33.6545L75.2783 33.0364V33.4364L74.1182 33.8364L73.9424 34.4545H73.3447V35.0364L74.1182 37.4364L73.9424 37.8364L72.958 38.0182ZM75.2783 37.4364V36.6364H75.665L75.2783 37.4364ZM53.4814 36.8182L53.3057 36.2364H52.9189L52.3213 36.4545L52.1455 35.8364C51.4893 35.9818 51.0322 35.7879 50.7744 35.2545L50.5635 34.0545L50.7744 33.4364L50.5635 32.8545L50.7744 31.8727C50.5166 30.1273 50.1885 28.3939 49.79 26.6727L50.5635 26.0909C50.4463 25.4121 50.6455 24.9394 51.1611 24.6727H51.7588C52.2744 25.0848 52.5322 25.6182 52.5322 26.2727L54.29 26.6727V25.6909L53.4814 25.0727V24.3091L54.29 24.0909L55.8369 24.6727V25.2909H56.2236C57.1377 25.0242 57.9814 24.7576 58.7549 24.4909V24.0909H59.1416L60.126 24.8909V24.4909H60.5127V26.0909H61.0752L60.3018 28.0909L60.6885 28.2727V29.0727L61.2861 29.4727L60.8994 30.0545H60.5127L59.915 29.8727V30.6727L60.126 31.2545H60.6885L61.0752 31.0727C61.4736 31.8727 61.6729 32.6606 61.6729 33.4364L60.3018 33.6545L59.915 35.0364L58.9307 35.2545L57.9814 34.8545L57.5947 35.6545L58.1572 36.2364L56.4346 36.4545L54.29 36.2364L53.4814 36.8182ZM67.1221 36.4545L67.2979 35.8364L65.9619 35.6545L65.751 36.6364L67.1221 36.4545ZM74.3291 36.0545V35.4364H75.1025L75.2783 35.8364L74.3291 36.0545ZM82.4854 34.2364L80.9385 33.6545L80.7275 33.0364L76.0869 29.2545H74.7158V29.8727V29.4727H73.3447L72.958 30.0545L71.7979 30.4545V30.0545H72.1846V29.6545L71.7979 29.0727L72.5713 29.2545V28.6727L71.9736 28.4545L71.5869 26.8909L70.2158 26.4909L68.6689 26.6727L68.2822 24.8909H67.7197L67.2979 26.2727L66.5244 26.6727L65.9619 25.6909C65.1885 25.6909 64.4736 25.4242 63.8174 24.8909V24.3091H64.2041V23.1091L63.9932 22.7091H64.3799L64.5908 23.5091H64.9775L66.5244 23.2909L67.1221 23.5091V22.7091L69.4424 22.4909L69.6533 23.2909H70.2158L70.6377 23.1091L70.8135 23.5091H71.2002L71.4111 22.3091L71.5869 22.7091H72.1846L72.5713 21.9091H71.9736V21.5091L72.3604 20.1273L71.4111 19.9091C71.5283 19.1091 71.2705 18.6485 70.6377 18.5273L70.2158 18.7091L69.6533 17.7273H69.2666L68.4932 18.1273V18.5273L68.8799 18.7091V19.1091H68.2822L67.1221 18.5273L66.7354 17.3273L66.9111 16.3091H67.2979L67.5088 17.1091H68.2822V16.5273L70.6377 16.1273L70.8135 15.5455H71.5869L72.3604 15.7273L72.5713 14.9273L72.3604 13.7273H71.7979L71.2002 13.9455V12.9273H71.5869V12.1273L70.8135 11.7636V11.3636H69.6533L69.4424 11.9455L68.6689 12.1273L68.2822 13.1455L67.5088 13.3273L67.2979 14.3455L67.5088 14.9273L67.1221 15.7273H66.3486L66.1377 16.3091H64.9775L64.5908 15.5455C64.5908 14.0182 64.5908 12.4909 64.5908 10.9636L64.2041 8.96364L64.8018 4.96364L65.9619 4.56364L66.1377 3.98182L67.7197 3.76364V4.16364L69.2666 4.56364L69.4424 3.18182C70.5205 2.89091 71.5635 2.96364 72.5713 3.4V3C73.4854 3.07273 74.3877 3.26667 75.2783 3.58182L75.4893 3H80.165L80.3408 3.58182L80.165 3.98182H79.7783V4.38182C80.2939 6.10303 80.4814 8.0303 80.3408 10.1636L79.7783 12.1273L80.3408 14.3455C79.708 14.7333 79.4502 15.2667 79.5674 15.9455H80.3408V16.5273L79.3916 17.3273V18.1273L79.5674 18.5273L77.4229 18.9273L77.2471 18.3091H76.6494L76.2627 18.9273L75.2783 20.3091L74.3291 19.9091V21.2909L75.1025 22.3091L75.665 22.4909L76.2627 22.3091V21.6909L77.6338 22.3091L78.6182 21.9091V22.7091H79.1807L79.3916 21.5091L79.9541 21.2909L80.9385 22.3091H80.165V23.1091L80.9385 23.2909V23.6909L79.1807 24.4909V25.0727H79.7783V25.4727L79.1807 25.6909L78.1963 25.0727L77.6338 24.4909C77.6338 25.1455 77.4346 25.7394 77.0361 26.2727H75.876V26.8909L76.0869 27.4727H76.4736L77.0361 27.2909C78.6064 28.8667 80.2939 30.2606 82.0986 31.4727L82.6963 31.6545L83.8564 32.6364L84.2432 33.8364C83.7275 34.2485 83.1416 34.3818 82.4854 34.2364ZM52.3213 33.6545L51.7588 33.4364V33.8364L52.3213 33.6545ZM57.9814 33.4364V32.8545H57.3838V33.4364H57.9814ZM66.9111 33.2545L66.5244 32.2727L67.2979 33.0364L66.9111 33.2545ZM55.4502 33.0364L56.4346 32.6364L57.5947 32.8545L58.3682 32.4545C58.2979 31.0485 58.4268 29.6545 58.7549 28.2727L58.3682 28.0909V27.2909L58.9307 27.0727V26.6727L57.5947 26.4909L57.208 27.2909H56.8213V26.8909L57.3838 26.6727V25.8727L56.4346 25.6909L54.8525 26.4909L54.6768 27.0727L53.9033 27.4727L53.6924 27.8727L53.4814 28.4545L54.0791 31.4727L54.6768 32.6364L55.4502 33.0364ZM67.8955 32.6364L67.7197 32.0545L68.4932 31.6545L68.8799 30.8545H69.4424L69.2666 32.2727L67.8955 32.6364ZM53.6924 31.6545V31.0727H53.0947V31.6545H53.6924ZM59.7393 30.8545V30.2727H59.1416V30.8545H59.7393ZM51.3721 30.0545V29.4727H50.7744V30.0545H51.3721ZM73.5557 29.2545V28.4545H73.1689L72.958 29.0727L73.5557 29.2545ZM53.0947 28.8545L52.708 28.4545V28.8545H53.0947ZM58.9307 26.2727V24.8909H57.9814V25.2909L58.3682 26.2727H58.9307ZM69.6533 26.2727V25.6909L68.6689 25.4727V25.8727L69.6533 26.2727ZM70.6377 26.0909V25.6909L70.8135 25.0727L70.2158 24.8909L69.8291 26.0909H70.6377ZM54.6768 25.4727V25.0727L54.0791 24.8909V25.4727H54.6768ZM80.3408 25.2909V24.8909H80.7275V25.2909H80.3408ZM65.3643 24.0909L64.8018 23.9091V24.3091L65.3643 24.0909ZM77.8096 23.9091V23.5091L78.0205 22.7091L77.4229 22.4909L77.0361 23.2909L77.2471 23.9091H77.8096ZM76.2627 23.5091L76.4736 22.8909H76.0869L75.665 23.6909L76.2627 23.5091ZM75.4893 23.2909V22.7091H75.1025V23.2909H75.4893ZM74.3291 23.1091V21.9091H73.7314L73.1689 22.0909V22.7091L74.3291 23.1091ZM50.1768 22.3091V21.5091L49.79 20.3091L53.4814 19.5091L54.0791 19.9091L54.29 18.9273H54.6768V19.3273H55.2393V18.9273H55.626L56.2236 19.1091L57.208 18.7091L57.7705 18.9273L58.3682 18.7091L59.7393 20.1273L59.3525 20.3091L59.1416 21.2909H58.5439C58.0283 20.903 57.4541 20.7697 56.8213 20.8909V21.2909L55.0635 21.6909L50.9854 21.2909V21.6909L50.1768 22.3091ZM78.1963 17.7273L77.6338 17.5091V17.9091L78.1963 17.7273ZM76.6494 17.5091L75.876 16.7091V17.1091L76.6494 17.5091ZM78.7939 17.3273V16.9273H78.4072V17.3273H78.7939ZM70.6377 16.9273V16.5273H70.2158V16.9273H70.6377ZM74.5049 15.9455L77.4229 14.9273C77.4932 13.3515 77.5635 11.7636 77.6338 10.1636H77.2471L76.4736 10.3455L75.2783 9.94545V10.3455L75.4893 10.9636L72.5713 12.3455V12.9273L73.7314 13.9455L73.9424 12.9273L74.8916 12.7455L75.2783 12.9273L75.4893 13.9455L75.2783 14.3455V13.3273H74.8916L73.9424 13.7273V14.1273H73.3447L72.958 13.9455L72.7471 14.5273L74.5049 15.9455ZM50.3877 15.5455L49.79 15.3273V14.5273C51.876 13.7273 54.0205 13.1939 56.2236 12.9273L57.7705 13.1455L59.3525 12.7455L60.126 13.1455L60.3018 13.9455L59.3525 14.3455L58.9307 15.1455L56.4346 15.3273L55.626 14.9273L53.6924 15.1455L52.9189 14.9273L52.708 15.3273H52.1455L51.3721 15.1455L50.3877 15.5455ZM67.8955 12.5273V11.9455H67.2979L67.1221 12.5273H67.8955ZM79.0049 11.9455L78.4072 11.3636V11.9455H79.0049ZM70.6377 11.1455V10.5636H70.04V10.9636L70.6377 11.1455ZM52.708 9.76364V9.14545L49.4033 8.74545L49.2275 6.96364C50.2588 6.57576 51.4189 6.44242 52.708 6.56364L53.0947 3.58182H54.0791V3H55.2393L55.4502 3.4H55.8369L56.0127 3H56.6104L57.3838 5.76364L60.3018 5.98182L61.4619 5.76364L62.0596 6.38182L62.2705 5.76364L62.833 5.58182L63.0439 6.78182L62.6572 7.58182H62.2705C62.3877 8.23636 62.1885 8.62424 61.6729 8.74545L60.6885 8.56364V8.96364L60.8994 9.54545H60.3018L58.9307 8.96364L58.1572 9.14545L57.3838 9.36364L56.6104 9.14545V9.54545L55.0635 9.14545L54.29 9.54545V8.96364L54.4658 8.34545L53.4814 7.58182C53.6221 8.50303 53.3643 9.2303 52.708 9.76364ZM75.4893 9.54545L76.0869 8.74545L77.6338 8.56364L78.0205 5.18182L76.4736 4.78182V5.18182L77.0361 6.56364H76.0869L75.1025 5.76364L74.8916 6.38182L75.1025 7.18182L74.3291 7.58182V8.16364L75.1025 8.56364L74.7158 8.74545V9.36364L75.4893 9.54545ZM67.1221 9.36364L67.2979 8.74545H66.7354L66.5244 9.36364H67.1221ZM72.7471 9.14545L72.958 8.16364L71.5869 7.94545L71.0244 8.16364L70.04 5.58182L68.6689 5.18182V6.38182L69.4424 6.78182V7.18182H69.0557L67.8955 6.78182L67.1221 8.34545L67.2979 8.96364C68.2119 9.35152 69.2549 9.48485 70.4268 9.36364L72.1846 8.74545L72.7471 9.14545ZM57.3838 8.96364L58.3682 8.74545V8.16364L56.2236 7.76364V8.16364L56.9971 8.56364L57.3838 8.96364ZM61.2861 6.96364V6.56364L60.6885 6.38182V6.78182L61.2861 6.96364ZM67.5088 6.16364V5.76364H67.1221V6.16364H67.5088ZM70.4268 4.96364V4.56364L70.04 3.58182H69.4424V4.56364L70.4268 4.96364ZM74.3291 4.38182L73.9424 3.98182V4.38182H74.3291Z" fill="#483D3F"/>
<path d="M4.4873 34.6909V34.2909L5.0498 31.0909L4.66309 30.1091L2.41309 28.9091L2.20215 28.2909L5.0498 26.7273L5.82324 27.1273L6.38574 25.1273H5.43652V23.9273L5.82324 23.1273C5.94043 21.6727 5.62402 20.4121 4.87402 19.3455C3.2334 19.4909 1.78027 19.1636 0.514648 18.3636L0.303711 17.5636L0.866211 16.1455H4.27637L5.0498 16.3636L5.6123 14.7636L5.22559 11.7818L6.7373 10.5818C7.62793 12.4485 8.07324 14.5091 8.07324 16.7636L8.63574 16.9455L9.97168 16.3636L10.1475 17.1636H10.5342L10.9209 16.3636L11.6943 16.1455L11.3076 14.9818L11.4834 14.3636H10.3584C10.8037 12.6667 10.9912 10.9455 10.9209 9.2H11.8701L12.2568 8L12.9951 9.6H12.4326V10.1818L13.5576 10.4V11.2L14.1553 11.3818V11.9636L13.5576 12.3636V12.9818L14.3311 17.5636H14.7178L15.4561 17.1636L15.8428 17.9636L15.667 18.9455L16.2295 20.3273L16.0537 20.7273H15.667L15.1045 20.5455C13.9561 21.2 13.5107 22.1939 13.7686 23.5273L13.9443 25.5273H16.0537V26.3273L14.7178 26.7273L14.3311 28.5091L14.5068 29.4909L14.1553 30.5091L14.3311 31.3091L14.1553 32.1091L14.3311 32.6909L13.9443 32.8727V33.4909L14.3311 34.2909L13.3818 34.6909L11.6943 34.2909L10.7451 34.4727L10.3584 34.2909V33.6727C10.8506 32.7515 11.0381 31.7576 10.9209 30.6909L10.5342 29.8909H8.07324C7.69824 31.3697 7.25293 32.8364 6.7373 34.2909L5.6123 34.4727L5.0498 34.2909L4.4873 34.6909ZM9.7959 26.7273C10.4287 26.4606 11.0615 26.1939 11.6943 25.9273L11.8701 25.1273L11.3076 23.9273L10.7451 22.9455L10.9209 20.7273H8.63574C8.47168 22.4727 8.28418 24.2061 8.07324 25.9273L9.7959 26.7273ZM15.4561 19.9636V19.5636L15.1045 19.9636H15.4561ZM10.3584 18.7636V18.1455H9.7959V18.7636H10.3584ZM5.43652 16.9455L5.0498 16.5455L4.87402 17.1636L5.43652 16.9455ZM12.6436 14.3636L12.0459 14.1818V14.5818L12.6436 14.3636ZM14.1553 9.2L13.9443 8.4L14.8936 8.18182V9.2H14.1553Z" fill="#483D3F"/>
</svg>
