<svg width="364" height="42" viewBox="0 0 364 42" fill="none" xmlns="http://www.w3.org/2000/svg">
<path d="M360.355 38.9855V38.6036H359.973L359.418 38.8119L358.654 38.43V37.458L359.209 36.3124L359.591 34.4377H359.973V33.8476H359.418L358.654 34.0559L358.064 33.8476L357.508 34.0559L357.126 33.0838H356.536L356.154 33.2921L355.599 31.9729L357.3 31.3828C357.809 31.7762 358.388 31.9035 359.036 31.7646V30.8273L358.446 30.2372L358.654 29.6817H357.89L357.682 30.8273L356.918 28.918H356.363L356.154 29.8553L353.69 29.4734L353.481 30.4455H352.926L352.336 29.6817H351.398C350.889 30.052 350.635 30.5612 350.635 31.2092L352.336 31.7646L353.099 31.5911L353.481 33.2921L353.308 33.8476L352.544 34.0559V34.6113H352.162L351.954 34.0559L350.635 33.8476L350.808 33.0838L349.489 32.9102C349.859 32.0308 349.987 31.1398 349.871 30.2372C349.362 29.6123 348.656 29.4271 347.753 29.6817L346.989 29.2998L345.844 30.0636V29.2998H345.462L344.698 30.4455H345.08L344.143 30.8273L342.962 30.619L341.261 30.8273V31.2092L342.407 31.5911V32.3201L341.643 33.2921H341.261C341.377 34.1716 341.053 34.9353 340.289 35.5833L339.352 35.9652L338.762 37.0761L338.206 37.2844L337.825 38.2217H336.089V37.6663H335.707L334.943 38.0481C334.318 37.539 334.064 36.9025 334.179 36.1388C335.452 34.8659 336.471 33.5351 337.234 32.1465L340.289 31.5911L340.498 31.0009L341.261 30.619L341.435 29.8553H341.053V29.4734L342.025 29.2998C342.65 27.9112 343.159 26.511 343.553 25.0993L344.143 24.9257V24.5438L343.935 23.9884L345.67 22.4609V21.8707H345.288L344.698 22.079L343.553 21.6972L343.171 21.8707L341.817 21.3153V21.8707C339.665 21.8707 337.825 22.322 336.297 23.2246L336.853 23.3982V23.7801L335.707 23.9884L336.853 25.3076V25.863L336.471 27.0086H336.089C335.973 28.0269 335.788 28.918 335.533 29.6817L335.707 30.619L334.77 30.2372V30.619L333.624 32.1465H334.179V32.5284H333.624L332.86 32.3201L332.478 33.8476L329.805 34.6113L329.597 34.2294H329.215L328.451 34.8196L328.278 34.0559L329.042 33.4657V33.0838H329.805L330.187 31.7646H330.569C330.43 31.0009 330.557 30.3644 330.951 29.8553L331.333 29.6817L331.715 28.7097C332.594 25.7936 333.103 22.7618 333.242 19.6142L333.034 15.7955L333.242 14.8582C332.733 13.9556 332.478 13.0067 332.478 12.0115L333.034 11.2478H333.798L336.297 12.0115L336.853 11.8033L337.616 12.1851L337.825 11.2478L340.289 10.6576L340.88 10.8659L341.817 9.8939L342.199 8.95659C342.592 8.33171 343.171 8.07713 343.935 8.19285C346.48 9.32688 349.153 10.0906 351.954 10.4841V11.4214H352.544V10.6576L353.481 10.4841L353.863 11.4214H354.245V10.1022L353.69 8.57472C354.847 8.9913 355.992 9.04916 357.126 8.74829L357.682 9.13016L359.799 8.95659L360.355 8.40114L361.917 8.95659L362.091 9.72033H362.473V10.2758L356.363 11.2478L355.009 11.0395V11.4214L355.391 11.6297V12.0115H354.835L354.627 12.7406H354.071V13.7126L355.217 13.8862V14.2681L354.453 14.4763V15.0318H355.217L355.981 14.2681H357.126V13.8862L356.363 13.5043L356.536 12.567L357.126 13.3307L357.682 13.7126H358.272V13.1224L359.209 12.9489L358.827 13.7126L359.591 14.0945V14.4763H360.945L361.119 15.622L360.945 16.1774L361.709 16.5593L361.917 17.1147L361.501 18.6422L362.091 19.6142L361.501 19.7878V20.5515C359.603 20.3664 357.693 20.3664 355.772 20.5515V20.1697H355.217L355.009 20.7251L353.69 20.9334L353.481 20.378H352.544C351.78 21.0028 350.82 21.188 349.663 20.9334V21.3153H348.899L348.343 21.107L347.58 22.4609C347.186 23.0858 347.059 23.7801 347.198 24.5438L347.961 25.0993L349.281 24.5438L349.871 25.0993L350.044 24.5438L351.572 24.3355L352.718 24.9257L353.099 24.162H354.071L354.627 24.3355L355.772 23.9884L356.536 24.162V25.3076H355.981L355.217 25.0993L355.009 25.6894L354.453 25.4811V24.7174H353.863V25.3076L354.071 25.863L352.926 26.0713L352.718 25.3076H352.162V26.0713L350.426 26.4532L349.489 25.863C348.586 26.2565 347.568 26.511 346.434 26.6268L346.052 27.7724L346.989 28.3278L350.044 27.9807L350.635 28.1542L352.162 27.7724L352.926 27.9807L353.69 27.7724L354.453 27.9807L354.835 27.3905L355.772 27.2169L358.064 28.1542L358.446 27.3905L358.827 27.9807H359.799C360.054 28.351 360.436 28.4667 360.945 28.3278L362.299 28.1542L363.236 28.5361L363.445 29.0915H363.826L364 30.619L363.618 31.3828H363.236V31.9729L363.445 32.9102L363.236 33.4657H362.854V33.8476L363.236 34.0559V34.4377L363.063 35.7569L362.299 36.3124C361.859 36.9372 361.79 37.5737 362.091 38.2217L361.501 38.43V37.6663H360.945L360.355 38.9855ZM338.38 37.2844V36.5207H337.825V37.2844H338.38ZM346.052 36.9025C345.543 36.5091 344.964 36.3124 344.316 36.3124L344.143 35.375H343.726V34.8196L344.143 34.0559L343.726 32.5284C344.259 32.0192 344.907 31.8341 345.67 31.9729L347.198 32.3201V32.9102L346.989 33.8476L347.198 34.6113L346.608 36.6942L346.052 36.9025ZM345.288 34.4377V34.0559L344.907 33.0838H344.316V33.8476L345.288 34.4377ZM338.588 32.9102L338.762 32.3201H338.206L337.825 32.5284V32.9102H338.588ZM357.126 32.5284L356.536 32.3201V32.702L357.126 32.5284ZM359.973 32.1465V31.0009H359.591L359.418 32.1465H359.973ZM347.198 31.0009V30.619H347.58V31.0009H347.198ZM359.591 29.8553L359.799 29.0915L359.036 28.918L358.827 29.6817L359.591 29.8553ZM354.071 28.918L353.308 28.1542V28.7097L354.071 28.918ZM347.961 26.0713V25.6894H347.58V26.0713H347.961ZM357.682 24.7174L357.508 24.162H357.89L357.682 24.7174ZM339.352 20.7251L341.435 20.1697L342.025 20.378L342.962 20.1697L343.344 20.378L343.726 18.8505L343.344 17.7049L343.553 16.7328L342.581 16.3857L342.407 16.9411L342.581 17.4966L340.671 17.8785V18.2603H340.289L340.116 17.4966L339.352 17.323L337.443 18.0868C337.304 17.5776 336.922 17.3809 336.297 17.4966V18.0868L336.679 18.8505H337.061V19.4059L336.853 20.1697H337.234L337.616 20.7251H339.352ZM335.707 20.1697V19.6142H335.151V20.1697H335.707ZM350.253 19.4059L351.572 18.8505L352.336 19.2324L352.718 18.2603C351.838 18.1446 351.074 17.8322 350.426 17.323L350.253 16.7328L348.343 16.5593C347.834 16.9296 347.637 17.4966 347.753 18.2603L348.343 19.2324L350.253 19.4059ZM354.071 19.4059L353.481 18.8505V19.2324L354.071 19.4059ZM356.536 18.4686C356.444 17.2652 356.64 16.1195 357.126 15.0318L356.363 14.6499C356.224 15.8071 355.9 16.8833 355.391 17.8785L356.536 18.4686ZM338.588 17.4966V16.9411H337.998V17.323L338.588 17.4966ZM351.954 17.1147L351.398 16.9411V17.323L351.954 17.1147ZM346.816 16.5593L346.434 16.1774V16.5593H346.816ZM341.435 16.5593V15.2401L343.171 14.4763L343.726 13.1224L343.171 12.9489L341.817 12.7406C339.665 13.2497 337.501 13.701 335.325 14.0945V14.4763L336.089 14.8582L336.679 15.622H337.825L338.588 15.4137V15.7955H338.97L340.671 15.2401V16.5593H341.435ZM349.663 16.3857L349.871 15.0318H349.489L349.107 15.7955L349.663 16.3857ZM347.961 15.2401V14.2681H348.343L349.107 14.8582L349.281 14.0945H350.253L350.426 12.9489L349.663 12.3934L347.371 12.7406L346.052 12.567L344.698 12.9489V13.7126L345.462 13.8862V14.8582H345.844L346.989 14.6499L347.198 15.2401H347.961ZM344.698 12.9489L344.316 12.567L344.143 13.1224L344.698 12.9489ZM342.962 12.567V12.1851L342.199 12.0115V12.3934L342.962 12.567ZM341.435 11.8033V11.2478H340.88V11.8033H341.435ZM351.19 11.2478L350.635 10.6576V11.0395L351.19 11.2478ZM344.316 9.51203V8.95659H343.726V9.51203H344.316ZM343.553 8.95659V8.40114H342.962V8.95659H343.553ZM347.961 8.40114V8.01927H347.371L346.816 8.19285L346.434 8.01927V6.66537L346.989 5.13789L345.288 4.96431L344.316 5.34618L343.344 4.96431L342.025 5.51976L341.817 6.49179L340.116 6.66537V7.25553H339.526L338.588 6.87366L337.234 7.25553L336.471 5.51976H335.707L334.388 5.90163L333.798 5.72805L333.242 5.90163L332.097 5.72805L329.215 6.49179L328.66 6.10992V5.72805C331.321 4.70973 334.249 4.20057 337.443 4.20057V3.64512L336.679 3.43683L336.471 2.88138C336.864 2.37222 336.991 1.73577 336.853 0.972033L336.679 0.0347157H337.061L337.234 0.76374H337.616V0.0347157H338.97C339.595 0.150434 340.162 0.393442 340.671 0.76374V1.73577L339.908 1.14561V2.29122H340.289L339.144 2.67309V3.8187H340.498L344.698 3.05496L345.462 3.43683L347.198 2.88138L347.753 3.05496L348.725 0.416586L349.281 0.208293L349.489 0.972033L350.253 1.14561L350.808 0.972033L351.398 1.90935H351.78L351.954 0.972033H352.544L353.099 1.14561V1.52748L352.162 1.90935L351.572 2.29122C352.081 2.93924 352.718 3.19382 353.481 3.05496L354.627 2.88138L356.918 3.43683C358.191 2.92767 359.591 2.74252 361.119 2.88138L361.327 3.64512C361.975 3.50626 362.299 3.69141 362.299 4.20057L361.501 4.75602V5.34618L360.563 5.72805C358.133 5.56604 355.715 5.36932 353.308 5.13789L351.78 5.72805C351.78 6.49179 351.526 6.93152 351.016 7.04724L350.253 6.2835H349.489V7.04724H350.426V7.42911L349.871 7.6374V8.01927L347.961 8.40114ZM350.426 3.05496L351.016 2.67309V2.29122L349.871 2.11764L349.663 2.88138L350.426 3.05496ZM337.616 3.05496V2.67309H338.38V2.29122L337.825 2.11764L337.061 2.88138L337.616 3.05496ZM339.352 0.972033L339.526 0.416586H338.588V1.14561L339.352 0.972033Z" fill="#483D3F"/>
<path d="M304.832 37.458L303.687 35.9652L304.277 33.0838L303.895 31.9729L304.068 30.4455L303.895 29.8553L304.068 29.2998L303.513 27.9807L303.895 27.0086L303.305 25.4811L303.687 23.9884L303.513 23.3982L303.895 23.2246V22.8428L303.131 19.2324L301.777 19.0241V19.6142C300.528 19.1051 299.393 18.7232 298.375 18.4686L296.674 19.4059L296.466 19.9961L297.056 20.7251L296.848 22.2526L295.702 21.6972L295.528 22.2526C295.899 22.9006 296.466 23.2246 297.23 23.2246L297.438 23.7801L297.785 23.9884L296.848 24.9257L297.23 25.4811H297.993L297.056 25.863V26.4532H297.611L298.375 27.7724H298.757L297.438 29.0916V29.8553L298.167 29.6817L297.611 31.5911L297.785 32.1465V32.702L298.375 33.0838L297.611 32.5284L297.785 31.7646L297.23 31.2092L297.438 30.8273H296.466L296.084 31.7646L296.848 32.3201L297.23 33.674L298.167 34.0559L298.375 34.6113L297.438 34.4377L297.056 35.375H296.466L295.32 34.9932V35.5833H294.383L293.064 35.7569L292.092 35.375L291.154 35.7569L288.099 34.6113V33.8476H287.718L286.572 34.2294L286.398 33.4657L288.308 33.0838L288.863 33.2921L291.328 32.9103C291.467 32.0308 291.594 31.2092 291.71 30.4455H292.092V29.4734H291.536L291.328 27.9807L291.154 27.3905H291.536V28.1542H291.918L293.064 27.3905L293.237 26.835H292.682L291.918 27.0086L290.772 26.2449V25.863L291.328 25.6894V25.0993H290.946L290.772 23.9884H289.627L288.863 24.3355L288.481 24.162L287.926 25.3076H287.544L287.162 24.5438H286.19V24.9257L286.398 25.4811H286.016C285.646 24.2314 285.519 22.8428 285.635 21.3153L287.544 20.9334L288.099 20.1697L290.009 19.6142L290.391 18.2603H291.154V17.8785L290.391 17.4966L289.8 15.7955L287.718 15.4137L285.635 15.622V12.9489L285.808 12.3934L285.635 11.4214L286.016 11.2478L286.572 12.3934L287.544 12.567L288.099 12.3934L288.69 12.567L289.071 11.8033H289.453V10.4841L291.918 10.8659L292.855 10.6576V10.1022L291.918 9.8939L291.328 10.1022L290.946 9.13016H291.328L291.71 7.6374L291.328 6.87366L291.918 6.66537L292.3 4.20057L291.918 3.64512H292.3V4.02699L293.237 4.20057V3.8187L292.092 3.05496V2.67309L292.682 2.49951V1.73577L292.092 1.3539V0.972033L292.474 0.0347157H296.848L297.056 0.76374L296.848 1.52748L297.993 1.90935L297.438 2.49951V3.43683L297.611 4.02699L296.848 4.20057L296.674 4.96431L297.23 5.13789L297.438 6.2835L297.23 7.04724L297.611 7.6374H296.848V8.01927L297.785 8.19285V8.74829L296.848 9.33846L296.466 10.4841L297.785 10.6576L298.375 12.1851L298.167 12.7406H298.757V13.3307H297.993V13.8862H298.375V14.2681L297.993 15.0318L297.056 15.7955V16.5593L298.375 16.7328L298.757 15.4137L300.285 15.2401V14.6499L299.521 14.4763L299.312 12.3934H299.694L301.048 13.1224L301.43 12.567L301.777 12.0115H301.048H301.43V11.2478L301.986 10.1022L303.131 9.13016C303.386 8.13499 303.768 7.1861 304.277 6.2835H304.832V5.90163L304.659 5.34618L306.533 1.73577L307.505 1.3539L308.269 1.52748L309.38 1.3539L310.907 2.29122V2.88138L311.671 3.26325L311.879 4.75602L310.734 7.42911L310.907 8.01927L309.97 8.19285V8.57472L310.144 9.13016H309.588V9.8939L309.762 10.4841L309.38 11.6297L311.498 11.8033L312.643 11.6297L313.025 8.74829H313.581C313.835 7.75312 314.344 6.87366 315.108 6.10992L316.254 4.96431H317.746L318.128 5.90163H317.573L317.017 7.42911L317.191 7.81098L316.427 9.51203H315.872V10.2758C316.635 10.7849 317.457 11.0395 318.337 11.0395L320.038 10.4841L320.801 11.0395L322.329 10.4841L322.711 11.2478C322.202 11.5024 322.005 11.9421 322.121 12.567H321.739L319.864 11.8033V12.3934L317.746 12.9489L317.573 14.2681L317.191 14.8582H317.746L317.573 15.622L316.254 16.0038L316.045 16.7328L316.809 17.323L317.017 18.2603H318.51C319.783 18.0057 321.056 17.6933 322.329 17.323V18.0868L322.121 18.6422H322.711L323.093 18.4686C322.699 18.9778 322.121 19.1629 321.357 19.0241V19.6142H321.947L321.01 19.9961L320.246 19.6142L319.864 20.378C318.846 20.4937 317.955 20.9334 317.191 21.6972L317.017 22.079H316.635L315.872 21.8707V22.2526L317.017 23.2246C317.897 23.4792 318.846 23.6644 319.864 23.7801L321.01 23.3982L321.565 23.6065L322.502 23.2246L323.093 24.162L321.739 24.3355V24.7174H321.183V25.0993H320.801L320.246 24.9257L319.864 25.6894L318.892 26.0713L318.337 25.863L317.955 26.6268L317.365 26.835V27.3905L317.746 28.1542L316.045 28.918L315.663 30.0636L318.51 30.4455L320.801 30.0636L324.03 30.8273L324.62 31.5911V32.1465L324.03 32.3201L323.856 33.0838H323.266L323.093 31.7646H322.502V33.4657L322.711 34.0559L321.947 33.674L321.183 34.8196H320.628L317.746 34.0559L316.254 34.4377L316.045 33.674L315.282 33.4657L314.726 34.2294H314.136V33.2921H313.754L313.199 34.0559H312.053L310.907 32.9103H311.289V31.9729L310.526 31.7646L310.352 32.3201H309.206L309.033 31.3828H309.588V31.9729H309.97L310.526 31.2092H311.116V30.619H312.261V30.2372L312.053 26.6268L310.526 25.863L310.144 26.6268H309.762L309.38 25.4811L309.206 24.9257H309.97L310.144 25.6894H310.526L311.116 24.162L311.671 24.3355C312.319 23.8495 312.574 23.1552 312.435 22.2526L311.671 20.7251L311.116 20.5515L310.352 20.7251L309.206 20.1697L308.651 20.9334H308.061L307.297 20.7251L306.915 21.6972L307.123 22.4609L306.915 23.3982L307.505 24.7174L308.651 25.0993V25.6894L307.505 26.0713L306.742 25.6894V26.0713L307.505 26.835L308.061 28.1542L307.297 29.4734L307.679 30.619H306.533V31.3828H306.915L307.505 31.2092L308.269 32.3201L308.651 33.8476L307.123 34.8196L306.36 35.375V35.7569L306.533 36.3124C305.654 36.3124 305.087 36.5669 304.832 37.0761V37.458ZM306.915 34.6113V34.0559H306.36V34.4377L306.915 34.6113ZM309.762 34.4377L309.38 34.2294L310.144 34.0559L310.526 34.2294L309.762 34.4377ZM315.108 33.4657V32.9103H314.518V33.4657H315.108ZM293.237 31.7646L292.855 31.3828V31.7646H293.237ZM305.388 28.5361V28.1542L304.659 27.7724V28.1542L305.388 28.5361ZM316.254 28.3278L317.191 27.9807V27.5988L316.045 27.3905L315.663 28.1542L316.254 28.3278ZM297.056 27.2169V26.6268H296.466V27.2169H297.056ZM293.446 26.4532V25.863H292.855V26.4532H293.446ZM291.328 23.3982V23.0163L290.772 22.8428V23.2246L291.328 23.3982ZM313.581 22.079V21.4889H313.025L312.435 21.6972V22.2526H312.817L313.581 22.079ZM296.674 20.7251L296.466 20.1697H295.702V20.5515L296.674 20.7251ZM319.656 20.1697V19.6142H319.1V19.9961L319.656 20.1697ZM297.611 18.6422L297.23 18.2603V18.6422H297.611ZM308.825 18.4686L311.879 17.8785L312.643 12.9489H312.053L311.116 13.1224L310.352 12.9489C309.334 13.2034 308.315 13.5159 307.297 13.8862L307.123 14.4763H307.505V14.8582C306.857 15.2285 306.533 15.7955 306.533 16.5593L306.742 17.7049L306.533 18.6422L307.297 19.0241L308.825 18.4686ZM316.427 18.4686V17.8785H315.282L315.108 18.4686H316.427ZM323.474 17.4966V17.1147H323.856V17.4966H323.474ZM297.056 16.9411V16.5593H296.674V16.9411H297.056ZM316.635 14.6499L317.017 13.7126H316.635L316.045 14.8582L316.635 14.6499ZM288.308 14.6499V14.2681L289.071 13.7126L288.481 13.5043V12.9489H287.926L287.544 14.2681L288.308 14.6499ZM315.108 13.7126L314.344 13.3307V13.8862L315.108 13.7126ZM316.254 13.5043L315.663 13.3307V13.7126L316.254 13.5043ZM321.565 11.6297V11.0395H321.183L321.01 11.6297H321.565ZM292.682 9.72033L292.092 9.13016V9.51203L292.682 9.72033ZM305.77 5.51976L305.214 5.34618V5.72805L305.77 5.51976ZM297.438 3.8187V3.26325H296.674V3.8187H297.438ZM294.175 1.73577V1.14561H293.446V1.73577H294.175Z" fill="#483D3F"/>
<path d="M253.927 39.159L253.753 38.0134L253.927 36.4859H253.372V34.9585L254.135 33.431L253.198 33.0491V32.2854L253.58 30.5843L254.135 29.8206L253.58 29.6123L253.372 27.9112L253.58 27.1475L252.434 26.5573C251.948 27.2053 251.323 27.4021 250.56 27.1475V27.9112L249.622 28.0848L249.449 28.8485L248.338 29.0568L247.748 28.8485C248.002 29.7511 247.759 30.3297 247.019 30.5843L246.637 29.8206L246.255 29.0568L247.574 27.7029V27.1475L248.685 26.9392L248.893 26.1755L250.56 25.2381C251.184 24.2198 251.995 23.3866 252.99 22.7386L253.927 22.3568L254.135 21.2111L254.482 20.8293L254.309 19.3018L254.482 17.566L253.753 17.1841L253.58 17.7743H252.643L251.497 17.566C251.497 18.214 251.184 18.5381 250.56 18.5381C249.564 17.89 248.511 17.5082 247.4 17.3924L246.845 15.865C248.951 14.9624 251.127 14.1292 253.372 13.3654L253.927 13.5737V12.9836L254.864 12.4281L255.073 9.92862L254.864 9.16488L255.628 8.78301L255.802 7.46382L255.246 7.25553L255.073 8.01927H254.135L253.372 7.6374L252.816 7.84569V8.60943L251.879 8.9913L251.497 9.75504H250.941L250.386 9.54675V9.92862L250.56 10.3105L248.511 9.92862L248.338 8.78301L248.893 8.01927L250.004 7.6374L250.212 6.70008L252.052 5.93634V5.55447H253.198V5.1726C254.193 4.52458 255.316 4.20057 256.565 4.20057V3.61041H256.01C257.121 3.49469 258.243 3.30954 259.377 3.05496L261.807 5.34618C260.812 5.34618 259.805 5.5429 258.787 5.93634V6.31821L257.121 6.87366L256.947 8.40114H256.565V9.16488H257.294L257.503 10.9007L257.294 11.6644H257.85C258.359 11.2709 258.926 11.1437 259.551 11.2825V10.9007H260.106L259.377 11.0742V11.4561L261.044 12.0463L261.217 14.1292H261.599V14.5111L260.315 15.4831L259.551 15.1012L259.377 15.865H258.614L258.058 17.9479C258.683 18.7116 259.493 19.0356 260.488 18.9199L261.044 19.6837C262.548 20.702 264.11 21.5236 265.73 22.1485L266.112 23.5024C265.233 23.8958 264.295 24.1504 263.3 24.2661V24.648C261.31 24.6017 259.62 23.9074 258.232 22.565V21.9749H257.85L257.676 25.7936L257.85 26.3837H257.294V26.9392L257.503 28.4667H257.121V29.8206L257.503 31.3481L257.121 32.8755C257.491 34.0096 257.618 35.213 257.503 36.4859L258.058 37.0761L256.739 38.0134L256.565 38.3953C255.57 38.2796 254.691 38.5342 253.927 39.159ZM262.155 34.9585V34.5766L262.363 34.0211L262.155 33.431L263.682 33.0491L263.856 32.2854C264.735 32.1697 265.603 31.9845 266.459 31.7299L267.223 31.9035C268.959 31.6489 270.579 31.1398 272.083 30.376V29.8206L271.91 28.675L272.257 27.7029L271.528 27.5294L271.354 27.1475L271.528 26.1755C271.019 25.6663 270.336 25.4811 269.48 25.62C269.48 26.1292 269.167 26.3837 268.542 26.3837L267.049 26.0019C266.54 26.3722 265.915 26.4995 265.175 26.3837L264.029 26.1755L264.619 26.0019V25.62L265.73 25.0298H266.286V25.4117H266.841L267.049 24.8563L269.48 24.2661L270.035 24.648L271.146 23.7107L271.354 22.3568H270.972V21.593L271.146 21.0028L270.764 19.8572L270.209 19.4754H269.653V19.8572L266.459 20.4474L265.73 19.4754L266.112 18.9199C268.588 17.9016 271.134 17.1726 273.75 16.7328C276.388 16.27 279.015 15.8534 281.63 15.4831L282.394 16.6287L280.866 16.8023L280.693 17.3924L278.436 18.5381L277.499 18.3298L276.214 18.9199V19.3018L276.388 20.2391L276.214 21.0028L276.561 21.3847L275.277 21.593L274.722 21.3847V21.9749C276.203 22.3683 277.696 22.6229 279.2 22.7386L279.582 24.0925L278.992 24.8563L279.582 25.4117L278.263 25.7936L277.707 28.0848L276.77 28.8485L278.263 29.2304L278.436 29.8206C279.316 29.8206 280.01 30.133 280.519 30.7579V29.8206H281.074L282.567 30.5843V29.9942L282.394 29.4387L283.678 30.2024V30.5843H284.234H282.741V31.1398L283.505 31.9035L282.394 31.7299V32.4937L283.296 33.0491C279.94 33.5583 276.573 33.6277 273.194 33.2574V33.6393C272.453 33.6393 271.771 33.7666 271.146 34.0211L270.417 33.431V34.1947H270.035L268.889 33.8128L268.16 34.0211L266.841 32.8755L266.668 34.1947H264.793C263.798 34.1947 262.918 34.4493 262.155 34.9585ZM264.793 33.6393V33.2574H264.411V33.6393H264.793ZM274.131 31.5216L273.784 31.1398V31.5216H274.131ZM277.325 31.3481V30.9662L276.77 30.7579L276.561 31.3481H277.325ZM275.832 31.1398V30.5843H275.277V31.1398H275.832ZM276.388 27.9112L277.152 27.5294L277.707 27.7029V26.9392L276.77 26.7656V27.1475H276.214L276.006 27.9112H276.388ZM272.257 27.3211V26.7656H271.701V27.3211H272.257ZM254.309 26.9392L253.753 26.3837V27.1475L254.309 26.9392ZM280.866 24.2661L281.074 23.8842L281.248 24.2661H280.866ZM272.083 24.0925L271.354 23.7107V24.2661L272.083 24.0925ZM261.426 22.9469L260.87 22.7386V23.1205L261.426 22.9469ZM272.257 22.7386V22.3568L271.91 22.7386H272.257ZM276.943 18.5381L277.152 17.9479H276.561V18.5381H276.943ZM260.488 14.7194L259.933 14.5111V14.8929L260.488 14.7194ZM267.049 14.5111L266.841 13.7473H266.459L265.904 13.9556L264.619 13.5737C265.221 13.5737 265.522 13.3192 265.522 12.81L264.967 12.0463L264.411 10.9007L264.793 10.1369L264.029 9.75504V9.37317H264.411V7.25553L265.175 7.08195L265.348 6.49179C267.848 5.47347 270.347 4.51301 272.847 3.61041L273.02 4.20057H273.402L273.784 3.43683L274.513 3.22854L276.77 3.43683C277.881 2.78881 279.13 2.4648 280.519 2.4648L280.693 3.22854H281.074L281.456 3.05496V3.43683L281.074 4.79073L280.519 4.96431V5.34618L280.866 6.70008L280.519 8.01927L279.582 8.9913V9.54675L280.519 10.1369V10.5188L279.582 10.9007L279.2 11.6644L278.263 11.838L278.089 12.2198C276.446 12.729 274.698 13.053 272.847 13.1919L271.701 12.9836L271.146 13.1919V13.7473H270.59L269.271 13.1919V13.9556L267.605 14.1292V14.5111H267.049ZM265.904 12.4281L265.522 12.0463V12.4281H265.904ZM274.513 11.0742L274.895 10.1369H275.277C275.763 8.86401 276.133 7.52168 276.388 6.10992C275.647 5.60076 274.837 5.41561 273.958 5.55447L273.402 5.72805L272.465 5.55447L272.083 6.31821H270.59L270.035 6.10992L269.48 7.08195H268.889V7.46382L267.605 8.01927L267.397 8.78301H267.778L268.542 8.60943L268.889 9.16488L268.716 9.92862H269.827V10.3105L269.098 10.6924L268.889 11.2825L272.083 11.4561L274.513 11.0742ZM267.605 10.3105L267.778 9.75504H267.223V10.3105H267.605ZM278.992 9.37317L278.436 8.78301V9.16488L278.992 9.37317ZM266.841 8.60943L267.049 8.01927H266.112V8.40114L266.841 8.60943ZM276.77 5.55447V4.96431H276.214V5.55447H276.77ZM279.929 4.20057L280.137 3.61041H279.755L279.582 4.20057H279.929Z" fill="#483D3F"/>
<path d="M225.135 34.8196L224.58 34.6113V33.8476H223.99L223.816 32.1465H223.226V31.7646L223.399 31.2092H223.018L223.226 30.4455H224.198L224.371 28.5361L224.753 29.4734L225.343 29.6817L224.962 30.619L226.107 31.0009V30.2372H227.079L228.225 30.8273V30.2372L226.697 29.4734V29.0916L228.78 28.1542L229.162 27.3905H229.752L230.342 27.5988V27.2169L229.961 27.0086V26.6268H229.37H229.961L230.342 26.835V27.2169H230.898V26.835H231.28L232.252 27.0086L232.46 26.0713H233.224L233.397 27.7724H232.252L231.662 27.3905L231.106 28.3278L230.724 27.9807L230.134 30.0636L229.37 30.8273H228.989L228.398 32.1465L226.871 32.702L226.489 33.674L225.135 34.0559V34.4377V34.8196ZM231.106 34.0559L230.898 33.2921L231.488 34.0559H231.106ZM233.779 33.674L234.161 33.2921V33.674H233.779ZM231.87 33.4657L231.662 32.9103L232.46 32.5284V31.9729L231.488 30.8273L232.078 30.2372L231.662 29.8553H232.078V28.7097L233.016 29.2998L234.161 28.7097V29.0916L233.016 29.4734L232.842 30.0636H232.252V30.619L233.016 32.9103L232.842 33.2921L231.87 33.4657ZM234.161 32.9103V32.1465H234.543L234.161 32.9103ZM212.638 32.3201L212.464 31.7646H212.082L211.492 31.9729L211.318 31.3828C210.67 31.5216 210.219 31.3365 209.964 30.8273L209.756 29.6817L209.964 29.0916L209.756 28.5361L209.964 27.5988C209.71 25.9324 209.386 24.2777 208.992 22.6345L209.756 22.079C209.64 21.431 209.837 20.9797 210.346 20.7251H210.937C211.446 21.1186 211.7 21.6277 211.7 22.2526L213.436 22.6345V21.6972L212.638 21.107V20.378L213.436 20.1697L214.964 20.7251V21.3153H215.345C216.248 21.0607 217.081 20.8061 217.845 20.5515V20.1697H218.227L219.199 20.9334V20.5515H219.581V22.079H220.136L219.372 23.9884L219.754 24.162V24.9257L220.344 25.3076L219.963 25.863H219.581L218.991 25.6894V26.4532L219.199 27.0086H219.754L220.136 26.835C220.53 27.5988 220.726 28.351 220.726 29.0916L219.372 29.2998L218.991 30.619L218.018 30.8273L217.081 30.4455L216.699 31.2092L217.255 31.7646L215.554 31.9729L213.436 31.7646L212.638 32.3201ZM226.107 31.9729L226.281 31.3828L224.962 31.2092L224.753 32.1465L226.107 31.9729ZM233.224 31.5911V31.0009H233.988L234.161 31.3828L233.224 31.5911ZM241.278 29.8553L239.75 29.2998L239.542 28.7097L234.96 25.0993H233.606V25.6894V25.3076H232.252L231.87 25.863L230.724 26.2449V25.863H231.106V25.4811L230.724 24.9257L231.488 25.0993V24.5438L230.898 24.3355L230.516 22.8428L229.162 22.4609L227.635 22.6345L227.253 20.9334H226.697L226.281 22.2526L225.517 22.6345L224.962 21.6972C224.198 21.6972 223.492 21.4426 222.844 20.9334V20.378H223.226V19.2324L223.018 18.8505H223.399L223.608 19.6142H223.99L225.517 19.4059L226.107 19.6142V18.8505L228.398 18.6422L228.607 19.4059H229.162L229.579 19.2324L229.752 19.6142H230.134L230.342 18.4686L230.516 18.8505H231.106L231.488 18.0868H230.898V17.7049L231.28 16.3857L230.342 16.1774C230.458 15.4137 230.204 14.9739 229.579 14.8582L229.162 15.0318L228.607 14.0945H228.225L227.461 14.4763V14.8582L227.843 15.0318V15.4137H227.253L226.107 14.8582L225.725 13.7126L225.899 12.7406H226.281L226.489 13.5043H227.253V12.9489L229.579 12.567L229.752 12.0115H230.516L231.28 12.1851L231.488 11.4214L231.28 10.2758H230.724L230.134 10.4841V9.51203H230.516V8.74829L229.752 8.40114V8.01927H228.607L228.398 8.57472L227.635 8.74829L227.253 9.72033L226.489 9.8939L226.281 10.8659L226.489 11.4214L226.107 12.1851H225.343L225.135 12.7406H223.99L223.608 12.0115C223.608 10.5535 223.608 9.09545 223.608 7.6374L223.226 5.72805L223.816 1.90935L224.962 1.52748L225.135 0.972033L226.697 0.76374V1.14561L228.225 1.52748L228.398 0.208293C229.463 -0.0694307 230.493 1.98372e-07 231.488 0.416586V0.0347157C232.391 0.104147 233.282 0.289296 234.161 0.590163L234.369 0.0347157H238.987L239.16 0.590163L238.987 0.972033H238.605V1.3539C239.114 2.9971 239.299 4.83702 239.16 6.87366L238.605 8.74829L239.16 10.8659C238.535 11.2362 238.281 11.7454 238.396 12.3934H239.16V12.9489L238.223 13.7126V14.4763L238.396 14.8582L236.279 15.2401L236.105 14.6499H235.515L235.133 15.2401L234.161 16.5593L233.224 16.1774V17.4966L233.988 18.4686L234.543 18.6422L235.133 18.4686V17.8785L236.487 18.4686L237.459 18.0868V18.8505H238.015L238.223 17.7049L238.778 17.4966L239.75 18.4686H238.987V19.2324L239.75 19.4059V19.7878L238.015 20.5515V21.107H238.605V21.4889L238.015 21.6972L237.043 21.107L236.487 20.5515C236.487 21.1764 236.29 21.7434 235.897 22.2526H234.751V22.8428L234.96 23.3982H235.342L235.897 23.2246C237.448 24.729 239.114 26.0597 240.896 27.2169L241.486 27.3905L242.632 28.3278L243.014 29.4734C242.504 29.8669 241.926 29.9942 241.278 29.8553ZM211.492 29.2998L210.937 29.0916V29.4734L211.492 29.2998ZM217.081 29.0916V28.5361H216.491V29.0916H217.081ZM225.899 28.918L225.517 27.9807L226.281 28.7097L225.899 28.918ZM214.582 28.7097L215.554 28.3278L216.699 28.5361L217.463 28.1542C217.394 26.8119 217.521 25.4811 217.845 24.162L217.463 23.9884V23.2246L218.018 23.0163V22.6345L216.699 22.4609L216.317 23.2246H215.936V22.8428L216.491 22.6345V21.8707L215.554 21.6972L213.991 22.4609L213.818 23.0163L213.054 23.3982L212.846 23.7801L212.638 24.3355L213.228 27.2169L213.818 28.3278L214.582 28.7097ZM226.871 28.3278L226.697 27.7724L227.461 27.3905L227.843 26.6268H228.398L228.225 27.9807L226.871 28.3278ZM212.846 27.3905V26.835H212.256V27.3905H212.846ZM218.817 26.6268V26.0713H218.227V26.6268H218.817ZM210.555 25.863V25.3076H209.964V25.863H210.555ZM232.46 25.0993V24.3355H232.078L231.87 24.9257L232.46 25.0993ZM212.256 24.7174L211.874 24.3355V24.7174H212.256ZM218.018 22.2526V20.9334H217.081V21.3153L217.463 22.2526H218.018ZM228.607 22.2526V21.6972L227.635 21.4889V21.8707L228.607 22.2526ZM229.579 22.079V21.6972L229.752 21.107L229.162 20.9334L228.78 22.079H229.579ZM213.818 21.4889V21.107L213.228 20.9334V21.4889H213.818ZM239.16 21.3153V20.9334H239.542V21.3153H239.16ZM224.371 20.1697L223.816 19.9961V20.378L224.371 20.1697ZM236.661 19.9961V19.6142L236.869 18.8505L236.279 18.6422L235.897 19.4059L236.105 19.9961H236.661ZM235.133 19.6142L235.342 19.0241H234.96L234.543 19.7878L235.133 19.6142ZM234.369 19.4059V18.8505H233.988V19.4059H234.369ZM233.224 19.2324V18.0868H232.634L232.078 18.2603V18.8505L233.224 19.2324ZM209.374 18.4686V17.7049L208.992 16.5593L212.638 15.7955L213.228 16.1774L213.436 15.2401H213.818V15.622H214.373V15.2401H214.755L215.345 15.4137L216.317 15.0318L216.873 15.2401L217.463 15.0318L218.817 16.3857L218.435 16.5593L218.227 17.4966H217.637C217.127 17.1263 216.56 16.999 215.936 17.1147V17.4966L214.2 17.8785L210.173 17.4966V17.8785L209.374 18.4686ZM237.043 14.0945L236.487 13.8862V14.2681L237.043 14.0945ZM235.515 13.8862L234.751 13.1224V13.5043L235.515 13.8862ZM237.633 13.7126V13.3307H237.251V13.7126H237.633ZM229.579 13.3307V12.9489H229.162V13.3307H229.579ZM233.397 12.3934L236.279 11.4214C236.348 9.91705 236.418 8.40114 236.487 6.87366H236.105L235.342 7.04724L234.161 6.66537V7.04724L234.369 7.6374L231.488 8.95659V9.51203L232.634 10.4841L232.842 9.51203L233.779 9.33846L234.161 9.51203L234.369 10.4841L234.161 10.8659V9.8939H233.779L232.842 10.2758V10.6576H232.252L231.87 10.4841L231.662 11.0395L233.397 12.3934ZM209.583 12.0115L208.992 11.8033V11.0395C211.052 10.2758 213.17 9.76661 215.345 9.51203L216.873 9.72033L218.435 9.33846L219.199 9.72033L219.372 10.4841L218.435 10.8659L218.018 11.6297L215.554 11.8033L214.755 11.4214L212.846 11.6297L212.082 11.4214L211.874 11.8033H211.318L210.555 11.6297L209.583 12.0115ZM226.871 9.13016V8.57472H226.281L226.107 9.13016H226.871ZM237.841 8.57472L237.251 8.01927V8.57472H237.841ZM229.579 7.81098V7.25553H228.989V7.6374L229.579 7.81098ZM211.874 6.49179V5.90163L208.611 5.51976L208.437 3.8187C209.455 3.4484 210.601 3.32111 211.874 3.43683L212.256 0.590163H213.228V0.0347157H214.373L214.582 0.416586H214.964L215.137 0.0347157H215.727L216.491 2.67309L219.372 2.88138L220.518 2.67309L221.108 3.26325L221.316 2.67309L221.872 2.49951L222.08 3.64512L221.698 4.40886H221.316C221.432 5.03374 221.235 5.40404 220.726 5.51976L219.754 5.34618V5.72805L219.963 6.2835H219.372L218.018 5.72805L217.255 5.90163L216.491 6.10992L215.727 5.90163V6.2835L214.2 5.90163L213.436 6.2835V5.72805L213.61 5.13789L212.638 4.40886C212.776 5.28832 212.522 5.98263 211.874 6.49179ZM234.369 6.2835L234.96 5.51976L236.487 5.34618L236.869 2.11764L235.342 1.73577V2.11764L235.897 3.43683H234.96L233.988 2.67309L233.779 3.26325L233.988 4.02699L233.224 4.40886V4.96431L233.988 5.34618L233.606 5.51976V6.10992L234.369 6.2835ZM226.107 6.10992L226.281 5.51976H225.725L225.517 6.10992H226.107ZM231.662 5.90163L231.87 4.96431L230.516 4.75602L229.961 4.96431L228.989 2.49951L227.635 2.11764V3.26325L228.398 3.64512V4.02699H228.017L226.871 3.64512L226.107 5.13789L226.281 5.72805C227.183 6.09835 228.213 6.22564 229.37 6.10992L231.106 5.51976L231.662 5.90163ZM216.491 5.72805L217.463 5.51976V4.96431L215.345 4.58244V4.96431L216.109 5.34618L216.491 5.72805ZM220.344 3.8187V3.43683L219.754 3.26325V3.64512L220.344 3.8187ZM226.489 3.05496V2.67309H226.107V3.05496H226.489ZM229.37 1.90935V1.52748L228.989 0.590163H228.398V1.52748L229.37 1.90935ZM233.224 1.3539L232.842 0.972033V1.3539H233.224Z" fill="#483D3F"/>
<path d="M167.286 36.5207L166.176 35.375L165.967 34.0559C165.967 33.0375 166.222 32.2738 166.731 31.7646H167.113V31.3828C166.488 30.8736 166.291 30.1793 166.523 29.2998L166.731 28.5361H167.286V27.9807L166.731 27.7724V27.2169L167.842 25.863L167.113 25.6894L166.905 23.9884C167.043 22.8312 167.298 21.7434 167.668 20.7251L167.495 18.2603L167.842 15.7955H168.432L168.606 14.4763L168.05 14.2681C168.606 12.0463 168.536 9.83604 167.842 7.6374L168.432 6.87366L167.668 6.2835V1.90935H168.432L172.737 3.43683L173.674 3.26325L174.611 3.64512L174.82 3.05496L176.312 4.20057V3.43683H176.868L177.632 3.64512V3.26325H178.187V3.8187L177.84 4.75602L178.951 5.13789L179.888 4.75602V5.13789L178.777 6.10992V6.66537L179.506 7.04724L180.096 6.87366L180.444 8.01927L179.888 8.95659C180.258 9.97491 180.571 10.9932 180.825 12.0115L180.27 12.1851V12.7406C180.895 12.7406 181.462 12.9373 181.971 13.3307L182.527 13.1224V13.5043L181.589 14.6499L181.971 15.7955L181.034 16.3857L180.27 16.0038V16.3857H179.506V16.9411H178.569L176.868 16.3857L176.521 17.8785L175.931 18.0868L175.549 17.8785V17.4966L177.076 15.622V15.0318L175.931 14.6499L175.757 15.622L174.993 14.8582H174.438L175.202 16.9411H174.438L173.882 16.7328V18.4686H173.501V17.8785H172.737V17.4966L173.674 16.7328L172.563 16.1774L171.036 17.7049L171.418 18.4686H170.862L170.689 21.6972L170.862 22.2526H170.48V22.8428L170.689 23.3982L170.48 24.5438L170.689 25.0993C170.689 28.1542 170.434 31.0703 169.925 33.8476L170.098 34.9932L169.369 35.2015L169.161 35.7569L169.369 36.1388H168.432L167.668 35.7569L167.286 36.5207ZM196.447 33.0838L195.892 32.3201L195.302 32.1465L195.128 30.619L195.684 29.8553L195.128 29.4734V28.918L195.684 27.5988L196.066 26.835L195.892 26.4532L196.066 25.863L195.302 25.6894V25.0993L195.51 24.162L195.302 23.6065L196.066 21.6972L195.51 21.3153V20.378L195.684 19.6142H194.191V19.2324H193.809L193.427 19.4059L191.934 19.2324V19.6142H191.171L189.678 19.0241L188.359 19.2324L186.102 18.2603L185.894 16.7328H187.595L188.741 17.323L189.122 17.1147L189.678 17.323L189.852 16.5593H189.47V16.0038L190.06 15.7955V15.4137L189.852 15.0318L190.997 15.7955L190.233 17.323H190.615L190.997 16.7328L191.171 17.4966L192.316 17.7049L192.698 16.1774L193.254 16.7328H193.809L194.365 15.7955L194.746 16.7328L195.302 16.9411L195.684 16.0038L195.51 15.2401L196.066 11.8033L195.128 11.0395L194.955 11.4214H194.573V10.6576H193.809V10.2758H194.573V9.8939L193.983 8.19285C193.612 8.95659 193.242 9.72033 192.872 10.4841L193.045 11.2478H192.316L191.553 11.0395L190.997 11.2478L190.06 10.6576L189.47 12.567H189.852V12.9489L189.47 13.5043L189.852 14.0945L189.678 14.4763L189.122 14.6499L188.914 15.0318L187.04 15.4137L186.102 14.8582L185.339 4.96431L185.72 4.02699L186.866 3.26325V2.67309L186.658 2.29122L187.04 1.73577L188.359 1.52748L189.296 1.73577V1.14561H189.678L191.171 1.52748L191.379 0.76374L192.108 0.590163V1.3539H192.872V0.972033C193.612 1.15718 194.365 1.15718 195.128 0.972033L195.302 1.52748H195.892L196.239 0.972033L197.003 1.3539L197.767 1.14561L199.086 2.11764L198.704 3.05496L199.259 3.26325V3.64512L199.086 4.20057L198.496 4.75602L199.086 6.87366L199.468 7.04724V7.42911H199.086V8.01927L199.468 8.74829L198.878 10.2758L199.468 10.6576L199.086 11.4214L199.641 12.9489L199.086 12.3934L198.496 12.0115L198.322 12.567H198.704V12.9489L198.322 13.5043L198.496 13.8862H199.468L199.641 15.622L198.878 15.7955V16.1774L200.023 16.7328V17.7049H199.086V18.0868L200.197 20.5515L198.878 20.9334V21.4889L200.197 22.6345V23.7801L199.641 25.4811L200.023 27.0086L199.815 27.5988L200.023 28.5361L199.815 30.4455L200.023 31.0009L199.086 31.2092L198.704 32.5284H198.149L197.385 32.3201L196.447 33.0838ZM196.829 32.3201L196.066 31.5911V31.9729L196.829 32.3201ZM199.259 28.5361L199.641 27.7724H198.496V28.1542L199.259 28.5361ZM196.066 25.4811V25.0993H195.684V25.4811H196.066ZM189.47 18.8505L189.678 18.2603H188.532V18.8505H189.47ZM192.49 18.8505L192.108 18.4686V18.8505H192.49ZM194.955 18.6422V18.0868H194.365V18.6422H194.955ZM191.379 18.0868L190.789 17.7049V18.2603L191.379 18.0868ZM178.014 17.8785L177.25 17.7049V17.323H177.84L178.014 17.8785ZM186.866 17.7049L186.484 17.323V17.7049H186.866ZM174.611 16.1774L174.438 15.2401H173.882V16.0038L174.611 16.1774ZM177.84 16.1774V15.7955H177.458V16.1774H177.84ZM178.395 15.7955L178.777 15.0318H178.395L177.84 16.0038L178.395 15.7955ZM191.553 15.4137L192.698 14.8582V15.2401L191.553 15.4137ZM171.244 14.6499V14.2681H170.862V14.6499H171.244ZM172.945 14.4763L173.119 14.0945C173.929 13.9788 174.681 14.106 175.375 14.4763L176.521 13.7126L177.458 14.0945L178.951 12.567H178.395L177.84 12.7406L178.187 12.0115H177.632L177.25 10.1022H176.868L176.521 10.8659H175.757L175.202 9.33846H176.139L175.931 10.1022H176.312L176.694 9.33846H177.076L177.458 9.51203L177.632 7.6374L176.312 7.42911L175.757 7.6374L175.549 6.87366C174.808 7.12824 174.38 6.93152 174.264 6.2835L174.993 5.90163L175.202 5.13789L174.82 4.96431V4.58244H174.264L173.882 6.10992L173.292 6.2835V6.87366L173.882 7.25553H173.292L171.244 6.87366L171.036 8.57472L172.008 8.95659L173.119 9.33846L173.292 8.74829L173.882 8.57472V8.95659L173.674 10.2758H174.056V10.6576L173.882 12.3934H174.264L173.882 12.7406L172.563 12.0115H172.181L171.244 12.9489V14.4763H172.008V14.0945L172.355 14.6499L172.945 14.4763ZM176.139 12.3934L175.375 12.0115H176.521L176.139 12.3934ZM172.563 10.4841L172.008 10.1022V9.33846H171.626L171.244 10.8659H171.626L172.563 10.4841ZM192.49 10.2758V9.72033H191.934V10.2758H192.49ZM191.553 9.8939L191.726 9.13016H191.171V9.8939H191.553ZM196.066 9.8939L195.684 9.51203L195.51 10.1022L196.066 9.8939ZM194.955 9.13016V8.40114L195.51 8.57472C195.996 7.5564 196.239 6.41079 196.239 5.13789C194.735 4.51301 193.115 4.01542 191.379 3.64512L190.06 4.20057L189.122 4.02699L187.977 4.40886L187.803 5.90163L188.532 6.2835L188.914 7.25553L190.06 7.42911L192.698 6.87366L193.045 7.6374L193.809 7.81098L194.365 9.13016H194.955ZM191.553 8.74829V8.19285H190.997V8.74829H191.553ZM186.866 6.87366L187.04 6.10992H186.484L186.102 6.87366H186.866ZM173.292 6.2835L172.563 5.90163V6.66537H173.292V6.2835ZM176.312 5.90163L175.757 5.34618V6.10992L176.312 5.90163ZM187.421 5.72805V5.34618L187.213 4.75602H186.658L186.484 5.34618L187.421 5.72805ZM172.945 5.51976V5.13789H172.563V5.51976H172.945ZM187.595 3.26325L187.213 2.88138V3.26325H187.595ZM187.595 2.49951L187.04 2.29122V2.67309L187.595 2.49951Z" fill="#483D3F"/>
<path d="M127.144 38.2217L128.289 35.9305H127.907L126.796 36.6942L126.588 36.3124H126.206V35.3403L126.415 34.7849L125.824 34.403V33.0491L126.588 31.7299L126.415 31.1398H126.796L127.525 31.3481V30.7579H127.144V30.2024L127.734 28.8485H126.97L127.734 27.7029L127.907 28.4667H128.289L130.199 27.9112V28.4667H130.754V29.0568L132.073 29.2304V29.9942L132.629 30.2024V31.5216L130.58 31.7299V32.2854L130.754 33.0491H131.309L131.9 32.4937L132.073 33.2574L132.455 33.431V34.5766L131.518 36.1041H130.928L130.754 35.5486H130.199V36.8678H129.817C129.932 36.2429 129.736 35.9305 129.226 35.9305V37.458L129.99 37.6316L129.053 37.8398L128.497 37.6316L127.907 37.2497L127.144 38.2217ZM129.053 37.6316V37.2497L128.497 37.0761V37.458L129.053 37.6316ZM156.652 37.0761C156.027 34.7849 155.46 32.4937 154.951 30.2024C154.441 27.9112 153.944 25.5506 153.458 23.1205L154.013 22.3568L155.159 22.1485L155.333 22.565H156.096L156.27 23.3288L156.652 23.5024V23.8842H156.096V24.648L156.478 24.8563C156.987 25.9903 157.358 27.2632 157.589 28.675H158.179L157.797 30.2024L158.561 30.5843C158.816 31.2092 159.059 31.9729 159.29 32.8755L158.561 33.431L158.735 35.1668L158.179 36.4859L156.652 37.0761ZM129.226 35.5486L128.879 35.1668L128.671 34.5766H128.116L127.734 35.3403L129.226 35.5486ZM140.787 34.9585L139.468 34.1947L138.704 34.5766V34.1947L138.877 33.6393H138.322V34.0211H137.385L136.413 33.6393C136.042 31.8572 135.915 30.0057 136.031 28.0848L136.239 28.675H136.621L136.794 27.9112L136.621 27.1475L136.031 26.9392L136.794 27.1475L137.176 26.3837L136.031 25.62L136.621 24.4744H136.239V24.0925H135.684L134.538 24.648L134.33 24.2661L133.01 24.0925V23.7107L132.073 23.5024L131.518 23.7107L130.754 23.3288C129.99 23.9537 129.111 24.1388 128.116 23.8842L127.734 24.0925L126.206 23.7107V24.0925L125.824 22.9469C128.231 22.2989 130.627 21.593 133.01 20.8293L133.219 20.0655L132.837 19.8572V19.4754H133.601V19.0935C132.837 18.0752 131.946 17.5082 130.928 17.3924V17.7743L130.372 18.1562V18.7116H129.817L128.879 18.3298L128.116 19.6837L126.796 19.8572V20.621L125.095 21.0028C124.447 20.4937 124.193 19.8572 124.332 19.0935C126.206 16.5477 127.653 13.8168 128.671 10.9007L127.352 10.5188L125.443 11.0742L125.269 10.5188L123.95 10.3105L123.568 10.5188V8.9913C126.091 8.59786 128.544 8.21599 130.928 7.84569L131.691 8.01927V7.6374H132.837V7.25553C132.328 6.49179 131.946 5.72805 131.691 4.96431L130.199 4.79073L129.817 5.34618L129.226 5.93634L126.033 6.31821L125.651 6.10992L124.332 6.31821L123.741 5.34618L124.332 3.05496L125.095 2.84667L125.651 3.05496L126.415 2.84667V2.4648H127.525V2.84667L127.352 3.22854L128.116 3.43683L129.608 2.84667L130.199 1.52748H130.754V1.90935L130.199 2.29122V3.05496H131.136C131.252 2.03664 131.633 1.07618 132.281 0.173577L133.601 0L134.538 0.173577C133.774 0.312439 133.462 0.821599 133.601 1.70106H133.983L135.093 0.937317V1.70106H135.684L135.857 0.76374H136.239L137.003 1.90935H137.385L138.704 0.937317L139.468 1.90935V2.4648L139.259 3.05496L139.815 3.22854L140.405 2.29122H140.023V1.90935H140.405V2.29122L141.898 2.4648V4.96431H141.516L140.578 4.58244L140.405 5.1726H139.086V5.72805L140.96 6.31821L141.169 7.08195H141.724V7.46382L141.169 8.22756C141.539 8.59786 141.655 9.10702 141.516 9.75504L141.898 11.2825H142.279L142.661 11.838H143.217V12.9836H143.981L144.571 14.1292L143.981 15.4831L141.724 15.6567L142.106 13.9556H141.516V14.8929L140.405 12.81H139.815L139.086 13.1919L138.496 12.0463L138.877 10.5188L137.94 8.60943H137.385V10.1369C137.13 9.48889 136.621 9.23431 135.857 9.37317V9.75504H134.92L134.156 9.37317L133.601 10.3105V10.6924L134.712 10.9007L135.684 11.6644L135.857 12.6017H136.621V13.1919H137.176V12.81L137.766 12.9836V13.3654L137.176 14.3375H137.766L137.558 14.8929H137.94L138.496 14.7194V15.1012H139.086V16.0385H139.641L139.815 15.2748L140.405 15.4831V16.2468L140.96 16.4204V17.1841H140.578L139.641 16.4204L139.468 17.3924L138.877 17.7743V18.3298L137.766 18.7116V19.3018H139.086V21.3847H139.815L138.704 21.593L138.322 23.1205H137.94V23.7107L138.114 24.8563H138.496L138.877 24.2661H139.815V26.0019H140.405L140.578 24.8563H140.96L141.342 26.0019L141.169 26.5573L141.342 27.1475H140.405V27.7029L141.342 28.2931H140.578V27.7029H140.023L139.468 28.8485L140.787 29.0568V29.6123L141.898 30.376H141.342V30.7579L142.279 31.1398L141.724 31.9035L141.898 32.2854H141.516V33.0491L141.724 33.6393H141.342L140.787 33.431V33.8129V34.9585ZM131.691 34.403L131.9 33.8129L131.309 33.6393L131.136 34.1947L131.691 34.403ZM129.053 34.1947L129.226 33.6393H128.289L129.053 34.1947ZM127.525 33.8129L127.144 33.431V33.8129H127.525ZM128.289 33.2574V32.6672L127.525 32.2854V33.2574H128.289ZM130.199 32.8755L129.608 32.2854V33.0491L130.199 32.8755ZM158.735 32.6672L158.179 32.1118V32.4937L158.735 32.6672ZM139.086 31.9035V31.3481H138.496V31.9035H139.086ZM147.973 31.1398L146.827 30.376L146.272 27.5294L146.827 23.7107L150.056 23.5024L150.993 24.0925C151.086 24.81 150.889 25.4464 150.403 26.0019L151.375 26.5573L150.403 26.3837V26.9392L150.993 27.1475C151.502 28.0269 151.757 29.0453 151.757 30.2024L150.611 30.5843L147.973 31.1398ZM140.023 30.2024L140.197 29.4387H139.259L139.086 30.2024H140.023ZM130.928 29.8206L130.58 29.4387V29.8206H130.928ZM150.785 29.2304L150.403 28.8485V29.2304H150.785ZM130.928 28.0848L130.754 27.5294H131.309L131.518 28.0848H130.928ZM138.322 26.1755L137.766 26.0019V26.3837L138.322 26.1755ZM156.096 26.0019L155.541 25.7936V26.1755L156.096 26.0019ZM156.478 21.9749L156.096 20.621H155.159C154.904 18.9778 154.522 17.4503 154.013 16.0385L152.312 15.865L150.993 16.2468L150.056 16.0385V17.3924L148.528 17.9479V18.3298L148.702 19.3018L146.654 20.2391L145.89 18.1562H145.126V17.566L145.682 16.6287L145.508 15.865L146.063 15.6567L146.827 11.0742L146.445 10.3105H146.827L147.383 10.5188C147.105 9.40789 147.174 8.32014 147.591 7.25553L146.827 7.08195L146.654 6.31821L147.001 6.70008H147.383L147.973 4.79073L146.827 4.58244L147.973 3.22854V1.90935L147.765 0H151.375L150.611 0.76374H152.104V1.31919L154.187 2.67309V3.05496H154.951L155.541 2.84667V2.4648L156.478 3.43683L156.27 3.99228L157.971 4.20057V5.1726L157.797 5.55447L157.242 5.93634L156.478 7.6374L157.797 7.84569V8.22756L157.034 8.78301V10.3105L156.478 10.5188L156.27 11.0742C156.918 11.7223 157.3 12.4281 157.415 13.1919L156.652 13.7473V14.1292L157.415 14.3375V14.7194L157.242 15.2748H157.797V16.2468L157.589 17.0106H157.034V17.566L158.179 17.9479L158.943 18.7116L160.436 18.5381L160.262 19.3018L160.436 19.8572L159.672 20.0655L159.498 20.8293L157.415 21.2111V21.7666L157.034 21.9749H156.478ZM132.837 15.4831L133.392 13.7473L133.219 13.1919H133.774V12.6017L133.219 10.6924L132.281 10.5188L131.691 11.6644L131.9 12.81L131.136 12.9836L130.58 13.7473L129.99 15.4831L130.754 15.865L131.309 15.6567L131.9 15.865L132.837 15.4831ZM154.013 15.1012L154.187 14.5111H153.458L153.25 15.1012H154.013ZM135.857 14.7194L135.093 14.3375V14.8929L135.857 14.7194ZM134.33 14.7194V14.1292L134.92 13.5737H134.33L133.774 14.7194H134.33ZM136.621 14.1292V13.3654H135.857V13.7473L136.621 14.1292ZM135.475 12.6017L134.92 12.4281V12.81L135.857 13.3654L135.475 12.6017ZM153.631 12.6017L154.187 8.9913L154.013 8.01927L154.187 7.25553C153.446 6.88523 152.636 6.75794 151.757 6.87366C151.873 7.52168 151.676 7.97298 151.167 8.22756H150.611V8.60943L151.375 8.9913L151.93 8.78301V9.16488L151.167 10.1369L151.93 11.6644L153.631 12.6017ZM132.455 12.2198V11.6644L132.837 12.2198H132.455ZM140.405 11.0742V10.5188H139.468V11.2825L140.405 11.0742ZM145.682 8.40114L144.571 6.87366L145.89 7.46382L146.063 8.22756L145.682 8.40114ZM140.787 7.08195L140.197 6.87366V7.25553L140.787 7.08195ZM138.322 6.49179L138.496 5.1726H138.114L137.766 6.70008L138.322 6.49179ZM139.468 6.70008V5.93634H138.877V6.70008H139.468ZM152.312 6.31821L153.076 4.96431L152.486 4.79073L152.104 5.55447L151.549 5.72805L150.785 5.55447V6.10992L152.312 6.31821ZM144.571 5.72805L143.425 5.1726L143.043 3.43683L143.807 3.61041V4.58244H144.189L145.3 3.99228L145.89 4.79073H146.272L145.3 4.96431L144.571 4.79073V5.1726V5.72805ZM153.631 5.55447L153.076 5.34618V5.72805L153.631 5.55447ZM127.734 5.55447V4.96431H126.97V5.34618L127.734 5.55447ZM157.242 5.55447V5.1726L157.415 4.58244L156.86 4.37415L156.27 4.58244V5.1726H156.652V5.55447H157.242ZM140.578 4.58244V3.61041H139.815V4.20057L140.578 4.58244ZM153.805 3.99228V3.22854L153.25 4.20057L153.805 3.99228ZM152.486 3.8187L151.93 3.43683L151.549 4.20057H151.93L152.486 3.8187ZM138.704 3.05496V2.08293H138.114V3.22854L138.704 3.05496ZM152.868 2.84667V2.4648H152.312V2.84667H152.868ZM128.671 2.4648L128.497 1.90935H128.879L128.671 2.4648ZM151.375 1.90935V1.52748L150.611 1.14561V1.52748L151.375 1.90935Z" fill="#483D3F"/>
<path d="M103.906 39.3673L102.969 38.9855L102.587 38.0481L102.796 37.458H102.032V38.2217H101.094L100.921 37.458C99.5323 37.5968 98.3404 37.1571 97.3452 36.1388L96.5814 36.3124L93.9431 35.375L93.7695 34.8196L92.8322 34.6113V34.9932L91.6866 34.4377L91.513 33.674H90.9575L89.9855 34.0559L89.8119 33.4657L87.729 32.9102C89.8814 32.0308 91.9527 31.1398 93.9431 30.2372L94.3249 29.4734L94.4985 29.0915L93.5612 29.2998V28.7097L94.1514 28.5361V27.9807L93.3876 27.7724L92.8322 27.9807L92.4503 26.4532C93.5843 26.7078 94.3365 26.4532 94.7068 25.6894L93.9431 25.4811L93.3876 25.6894V24.9257H92.6239L92.8322 23.9884C91.6981 22.9701 90.3211 22.5882 88.701 22.8428L88.4927 22.079L97.3452 21.3153C98.2246 21.3153 98.7917 21.6277 99.0462 22.2526L98.4561 23.9884L97.9006 24.162L97.7271 24.9257H97.3452L97.1369 27.2169L97.3452 27.9807L97.1369 28.7097H98.0742L98.6644 28.5361L99.3934 29.2998V29.6817L99.2198 30.2372L99.7753 30.619L97.9006 31.3828V31.7646L97.5188 32.702C98.9074 33.2111 100.284 33.593 101.65 33.8476V34.4377H102.587V35.5833H103.351L103.559 34.8196H105.226L105.607 35.5833L106.371 35.375L106.753 35.5833V36.1388C107.656 35.9536 108.535 35.9536 109.391 36.1388L112.203 35.2015L111.44 36.6942H110.676L110.329 37.8398L109.183 38.0481L109.01 38.43H108.246L107.69 38.2217L107.482 38.6036L106.163 39.1937V38.8119H105.607V39.1937H105.052L104.288 38.9855L103.906 39.3673ZM104.497 37.0761L103.906 36.9025V37.2844L104.497 37.0761ZM99.9836 35.2015V34.2294H99.6017V35.2015H99.9836ZM97.9006 34.8196V34.0559L96.9633 33.8476V34.6113L97.9006 34.8196ZM111.44 34.4377L111.058 33.2921H111.648V32.702C111.255 32.2159 110.745 32.0308 110.12 32.1465L109.739 31.5911L108.246 31.3828L106.927 31.5911V32.5284L107.135 33.0838L105.989 33.2921L106.753 33.0838V32.702L105.607 32.1465L105.434 31.5911H105.989V30.0636L107.309 29.6817V29.2998L106.927 28.5361L107.135 27.9807L105.607 27.3905L104.67 27.5988L104.115 27.3905L104.67 27.2169V26.835L103.733 26.2449L103.351 27.0086L102.796 26.0713L102.032 25.863V27.2169H101.65L101.094 26.0713C101.858 25.3076 102.738 24.7984 103.733 24.5438L104.115 23.7801L105.052 23.3982L105.226 22.8428L105.052 22.4609H104.67V23.0163H104.288L103.906 21.107L103.177 20.9334V20.378L102.414 20.1697L102.969 19.9961L103.177 18.6422H102.587V19.0241V18.4686L102.414 17.8785L103.177 17.7049L103.351 17.1147L103.177 15.7955L103.351 15.2401L102.24 15.0318L102.032 15.622H101.303L101.094 13.8862L101.476 13.1224H100.713V13.7126H100.331V12.567L99.3934 12.9489L99.6017 12.1851L99.0462 12.0115V11.2478L99.2198 10.6576H97.9006L97.7271 9.33846L98.6644 8.95659L99.2198 9.13016L99.9836 7.42911L103.177 7.04724L103.351 5.72805L102.587 4.58244L102.032 4.40886L101.476 4.58244L100.713 4.02699V3.43683H100.331L99.7753 3.64512L100.157 3.43683V2.88138L99.2198 2.49951V1.90935C100.099 2.16393 100.597 1.90935 100.713 1.14561H101.65L102.24 1.3539L102.796 1.14561L102.969 1.73577L103.559 1.90935L103.733 1.3539H104.288L106.927 2.11764V3.26325L106.753 3.64512L106.163 4.02699V5.13789L106.545 5.34618V6.10992L105.989 7.81098L105.052 8.01927V8.57472H105.607L106.163 8.40114L106.753 9.13016L107.864 8.95659V9.51203L107.309 9.72033L105.226 9.33846L103.906 10.2758L103.559 9.72033L102.032 9.33846V10.8659L102.414 12.7406H103.351C103.721 13.3886 103.976 14.0945 104.115 14.8582L105.226 15.0318V15.7955L104.67 16.5593L104.497 16.1774H103.733L103.559 16.7328L103.733 17.323L104.844 17.4966L105.607 17.323V16.3857H105.989L106.545 16.5593L106.371 17.323H106.927L107.864 17.1147C108.373 17.7627 108.998 17.9595 109.739 17.7049L111.266 17.323L111.44 16.3857L111.995 16.0038V15.4137L110.884 14.8582L110.502 14.0945H109.739V13.5043H110.502V12.7406C110.132 12.2546 109.634 12.0694 109.01 12.1851C108.616 11.4214 108.419 10.5998 108.419 9.72033L109.183 8.01927L108.419 7.81098L107.482 8.19285V7.81098L108.072 7.6374L108.246 6.49179H109.01L109.183 5.51976L110.12 4.96431L110.502 4.02699L109.183 3.43683L109.01 2.67309L109.391 1.90935L110.884 1.14561H111.266L111.44 0.590163L112.585 0.416586C113.071 0.786884 113.696 0.902602 114.46 0.76374L116.161 0.590163V0.0347157H118.036L118.417 2.29122L118.209 2.67309L118.036 3.43683H117.445V3.8187L117.827 4.96431L117.654 5.34618H116.89V5.90163L116.508 6.10992V7.42911L114.252 7.81098L113.523 8.19285C113.129 8.70201 112.62 8.95659 111.995 8.95659L111.822 9.51203L112.585 9.72033V10.2758L112.203 11.6297L112.759 11.8033L113.141 11.0395H113.696V11.6297L113.523 12.1851L114.252 12.567V13.1224L114.078 13.8862C114.448 14.5342 114.576 15.2401 114.46 16.0038L114.252 16.5593H113.696V16.9411L115.015 17.8785L115.189 18.6422L115.953 18.8505L116.161 19.4059L115.015 20.378L114.842 21.107H113.696L113.523 22.4609H113.141L112.932 23.7801H114.078V24.3355H114.633L115.779 23.7801L115.953 24.162H116.716V24.5438L115.779 24.9257L114.842 26.6268H114.46V27.0086L115.397 28.7097H115.015V29.2998H116.161V29.6817H115.779L115.571 31.0009L116.716 31.2092V30.619L116.89 31.3828L115.779 32.3201L115.571 33.0838L114.252 33.674V32.702H113.696V34.0559H113.314V33.674H112.759V34.2294H112.377L111.995 33.2921H111.44V34.0559V34.4377ZM94.7068 34.0559L94.3249 33.674V34.0559H94.7068ZM104.497 33.8476L105.434 33.4657V33.8476H105.052H104.497ZM96.5814 32.1465V31.7646L95.8177 31.3828V31.7646L96.5814 32.1465ZM112.203 31.5911L112.377 30.8273L111.648 30.619L110.884 31.3828L112.203 31.5911ZM113.696 31.5911V31.0009H113.141V31.5911H113.696ZM107.309 31.2092L107.482 30.4455L106.753 31.3828L107.309 31.2092ZM110.12 31.3828V30.8273L109.183 30.619V31.0009L110.12 31.3828ZM108.628 30.8273L108.801 29.6817L107.69 29.4734V30.2372H108.072L108.628 30.8273ZM111.058 30.4455L110.12 29.8553V30.2372L111.058 30.4455ZM109.947 30.4455V30.0636L109.739 29.2998L109.947 28.3278L109.01 27.5988L108.419 28.5361L109.183 28.918L109.01 29.6817L109.183 30.4455H109.947ZM111.648 29.8553V29.2998H111.266L111.058 29.8553H111.648ZM108.072 29.0915L107.69 28.7097V29.0915H108.072ZM113.696 28.7097L113.523 28.1542H113.141V28.918L113.696 28.7097ZM111.058 27.5988H111.995L112.377 26.4532L111.648 26.2449L111.44 26.6268L110.884 26.835L110.676 27.5988H111.058ZM96.1996 27.3905V26.835H95.8177V27.3905H96.1996ZM107.482 27.5988V27.0086L107.309 26.4532H106.753V27.5988H107.482ZM105.434 26.6268L104.844 25.863V26.4532L105.434 26.6268ZM110.884 26.4532L110.502 26.0713V26.4532H110.884ZM114.842 26.0713V25.6894L114.252 25.4811V25.863L114.842 26.0713ZM104.497 25.4811V24.9257H103.906V25.4811H104.497ZM94.4985 25.0993V23.9884H93.9431V25.0993H94.4985ZM106.163 23.9884V22.6345H105.607L105.434 23.2246H105.052V23.7801L106.163 23.9884ZM111.995 23.7801L111.44 23.0163L110.676 23.2246L110.12 22.4609H109.565V22.8428L109.739 24.162H110.676L111.995 23.7801ZM107.309 23.6065V22.8428H106.927L106.545 23.6065H107.309ZM110.502 22.079V21.6972L109.391 20.9334V21.3153L110.502 22.079ZM105.052 21.4889L105.226 20.7251H104.844L104.67 21.4889H105.052ZM100.921 19.4059L101.858 18.4686L101.476 19.4059H100.921ZM113.314 16.9411L113.523 16.3857H112.759V17.1147L113.314 16.9411ZM114.078 16.1774V15.4137H113.523L113.141 15.622V16.0038L114.078 16.1774ZM93.214 15.2401V14.0945L91.513 13.7126V13.3307H90.9575L89.6384 10.6576L91.6866 10.2758L93.7695 10.6576L94.7068 12.3934L95.6441 12.9489L96.1996 14.8582L95.2623 15.2401L94.8804 15.0318L94.3249 14.8582L93.214 15.2401ZM111.648 14.8582V13.7126L110.884 13.5043L110.676 14.2681L110.884 14.8582H111.648ZM113.523 14.4763V13.8862H113.141V14.4763H113.523ZM102.587 14.0945L102.796 13.5043H102.032V13.8862L102.587 14.0945ZM111.44 12.9489V12.3934H111.058V12.9489H111.44ZM111.648 11.4214L111.266 11.0395L111.058 11.6297L111.648 11.4214ZM110.502 11.0395V10.4841L109.183 10.1022V11.0395H110.502ZM109.947 9.51203L110.12 8.74829H109.739L109.391 9.51203H109.947ZM102.24 9.13016L102.032 8.40114L102.414 7.6374H101.303L101.094 8.74829L101.476 9.51203H102.24V9.13016ZM103.177 9.13016V8.57472H102.587V9.13016H103.177ZM113.141 8.57472V8.19285L112.585 8.01927L112.377 8.57472H113.141ZM112.585 7.04724L112.759 6.2835L112.585 5.72805H111.822L111.648 6.2835L111.995 7.25553L112.585 7.04724ZM113.696 6.66537C114.46 5.90163 114.714 5.02217 114.46 4.02699L111.822 2.67309L111.648 2.11764H110.884V3.26325L111.822 3.64512L112.377 4.40886L113.696 4.58244V5.13789L112.932 5.72805V6.10992L113.696 6.66537ZM111.648 6.66537V6.2835H111.266V6.66537H111.648Z" fill="#483D3F"/>
<path d="M71.1568 40.1311L71.3304 39.3673H70.5667V38.6036H69.8377V38.2217L70.0112 37.2844H69.2822V37.6663H68.7268V37.2844L69.4558 36.9025V36.5207H69.0739V36.1388H70.3931V36.9025H70.9486L72.0942 35.7569L72.4413 34.8196H72.8232L72.9968 35.375H73.5869L73.9341 34.6113L72.9968 34.2294L72.8232 33.4657L72.9968 32.9102H72.2677L72.6496 31.9729H71.8859V31.5911L69.6294 31.0009L69.2822 32.1465H68.9003L68.3449 31.3828L66.6438 31.0009V31.9729H67.4076L67.1993 33.2921L67.7894 33.4657L67.963 34.0559H67.0257C67.1414 33.4078 66.9563 33.0838 66.4703 33.0838L66.0884 34.0559H65.5329V35.375H66.262V34.9932H66.6438L66.8521 35.9652L64.422 36.1388L65.1511 35.9652V35.5833C64.7808 35.0742 64.2832 34.8775 63.6583 34.9932L63.2764 36.3124C62.4201 36.0809 61.992 35.5833 61.992 34.8196L62.721 34.6113V34.2294C61.9804 34.1137 61.668 33.674 61.7837 32.9102H62.3391L62.721 31.2092H63.1029V30.8273L62.1655 30.619L62.3391 29.2998L62.1655 28.7097L62.3391 27.7724L62.721 27.9807V27.5988L62.5474 27.0086L62.8946 26.2449C62.5243 25.7357 62.4086 25.0993 62.5474 24.3355H61.992L62.5474 24.162V23.6065L62.3391 22.8428L62.5474 21.8707L62.721 22.4609H63.4847L63.6583 21.8707L61.7837 20.9334L61.6101 19.6142C62.9756 19.1051 64.4105 18.7232 65.9148 18.4686L66.0884 19.7878H66.4703L67.1993 18.8505H67.5812V18.2603L68.3449 18.4686V18.0868L69.0739 17.8785V17.323L68.9003 16.7328C69.2706 16.2468 69.7682 16.0038 70.3931 16.0038V15.2401L69.0739 14.8582V15.2401L69.2822 15.622L68.5185 15.2401V14.4763H67.963L67.1993 14.8582L67.0257 13.5043L67.4076 12.7406H67.963L68.1366 13.3307H68.5185L68.7268 12.1851L69.4558 12.0115V11.2478L69.2822 10.8659L70.0112 10.4841V9.8939H69.4558V9.51203H69.8377V8.95659C68.8425 8.33171 67.6506 8.14656 66.262 8.40114L64.7692 8.57472L64.2138 8.19285V7.81098C66.7133 6.93152 69.2128 6.16778 71.7123 5.51976V4.96431H70.5667L71.504 4.02699V3.26325H71.8859V2.67309H71.3304L72.4413 1.90935L72.9968 3.05496L73.2051 4.02699H73.5869L74.1424 5.51976L74.8714 5.72805L75.0797 5.34618C75.936 4.83702 76.8733 4.52458 77.8916 4.40886L79.0025 4.58244L79.3844 5.90163H79.0025L77.5098 7.04724V6.66537H77.1279L76.3642 7.25553L75.6351 7.04724L74.316 7.25553L74.1424 7.81098L73.5869 8.01927L73.3786 8.95659L74.1424 9.51203L73.7605 10.4841L74.1424 11.2478H74.8714L76.3642 10.6576L77.1279 11.0395L77.3015 11.8033L77.8916 12.0115V11.4214L77.6834 10.6576L78.829 10.2758L79.1761 11.6297L76.9543 12.567L76.5725 13.3307H76.017V12.9489H75.4616L75.2533 13.8862L73.7605 14.2681L73.3786 16.0038L72.4413 15.4137L72.2677 17.4966C73.7721 18.1446 75.3921 18.3992 77.1279 18.2603V18.6422H77.6834V18.0868C78.8174 17.8322 79.882 17.5082 80.8772 17.1147L81.8145 18.2603L80.8772 17.8785V18.2603L81.0508 19.2324C80.3102 19.6027 79.4423 19.7299 78.4471 19.6142L78.0652 22.6345L78.2388 23.2246C77.6139 23.3404 77.3709 23.7107 77.5098 24.3355L78.0652 26.0713L76.746 26.6268L76.5725 27.2169L77.5098 27.3905L78.0652 29.2998L77.3015 29.4734V30.619L77.5098 31.0009L76.746 30.8273V31.3828L76.9543 32.1465H76.3642V33.4657L77.1279 34.4377L76.9543 35.2015L77.3015 36.1388L76.746 36.5207L76.5725 37.6663H76.017V38.0481L76.5725 38.2217L77.1279 38.0481L77.3015 38.8119L76.017 38.9855L75.8087 39.5756L75.2533 40.1311H71.1568ZM50.1887 38.2217L51.5079 37.6663V37.0761L51.2996 36.5207L50.3623 36.1388V35.5833L51.2996 35.375L51.5079 34.4377L51.2996 33.2921L50.7442 32.702L51.5079 32.5284L52.2369 32.702L52.4452 32.1465L51.8551 31.7646H50.5706L51.5079 31.3828L51.6815 30.8273L50.5706 30.4455L50.1887 29.4734H48.8695V28.7097H47.5851L46.6477 30.2372H47.2032L47.7586 29.4734L47.2032 30.4455H46.4394L45.5021 30.2372L44.9467 31.0009H44.5648L44.3912 30.4455L42.8985 30.0636L42.6902 28.918L43.072 28.3278H43.4539L45.1203 27.7724C45.0045 26.8929 45.317 26.1986 46.0576 25.6894L47.5851 25.0993V25.4811L48.4877 24.3355C48.9968 24.1041 49.1935 23.6644 49.0778 23.0163H50.0151L50.5706 21.4889L51.126 20.7251C50.5012 20.2391 49.9341 19.7415 49.425 19.2324L49.0778 19.6142L48.4877 19.4059L47.7586 19.6142V19.9961H47.3768L46.4394 19.2324V18.8505H45.884L45.7104 19.7878L44.9467 19.6142V19.9961H44.5648L43.8358 19.7878L42.5166 19.9961V17.8785H42.8985L43.6275 18.0868V17.7049L45.3286 17.1147L46.0576 17.7049L46.9949 17.1147L47.7586 17.323V16.9411L48.6959 16.7328V16.1774L48.4877 15.4137L48.8695 15.622V15.2401L47.2032 14.2681L46.4394 13.1224L45.3286 12.567V12.1851L44.7731 12.0115C44.0094 10.8544 43.6275 9.58146 43.6275 8.19285H44.0094L45.884 8.95659L46.4394 9.72033L48.3141 10.4841L48.4877 11.2478L49.2514 11.6297L50.5706 12.9489L50.3623 13.7126L51.5079 14.0945V13.5043L51.6815 14.0945H52.2369L52.4452 13.5043C51.3112 12.2546 50.7442 10.7965 50.7442 9.13016C51.2533 8.75987 51.4385 8.26228 51.2996 7.6374H52.0633V7.25553C51.693 6.74637 51.5658 6.16778 51.6815 5.51976L52.2369 4.58244L51.6815 4.40886V3.8187C52.0518 3.19382 52.1791 2.49951 52.0633 1.73577L54.4934 1.3539L55.0489 2.11764H55.4307V2.49951H54.8753L53.7297 2.11764V3.05496L54.667 3.8187L54.4934 4.75602L53.3825 4.96431V5.51976C54.0074 5.40404 54.3777 5.60076 54.4934 6.10992V7.42911L53.938 8.19285H53.0007V8.57472L53.938 9.33846L54.4934 8.95659L54.8753 10.2758L55.6043 10.4841L57.0971 10.1022L57.3054 9.33846H56.7499L58.0344 8.19285V7.81098H58.4163V7.42911C59.3883 6.94309 60.3256 6.37607 61.2282 5.72805V6.10992H61.6101V7.42911L60.6728 9.72033L59.7355 9.8939L58.9717 10.8659L58.5899 10.6576L58.2427 11.4214H57.479L57.0971 13.3307H56.3681L55.6043 13.1224V13.5043L56.1598 13.7126V14.0945C55.1646 13.8399 54.5513 14.025 54.3199 14.6499L54.667 15.4137L55.9862 15.622C57.1202 15.2285 58.3006 15.1012 59.5272 15.2401V14.4763H59.909L60.1173 15.7955L59.7355 16.5593L59.909 17.4966L59.18 16.7328L58.7981 17.323L58.2427 17.8785L58.7981 18.2603H57.8608L57.3054 18.0868L56.5416 18.8505H56.1598L55.4307 18.4686L55.0489 21.107L55.4307 21.8707C56.6805 22.1253 57.803 22.7618 58.7981 23.7801L58.9717 24.5438L58.5899 25.3076L57.3054 25.4811L55.8126 24.9257V24.5438H55.4307V24.162H55.0489L54.4934 24.7174C54.6091 24.0925 54.424 23.7801 53.938 23.7801L53.7297 24.9257H53.0007L52.7924 26.2449H52.2369V27.0086L52.7924 27.2169L53.1742 27.0086L53.5561 27.9807L52.7924 28.3278L52.6188 28.918L52.7924 29.4734H53.5561V28.7097H53.938L54.4934 29.6817L54.3199 30.4455L53.3825 31.2092V31.7646C53.7528 32.2738 53.8686 32.8408 53.7297 33.4657H54.3199V33.8476H53.938V35.375L54.4934 36.5207L53.938 36.3124V36.9025L54.4934 37.6663L52.7924 38.2217L52.0633 37.6663V38.2217H50.1887ZM76.746 35.9652V35.5833H76.3642V35.9652H76.746ZM74.5242 34.4377L74.1424 33.8476V34.4377H74.5242ZM63.8319 33.8476L64.422 33.2921V32.9102H63.2764V33.674L63.8319 33.8476ZM75.8087 33.674V33.0838H74.8714V33.674H75.8087ZM66.0884 32.702V31.9729H65.3594L66.0884 32.702ZM63.8319 31.3828L64.0402 30.2372H63.1029V31.3828H63.8319ZM52.6188 31.2092L53.7297 30.8273V30.4455L52.4452 30.0636L52.0633 31.3828L52.6188 31.2092ZM71.3304 30.619V30.0636L71.1568 29.6817L71.3304 29.2998L71.504 30.0636H72.0942V29.0915C72.4645 28.2121 72.8348 27.3326 73.2051 26.4532L72.8232 25.0993H72.4413L72.0942 24.162L71.504 23.9884L71.7123 25.3076L70.3931 25.863V26.2449L70.5667 26.835L68.5185 26.4532L68.3449 25.6894H67.5812L67.4076 26.4532L66.4703 26.6268L66.262 27.2169L67.4076 27.3905L68.1366 27.2169L68.5185 29.0915L69.8377 29.2998V29.6817L70.775 29.8553V30.619H71.3304ZM73.5869 30.4455V29.8553H72.9968V30.4455H73.5869ZM52.2369 30.0636V29.2998L50.9525 28.918L50.7442 29.4734L52.2369 30.0636ZM46.2659 29.6817L46.4394 29.0915H46.0576L45.7104 29.8553L46.2659 29.6817ZM63.6583 29.8553V29.4734L63.1029 29.2998V29.8553H63.6583ZM67.1993 29.2998V28.7097L66.262 28.5361V29.0915L67.1993 29.2998ZM76.5725 29.0915L76.9543 28.3278H75.8087V28.918L76.5725 29.0915ZM77.6834 29.0915V28.7097H77.3015V29.0915H77.6834ZM52.2369 28.7097V28.1542L51.126 27.9807L52.2369 28.7097ZM46.9949 28.1542L46.4394 27.5988V27.9807L46.9949 28.1542ZM50.9525 27.3905V26.0713L51.126 25.3076L50.7442 24.5438H50.3623C49.7374 25.053 49.4944 25.6894 49.6333 26.4532C50.1193 26.5689 50.559 26.8813 50.9525 27.3905ZM75.6351 27.3905V26.6268H75.0797V27.3905H75.6351ZM74.316 26.4532L74.5242 25.863H73.9341V26.4532H74.316ZM66.8521 26.2449L67.1993 25.4811L64.7692 25.0993V25.4811L66.8521 26.2449ZM77.3015 26.2449L76.9543 25.863V26.2449H77.3015ZM63.8319 25.863V25.4811L63.2764 24.5438H62.721V25.6894L63.8319 25.863ZM67.5812 24.7174V24.162L67.7894 23.7801L68.9003 24.162L69.4558 23.9884L70.0112 24.162L71.8859 23.6065L72.8232 23.9884L73.2051 22.6345L72.4413 22.079L72.2677 21.4889L71.8859 21.3153V20.5515L70.775 20.378L70.3931 21.107H69.8377L68.7268 20.5515V20.9334H67.7894L67.1993 20.7251L67.0257 22.2526H66.6438L65.9148 22.079V22.4609H65.3594L65.1511 21.8707H64.7692L64.2138 23.2246L64.422 23.7801H65.1511V23.3982H65.9148L67.0257 23.6065L67.1993 24.7174H67.5812ZM50.0151 23.9884L50.5706 23.7801V23.3982L49.6333 23.0163L49.425 24.162L50.0151 23.9884ZM52.7924 24.162V23.3982H52.2369V24.162H52.7924ZM53.7297 23.9884V23.3982H53.1742V23.9884H53.7297ZM64.2138 23.3982L64.0402 22.8428H63.2764V23.3982L64.2138 23.7801V23.3982ZM77.6834 23.2246V22.4609H77.3015L77.1279 23.2246H77.6834ZM64.9775 21.4889V20.7251L64.2138 20.5515V21.107L64.7692 21.8707L64.9775 21.4889ZM69.2822 20.1697V19.6142H68.5185V20.1697H69.2822ZM67.963 19.6142L67.1993 19.2324V19.7878L67.963 19.6142ZM69.4558 19.0241L69.6294 18.4686L69.0739 19.0241H69.4558ZM49.425 17.7049V16.7328H48.8695V17.7049H49.425ZM56.3681 17.7049V17.1147L56.1598 16.0038L55.4307 16.7328L55.8126 17.4966L56.3681 17.7049ZM73.5869 17.4966L73.2051 17.323V16.9411L73.7605 16.7328L73.5869 17.4966ZM65.1511 15.2401C64.0402 14.5921 62.7904 14.2102 61.4018 14.0945L62.8946 13.3307V13.8862H63.4847L63.8319 13.1224L64.5956 12.9489L64.7692 13.5043H65.1511L66.4703 12.7406V13.7126L65.9148 15.0318L65.1511 15.2401ZM53.3825 13.7126V13.3307L53.1742 12.7406H52.6188V13.3307L53.3825 13.7126ZM52.0633 12.0115V11.6297H51.6815V12.0115H52.0633ZM71.504 11.2478V10.6576L70.9486 11.2478H71.504ZM51.5079 9.72033L51.126 9.33846V9.8939L51.5079 9.72033ZM76.5725 7.04724V6.66537L75.8087 6.2835V7.04724H76.5725ZM71.504 6.2835V5.90163H70.9486V6.2835H71.504ZM78.6207 5.72805L78.829 5.13789H78.4471L78.0652 5.90163L78.6207 5.72805ZM73.2051 4.58244L72.6496 4.02699V4.40886L73.2051 4.58244Z" fill="#483D3F"/>
<path d="M4.13114 30.4455V30.0636L4.68659 27.0086L4.30472 26.0713L2.08293 24.9257L1.87463 24.3355L4.68659 22.8428L5.45033 23.2246L6.00577 21.3153H5.06846V20.1697L5.45033 19.4059C5.56604 18.0173 5.25361 16.8139 4.51301 15.7955C2.89295 15.9344 1.45805 15.622 0.208293 14.8582L0 14.0945L0.555447 12.7406H3.92285L4.68659 12.9489L5.24203 11.4214L4.86016 8.57472L6.35293 7.42911C7.23239 9.21117 7.67211 11.1784 7.67211 13.3307L8.22756 13.5043L9.54675 12.9489L9.72033 13.7126H10.1022L10.4841 12.9489L11.2478 12.7406L10.8659 11.6297L11.0395 11.0395H9.92862C10.3683 9.41946 10.5535 7.77626 10.4841 6.10992H11.4214L11.8033 4.96431L12.5323 6.49179H11.9768V7.04724L13.0877 7.25553V8.01927L13.6779 8.19285V8.74829L13.0877 9.13016V9.72033L13.8515 14.0945H14.2333L14.9624 13.7126L15.3442 14.4763L15.1707 15.4137L15.7261 16.7328L15.5525 17.1147H15.1707L14.6152 16.9411C13.4812 17.566 13.0414 18.5149 13.296 19.7878L13.4696 21.6972H15.5525V22.4609L14.2333 22.8428L13.8515 24.5438L14.025 25.4811L13.6779 26.4532L13.8515 27.2169L13.6779 27.9807L13.8515 28.5361L13.4696 28.7097V29.2998L13.8515 30.0636L12.9141 30.4455L11.2478 30.0636L10.3105 30.2372L9.92862 30.0636V29.4734C10.4146 28.594 10.5998 27.6451 10.4841 26.6268L10.1022 25.863H7.67211C7.30182 27.2748 6.86209 28.675 6.35293 30.0636L5.24203 30.2372L4.68659 30.0636L4.13114 30.4455ZM9.37317 22.8428C9.99805 22.5882 10.6229 22.3336 11.2478 22.079L11.4214 21.3153L10.8659 20.1697L10.3105 19.2324L10.4841 17.1147H8.22756C8.06556 18.7811 7.88041 20.4358 7.67211 22.079L9.37317 22.8428ZM14.9624 16.3857V16.0038L14.6152 16.3857H14.9624ZM9.92862 15.2401V14.6499H9.37317V15.2401H9.92862ZM5.06846 13.5043L4.68659 13.1224L4.51301 13.7126L5.06846 13.5043ZM12.1851 11.0395L11.595 10.8659V11.2478L12.1851 11.0395ZM13.6779 6.10992L13.4696 5.34618L14.4069 5.13789V6.10992H13.6779Z" fill="#483D3F"/>
</svg>
