<svg width="314" height="42" viewBox="0 0 314 42" fill="none" xmlns="http://www.w3.org/2000/svg">
<path d="M291.959 39.8672L291.784 38.3203L292.17 37.5469L290.448 36.9844L292.909 36.3867L293.858 36.5977L294.069 37.5469H294.631L295.932 37.1602V36.7734H296.53L297.268 36.9844V36.5977L298.991 36.2109L299.167 35.4375L298.604 35.2266V33.1172H297.831V32.3438L296.53 32.1328V31.7461H297.092V31.3594L295.756 30.7969L295.194 31.3594L293.858 30.7969V31.3594H293.471L292.909 30.4102L294.631 29.8125L295.194 30.0234L295.756 29.8125L296.319 30.0234L297.268 29.8125L298.042 30.1992V29.6367L298.217 30.0234H298.604L298.991 29.25L298.604 28.2656L299.377 28.0898V27.4922H298.991V27.1055L299.729 25.5586H298.991L298.78 26.332L296.53 25.7695L296.319 25.1719L295.581 24.9961L294.807 25.1719L294.42 24.2227L294.631 23.625H293.858V23.0625L295.018 22.6758L295.932 22.8516L296.53 21.0938L297.655 20.918L297.831 20.5312L298.991 20.1445V19.7578L299.553 19.5469L299.729 18.9844L298.217 18.2109C296.694 18.4688 295.311 18.8555 294.069 19.3711L292.733 18.7734L293.682 17.6133C295.182 17.3555 296.694 17.0391 298.217 16.6641L298.991 17.0508L299.167 16.4531H299.553L299.94 17.0508L300.292 17.4375H300.678L302.577 16.4531L304.299 17.0508V16.6641H305.038L305.424 16.8398C305.94 16.207 306.702 15.9492 307.709 16.0664L306.936 18.2109L305.6 18.5977C304.733 18.1992 303.725 18.0703 302.577 18.2109L301.627 18.3867V18.9844L302.577 19.7578V20.5312L302.014 20.707V20.1445H301.452V20.5312L300.889 20.707V21.0938L301.838 21.4805L301.241 21.6914L301.065 23.4492H302.014V23.8359H302.577L303.139 23.0625L303.702 23.2383C304.1 22.7227 304.229 22.0781 304.088 21.3047H304.862L306.374 21.8672L306.76 23.625L307.709 24.0117L307.885 24.6094L307.499 25.1719L307.709 25.7695L307.323 26.7188L305.424 26.9297L305.249 26.1562L303.35 25.9453L304.299 25.7695V24.6094L303.139 24.0117L302.963 24.6094L302.401 24.7852V25.3828H301.838L300.292 24.3984V25.3828L300.678 26.1562L301.241 26.7188L301.065 27.4922H300.116L301.065 28.8633L300.502 30.0234L304.862 30.5859L305.249 32.3438L304.088 32.7305C303.831 33.2461 303.643 33.8203 303.526 34.4531L303.913 35.2266L305.987 36L306.76 35.8242L309.01 36V36.3867L312.069 36.5977L312.631 36.3867L313.581 36.7734L313.37 37.3711L313.581 37.9336L313.194 38.1445V37.7578H312.807C312.174 38.5312 311.354 38.8477 310.346 38.707L309.784 38.5312L309.221 38.1445L309.01 38.5312C308.26 37.7578 307.381 37.5 306.374 37.7578L305.038 38.707L304.475 37.9336L302.788 37.3711L302.577 38.3203L302.788 38.707L302.014 38.918L299.94 38.3203L299.729 39.0938H298.78L298.604 38.5312L297.831 38.3203L297.268 38.918L296.53 38.707L295.756 39.6914V38.707H295.194V39.0938L293.12 39.6914V38.918H292.522L291.959 39.8672ZM306.936 39.0938L307.709 38.5312V38.918L306.936 39.0938ZM299.167 37.5469L298.991 37.1602L298.78 37.5469H299.167ZM300.678 35.0508L300.292 34.6641V35.0508H300.678ZM302.401 34.2773L302.788 33.5039H302.401L302.014 34.2773H302.401ZM298.991 33.1172L298.604 32.7305V33.1172H298.991ZM298.604 32.5195V31.7461L297.831 31.3594V31.7461L298.604 32.5195ZM303.139 31.957V31.5703L302.577 31.3594V31.957H303.139ZM307.112 28.2656L306.936 27.7031H307.499V28.2656H307.112ZM305.987 25.3828V24.6094H305.249V24.9961L305.987 25.3828ZM305.987 24.3984V23.4492L305.811 22.2539H305.038V22.6758L305.249 23.2383L305.038 23.8359L305.987 24.3984ZM300.678 22.6758V22.0781H299.553V22.4648L300.678 22.6758ZM288.76 21.8672C287.87 21.4922 287.049 21.1055 286.299 20.707V20.3203L285.139 19.7578L285.913 18.7734L285.526 18C286.042 17.2266 286.229 16.3242 286.088 15.293L285.35 14.9062L284.963 12.9727L285.526 11.8125L284.577 11.6367V11.25L285.913 10.6523L286.088 10.0898L285.913 9.49219L286.299 7.55859L285.526 7.38281L285.35 6.39844L285.702 6.99609H286.299L287.987 6.78516V6.39844H290.659L291.608 6.99609V6.22266L293.295 6.60938V6.01172H293.682L294.631 6.60938L295.194 6.99609V7.94531H295.581L295.932 6.39844L296.53 5.625V6.60938L297.268 6.99609L298.217 5.83594H297.479L298.428 4.85156L298.217 3.86719H297.831L297.479 4.46484H297.092L296.53 4.07812L296.143 2.91797L296.53 2.70703L297.092 3.69141H297.479L298.428 3.30469V2.91797H299.377V2.32031L297.655 2.14453L297.479 2.53125H297.092L296.706 1.75781L297.092 0.984375L298.042 0.773438L298.217 0L299.729 0.773438L299.94 1.54688L300.889 1.37109C300.749 3.17578 301.124 4.79297 302.014 6.22266L303.139 6.39844C304.288 5.76562 305.553 5.57812 306.936 5.83594L307.709 6.01172C308.084 5.49609 308.647 5.30859 309.397 5.44922L310.522 6.01172L311.295 5.23828V5.625L311.12 6.22266L313.018 5.0625L313.581 6.99609L313.37 7.55859L313.581 8.15625H313.018V7.55859H312.069V8.15625L313.194 8.92969L313.581 8.71875L312.42 9.31641V9.70312L313.018 9.87891V10.4766L312.807 11.25H313.194L313.018 11.8125L313.756 12.0234L313.194 12.1992V13.5703H312.807L311.858 13.1836V13.957L312.807 14.1328V14.7305L312.245 14.9062V14.3438H311.858L310.346 15.293L310.17 12.1992L310.346 7.76953L309.608 7.17188L309.221 8.54297V8.15625L309.397 7.55859L309.01 6.39844L308.272 8.33203H306.549L305.424 7.55859V7.94531L305.6 8.33203H304.862L303.35 6.60938H302.788L302.401 7.17188L303.35 7.55859L303.526 9.10547H303.139L300.889 8.33203V8.71875L301.065 9.31641H300.678L298.991 8.71875V9.49219H298.042L298.428 8.54297L297.479 7.94531L297.268 8.54297H296.881C296.881 9.17578 296.565 9.49219 295.932 9.49219L294.631 9.10547L294.245 9.70312L289.885 7.94531V8.54297H290.272V9.10547L288.936 9.49219L288.76 10.0898L288.936 12.0234L288.549 12.7969L289.323 15.5039L288.76 16.8398V17.4375L289.499 18V18.3867H289.112V18.9844L289.323 20.1445L288.76 21.4805V21.8672ZM300.889 19.1602L300.292 18.9844V19.3711L300.889 19.1602ZM288.198 18V17.6133H287.811V18H288.198ZM286.475 14.7305L285.913 14.1328V14.9062L286.475 14.7305ZM286.088 13.957L285.702 13.5703V13.957H286.088ZM287.811 12.9727V12.5859H287.424V12.9727H287.811ZM288.374 12.0234V11.4258H287.6V12.0234H288.374ZM286.475 10.8633L286.088 10.4766V10.8633H286.475ZM287.6 8.71875L287.249 8.33203V8.71875H287.6ZM294.245 8.92969V8.33203L293.682 8.15625L293.471 7.38281L292.733 7.17188V7.55859L293.295 8.71875L294.245 8.92969ZM302.963 8.71875V8.33203L302.19 7.94531V8.33203L302.963 8.71875ZM294.807 8.54297V7.94531H294.245V8.54297H294.807ZM297.092 8.33203L296.53 8.15625V8.71875H297.092V8.33203ZM299.377 7.38281L298.991 6.39844H298.428L298.217 7.17188H298.991L299.377 7.38281ZM305.6 7.17188V6.60938L304.651 6.78516V7.38281L305.6 7.55859V7.17188ZM301.452 6.39844L300.889 6.22266V6.60938L301.452 6.39844ZM299.167 3.69141L298.991 3.30469L298.78 3.69141H299.167Z" fill="#483D3F"/>
<path d="M263.708 35.0859L262.934 34.1016H262.547V30.6562L262.723 28.1602L263.708 27.9492V27.3867L262.934 27.1758L262.723 26.4023L263.532 26.2266V25.6289L263.11 23.9062L263.532 23.1328H264.305V22.1836H263.532V22.5703H263.11V21.9727L263.321 21.5859H264.305V20.8125H263.918C264.036 19.0312 264.422 17.4961 265.079 16.207H264.516C265.032 14.7305 265.032 13.2539 264.516 11.7773H263.918L263.532 12.5508L261.95 11.9883V11.6016H261.352L260.754 13.3242L260.192 14.0977H259.77L258.61 13.3242V12.7266L259.208 11.9883H258.399L258.012 11.0039L258.786 11.2148L259.208 10.2305H259.594V9.84375L258.786 9.45703L258.61 7.55859C259.266 7.04297 259.524 6.39844 259.383 5.625H258.997V5.23828H259.594L261.95 5.80078L262.161 7.94531L261.95 9.07031L263.532 9.45703L263.708 10.0547H264.903V9.66797L267.258 9.28125V9.66797H267.856V9.28125L268.032 9.84375H268.84V9.45703H269.614L270.422 9.66797V9.07031H270.809V9.45703L273.165 9.66797L274.325 9.07031L276.293 10.0547L276.504 10.8281H277.102L277.278 11.9883L276.891 11.3906L275.52 12.1641V13.5H274.922L274.536 12.375H274.149L272.18 13.1133V12.5508C271.125 12.293 270.141 11.9766 269.227 11.6016L268.629 12.9375L267.645 15.0469L267.856 15.8203L267.645 16.418L268.032 17.1562H268.454L269.016 16.9805L270 17.3672L271.793 16.9805L272.954 17.9297V17.1562H274.747V17.9297H275.907V18.9141L275.309 19.0898L275.133 18.5273H274.747L274.149 19.8633L273.34 20.25L272.954 19.4766L272.356 19.3008V19.8633H271.583L270.598 19.4766L270 19.6875L268.454 19.3008L268.032 19.8633H267.645V19.4766H266.485V19.8633L267.258 20.25V20.6367L266.063 20.8125L265.887 21.7969L266.661 22.3594V23.3438V24.1172L269.825 24.8555L270.598 24.4688L272.18 25.0664L272.778 24.293L273.762 24.6797L274.149 24.4688V25.0664H274.536L275.309 24.8555V25.2422L275.133 25.8398L275.731 27H275.133L274.922 27.5625L273.938 27.9492H272.567L272.356 27.1758H271.793L270.598 27.9492L269.825 27.1758L269.227 26.6133L269.016 27.3867H268.629L268.032 27.1758L267.469 27.3867L266.872 27.1758L266.661 27.5625H266.274V28.1602H265.5L265.887 29.4961C265.348 29.8711 265.149 30.3867 265.29 31.043L266.661 31.8164L266.872 32.9414L266.485 32.2031H265.887L265.676 32.7656L266.063 33.7148L265.887 34.1016L266.063 34.6992H265.676L265.079 34.4883L263.708 35.0859ZM249.364 33.7148L249.153 33.1523H249.961L249.364 33.7148ZM251.719 33.5391C250.805 32.8828 249.75 32.5547 248.555 32.5547L248.168 31.6055L249.153 31.4297L249.54 30.0586H248.977V30.6562H248.555V30.2695L249.364 27.7734L250.946 27.3867V26.7891L249.75 26.2266L249.364 26.4023V25.8398L249.961 24.8555L250.137 24.293L250.735 24.1172L250.946 23.3438L251.719 22.957L251.93 22.3594L251.122 21.9727L249.75 22.1836L250.524 21.1992H250.137V20.8125L250.524 20.0742H249.961V19.4766L250.348 18.3164L249.75 18.1406L249.364 16.9805H248.766C248.766 17.6133 248.567 18.1289 248.168 18.5273L247.395 18.7031L247.184 19.3008L246.586 19.4766C245.813 20.1328 245.426 20.9062 245.426 21.7969L244.829 21.9727L244.055 21.5859L243.458 21.7969L243.071 22.7461L242.473 22.957L242.262 23.7305L241.278 23.9062V23.3438L240.504 22.7461H240.891V22.1836L240.504 21.0234L241.489 20.25L241.875 18.9141L243.071 18.5273L243.247 17.9297H243.844V17.543H244.231L244.442 17.9297H245.215V17.1562H246.024V16.5938L245.813 15.6445L246.586 15.4336L247.571 16.0312V14.8711C247.969 14.4727 248.497 14.3438 249.153 14.4844L249.961 14.0977V13.7109L249.75 12.9375L250.137 12.1641H249.54L250.524 11.0039H251.333C251.333 10.2305 251.461 9.52734 251.719 8.89453L253.09 8.68359L253.688 8.89453V9.84375C252.891 12.0234 251.836 14.0859 250.524 16.0312L252.106 16.207C252.247 17.2383 252.516 18.1406 252.915 18.9141L252.704 19.4766L253.301 20.4609L253.09 22.7461L253.301 23.7305L252.915 24.8555H253.301V25.8398L252.493 30.0586L252.704 30.6562C252.563 31.6875 252.235 32.6484 251.719 33.5391ZM265.5 32.9414L264.692 32.5547V33.1523L265.5 32.9414ZM266.274 31.043L265.887 30.832V30.2695L267.258 29.8828L267.469 30.4453L267.258 30.832L266.274 31.043ZM263.708 30.2695V29.8828H263.321V30.2695H263.708ZM251.122 29.8828L250.735 29.4961V29.8828H251.122ZM266.485 27.1758V26.2266H266.063L265.887 27L266.485 27.1758ZM273.34 26.6133L273.551 25.8398H272.954V26.6133H273.34ZM251.719 26.6133V26.0156H251.122V26.6133H251.719ZM274.922 25.8398L274.325 25.2422V26.0156L274.922 25.8398ZM267.469 25.4531V25.0664L266.872 24.8555V25.2422L267.469 25.4531ZM251.122 24.8555L251.333 24.1172H250.946L250.735 24.8555H251.122ZM251.508 21.0234V20.6367H251.122V21.0234H251.508ZM244.442 19.0898L243.844 18.9141V19.3008L244.442 19.0898ZM266.063 18.7031V18.1406H265.5V18.7031H266.063ZM271.196 18.5273V18.1406L270.598 17.9297V18.5273H271.196ZM250.348 18.1406L250.524 16.9805H249.961V18.1406H250.348ZM266.872 17.3672V16.5938H265.887V16.9805L266.872 17.3672ZM266.872 16.418V16.0312L267.469 15.8203V15.2578L266.661 14.8711C266.145 15.2461 265.946 15.7617 266.063 16.418H266.872ZM267.469 14.0977L267.047 13.7109L266.872 14.2734L267.469 14.0977ZM250.348 13.7109L249.961 13.3242V13.7109H250.348ZM267.469 13.1133L267.645 12.375H267.047V13.1133H267.469ZM268.454 12.7266L268.629 12.1641H268.032V12.7266H268.454ZM275.309 12.375V11.7773H274.747V12.375H275.309ZM271.583 12.1641V11.7773L270.985 11.6016V11.9883L271.583 12.1641ZM268.629 11.7773L268.84 11.2148L268.032 11.0039L267.856 11.6016L268.629 11.7773ZM274.149 11.9883V11.3906H273.34V11.9883H274.149ZM260.579 8.68359L260.754 7.73438L260.192 7.55859L259.981 8.68359H260.579ZM261.95 7.94531L261.739 7.34766H261.176V7.73438L261.739 8.33203L261.95 7.94531ZM259.77 7.73438V7.34766H259.383V7.73438H259.77Z" fill="#483D3F"/>
<path d="M235.522 36.8594L233.448 36.4727V35.6992H231.901L230.776 36.0859L228.878 35.1016L228.315 35.3125V35.6992L228.878 36.2617H228.139L227.542 35.3125H226.241L224.729 35.4883L223.956 35.1016C223.581 34.4688 222.889 34.2109 221.882 34.3281V33.9414H221.495V34.9258H220.721L219.983 34.3281H220.721V33.9414L219.21 33.3789V34.5391L218.647 33.7656C217.452 35 216.257 35 215.061 34.7656L215.448 34.5547V33.9922L209.702 34.6055V31.832H209.928L209.542 29.4961H209.928L210.139 28.7227H211.651L212.6 28.8984V29.2852L212.389 31.0586H212.776L213.339 29.1094L215.061 28.8984L216.01 29.4961L216.749 29.1094C218.155 29.2266 219.55 29.543 220.932 30.0586L221.495 29.8828L222.831 30.0586V29.4961H222.444V29.1094L222.831 28.1602H223.218V27.5625L222.831 26.2266H222.444L222.268 25.4531L222.444 24.8555C221.811 24.2227 221.624 23.332 221.882 22.1836H222.62V21.7969C222.245 20.7656 222.128 19.6055 222.268 18.3164L223.007 16.5938L222.831 15.8203C223.206 14.7891 223.452 13.7578 223.569 12.7266L223.007 12.375V11.9883C221.413 11.8711 219.831 11.7422 218.26 11.6016V11.2148L216.573 11.6016L216.01 11.3906L214.112 11.6016V12.375L214.499 13.1133H213.901L212.6 12.1641L211.827 9.66797L212.776 9.84375L213.339 9.28125L214.85 9.45703L215.061 8.68359H215.448L216.573 9.28125L218.471 9.07031L219.21 9.28125L221.108 8.68359L221.495 8.89453L221.108 9.84375L222.268 10.0547V9.45703L223.78 9.07031L223.569 9.45703H224.132C224.764 9.08203 225.526 8.95312 226.417 9.07031L226.628 9.45703C228.01 9.45703 229.335 9.71484 230.6 10.2305L230.952 10.0547L231.55 11.0039H232.112V10.6172H232.499L235.135 11.3906L235.311 12.9375H235.909L236.085 14.0977H234.749L234.573 15.6445H234.186V15.2578L232.675 14.4844L231.55 14.0977V14.4844H230.952L230.6 13.5H230.038L229.44 13.7109L229.089 13.5V12.9375H228.702L227.542 13.1133L227.366 12.5508H226.979L226.803 12.9375H226.417L226.241 12.375L225.678 12.1641L225.292 13.8867L226.241 14.6602C226.124 15.6211 225.936 16.582 225.678 17.543L225.081 17.7539L224.905 18.5273H225.678V20.0742H225.081V20.8125C225.479 21.5859 225.608 22.4297 225.468 23.3438H224.905V23.9062L225.854 24.1172L226.241 27L224.905 27.3867V27.9492H225.854V28.3359L224.343 28.8984L224.132 29.2852H223.218V30.2695H223.78L224.343 29.6719L225.081 30.4453C227.495 30.8438 229.768 31.2305 231.901 31.6055L233.061 31.4297L236.085 32.8164L236.858 31.6055L237.034 30.832H238.721L239.495 33.2031C238.862 33.3203 238.546 33.6953 238.546 34.3281H238.159L237.983 35.6992H237.21L236.471 35.3125L236.085 36.2617L235.909 35.875H235.311L234.749 36.0859V36.4727L235.522 36.8594ZM236.085 35.3125V34.9258H235.698V35.3125H236.085ZM222.444 33.9414V33.3789H221.882V33.9414H222.444ZM217.698 33.9922V32.4297H217.135V33.9922H217.698ZM225.854 26.0156L226.03 25.4531H225.468L224.905 25.6289V26.2266L225.854 26.0156ZM225.468 15.8203L224.905 15.6445V16.0312L225.468 15.8203ZM225.081 14.6602L225.292 14.0977L224.132 13.8867V14.4844L225.081 14.6602Z" fill="#483D3F"/>
<path d="M186.208 40.4648L185.469 39.1289L186.208 37.9688L187.192 37.582V37.1953L186.981 36.5977L187.755 36.0352V35.2617L187.368 34.4883L188.141 34.3125L188.317 32.5547H188.704L189.091 32.7656V32.3789L188.88 31.043L187.544 30.832L186.805 31.2188L185.259 30.832L185.083 31.4297L183.747 31.8164L181.637 30.832V31.2188L180.688 30.6562V31.2188L180.126 30.2695L181.637 29.8828L182.973 30.0586C184.262 29.8008 185.469 29.4141 186.594 28.8984L187.544 29.1094V29.4961H187.93L188.704 29.2852L189.266 30.2695L190.427 30.4453V29.6719L189.091 28.7227L188.88 28.1602H189.266L189.829 28.3359V27.9492C188.938 27.3164 188.563 26.4844 188.704 25.4531L187.755 22.957L187.192 22.7461C186.794 23.5195 186.594 24.293 186.594 25.0664H186.208L186.032 24.293H185.645C185.153 24.8086 184.52 25.0664 183.747 25.0664L183.571 25.8398H184.134L182.973 26.4023V27L182.622 26.7891L182.973 26.0156L182.622 25.2422H182.235L181.286 26.4023L180.688 26.6133L180.337 26.4023L178.79 26.6133L177.841 26.4023L178.403 25.8398L178.614 25.2422L179.95 24.8555L180.688 23.9062H182.024V23.1328L182.622 22.7461L182.798 22.1836H183.571L183.747 21.1992L184.696 21.0234V20.25H185.083V19.3008L184.52 18.5273H183.923L183.184 18.7031L180.337 18.1406L180.126 17.3672C182.165 16.4766 184.321 15.9023 186.594 15.6445L187.368 16.207L187.544 15.8203H188.317L188.704 16.5938H189.266L189.477 16.0312L190.813 15.8203C191.305 16.5938 191.997 16.9102 192.887 16.7695V17.1562L193.837 17.543L193.274 17.7539V18.7031L193.45 19.0898L192.887 18.5273L192.325 18.3164L191.938 19.3008L190.989 19.4766V20.0742L191.762 20.6367V22.1836C192.395 22.1836 192.899 22.3711 193.274 22.7461V23.1328L192.712 23.3438L192.114 23.1328V23.9062C192.887 23.6484 193.462 23.8359 193.837 24.4688L194.223 26.2266H195.173C197.071 25.0078 198.782 23.5312 200.305 21.7969L202.415 21.5859L202.977 22.7461L202.028 24.1172L201.255 23.9062V24.293L201.466 24.8555L200.305 25.0664L199.18 24.6797L198.794 25.6289L198.02 26.4023L198.794 26.6133H199.356V27.9492L199.18 28.5117L200.516 28.8984V29.2852H201.255L200.903 29.4961V30.0586L202.239 30.4453L203.188 30.2695L203.364 31.2188L205.262 31.6055L205.649 32.5547L204.876 33.3281H203.751L203.364 33.7148L203.188 32.9414L202.591 32.7656L202.028 34.1016L201.852 33.5391L200.692 33.1523L200.305 32.3789L199.743 32.2031C198.993 32.2031 198.548 32.4492 198.407 32.9414L198.618 33.5391H197.669V33.1523H198.231V32.7656L197.844 31.9922H197.282V32.5547H196.895L196.684 31.6055H196.122L195.735 32.2031L193.837 32.5547V32.9414H193.098V33.3281L193.837 35.0859H193.098L192.712 36.4219H192.325V37.1953L192.501 37.582H191.762V37.9688L192.114 38.3555L191.165 39.3047V40.2891L190.427 39.9023L190.216 40.4648H189.653V40.0781L188.317 39.6914V40.0781L187.544 40.2891L186.208 40.4648ZM190.989 38.918V38.3555H190.427V38.7422L190.989 38.918ZM182.024 36.5977C181.649 36.1055 181.087 35.918 180.337 36.0352V35.4727H179.739L179.177 35.2617V34.875C181.216 34.7578 183.184 34.4414 185.083 33.9258L186.032 34.1016L185.645 34.3125V34.875L186.208 35.4727L186.032 36.0352H185.083L185.259 35.4727L184.52 35.2617L184.309 35.6484H183.36V36.0352L182.411 36.5977H182.024ZM181.075 35.6484V35.0859H180.512V35.4727L181.075 35.6484ZM182.622 35.6484V35.2617H181.848V35.6484H182.622ZM193.098 34.4883V33.9258H192.501V34.4883H193.098ZM205.262 32.7656V31.9922H204.7L204.313 32.7656H205.262ZM195.384 31.9922L195.559 31.4297H195.173L194.997 31.9922H195.384ZM197.458 31.2188V30.832H197.071V31.2188H197.458ZM196.509 30.832L196.684 30.0586L196.122 29.8828V30.832H196.509ZM198.618 30.6562L198.231 30.2695L198.02 30.832L198.618 30.6562ZM194.997 30.4453V29.8828H194.399V30.4453H194.997ZM190.989 29.2852V28.8984L190.216 28.5117V29.2852H190.989ZM190.427 27.9492V26.7891L190.813 26.0156L190.04 25.8398L189.477 27.5625L190.427 27.9492ZM191.762 27L191.165 26.7891V27.1758L191.762 27ZM191.552 24.293L191.376 23.3438H190.989L190.813 23.9062L190.989 24.4688L191.552 24.293ZM186.208 23.7305L186.419 23.1328H186.032L185.856 23.7305H186.208ZM202.239 23.7305L202.415 21.9727H201.852L201.079 22.1836V23.1328H201.641L202.239 23.7305ZM176.505 22.5703L176.329 21.7969H175.731V22.1836L175.38 21.9727L175.731 21.5859L174.044 20.8125L173.657 20.25L173.833 19.8633L173.657 18.7031L174.219 18.5273V17.7539L174.044 16.7695H175.169V16.207L174.219 15.2578V14.8711L175.38 14.4844V13.8867L174.606 13.7109H175.169L175.555 12.375H175.169L174.993 12.7266H174.606V12.1641L175.38 11.6016L175.555 10.6172L174.782 10.2305L175.555 9.66797V7.34766L176.505 7.17188L178.227 8.89453C180.946 9.15234 183.677 9.02344 186.419 8.50781L186.981 9.28125H187.368L191.762 8.50781L192.114 8.68359V9.07031H192.501V8.68359H193.098L193.661 9.07031L197.844 8.12109V9.45703L197.458 10.6172L198.618 11.0039H199.18H198.794V11.7773H198.231V12.1641L198.794 12.5508V12.9375L199.18 13.3242V14.0977L199.567 14.6602L199.356 15.2578L198.794 15.4336L198.618 16.418L197.844 16.7695L197.071 16.5938L196.509 17.1562L195.946 16.418H195.384L194.786 16.5938L194.048 14.4844L194.223 13.5H194.786V12.9375L193.837 11.7773H193.45V11.0039L190.813 10.6172L190.427 11.6016L190.216 11.0039L189.653 10.6172L188.88 10.2305L188.704 11.2148L188.88 11.9883C188.13 11.332 187.309 11.0742 186.419 11.2148V11.9883H185.856L185.083 10.8281L185.469 10.4414L184.696 10.0547L184.134 11.2148L184.696 11.7773H184.309L183.571 10.6172H182.973V11.7773L182.622 11.3906C181.403 11.6016 180.196 11.6016 179.001 11.3906L178.614 12.375L178.79 12.9375L178.403 15.4336L178.614 16.5938L178.403 17.1562H178.016V17.7539L177.841 18.7031L178.403 18.9141V21.4102L178.227 22.1836L176.505 22.5703ZM177.067 21.9727L176.716 21.5859V21.9727H177.067ZM191.165 20.8125L191.376 20.25H190.813V20.8125H191.165ZM175.169 17.9297V17.3672H174.606V17.9297H175.169ZM198.794 15.2578L198.969 14.2734H198.231L198.02 14.8711L198.794 15.2578ZM197.458 12.5508V11.9883H196.895V12.5508H197.458ZM186.032 10.0547V9.45703H185.645L185.469 10.2305L186.032 10.0547ZM190.216 10.2305V9.66797H189.653V10.2305H190.216ZM186.208 9.28125L185.856 8.89453V9.28125H186.208ZM190.602 6.96094L188.704 5.80078L188.317 6.01172L188.141 5.02734L186.981 4.85156V4.28906H187.755V3.90234L187.544 3.12891L187.755 2.35547L187.192 1.96875L187.93 1.58203L188.493 1.75781L189.091 1.58203L189.477 2.35547L193.098 6.01172H191.165L190.602 6.96094Z" fill="#483D3F"/>
<path d="M150.827 36.9844V35.8242H149.843V36.3867H148.894L148.155 36.2109V36.5977H147.206V36L147.944 35.8242V35.4375L147.206 35.0508V34.2773L147.558 33.1172L147.382 32.1328L147.944 30.7969L148.542 30.0234L147.558 29.8125L148.718 29.6367V29.25L148.331 28.4766L147.769 28.2656L148.155 28.0898V27.7031L147.558 26.7188H147.944L148.155 25.7695L149.28 25.5586L149.491 25.1719H150.054L150.616 25.3828V24.9961L151.565 24.7852V25.9453L150.054 26.7188V27.3164H151.179L151.39 28.0898H151.776L152.128 27.4922L152.726 26.7188L152.128 24.3984H152.726V24.0117L152.515 23.2383H152.128V18.5977L152.339 18H152.901V17.2266L152.339 17.0508C151.823 16.3945 151.636 15.5508 151.776 14.5195L152.339 14.3438L152.901 15.6797L153.675 15.8906L153.112 16.0664V16.4531C154.237 16.7109 155.187 17.0977 155.96 17.6133L156.347 17.4375L156.522 18H156.909L158.034 17.8242C159.44 18.082 160.905 18.3398 162.429 18.5977L162.604 19.5469L163.378 19.7578L163.589 18.9844L164.714 18.3867L165.101 18.5977V19.3711L164.538 20.1445L164.151 19.9336L162.991 20.3203L160.53 20.1445L159.968 19.5469L159.194 19.9336V20.3203L158.632 20.5312L158.421 21.0938L157.296 20.3203L156.909 21.3047H156.522L156.347 22.6758H156.909L157.296 22.0781H157.683L158.034 22.8516L157.683 23.4492L157.085 23.625L156.909 24.6094H159.757L160.53 24.3984V25.1719C161.397 25.1953 162.218 25.0078 162.991 24.6094L163.765 24.7852L164.89 24.6094V24.9961L164.327 25.7695H165.276L165.663 25.5586V26.1562L165.276 26.9297L164.714 28.2656L164.89 28.8633L163.94 29.0391V30.0234H164.538L165.101 29.6367V31.7461L165.663 31.957V32.5195C165.288 32.7773 165.159 33.1641 165.276 33.6797L164.327 34.2773L163.589 34.6641L162.815 34.2773L162.042 34.6641V34.0664L160.917 33.8906L160.706 33.293L159.37 32.7305L159.194 33.293L160.144 33.5039V34.0664H159.581C158.808 33.4336 157.858 33.1758 156.733 33.293L156.522 34.2773L155.573 33.1172H155.011C154.261 34.4297 153.37 35.6484 152.339 36.7734L151.565 36.3867L150.827 36.9844ZM139.015 35.8242L138.065 35.4375L137.679 35.6133L138.065 34.2773L137.292 33.8906C137.409 34.5234 137.222 34.8398 136.729 34.8398V33.6797H137.854V33.1172H137.468L138.065 32.9062V32.5195L137.854 31.1836L138.417 29.6367L138.804 29.4258V29.0391L138.628 27.8789C139.261 27.3633 139.507 26.7188 139.366 25.9453H139.753L140.526 26.543V26.1562L140.14 24.9961L140.351 24.3984L140.913 24.2227C141.288 22.957 141.101 21.7852 140.351 20.707L140.913 20.1445L140.526 19.9336V19.5469H140.913L141.476 19.7578V18.9844L140.702 18.3867L141.3 17.4375L141.476 18.9844L142.249 19.1602L142.425 18.5977L142.249 17.2266H142.636V16.8398L142.038 16.4531H141.476L140.913 16.6641L140.702 16.0664L140.913 14.5195H140.14L139.753 14.7305L137.468 14.5195L136.905 13.3594C138.944 12.8438 141.042 12.3984 143.198 12.0234L143.761 12.1992L144.323 12.0234L145.659 12.1992L147.206 11.6367L148.331 12.1992V11.4258C149.104 11.8242 149.866 11.9531 150.616 11.8125C151.765 11.8125 152.843 11.625 153.851 11.25L154.413 11.4258L155.011 11.25L155.187 11.8125H155.749L155.96 11.25H156.522C157.671 11.5078 158.819 11.7656 159.968 12.0234L160.706 11.4258C162.112 12.082 163.577 12.4688 165.101 12.5859L165.276 13.1836H166.05L166.437 12.9727L166.05 14.3438L165.101 14.5195L163.589 14.3438V13.7461H163.202L162.991 14.3438H162.604L162.429 12.7969H162.042L161.093 13.3594V13.7461L159.968 13.957L158.421 13.3594L157.858 13.5703L157.085 12.9727L156.909 13.5703C157.026 14.7188 157.343 15.75 157.858 16.6641L157.085 16.8398L156.136 16.4531L155.96 16.8398H155.397L155.187 15.6797H156.347L157.296 15.8906V15.5039L156.347 15.1172L156.136 14.3438L156.347 13.5703H155.749L155.397 14.9062H154.413V14.5195L155.011 14.3438V13.957L153.851 13.5703L153.675 13.957L153.464 13.3594L151.952 13.5703L151.39 13.3594L151.179 13.957H150.616L150.054 13.1836H149.491L149.28 13.957L147.769 14.5195L145.659 13.957V14.5195H146.046L146.257 15.8906L145.87 16.8398C146.503 17.3555 146.69 18 146.433 18.7734H144.921V19.1602L146.046 19.5469L146.433 19.3711L145.87 20.3203H146.433L146.608 21.6914H146.046L145.659 22.8516L146.433 23.0625V23.4492H146.046L145.659 25.7695H145.272V26.543L144.71 26.7188L144.534 27.4922L144.71 28.0898L143.761 28.6523V29.25H144.71L144.534 30.0234L143.761 30.4102L142.812 33.6797H141.651V34.6641L141.3 35.2266H139.964L139.19 35.0508L139.015 35.8242ZM157.683 34.6641L157.296 34.4531V34.0664L158.245 34.2773L157.683 34.6641ZM153.288 34.4531L152.726 34.2773V34.6641L153.288 34.4531ZM164.151 34.0664L164.327 33.5039L163.765 33.293L163.589 33.8906L164.151 34.0664ZM151.565 33.8906V33.293H150.827V33.8906H151.565ZM142.249 32.5195L141.651 32.1328V32.7305L142.249 32.5195ZM148.894 32.1328V31.5703L148.331 32.1328H148.894ZM149.667 31.957L149.104 31.7461V32.1328L149.667 31.957ZM155.573 31.5703H158.034L161.304 30.5859L162.042 28.4766L161.866 27.3164L162.042 26.543L159.968 25.5586L159.581 26.332L159.37 25.9453H158.632L157.683 26.332L157.085 24.9961L156.522 24.7852V25.5586L155.011 25.3828L154.413 26.1562L153.675 25.9453L153.464 26.543L153.675 27.3164H153.288V26.9297H152.901L152.726 27.8789L153.112 29.25L153.675 29.8125L153.288 31.3594L154.062 31.7461L155.011 31.5703H155.573ZM139.753 31.1836L139.964 30.5859H139.577L139.19 29.6367H138.804L138.628 30.1992L139.015 30.5859L138.804 31.1836H139.753ZM141.3 30.7969V29.6367H140.913L140.526 30.7969H141.3ZM151.003 30.5859V29.25L151.39 28.6523L150.44 27.7031H149.843V28.0898L150.054 28.8633C149.538 29.3789 149.351 30.0234 149.491 30.7969L151.003 30.5859ZM152.726 30.0234L152.128 29.25L151.39 29.6367V30.4102H152.128L152.726 30.0234ZM140.526 29.4258L140.351 28.8633H139.964V29.6367L140.526 29.4258ZM142.425 28.4766V28.0898H142.038V28.4766H142.425ZM139.964 28.0898L139.366 27.7031V28.2656L139.964 28.0898ZM143.585 27.8789V27.3164H142.987V27.8789H143.585ZM149.28 26.9297V26.1562H148.718V26.9297H149.28ZM142.249 26.332L141.476 25.7695V26.1562L142.249 26.332ZM150.616 26.332L150.827 25.5586L150.229 25.3828L150.054 26.543L150.616 26.332ZM144.71 25.1719V24.7852L143.937 24.3984V24.7852L144.71 25.1719ZM154.237 24.9961L153.675 24.6094V24.9961H154.237ZM156.136 24.0117V23.625H155.397V24.0117H156.136ZM153.851 22.4648L154.062 21.4805L153.288 21.3047L153.112 22.4648H153.851ZM143.761 22.2539L143.937 21.4805H142.987V22.0781L143.761 22.2539ZM142.038 22.0781V21.3047H141.476V22.0781H142.038ZM156.347 21.3047L156.522 20.707L155.749 20.5312L155.573 21.4805L156.347 21.3047ZM155.187 20.918L155.397 20.3203H155.011L154.624 21.0938L155.187 20.918ZM142.987 20.707C142.87 20.0742 142.425 19.8164 141.651 19.9336L142.987 20.707ZM157.296 19.9336L156.733 19.1602V19.7578L157.296 19.9336ZM159.37 19.7578L158.034 18.7734V19.5469H158.632L159.37 20.1445V19.7578ZM144.147 19.5469L143.937 18.5977L143.198 19.3711L144.147 19.5469ZM146.257 18.3867V18L146.046 17.2266L144.71 17.0508V17.4375L146.257 18.3867ZM154.624 18.2109L154.237 17.2266H153.288V17.6133L154.624 18.2109ZM142.636 15.6797L143.198 15.293V14.9062H142.812L142.038 15.1172V15.8906L142.636 15.6797ZM145.483 15.5039L144.71 15.1172V15.6797L145.483 15.5039ZM139.964 14.3438L139.366 14.1328V14.5195L139.964 14.3438ZM148.542 14.1328V13.7461L147.769 13.5703L147.558 14.3438H147.944L148.542 14.1328ZM155.749 13.5703L155.96 12.9727H155.187V13.3594L155.749 13.5703ZM154.062 9.87891L152.515 9.10547L152.128 8.33203C150.862 8.07422 149.726 7.55859 148.718 6.78516L146.046 4.46484C145.53 4.06641 144.897 3.86719 144.147 3.86719L143.761 2.91797L145.483 3.09375L146.433 2.91797L148.155 3.86719L148.331 4.46484L149.28 4.67578V5.0625H149.667V5.44922L150.827 5.625L153.464 6.99609L154.062 7.76953L154.413 7.55859L155.397 8.15625V9.31641L154.062 9.87891Z" fill="#483D3F"/>
<path d="M98.7432 40.3203C96.6807 40.3203 94.7471 39.875 92.9424 38.9844L92.7666 38.2109C92.1104 38.3281 91.7822 38.0703 91.7822 37.4375L91.2197 37.0508V35.6797L91.9932 35.5039V36.0664H92.3799V35.6797H92.9424L92.7666 36.4531H93.1533L94.1025 36.2773L95.0869 36.6641L95.6494 36.4531C96.165 37.2266 96.9385 37.4844 97.9697 37.2266L98.3564 34.9062L99.3057 34.3438V33.5703H98.9189L98.1455 34.3438L98.5322 32.0234H99.3057V31.6367L98.7432 30.2656L98.3564 30.0898V29.7031L99.3057 28.1562L100.079 27.9453V27.3828H99.1299L98.7432 26.2227L98.9189 25.625H98.3564C97.3252 26.5391 96.165 27.0547 94.876 27.1719L94.1025 26.9961L93.1533 27.1719L91.3955 26.7852V26.0117L91.7822 25.0625L93.7158 24.4648L93.9268 23.8672L94.7002 23.4805L94.876 23.0938C96.0244 22.0625 97.3721 21.5469 98.9189 21.5469L99.4814 19.0508L99.1299 18.0664L98.7432 16.3438L97.9697 15.5703H97.583C96.6689 15.6875 95.8369 16.0742 95.0869 16.7305V16.1328H94.7002V15.3594C93.9033 15.1484 93.2588 14.7031 92.7666 14.0234V13.6367L96.5986 12.2656L97.1963 12.4766L99.3057 11.7031L99.4814 11.1055H98.7432L99.1299 10.9297V10.543L98.5322 9.17188L99.1299 8.78516V8.39844L98.9189 5.86719L99.4814 5.09375L102.188 4.70703L102.786 6.07812H102.013V6.67578H102.399L102.575 8.60938L102.962 8.78516V9.38281L102.786 10.543L103.524 11.4922H104.685L105.458 11.3164L106.442 11.4922L107.216 13.4258L106.829 14.0234L107.005 14.5859L106.618 15.1836H106.056V14.7969H106.442V14.0234H105.669L104.896 14.4102V14.7969H104.509V14.4102H103.911V14.7969H103.173V17.1172C103.923 17.6328 104.813 17.9492 105.845 18.0664L107.005 17.5039L107.216 17.8906L106.829 18.0664L106.442 20L105.071 20.2109C105.212 20.8438 104.954 21.3594 104.298 21.7578L102.962 22.5312V22.918L103.524 23.3047L102.962 23.6914V24.2539L104.896 24.8516L105.282 23.8672H105.669L106.442 24.0781V23.4805H106.829V23.0938L106.442 21.9336L107.778 21.1602L107.954 20.5977L107.567 19.8242L108.165 19.6133V18.8398H108.728L109.114 19.0508L109.888 17.6797L109.712 17.1172L109.888 16.7305L110.661 16.5195L110.872 16.1328C111.247 15.7578 111.364 15.2422 111.224 14.5859H111.821V14.1992L112.981 13.8125L113.157 13.0391H112.595V12.4766L112.771 12.0898H113.157L113.755 12.2656V11.8789C113.239 11.3633 113.04 10.6602 113.157 9.76953L113.368 9.38281L114.142 8.78516L113.368 7.625L111.997 7.0625L111.224 4.53125C113.169 4.39062 115.032 4.00391 116.813 3.37109V4.14453L118.36 4.32031L118.747 2.98438H119.31L119.521 3.75781L120.083 3.93359L120.47 2.59766H121.243L122.017 2.98438V2.38672H121.63V1.82422H122.017L122.614 2.21094V2.77344L122.403 3.54688H123.563L124.126 2.77344L125.673 2L125.884 2.77344L127.044 2.98438L127.606 6.07812C126.716 7.50781 126.071 8.99609 125.673 10.543L124.724 11.3164L125.286 11.7031V12.0898L125.11 13.0391L125.286 13.8125L124.899 14.7969L123.177 15.3594L121.067 15.1836L117.411 15.5703L116.813 15.3594L114.528 16.7305L114.317 18.4531L113.755 18.6641V19.0508L112.771 19.2266V20L112.595 20.9844L112.981 22.3203L112.595 24.0781L114.704 24.2539L115.267 24.0781L116.04 24.2539L116.251 23.8672H117.587L117.974 19.6133H118.958L120.47 20.7734V22.1445L121.454 22.3203L122.017 22.1445L121.841 22.918H122.403L122.79 21.9336L123.563 21.7578L123.739 21.3711H124.337V20.5977H123.95V18.8398L124.513 17.1172L125.884 16.7305V17.6797L125.673 18.2773L126.271 19.0508H126.657L126.833 21.5469L126.657 24.0781H127.22C127.103 23.4219 127.29 23.0352 127.782 22.918V23.8672L127.044 24.8516H126.271V25.4492L125.497 25.2383L124.724 26.0117H123.563L123.177 25.8359V25.2383H122.614L122.017 25.4492V26.2227H122.614L121.63 26.6094L121.067 26.3984L119.907 26.9961L119.31 28.332L119.696 29.1055L119.31 34.5195L120.47 35.5039L123.001 35.293L124.126 35.8906L125.286 35.1172V34.7305C124.911 34.2148 124.782 33.6289 124.899 32.9727L125.286 31.25H124.724L124.513 30.6523C125.028 30.2773 125.228 29.7617 125.11 29.1055L124.899 28.543C125.813 28.543 126.587 28.3438 127.22 27.9453L127.993 28.332V28.7188H127.044L126.446 28.543L126.06 29.3164L127.782 29.4922L127.993 30.0898L128.556 30.2656L128.767 32.0234L128.169 32.7969L128.767 34.1328L127.782 34.7305L127.606 35.293L128.169 35.5039L128.767 35.293V36.0664L129.329 36.4531V37.0508L128.169 36.6641V37.2266L128.767 38L128.38 39.1602L127.044 39.3711L126.833 38.7734C125.544 38.7734 124.325 38.5859 123.177 38.2109L121.067 38.3867L120.681 37.4375H119.907L119.696 38.2109L118.36 38.3867L117.974 37.2266H117.411L117.024 38L116.04 38.2109L114.915 37.8242C112.712 38.8555 110.392 39.5586 107.954 39.9336L107.567 39.7578V39.3711L107.954 38.7734L107.567 38.5977V38.2109C108.341 36.7812 108.985 35.2344 109.501 33.5703L110.099 33.3594V32.9727L109.888 32.4102L110.872 31.4258L112.981 30.8633L113.931 31.4258L114.142 32.7969L113.544 32.9727V34.9062C114.458 35.4219 115.489 35.75 116.638 35.8906L116.813 35.293L116.251 34.1328C116.626 32.0703 116.942 29.9492 117.2 27.7695C116.169 27.5117 115.149 27.1836 114.142 26.7852L113.755 27.7695C112.841 27.7695 111.997 27.957 111.224 28.332L110.661 28.1562L109.888 28.332V25.625L110.099 25.0625L109.114 24.2539L108.341 25.625H107.778L107.005 25.4492V26.0117H107.567V26.3984L105.669 26.7852L105.071 27.7695L104.122 27.9453L103.911 28.332L103.735 27.1719L102.575 26.7852V27.1719L102.962 29.1055L102.013 28.9297V29.3164L102.399 30.0898L102.962 30.2656C102.845 31.2969 103.032 32.1406 103.524 32.7969L102.013 33.1836L101.802 33.957H102.188L102.962 33.3594V35.293L102.786 35.8906L102.962 36.2773L102.399 38.7734H102.013L101.626 39.1602L100.642 38.7734L100.255 40.3203H99.3057H98.7432ZM128.169 38.7734L127.782 38.3867L127.606 38.9844L128.169 38.7734ZM122.017 38.2109V37.6133H121.63L121.454 38.2109H122.017ZM99.1299 36.6641V36.0664H98.3564V36.6641H99.1299ZM119.907 36.2773V35.8906H119.521V36.2773H119.907ZM101.239 35.1172L100.642 34.5195V35.1172H101.239ZM100.255 33.7461L99.8682 33.3594V33.7461H100.255ZM101.802 32.4102V32.0234L101.239 31.8125V32.1992L101.802 32.4102ZM100.642 32.1992V31.6367H99.8682L99.6924 32.1992H100.642ZM128.556 31.4258V30.6523H127.993V31.4258H128.556ZM99.4814 29.8789L98.7432 29.4922V30.0898L99.4814 29.8789ZM116.813 27.1719L116.251 26.7852V27.3828L116.813 27.1719ZM105.458 26.6094V26.2227H105.071V26.6094H105.458ZM115.653 26.6094L115.091 26.3984V26.7852L115.653 26.6094ZM114.704 26.6094V26.0117H114.142V26.6094H114.704ZM104.122 25.8359L103.735 24.8516L103.173 24.6758V25.0625L103.349 26.0117L104.122 25.8359ZM106.829 25.8359V24.8516H106.442L106.056 25.625L106.829 25.8359ZM108.165 24.0781L107.778 23.6914V24.0781H108.165ZM110.661 21.3711L110.485 19.6133H109.888L108.728 20.5977H110.099V21.5469L110.661 21.3711ZM126.657 20.7734V20H126.06V20.7734H126.657ZM111.821 20.3867V19.8242H111.224V20.3867H111.821ZM112.384 20V19.2266H111.821V20H112.384ZM111.048 19.4375V18.8398H110.661V19.4375H111.048ZM111.048 18.4531V17.8906H110.485V18.2773L111.048 18.4531ZM119.696 13.0391L120.681 12.8633V12.2656H121.243V11.7031L120.681 11.4922V10.9297L121.243 9.94531L121.454 8.39844H122.017V7.83594L118.958 7.23828L117.024 7.625L116.813 8.60938L117.024 9.38281L116.427 10.9297L116.638 11.7031L115.653 12.2656V13.25L117.587 13.6367L119.696 13.0391ZM115.267 10.543V10.1562L113.931 9.94531L113.544 10.1562V10.543H115.267ZM123.177 9.38281V8.60938H122.614V9.38281H123.177ZM123.353 4.53125V3.75781H122.79V4.53125H123.353Z" fill="#483D3F"/>
<path d="M56.7294 39.3049L56.7624 38.686L56.9441 38.3318L56.8949 37.6948L57.237 37.005L57.056 36.965L56.739 37.1501L56.7927 36.9069L57.0853 36.8323L57.3193 37.0231C57.9124 36.0563 57.6191 34.2245 58.1463 33.2432C58.0977 32.6295 59.9111 32.8486 59.9884 32.1854L59.6673 31.9985L59.0991 32.3833L59.1528 32.1401L59.3589 31.6754L58.758 31.4268L58.6799 31.7806L58.7085 32.042L58.3221 32.0727L58.1324 32.541L57.9514 32.5011L57.4872 31.6333L57.4042 32.0092L57.3547 32.6245L57.1538 31.8148L56.6359 31.1903L56.4214 30.911L56.2652 31.6187C56.6983 31.637 56.9039 31.8524 56.8818 32.265L56.7008 32.225L56.7789 31.8712L56.3182 31.7695L56.2401 32.1233L56.2558 32.5211L55.7871 32.5336L54.9602 31.98L53.9935 32.1377L54.0021 31.6294L53.6401 31.5495L53.3968 32.2611L53.2158 32.2211L53.3476 31.624L53.1665 31.5841L52.2821 31.7599L52.3895 31.2734L52.6693 31.3352L52.7474 30.9813L52.5664 30.9414L51.8179 30.8921L51.843 30.3874L52.0034 30.0518L51.8468 29.9012L51.9005 29.658L52.0815 29.6979L52.1352 29.4547L52.1603 28.95L52.7943 28.5797L52.0842 27.9823L52.0636 27.6067L52.2446 27.6466L52.4012 27.7972L52.9236 27.5414L53.1004 27.2094L53.0846 26.8116L52.8751 26.5102L53.0561 26.5502L53.0024 26.7935L53.2657 26.8516L53.3438 26.4977L53.6772 26.3162L53.5792 25.9003L54.0028 25.6228L53.6366 25.1709L54.0279 25.1181L54.1353 24.6316L53.9543 24.5916L54.008 24.3484L54.1849 24.0163L54.1405 23.3572L54.4533 22.8L56.0485 22.8275L56.1852 22.2083L56.5472 22.2882L56.497 23.2975L56.678 23.3375L56.9908 22.7804L57.1718 22.8203L57.1181 23.0636L56.9822 23.2887L56.9863 23.6607L57.3484 23.7406L57.538 23.2722L57.719 23.3122L57.9778 24.2506C58.4114 24.0062 58.8255 23.8502 59.2201 23.7827L59.3561 23.5576L59.3523 24.0438L59.5619 24.3451L59.7429 24.3851L60.0106 23.5629L60.3148 23.5141L60.6231 23.8372L59.5082 24.5884L59.1818 25.6759L59.7872 25.0442L60.1785 24.9915L60.2071 25.2529L60.3881 25.2928L60.4662 24.939L60.4669 24.5449L60.9356 24.5324L60.8819 24.7757L60.3829 26.5672L60.0138 27.3694L59.6953 27.1808L59.2345 27.0791L59.103 27.3694L58.922 27.3294L58.6298 27.3167L58.0868 27.1968L57.9309 26.6522L57.6512 26.5904L57.5975 26.8337L57.2226 26.8901L56.8693 26.3019L56.7333 26.527L56.5523 26.487L56.5031 26.7955L56.2398 26.7374C55.9597 27.4332 55.6097 27.083 55.1898 27.5778L55.1891 27.9719L54.9014 28.0244L55.7688 28.3782L55.1853 28.4581L55.1309 29.0955L55.3942 29.1536L55.4479 28.9103L55.7855 29.1008L56.6992 28.7923L56.6455 29.0355L57.0075 29.1155L57.7395 29.1611L57.9457 28.6963L58.1267 28.7363L58.0193 29.2228L58.3032 29.6566L58.2495 29.8998L58.5128 29.9579L58.6202 29.4714L58.4392 29.4315L58.5173 29.0776L58.7805 29.1357L59.4802 29.4061L60.208 29.0797L60.8539 29.5934L61.3606 28.9399L61.1664 30.2886L61.376 30.5899L61.5518 31.9043L61.2885 31.8462L61.2348 32.0894C61.1217 32.9148 61.2117 33.6537 61.5049 34.3059L61.2165 34.7525L61.1377 35.5004L60.6439 36.0176L60.8118 37.4462L60.4941 38.0254C60.6338 38.2263 60.6404 38.4829 60.514 38.7951L60.0533 38.6934L59.7318 39.7589L56.9927 39.363L56.7294 39.3049ZM57.6431 38.9963L57.8034 38.6606L57.2769 38.5444L57.1 38.8765L57.6431 38.9963ZM59.5553 38.8386L59.6382 38.4627L59.375 38.4046L59.292 38.7805L59.5553 38.8386ZM54.9158 31.3208L54.7885 31.0376L54.6233 31.3954L54.9158 31.3208ZM54.76 30.7762L54.9447 30.3299L54.5789 30.7362L54.76 30.7762ZM57.1789 31.3101L57.438 30.9962L57.574 30.7711L57.3351 30.6025L56.9979 31.2702L57.1789 31.3101ZM60.2475 31.8715L60.4781 31.2962L59.9064 30.9149L60.0138 30.4284L59.7341 30.3667L59.656 30.7205L59.7454 31.6447L60.2475 31.8715ZM59.4949 31.4503L59.573 31.0964L59.3097 31.0383L59.2316 31.3922L59.4949 31.4503ZM56.2411 30.4769L56.6369 29.5439L56.1761 29.4422L56.015 30.1719L56.0308 30.5697L56.2411 30.4769ZM59.0464 30.9802L59.2117 30.6224L58.9728 30.4537L58.841 31.0508L59.0464 30.9802ZM55.2782 30.1484L55.3612 29.7725L55.0814 29.7107L54.9984 30.0867L55.2782 30.1484ZM57.3888 30.3592L57.554 30.0014L57.2085 29.9251L57.1548 30.1684L57.3888 30.3592ZM57.7595 29.9308L57.8668 29.4443L57.6036 29.3862L57.4962 29.8727L57.7595 29.9308ZM53.4733 28.4745L52.5815 28.2312L53.3087 28.4382L53.4733 28.4745ZM60.2035 29.96L60.3109 29.4735L59.8666 29.3755L59.7885 29.7293L60.2035 29.96ZM54.8808 27.6488L54.9638 27.2728L54.7005 27.2147L54.6175 27.5906L54.8808 27.6488ZM61.3503 26.0154L61.2188 25.3602L61.5114 25.2857L61.6432 24.6886L61.2484 23.9753L61.0761 23.427L60.8951 23.387L60.978 23.0111L61.3645 22.9804L61.5011 22.3612L61.4726 22.0998L61.1928 22.0381L61.4234 21.4628L61.3741 20.8257L61.5394 20.4679L61.0128 20.3517L60.7135 20.4679L60.2846 20.7654L59.9519 20.5528L59.9605 20.0445L59.5699 19.7032L59.1542 19.8665L58.9691 19.4546L58.7058 19.3964L58.2078 19.5416L58.2615 19.2984L57.7429 19.0679L57.566 19.4C57.58 18.8155 57.5901 17.277 57.5963 16.6754L57.8554 16.3615L58.2216 16.8134L58.382 16.4777L59.785 16.5323L60.1226 16.7228L60.1133 17.6252L60.3766 17.6833L60.665 17.2368L61.2903 17.3748L61.2652 17.8795L61.4462 17.9194L61.7552 17.8485L61.6722 18.2244L61.8532 18.2644L62.3805 17.9865L63.1331 18.4077L63.0794 18.651L63.2604 18.691L63.3048 19.3501L63.5436 19.5188L63.3289 20.4918L63.0446 21.3104L63.1964 21.483L63.0646 22.0801L62.8835 22.0402L62.8054 22.394L62.8791 22.9205L62.3968 23.4634L62.8167 23.6721L62.7086 24.5527L62.3714 25.2204L62.1904 25.1804L62.1367 25.4237L62.2884 25.5963L62.2347 25.8396L61.8355 26.0066L61.9185 25.6306L61.4291 25.2675L61.3461 25.6435L61.3503 26.0154ZM62.3672 24.8484L62.4453 24.4946L62.182 24.4364L62.1039 24.7903L62.3672 24.8484ZM62.0885 23.1402L61.8339 22.5738L61.5455 23.0204L62.0885 23.1402ZM63.0949 20.301L62.9675 20.0178L62.9138 20.2611L63.0949 20.301ZM60.9768 18.326L61.0841 17.8395L60.8501 17.6487L60.7135 18.2679L60.9768 18.326ZM59.5252 17.2403L59.6326 16.7538L59.2619 17.1822L59.5252 17.2403ZM60.4389 16.9318L60.6736 16.7285L60.6199 16.9717L60.4389 16.9318Z" fill="#483D3F"/>
<path d="M75.1461 21.6453V21.346L75.018 20.9107H74.7363V21.6453H75.1461ZM72.5083 17.9177L72.0729 17.6184V18.081L72.5083 17.9177Z" fill="#483D3F"/>
<path fill-rule="evenodd" clip-rule="evenodd" d="M66.234 24.9376V24.6383L65.7986 23.7404C65.4401 23.6316 65.3035 23.3323 65.3889 22.8425L65.7986 20.9107H66.6437V20.3121L66.362 19.5775H66.0803V19.1149C66.4559 19.0242 66.6011 18.7249 66.5157 18.217H66.9254C67.0108 16.9292 67.2925 15.741 67.7706 14.6527C68.8803 14.0541 70.0839 13.7004 71.3815 13.5916L71.5351 14.0541L72.2266 14.1901V13.7548H72.79L73.6095 14.1901L74.5827 13.8908L75.2997 15.2513L75.5814 15.5506L75.8375 15.3873L75.9912 15.6866L75.4278 15.9859L75.2997 16.4485L75.4278 16.7206C75.1546 17.5187 74.7875 18.2715 74.3266 18.9789L73.6095 19.2782V20.0128L74.1729 20.3121L76.6826 19.8496L77.6558 20.7475V21.5093L76.5546 21.8086L76.4009 22.4072L75.7095 22.5432L75.4278 22.4072V22.7065H74.5827L73.8912 22.1079V22.4072L74.1729 22.9786L72.9181 23.2779L72.0729 22.9786L71.5351 23.1418L71.3815 22.4072H71.0998L70.8181 21.5093L70.5364 20.0128L70.69 19.7135L71.2534 19.4142L71.6632 17.7817L72.2266 17.3191L72.3547 16.8838L72.79 16.7206V15.8499L70.8181 15.5506L69.7169 15.9859C69.4266 17.4733 69.461 19.4052 69.0001 20.7475C68.5391 22.0897 68.6754 23.0421 68.5901 24.6383L66.234 24.9376ZM75.1461 21.346V21.6453H74.7363V20.9107H75.018L75.1461 21.346ZM72.0729 17.6184L72.5083 17.9177L72.0729 18.081V17.6184Z" fill="#483D3F"/>
<path d="M79.6088 16.55L79.2432 15.6192H78.8775L78.7113 15.9849L77.98 14.7217L77.4149 14.5223V14.8879L76.7169 13.9904L75.2543 13.8242V13.4586L75.4205 12.8935L74.8887 12.7273L74.523 13.093L73.9912 12.8935V13.2592L73.6255 11.996H73.2599L72.3624 12.3617L72.163 11.7966L71.2655 11.6304L70.5342 10.8991V10.5335L69.271 10.6997L68.7392 10.3672L68.0079 8.90467H67.6423L67.1104 9.07087L66.2129 8.53903L65.6478 7.4421L65.116 6.71081L65.6478 5.24823H66.0135L67.1104 5.81332L67.2766 6.34516C68.3625 6.83269 69.5702 7.19833 70.8998 7.4421L71.0993 6.71081L72.728 6.54461L73.2599 5.24823L74.8887 5.08203V5.44768L74.3568 6.17896L75.2543 6.34516V6.87701L74.523 7.07645L73.4593 6.54461L73.2599 7.6083H73.9912L72.728 8.17338V8.90467L74.7225 9.80216L74.8887 10.1678L76.3512 10.6997L77.98 9.63596L80.1406 7.07645H80.5063L81.6032 7.6083V7.97394H80.3401L79.6088 7.80774V8.17338L80.3401 10.5335H79.9744V11.0653L79.775 10.6997H79.4094L79.0437 11.7966L79.2432 12.5279L80.6725 12.8935L80.8719 13.4586L82.5007 13.6248L82.6669 14.8879L81.9689 15.0874L81.2376 14.8879L80.8719 15.9849L80.5063 15.453L79.9744 15.2536L79.4094 16.3505H79.775L79.6088 16.55ZM75.9856 12.8935L75.62 12.5279V12.8935H75.9856ZM77.2487 11.7966V11.2647H76.7169V11.7966H77.2487ZM76.7169 11.0653L76.1518 10.8991V11.2647L76.7169 11.0653ZM79.775 10.1678L79.4094 9.80216V10.1678H79.775ZM80.6725 9.63596V9.07087L80.5063 8.70523L80.6725 9.63596ZM68.7392 8.70523V8.33959C68.0079 7.4975 67.0993 7.19833 66.0135 7.4421V7.80774L67.1104 8.17338V8.90467H67.6423L68.7392 8.70523Z" fill="#483D3F"/>
<path d="M57.3378 15.0874L51.3545 20.3726V20.9044C50.1578 21.7465 48.8947 22.2895 47.5651 22.5332L47 20.9044L48.4626 20.1732L49.7257 18.7106H50.0914V18.3449C51.6204 17.104 53.1273 15.8297 54.612 14.5223V13.9904L53.8808 13.6248C54.0137 14.2231 53.8364 14.5223 53.3489 14.5223C52.6176 14.0569 51.8974 13.7024 51.1883 13.4586L50.457 13.6248L49.1939 11.996L48.4626 11.6304V11.0653C48.5734 10.5999 48.939 10.4226 49.5595 10.5335L51.5539 11.0653V11.4309H52.0858L52.8171 11.2647L55.8752 12.3617L56.6065 12.7273L59.864 8.90467L56.9721 8.33959C55.155 8.71631 53.3489 9.02655 51.5539 9.27032L51.3545 9.63596H50.8226L50.6232 8.70523C52.7949 7.86314 55.0331 7.32022 57.3378 7.07645L57.8696 7.24265L59.864 6.87701L60.5953 7.07645C61.3266 6.72189 62.1133 6.60001 62.9554 6.71081L63.8529 7.07645V7.6083C62.9 8.60551 61.936 9.58056 60.961 10.5335C59.7421 11.996 58.5344 13.514 57.3378 15.0874Z" fill="#483D3F"/>
<path d="M69.228 30.2731L66.578 28.5163L65.8909 30.631L69.3752 33.6566V34.2097H68.9826L68.8354 35.0881L68.1729 34.7302C67.993 35.4459 67.5922 35.6845 66.9706 35.4459L66.8234 35.8038L65.8909 36.3243L66.0382 36.8774V37.5931H65.621V37.2353C65.1794 37.3437 64.9176 37.1594 64.8358 36.6822L64.4187 36.8774V37.3979H64.8358V38.3089L65.1057 38.4715L65.2284 39.1873H66.3081L66.4308 39.903L68.0257 39.5451L68.1729 39.0246H69.1053V38.6667L68.8354 38.4715V38.1137L69.228 38.3089H69.4979V37.3979H70.0377V38.1137H70.4303L70.3077 37.3979V37.0401H71.6327L71.7799 37.5931L72.7123 37.951H72.9822V37.5931L74.5771 38.1137L74.847 38.8294L75.7795 39.0246L75.9267 39.7403L76.1966 39.903L77.3989 39.7403L77.6688 40.0657L78.0614 39.7403L78.6013 39.903V39.3825L78.3313 39.1873V38.3089L78.6013 38.1137L77.7915 37.7558L77.3989 36.8774L76.3193 36.6822L76.1966 36.1617L74.3072 35.6411L73.2521 34.0145L72.4424 33.8518L72.5896 33.1361L73.1049 32.7782H73.3748V33.2987L74.0619 32.9409L74.1845 31.3467L75.2642 31.184L75.5096 30.1104L76.0494 29.7526L76.5892 28.5163V27.9632H76.0494L76.1966 26.8896L76.7119 27.0848L76.5892 25.816L75.3869 25.6534V25.1328L74.847 25.2955L74.4545 25.1328C72.8841 25.3714 71.3219 25.3063 69.7678 24.9376L69.3752 26.0112V26.727L70.3077 27.8006H70.9702V27.4427H71.9026L72.1725 28.679L72.7123 28.5163H72.9822L72.8595 30.1104L72.4424 30.2731V30.631L71.9026 30.8262V31.5419H71.1174L70.8475 32.0624H70.3077V31.7046L69.4979 30.9888L69.228 30.2731Z" fill="#483D3F"/>
<path d="M4.18359 30.6562V30.2695L4.74609 27.1758L4.35938 26.2266L2.10938 25.0664L1.89844 24.4688L4.74609 22.957L5.51953 23.3438L6.08203 21.4102H5.13281V20.25L5.51953 19.4766C5.63672 18.0703 5.32031 16.8516 4.57031 15.8203C2.92969 15.9609 1.47656 15.6445 0.210938 14.8711L0 14.0977L0.5625 12.7266H3.97266L4.74609 12.9375L5.30859 11.3906L4.92188 8.50781L6.43359 7.34766C7.32422 9.15234 7.76953 11.1445 7.76953 13.3242L8.33203 13.5L9.66797 12.9375L9.84375 13.7109H10.2305L10.6172 12.9375L11.3906 12.7266L11.0039 11.6016L11.1797 11.0039H10.0547C10.5 9.36328 10.6875 7.69922 10.6172 6.01172H11.5664L11.9531 4.85156L12.6914 6.39844H12.1289V6.96094L13.2539 7.17188V7.94531L13.8516 8.12109V8.68359L13.2539 9.07031V9.66797L14.0273 14.0977H14.4141L15.1523 13.7109L15.5391 14.4844L15.3633 15.4336L15.9258 16.7695L15.75 17.1562H15.3633L14.8008 16.9805C13.6523 17.6133 13.207 18.5742 13.4648 19.8633L13.6406 21.7969H15.75V22.5703L14.4141 22.957L14.0273 24.6797L14.2031 25.6289L13.8516 26.6133L14.0273 27.3867L13.8516 28.1602L14.0273 28.7227L13.6406 28.8984V29.4961L14.0273 30.2695L13.0781 30.6562L11.3906 30.2695L10.4414 30.4453L10.0547 30.2695V29.6719C10.5469 28.7812 10.7344 27.8203 10.6172 26.7891L10.2305 26.0156H7.76953C7.39453 27.4453 6.94922 28.8633 6.43359 30.2695L5.30859 30.4453L4.74609 30.2695L4.18359 30.6562ZM9.49219 22.957C10.125 22.6992 10.7578 22.4414 11.3906 22.1836L11.5664 21.4102L11.0039 20.25L10.4414 19.3008L10.6172 17.1562H8.33203C8.16797 18.8438 7.98047 20.5195 7.76953 22.1836L9.49219 22.957ZM15.1523 16.418V16.0312L14.8008 16.418H15.1523ZM10.0547 15.2578V14.6602H9.49219V15.2578H10.0547ZM5.13281 13.5L4.74609 13.1133L4.57031 13.7109L5.13281 13.5ZM12.3398 11.0039L11.7422 10.8281V11.2148L12.3398 11.0039ZM13.8516 6.01172L13.6406 5.23828L14.5898 5.02734V6.01172H13.8516Z" fill="#483D3F"/>
</svg>
