<svg width="280" height="42" viewBox="0 0 280 42" fill="none" xmlns="http://www.w3.org/2000/svg">
<path d="M249.613 39.2633L249.439 38.1146L249.613 36.5831H249.056V35.0515L249.822 33.52L248.882 33.1371V32.3713L249.265 30.6657L249.822 29.9L249.265 29.6911L249.056 27.9855L249.265 27.2198L248.116 26.628C247.629 27.2778 247.002 27.475 246.237 27.2198V27.9855L245.297 28.1596L245.123 28.9253L244.009 29.1342L243.417 28.9253C243.672 29.8304 243.429 30.4105 242.686 30.6657L242.303 29.9L241.92 29.1342L243.243 27.7767V27.2198L244.357 27.0109L244.566 26.2451L246.237 25.3053C246.863 24.2843 247.675 23.4489 248.673 22.7992L249.613 22.4163L249.822 21.2676L250.17 20.8847L249.996 19.3532L250.17 17.6128L249.439 17.2299L249.265 17.8216H248.325L247.176 17.6128C247.176 18.2625 246.863 18.5874 246.237 18.5874C245.239 17.9377 244.183 17.5548 243.069 17.4387L242.512 15.9072C244.624 15.0022 246.805 14.1668 249.056 13.401L249.613 13.6099V13.0181L250.553 12.4612L250.762 9.95505L250.553 9.18928L251.319 8.80639L251.493 7.48369L250.936 7.27485L250.762 8.04062H249.822L249.056 7.65773L248.499 7.86658V8.63235L247.559 9.01524L247.176 9.78101H246.619L246.063 9.57217V9.95505L246.237 10.3379L244.183 9.95505L244.009 8.80639L244.566 8.04062L245.68 7.65773L245.889 6.71792L247.733 5.95215V5.56926H248.882V5.18637C249.88 4.53663 251.005 4.21175 252.258 4.21175V3.62002H251.701C252.815 3.50399 253.941 3.31835 255.078 3.06309L257.514 5.36041C256.517 5.36041 255.507 5.55766 254.486 5.95215V6.33503L252.815 6.89196L252.641 8.42351H252.258V9.18928H252.989L253.198 10.9297L252.989 11.6954H253.546C254.057 11.301 254.625 11.1733 255.252 11.3126V10.9297H255.809L255.078 11.1037V11.4866L256.749 12.0783L256.923 14.1668H257.305V14.5497L256.018 15.5243L255.252 15.1414L255.078 15.9072H254.312L253.755 17.9957C254.382 18.7614 255.194 19.0863 256.192 18.9703L256.749 19.7361C258.257 20.7571 259.823 21.5809 261.448 22.2074L261.831 23.5649C260.949 23.9594 260.009 24.2147 259.011 24.3307V24.7136C257.015 24.6672 255.321 23.971 253.929 22.6251V22.0334H253.546L253.372 25.8623L253.546 26.454H252.989V27.0109L253.198 28.5425H252.815V29.9L253.198 31.4315L252.815 32.9631C253.187 34.1001 253.314 35.3068 253.198 36.5831L253.755 37.1748L252.432 38.1146L252.258 38.4975C251.261 38.3815 250.379 38.6367 249.613 39.2633ZM257.862 35.0515V34.6686L258.071 34.1117L257.862 33.52L259.394 33.1371L259.568 32.3713C260.45 32.2553 261.32 32.0697 262.179 31.8144L262.944 31.9884C264.685 31.7332 266.309 31.2227 267.817 30.4569V29.9L267.643 28.7513L267.992 27.7767L267.261 27.6026L267.087 27.2198L267.261 26.2451C266.75 25.7346 266.065 25.549 265.207 25.6882C265.207 26.1987 264.894 26.454 264.267 26.454L262.77 26.0711C262.26 26.4424 261.633 26.57 260.891 26.454L259.742 26.2451L260.334 26.0711V25.6882L261.448 25.0965H262.005V25.4794H262.561L262.77 24.9224L265.207 24.3307L265.764 24.7136L266.878 23.7738L267.087 22.4163H266.704V21.6505L266.878 21.0588L266.495 19.9101L265.938 19.5272H265.381V19.9101L262.179 20.5018L261.448 19.5272L261.831 18.9703C264.313 17.9493 266.866 17.2183 269.488 16.7774C272.134 16.3133 274.767 15.8956 277.39 15.5243L278.155 16.673L276.624 16.847L276.45 17.4387L274.187 18.5874L273.248 18.3786L271.96 18.9703V19.3532L272.134 20.293L271.96 21.0588L272.308 21.4417L271.02 21.6505L270.463 21.4417V22.0334C271.948 22.4279 273.445 22.6831 274.953 22.7992L275.336 24.1567L274.744 24.9224L275.336 25.4794L274.013 25.8623L273.456 28.1596L272.517 28.9253L274.013 29.3082L274.187 29.9C275.069 29.9 275.765 30.2132 276.276 30.8398V29.9H276.833L278.329 30.6657V30.074L278.155 29.5171L279.443 30.2829V30.6657H280H278.503V31.2227L279.269 31.9884L278.155 31.8144V32.5802L279.06 33.1371C275.696 33.6476 272.319 33.7172 268.931 33.3459V33.7288C268.189 33.7288 267.504 33.8565 266.878 34.1117L266.147 33.52V34.2858H265.764L264.615 33.9029L263.884 34.1117L262.561 32.9631L262.387 34.2858H260.508C259.51 34.2858 258.628 34.541 257.862 35.0515ZM260.508 33.7288V33.3459H260.125V33.7288H260.508ZM269.871 31.6056L269.523 31.2227V31.6056H269.871ZM273.073 31.4315V31.0486L272.517 30.8398L272.308 31.4315H273.073ZM271.577 31.2227V30.6657H271.02V31.2227H271.577ZM272.134 27.9855L272.899 27.6026L273.456 27.7767V27.0109L272.517 26.8369V27.2198H271.96L271.751 27.9855H272.134ZM267.992 27.3938V26.8369H267.435V27.3938H267.992ZM249.996 27.0109L249.439 26.454V27.2198L249.996 27.0109ZM276.624 24.3307L276.833 23.9478L277.007 24.3307H276.624ZM267.817 24.1567L267.087 23.7738V24.3307L267.817 24.1567ZM257.131 23.008L256.575 22.7992V23.182L257.131 23.008ZM267.992 22.7992V22.4163L267.643 22.7992H267.992ZM272.691 18.5874L272.899 17.9957H272.308V18.5874H272.691ZM256.192 14.7585L255.635 14.5497V14.9326L256.192 14.7585ZM262.77 14.5497L262.561 13.7839H262.179L261.622 13.9928L260.334 13.6099C260.937 13.6099 261.239 13.3546 261.239 12.8441L260.682 12.0783L260.125 10.9297L260.508 10.1639L259.742 9.78101V9.39813H260.125V7.27485L260.891 7.10081L261.065 6.50907C263.571 5.48804 266.077 4.52502 268.583 3.62002L268.757 4.21175H269.14L269.523 3.44598L270.254 3.23713L272.517 3.44598C273.63 2.79623 274.883 2.47136 276.276 2.47136L276.45 3.23713H276.833L277.216 3.06309V3.44598L276.833 4.80349L276.276 4.97753V5.36041L276.624 6.71792L276.276 8.04062L275.336 9.01524V9.57217L276.276 10.1639V10.5468L275.336 10.9297L274.953 11.6954L274.013 11.8695L273.839 12.2524C272.192 12.7629 270.44 13.0878 268.583 13.227L267.435 13.0181L266.878 13.227V13.7839H266.321L264.998 13.227V13.9928L263.327 14.1668V14.5497H262.77ZM261.622 12.4612L261.239 12.0783V12.4612H261.622ZM270.254 11.1037L270.637 10.1639H271.02C271.507 8.88761 271.878 7.54171 272.134 6.12619C271.391 5.61567 270.579 5.43003 269.697 5.56926L269.14 5.7433L268.2 5.56926L267.817 6.33503H266.321L265.764 6.12619L265.207 7.10081H264.615V7.48369L263.327 8.04062L263.118 8.80639H263.501L264.267 8.63235L264.615 9.18928L264.441 9.95505H265.555V10.3379L264.824 10.7208L264.615 11.3126L267.817 11.4866L270.254 11.1037ZM263.327 10.3379L263.501 9.78101H262.944V10.3379H263.327ZM274.744 9.39813L274.187 8.80639V9.18928L274.744 9.39813ZM262.561 8.63235L262.77 8.04062H261.831V8.42351L262.561 8.63235ZM272.517 5.56926V4.97753H271.96V5.56926H272.517ZM275.684 4.21175L275.893 3.62002H275.51L275.336 4.21175H275.684Z" fill="#483D3F"/>
<path d="M221.457 34.9123L220.901 34.7035V33.9377H220.309L220.135 32.2321H219.543V31.8492L219.717 31.2923H219.334L219.543 30.5265H220.518L220.692 28.6121L221.075 29.5519L221.666 29.7607L221.283 30.7005L222.432 31.0834V30.3177H223.407L224.555 30.9094V30.3177L223.024 29.5519V29.169L225.112 28.2292L225.495 27.4634H226.087L226.679 27.6723V27.2894L226.296 27.0805V26.6976H225.704H226.296L226.679 26.9065V27.2894H227.236V26.9065H227.618L228.593 27.0805L228.802 26.1407H229.568L229.742 27.8463H228.593L228.001 27.4634L227.444 28.4032L227.062 28.0551L226.47 30.1436L225.704 30.9094H225.321L224.729 32.2321L223.198 32.789L222.815 33.7636L221.457 34.1465V34.5294V34.9123ZM227.444 34.1465L227.236 33.3808L227.827 34.1465H227.444ZM230.125 33.7636L230.507 33.3808V33.7636H230.125ZM228.21 33.5548L228.001 32.9979L228.802 32.615V32.0581L227.827 30.9094L228.419 30.3177L228.001 29.9348H228.419V28.7861L229.359 29.3778L230.507 28.7861V29.169L229.359 29.5519L229.185 30.1436H228.593V30.7005L229.359 32.9979L229.185 33.3808L228.21 33.5548ZM230.507 32.9979V32.2321H230.89L230.507 32.9979ZM208.927 32.4061L208.753 31.8492H208.37L207.778 32.0581L207.604 31.4663C206.954 31.6056 206.502 31.4199 206.246 30.9094L206.038 29.7607L206.246 29.169L206.038 28.6121L206.246 27.6723C205.991 26.0015 205.666 24.3423 205.272 22.6947L206.038 22.1378C205.922 21.4881 206.119 21.0356 206.629 20.7803H207.221C207.732 21.1748 207.987 21.6853 207.987 22.3118L209.727 22.6947V21.7549L208.927 21.1632V20.4322L209.727 20.2234L211.259 20.7803V21.372H211.642C212.547 21.1168 213.382 20.8615 214.148 20.6063V20.2234H214.531L215.505 20.9891V20.6063H215.888V22.1378H216.445L215.679 24.0522L216.062 24.2263V24.9921L216.654 25.3749L216.271 25.9319H215.888L215.296 25.7578V26.5236L215.505 27.0805H216.062L216.445 26.9065C216.84 27.6723 217.037 28.4264 217.037 29.169L215.679 29.3778L215.296 30.7005L214.322 30.9094L213.382 30.5265L212.999 31.2923L213.556 31.8492L211.85 32.0581L209.727 31.8492L208.927 32.4061ZM222.432 32.0581L222.606 31.4663L221.283 31.2923L221.075 32.2321L222.432 32.0581ZM229.568 31.6752V31.0834H230.333L230.507 31.4663L229.568 31.6752ZM237.643 29.9348L236.112 29.3778L235.903 28.7861L231.308 25.1661H229.951V25.7578V25.3749H228.593L228.21 25.9319L227.062 26.3148V25.9319H227.444V25.549L227.062 24.9921L227.827 25.1661V24.6092L227.236 24.4003L226.853 22.9036L225.495 22.5207L223.964 22.6947L223.581 20.9891H223.024L222.606 22.3118L221.84 22.6947L221.283 21.7549C220.518 21.7549 219.81 21.4997 219.16 20.9891V20.4322H219.543V19.2836L219.334 18.9007H219.717L219.926 19.6664H220.309L221.84 19.4576L222.432 19.6664V18.9007L224.729 18.6918L224.938 19.4576H225.495L225.913 19.2836L226.087 19.6664H226.47L226.679 18.5178L226.853 18.9007H227.444L227.827 18.1349H227.236V17.752L227.618 16.4293L226.679 16.2205C226.795 15.4547 226.539 15.0138 225.913 14.8978L225.495 15.0718L224.938 14.132H224.555L223.79 14.5149V14.8978L224.172 15.0718V15.4547H223.581L222.432 14.8978L222.049 13.7491L222.223 12.7745H222.606L222.815 13.5403H223.581V12.9833L225.913 12.6004L226.087 12.0435H226.853L227.618 12.2176L227.827 11.4518L227.618 10.3031H227.062L226.47 10.512V9.53736H226.853V8.77158L226.087 8.4235V8.04062H224.938L224.729 8.59754L223.964 8.77158L223.581 9.7462L222.815 9.92024L222.606 10.8949L222.815 11.4518L222.432 12.2176H221.666L221.457 12.7745H220.309L219.926 12.0435C219.926 10.5816 219.926 9.11966 219.926 7.65773L219.543 5.7433L220.135 1.91443L221.283 1.53154L221.457 0.974618L223.024 0.765771V1.14866L224.555 1.53154L224.729 0.208845C225.797 -0.0696183 226.829 -2.58069e-06 227.827 0.417692V0.0348053C228.732 0.104421 229.626 0.290063 230.507 0.591731L230.716 0.0348053H235.346L235.52 0.591731L235.346 0.974618H234.963V1.3575C235.473 3.00508 235.659 4.8499 235.52 6.89196L234.963 8.77158L235.52 10.8949C234.893 11.2661 234.638 11.7767 234.754 12.4264H235.52V12.9833L234.58 13.7491V14.5149L234.754 14.8978L232.631 15.2807L232.457 14.6889H231.865L231.482 15.2807L230.507 16.6034L229.568 16.2205V17.5432L230.333 18.5178L230.89 18.6918L231.482 18.5178V17.9261L232.84 18.5178L233.814 18.1349V18.9007H234.371L234.58 17.752L235.137 17.5432L236.112 18.5178H235.346V19.2836L236.112 19.4576V19.8405L234.371 20.6063V21.1632H234.963V21.5461L234.371 21.7549L233.397 21.1632L232.84 20.6063C232.84 21.2328 232.642 21.8013 232.248 22.3118H231.099V22.9036L231.308 23.4605H231.691L232.248 23.2865C233.803 24.7948 235.473 26.1291 237.26 27.2894L237.852 27.4634L239.001 28.4032L239.383 29.5519C238.873 29.9464 238.293 30.074 237.643 29.9348ZM207.778 29.3778L207.221 29.169V29.5519L207.778 29.3778ZM213.382 29.169V28.6121H212.79V29.169H213.382ZM222.223 28.995L221.84 28.0551L222.606 28.7861L222.223 28.995ZM210.876 28.7861L211.85 28.4032L212.999 28.6121L213.765 28.2292C213.695 26.8833 213.823 25.549 214.148 24.2263L213.765 24.0522V23.2865L214.322 23.0776V22.6947L212.999 22.5207L212.616 23.2865H212.233V22.9036L212.79 22.6947V21.929L211.85 21.7549L210.284 22.5207L210.11 23.0776L209.344 23.4605L209.135 23.8434L208.927 24.4003L209.518 27.2894L210.11 28.4032L210.876 28.7861ZM223.198 28.4032L223.024 27.8463L223.79 27.4634L224.172 26.6976H224.729L224.555 28.0551L223.198 28.4032ZM209.135 27.4634V26.9065H208.544V27.4634H209.135ZM215.122 26.6976V26.1407H214.531V26.6976H215.122ZM206.838 25.9319V25.3749H206.246V25.9319H206.838ZM228.802 25.1661V24.4003H228.419L228.21 24.9921L228.802 25.1661ZM208.544 24.7832L208.161 24.4003V24.7832H208.544ZM214.322 22.3118V20.9891H213.382V21.372L213.765 22.3118H214.322ZM224.938 22.3118V21.7549L223.964 21.5461V21.929L224.938 22.3118ZM225.913 22.1378V21.7549L226.087 21.1632L225.495 20.9891L225.112 22.1378H225.913ZM210.11 21.5461V21.1632L209.518 20.9891V21.5461H210.11ZM235.52 21.372V20.9891H235.903V21.372H235.52ZM220.692 20.2234L220.135 20.0493V20.4322L220.692 20.2234ZM233.014 20.0493V19.6664L233.222 18.9007L232.631 18.6918L232.248 19.4576L232.457 20.0493H233.014ZM231.482 19.6664L231.691 19.0747H231.308L230.89 19.8405L231.482 19.6664ZM230.716 19.4576V18.9007H230.333V19.4576H230.716ZM229.568 19.2836V18.1349H228.976L228.419 18.3089V18.9007L229.568 19.2836ZM205.655 18.5178V17.752L205.272 16.6034L208.927 15.8376L209.518 16.2205L209.727 15.2807H210.11V15.6635H210.667V15.2807H211.05L211.642 15.4547L212.616 15.0718L213.173 15.2807L213.765 15.0718L215.122 16.4293L214.74 16.6034L214.531 17.5432H213.939C213.428 17.1719 212.86 17.0443 212.233 17.1603V17.5432L210.493 17.9261L206.455 17.5432V17.9261L205.655 18.5178ZM233.397 14.132L232.84 13.9231V14.306L233.397 14.132ZM231.865 13.9231L231.099 13.1574V13.5403L231.865 13.9231ZM233.988 13.7491V13.3662H233.605V13.7491H233.988ZM225.913 13.3662V12.9833H225.495V13.3662H225.913ZM229.742 12.4264L232.631 11.4518C232.7 9.94345 232.77 8.4235 232.84 6.89196H232.457L231.691 7.066L230.507 6.68311V7.066L230.716 7.65773L227.827 8.98043V9.53736L228.976 10.512L229.185 9.53736L230.125 9.36332L230.507 9.53736L230.716 10.512L230.507 10.8949V9.92024H230.125L229.185 10.3031V10.686H228.593L228.21 10.512L228.001 11.0689L229.742 12.4264ZM205.864 12.0435L205.272 11.8347V11.0689C207.337 10.3031 209.46 9.79261 211.642 9.53736L213.173 9.7462L214.74 9.36332L215.505 9.7462L215.679 10.512L214.74 10.8949L214.322 11.6606L211.85 11.8347L211.05 11.4518L209.135 11.6606L208.37 11.4518L208.161 11.8347H207.604L206.838 11.6606L205.864 12.0435ZM223.198 9.15447V8.59754H222.606L222.432 9.15447H223.198ZM234.197 8.59754L233.605 8.04062V8.59754H234.197ZM225.913 7.83177V7.27484H225.321V7.65773L225.913 7.83177ZM208.161 6.50907V5.91734L204.889 5.53445L204.715 3.82886C205.736 3.45758 206.885 3.32995 208.161 3.44598L208.544 0.591731H209.518V0.0348053H210.667L210.876 0.417692H211.259L211.433 0.0348053H212.024L212.79 2.6802L215.679 2.88905L216.828 2.6802L217.42 3.27194L217.629 2.6802L218.185 2.50616L218.394 3.65482L218.011 4.4206H217.629C217.745 5.04714 217.547 5.41842 217.037 5.53445L216.062 5.36041V5.7433L216.271 6.30022H215.679L214.322 5.7433L213.556 5.91734L212.79 6.12618L212.024 5.91734V6.30022L210.493 5.91734L209.727 6.30022V5.7433L209.901 5.15156L208.927 4.4206C209.066 5.3024 208.811 5.99856 208.161 6.50907ZM230.716 6.30022L231.308 5.53445L232.84 5.36041L233.222 2.12328L231.691 1.74039V2.12328L232.248 3.44598H231.308L230.333 2.6802L230.125 3.27194L230.333 4.03771L229.568 4.4206V4.97752L230.333 5.36041L229.951 5.53445V6.12618L230.716 6.30022ZM222.432 6.12618L222.606 5.53445H222.049L221.84 6.12618H222.432ZM228.001 5.91734L228.21 4.97752L226.853 4.76868L226.296 4.97752L225.321 2.50616L223.964 2.12328V3.27194L224.729 3.65482V4.03771H224.346L223.198 3.65482L222.432 5.15156L222.606 5.7433C223.511 6.11458 224.544 6.24221 225.704 6.12618L227.444 5.53445L228.001 5.91734ZM212.79 5.7433L213.765 5.53445V4.97752L211.642 4.59464V4.97752L212.407 5.36041L212.79 5.7433ZM216.654 3.82886V3.44598L216.062 3.27194V3.65482L216.654 3.82886ZM222.815 3.06309V2.6802H222.432V3.06309H222.815ZM225.704 1.91443V1.53154L225.321 0.591731H224.729V1.53154L225.704 1.91443ZM229.568 1.3575L229.185 0.974618V1.3575H229.568Z" fill="#483D3F"/>
<path d="M181.433 38.8804V38.1146H181.05C180.562 37.0936 180.319 36.0145 180.319 34.8775H180.876V34.2858H180.493L180.319 33.1371L179.727 32.9631L179.17 33.7288H178.021V34.1117L178.23 34.4946L177.256 34.8775L176.699 36.0262H176.316L176.142 35.4344L174.436 34.8775L174.227 36.0262H173.67V35.6433L174.227 34.2858L173.844 33.52L174.436 33.1371V32.7542L174.993 32.5802L175.376 31.8144H175.759V31.4315L177.082 31.0486L177.464 29.6911C178.091 29.0646 178.787 28.6237 179.553 28.3684C180.179 27.4634 180.551 26.4424 180.667 25.3053L179.17 23.9478L177.847 24.1567V24.9224H177.464L177.082 23.7738L176.525 23.5649V23.9478H175.759L174.993 23.7738L174.61 24.9224H174.227L173.844 24.7136V24.3307L174.053 23.7738L173.462 23.3909L173.844 22.7992C175.887 22.0334 178.045 21.5229 180.319 21.2676L181.05 21.4416V21.0588L180.667 18.9703L180.876 18.3786L180.493 16.673L182.755 15.6983L183.347 15.1414L183.521 15.9072L184.287 16.0812V16.4641L184.113 17.0559L184.287 17.8216L183.521 18.9703H183.904L184.287 20.8847L185.992 21.0588V20.6759L188.081 20.5018L188.847 20.6759V20.293H189.961L190.726 20.5018L192.641 19.9101L193.024 20.5018L193.755 21.0588L192.432 21.6505L192.258 22.4163L192.432 23.182L192.258 23.9478H191.666V23.5649H191.109V22.6251H190.552L189.961 23.9478L189.578 22.4163H189.021L188.847 23.5649H188.464L187.141 23.008V23.5649L187.698 23.7738L187.315 23.9478L186.375 23.7738L186.166 23.182L185.61 23.008L185.227 23.9478L187.698 25.8623C188.835 26.0015 189.844 26.454 190.726 27.2198L191.109 27.7767L194.137 29.6911L194.346 30.4569H195.077L195.46 31.8144H195.843L196.609 31.4315L196.992 32.3713L198.871 33.3459V33.9029H198.14L197.932 35.0515H197.549V35.4344L197.757 36.0262H197.375L196.435 35.8173V36.2002L195.669 36.409L195.46 35.8173L194.903 35.6433L194.729 34.8775H194.137V35.2604H193.581L193.963 35.0515V34.4946L192.815 34.1117L191.666 32.5802L191.109 32.7542V32.3713L191.666 32.1973V31.6056L190.935 31.4315L190.343 31.6056L189.404 29.5171L188.847 29.3082L188.255 29.6911L187.524 27.9855L186.758 27.7767V28.1596L186.932 28.5425L186.549 28.7513L185.818 28.1596L184.461 27.6026L183.904 27.7767V28.3684H184.67V29.5171L184.461 30.8398L184.67 31.4315C184.298 31.8028 184.171 32.3133 184.287 32.9631H184.67V33.9029H183.904V34.2858L184.67 34.6686L184.287 35.6433L184.461 36.5831L183.73 37.3489H184.461L184.287 38.4975C183.266 38.6367 182.314 38.7644 181.433 38.8804ZM182.372 34.4946V34.1117L182.198 33.3459H181.815L181.433 34.2858L182.372 34.4946ZM193.963 34.1117V33.3459L192.641 32.7542V33.1371L193.963 34.1117ZM177.082 33.52V32.7542L177.256 31.9884L177.082 31.4315H176.525V33.52H177.082ZM183.138 33.1371L182.372 32.7542L182.198 33.3459L183.138 33.1371ZM183.73 32.7542V32.3713H183.347V32.7542H183.73ZM192.641 31.4315V30.8398H192.049V31.4315H192.641ZM184.113 31.2227V30.4569L183.347 30.2829V29.9H182.964L182.755 30.4569C183.15 30.9674 183.602 31.2227 184.113 31.2227ZM190.935 30.8398L190.552 30.4569V30.8398H190.935ZM182.198 28.1596V27.7767H181.815V28.1596H182.198ZM177.847 23.7738L178.021 23.182H177.256V23.5649L177.464 24.3307H177.847V23.7738ZM191.666 22.4163V21.8245H191.109V22.4163H191.666ZM167.405 19.9101L167.231 19.5272H166.848V19.1443L167.231 18.2045L167.022 16.673H167.405L167.788 15.3155L167.614 14.7585L168.345 14.1668L168.554 12.8441H168.937V12.0783H169.319L169.876 9.95505L167.788 9.57216V9.18928H167.405L163.611 9.78101L162.497 8.24946C163.866 7.48369 165.444 7.22843 167.231 7.48369L167.405 7.1008C169.053 7.21683 170.445 6.96157 171.582 6.33503L171.756 5.56926L172.348 5.36041L172.522 4.59464L171.965 3.82886L172.905 4.0029L173.113 3.62002H173.844V3.06309L172.522 2.29732V1.70558H174.227L174.819 3.06309H174.227V3.62002H174.819V4.21175L174.61 4.80348L173.844 5.36041V5.95214L175.202 6.12618C177.221 5.61567 179.298 5.23278 181.433 4.97752L181.815 7.1008L181.259 9.95505L180.493 10.1639L179.936 12.4612L179.553 12.6353V13.0181L179.727 14.1668L178.404 18.2045L177.847 18.3786L176.908 18.2045L176.699 17.6128L175.759 17.2299V16.0812L176.525 15.6983L176.699 15.1414L176.525 14.7585L176.699 13.9928L176.525 13.6099H177.256V13.227L176.908 12.0783L177.256 10.9297H177.639C177.639 9.90864 177.836 8.94562 178.23 8.04062H177.639L176.908 8.24946L176.525 7.65773H175.933L174.819 8.04062L174.61 8.80639L174.053 9.01524L173.288 8.80639C172.522 10.4772 171.756 12.1712 170.99 13.8883C170.248 15.6055 169.691 17.3575 169.319 19.1443L167.405 19.9101ZM182.581 19.9101L182.198 19.5272V19.9101H182.581ZM182.372 19.3532V18.7614H181.815V19.3532H182.372ZM186.166 15.3155L184.67 14.1668C184.67 13.0297 184.542 12.0087 184.287 11.1037H183.904L183.347 8.24946L183.73 7.48369L183.347 7.27484V6.89196C184.995 5.7549 186.793 5.12836 188.742 5.01233C190.691 4.8731 192.687 4.66425 194.729 4.38579L195.46 4.80348L195.669 6.50907L195.286 7.65773L195.077 9.18928H195.669C195.669 10.2103 195.855 11.1733 196.226 12.0783H197.166L196.435 12.2524V13.227H195.669L195.077 13.0181L192.049 13.9928L191.283 13.401L190.552 13.0181L189.578 13.227V14.1668H188.847L188.638 14.7585L186.166 15.3155ZM185.818 14.1668V13.0181H185.435L185.053 13.9928L185.818 14.1668ZM191.875 13.401L191.492 13.0181V13.401H191.875ZM191.283 12.6353L190.726 12.4612V12.8441L191.283 12.6353ZM192.815 12.6353L192.432 12.2524V12.6353H192.815ZM186.166 12.4612V12.0783L185.818 12.4612H186.166ZM191.666 10.9297L192.258 6.89196C190.61 6.75273 188.963 6.75273 187.315 6.89196V7.65773L187.698 9.57216L187.524 10.1639L188.081 11.3126L189.404 11.6954L191.666 10.9297ZM185.435 9.57216L185.61 9.01524L184.287 8.24946L184.113 8.80639L184.67 9.78101L185.435 9.57216ZM194.903 9.18928V8.63235H194.346V9.18928H194.903ZM195.077 8.04062V7.65773L194.52 7.48369V8.04062H195.077ZM193.755 6.33503L193.963 5.7433H193.372L193.024 5.95214V6.33503H193.755ZM174.227 1.14866L174.819 0.76577V1.14866H174.227Z" fill="#483D3F"/>
<path d="M149.378 32.058L148.613 31.2923L148.23 29.9348H147.673L147.116 30.1436V30.9094H146.733L146.176 30.1436H145.619V30.9094H145.062L144.505 30.7005V31.0834L143.566 30.1436L143.357 30.9094H142.8V31.4663H142.417V31.0834H143.009V30.1436H141.303C140.816 30.2596 140.63 30.6425 140.746 31.2923L140.363 30.7005C139.481 30.5845 138.611 30.3293 137.753 29.9348V30.5265H137.37L136.604 29.5519L135.49 29.3778L134.167 29.5519V29.9348H133.436L133.228 29.169L132.497 29.7607H131.94C131.174 28.995 130.861 28.0435 131 26.9065L131.731 25.9319H132.288L133.61 26.5236L134.933 26.3147L136.43 27.0805L136.604 26.5236L138.101 26.9065V27.2894H137.544V27.8463H138.31L138.692 26.5236L137.927 25.9319C138.252 24.7484 138.194 23.6113 137.753 22.5207L138.101 19.6664L137.927 19.0747L138.101 18.5178C138.031 15.4547 138.414 12.4612 139.249 9.53735L139.806 9.36331L140.92 10.1291C141.059 11.1501 141.442 12.0319 142.069 12.7745L141.303 12.9833V15.0718L142.069 16.2205L143.74 16.4293L144.122 16.9862H145.062L146.176 16.7774L146.942 17.1603L147.882 16.9862L148.996 17.1603V16.4293H149.378L150.492 16.7774L150.875 16.4293C151.502 16.9166 151.745 17.6128 151.606 18.5178L151.049 18.9007V19.8405L149.553 20.2234L149.378 20.9891H148.996L148.056 20.6063L147.882 19.2836H147.499L147.116 20.6063H146.733V20.0493C146.617 19.3996 146.304 19.0747 145.793 19.0747L145.445 20.0493L144.853 20.4322L143.009 19.4576V19.8405H142.417L141.303 19.2836L141.129 20.7803L141.303 21.372L141.129 22.3118L141.303 23.0776L140.92 24.4003H141.477V25.1661L141.129 25.9319L142.243 26.5236L142.417 27.2894H143.183L143.74 26.5236H144.297L144.505 27.0805H145.062L145.619 26.6976V27.0805L145.236 27.8463H146.559L146.942 27.0805H146.559C147.673 27.0805 148.798 26.8253 149.935 26.3147L151.432 26.9065L153.695 26.1407L154.252 27.6723L153.138 30.7005H152.546L152.372 30.1436H151.815V30.9094L151.989 31.4663L151.432 31.6752V31.0834H151.049L150.109 31.2923V31.8492L149.378 32.058ZM149.935 31.4663L150.109 30.9094L149.378 30.7005V31.2923L149.935 31.4663ZM140.92 29.7607L141.129 29.169H140.572L140.189 29.9348L140.92 29.7607ZM134.376 28.995L133.61 28.0551V28.6121L134.376 28.995ZM150.492 27.6723L150.109 26.6976H149.17V27.4634L150.492 27.6723ZM133.054 27.6723V27.2894H132.671V27.6723H133.054ZM144.297 27.4634L144.505 26.9065H143.948V27.4634H144.297ZM149.378 20.2234L148.996 20.0493V20.4322L149.378 20.2234ZM148.439 20.0493L148.056 19.6664V20.0493H148.439Z" fill="#483D3F"/>
<path d="M114.332 37.1748L113.74 36.966V36.0262L113.949 34.6686L113.566 33.3459L113.949 32.1973L113.74 30.6657C113.995 28.995 114.181 27.3706 114.297 25.7926C114.436 24.1915 114.633 22.5555 114.888 20.8847L114.68 19.9101L115.271 19.7361V19.1443H114.506V18.7614L114.68 17.9957C114.448 17.4852 114.007 17.2995 113.357 17.4387L112.626 15.9072L113.566 15.6984V15.3155L112.069 14.9326L111.686 15.6984L110.537 16.4641L110.363 17.2299H111.094V17.6128L109.424 17.9957V18.5874L109.598 18.9703H109.981V18.3786H110.363L110.537 19.1443H109.981L109.806 20.119L110.155 20.5018L109.041 21.2676V21.6505L109.424 22.4163L109.215 23.5649H109.598V23.9478L110.155 24.5396L109.806 25.0965L109.981 25.6882L109.041 25.4794L108.832 26.2451H109.215L110.155 27.2198V27.9855L109.598 28.1596L108.658 27.9855L107.544 28.3684V28.7513L106.952 29.9H106.569V30.2829V29.6911V28.5425H106.012V27.0109H106.395L106.569 28.3684H107.335V27.9855L107.161 27.3938L107.335 26.8369L106.221 26.2451V25.4794L107.161 24.9224V24.1567H106.778L106.395 24.3307V23.9478L107.161 23.5649L107.335 23.008H106.221L106.952 22.2074V21.6505L106.012 20.119H106.395L106.569 19.5272L107.718 19.1443V18.5874L107.335 17.2299H106.569V16.2901L107.544 14.9326L106.778 13.227L107.335 13.0181L108.832 13.6099L109.041 14.1668H109.806L109.981 13.227L109.424 12.8441L108.658 12.2524V11.8695H107.892V12.2524H107.335V11.8695H108.101L108.275 10.7208L108.101 9.78101L108.658 9.01524H109.041L110.363 9.57217V8.80639H109.598V8.04062L109.041 7.86658L108.658 6.71792L109.215 6.50907V5.95215H109.806L110.92 6.33503L111.477 6.12619L113.357 6.71792L113.949 6.50907L114.888 6.89196L115.445 6.71792V7.48369H115.828L116.211 6.71792H117.151L118.474 7.27485L118.265 8.04062H118.857V8.42351L119.413 7.65773L119.205 7.10081L120.353 6.89196V7.27485L119.97 8.04062H120.353L119.97 9.39813H120.527L121.119 8.42351L121.293 9.57217H120.527L120.353 11.8695H119.205L119.031 11.3126H118.648L117.708 11.4866L117.534 10.9297H116.942L116.385 11.1037L114.68 10.5468V11.6954C114.053 11.301 113.369 11.1733 112.626 11.3126L112.243 10.5468L111.477 10.3379V9.95505L111.686 9.39813L111.477 8.80639H110.92C110.642 9.59537 110.7 10.3611 111.094 11.1037L109.598 11.3126L109.041 11.1037V11.4866C109.412 12.1363 109.911 12.3916 110.537 12.2524V13.0181L110.363 13.7839L111.686 13.9928V13.6099L112.069 13.9928L112.626 13.401H113.009L113.183 14.3757H113.566L114.332 13.401H114.888V13.7839H114.332V14.1668L114.68 15.5243H115.062L115.619 14.1668H116.211V13.6099L118.091 13.401L118.265 14.1668H118.857L119.031 13.401L119.97 13.7839L120.353 13.6099L120.736 14.1668L121.293 14.7585L120.91 15.9072L121.293 16.847L120.179 17.0559V17.6128L120.527 18.3786L119.205 17.6128V16.847L118.648 16.673C118.787 16.0232 118.601 15.6403 118.091 15.5243L117.917 16.673L118.091 17.0559H117.708V17.4387L117.917 18.5874L117.534 19.1443L117.917 19.3532L117.325 19.9101V19.1443H116.594L116.385 21.0588H117.325L117.917 20.8847V21.4417H116.942V21.8245L117.708 23.5649L117.151 22.7992L116.594 22.6251L116.002 20.293L115.445 20.119L115.062 20.8847C115.434 21.3952 115.689 22.0334 115.828 22.7992L116.768 23.3909V23.7738H116.385V24.1567L117.151 25.8623L116.385 26.0711V26.628L117.325 29.1342L116.942 29.9L117.534 30.074L117.708 31.4315L117.325 32.1973H116.942V32.7542C117.337 33.404 117.464 34.1117 117.325 34.8775L116.942 36.2002C115.944 36.2002 115.074 36.5251 114.332 37.1748ZM95.8485 35.8173L95.6397 35.0515H95.2568L95.0828 33.7288L95.4656 32.7542H94.9087V31.9884L95.2568 31.0486H94.6999V30.4569L95.4656 30.2829V29.5171L96.4055 28.9253L96.5795 28.3684H96.1966L95.2568 28.5425L94.9087 27.6026L95.4656 26.628L94.317 26.454V26.0711L94.9087 25.0965L94.5258 24.9224V24.1567H94.9087V23.7738L94.143 23.5649L93.7601 24.5396H92.4374L91.3235 24.3307L90.7318 25.4794L91.1147 26.2451L90.9406 27.0109L92.0545 27.2198L92.4374 26.454V27.7767L90.7318 28.1596L90.1749 29.1342L89.061 29.3082L88.0864 27.7767H87.3554C87.1002 27.4054 86.6593 27.2198 86.0327 27.2198V26.454L86.4156 25.4794C87.1582 24.9689 88.04 24.6556 89.061 24.5396V24.1567H89.792L90.3489 23.5649L91.4976 24.1567V23.3909H91.8804V22.6251H92.4374L92.9943 22.7992L93.586 21.4417L94.9087 21.6505L95.0828 21.0588L94.5258 20.119L93.7601 19.9101V19.1443H93.3772L92.4374 19.7361L91.4976 19.5272L90.7318 19.9101L89.4091 19.5272L88.8522 19.7361V20.119H88.2952L87.5295 19.7361L87.1466 18.5874L86.5896 18.3786L86.4156 19.5272H86.0327V19.1443L86.2068 18.2045H86.5896V17.4387H87.3554V17.0559H87.7383L88.2952 17.4387L88.4693 16.673H89.061L89.6179 16.847L89.792 16.2901H90.1749L90.0008 16.673L90.9406 17.2299L91.6716 16.2901L92.8203 16.4641L93.2031 16.2901L93.3772 17.0559H93.7601L95.0828 16.4641L95.6397 14.3757L94.9087 12.8441L94.317 12.6353L94.143 11.8695H93.7601L92.8203 13.0181H93.9341L92.9943 13.401L91.8804 13.227L90.9406 13.401L90.3489 13.227L89.6179 12.6353L89.061 12.8441L88.2952 12.6353V12.2524H90.0008V11.4866L89.4091 11.3126L88.8522 11.4866V11.1037H88.4693L88.0864 11.6954H87.5295L87.1466 11.1037H86.5896L87.3554 10.7208L87.9123 10.1639L88.6781 10.3379L90.3489 9.78101L90.7318 8.63235L91.4976 8.04062L90.5577 7.86658L90.1749 8.04062L90.7318 7.86658V7.48369H91.3235L93.2031 8.80639V8.24947L93.3772 9.57217L93.9341 9.78101L94.5258 10.1639L96.9624 9.95505L97.1712 10.7208H97.9022L98.111 9.57217L98.668 9.39813V8.63235H98.2851V7.86658L98.4591 7.27485L97.7282 5.7433L96.5795 5.36041V6.12619H95.2568L94.6999 5.95215V5.56926L93.3772 5.36041V6.50907H91.8804L91.3235 5.36041L90.3489 5.18637V5.95215L88.8522 5.7433L88.0864 6.12619L87.9123 5.36041L87.3554 5.18637L87.1466 5.56926H86.5896V5.18637L87.3554 4.80349L87.7383 4.21175L88.4693 4.59464L89.061 5.18637L89.6179 3.82887L88.2952 3.44598L89.4091 3.23713L90.3489 4.00291L92.4374 3.06309L93.586 3.44598V3.06309L93.3772 2.47136L93.7601 1.70559L94.9087 0.939813L95.0828 0.556926H95.4656V0.939813H96.1966L96.4055 0H98.668V0.765773L98.4591 1.91443L98.842 3.23713L99.4337 3.62002H99.9907V2.68021L101.313 3.06309V2.68021H102.253L102.427 4.97753H102.81L102.984 6.33503H102.044L101.313 7.27485L100.374 7.48369L100.165 8.04062L100.93 8.42351L100.374 8.63235V9.01524L101.487 9.39813V10.1639H102.636L103.75 9.78101L104.307 10.9297L104.133 11.4866L104.307 12.4612L103.367 12.6353L102.81 12.4612L101.87 12.6353V13.0181L100.93 12.6353L100.548 13.227L99.6078 12.6353L98.842 13.0181L98.111 13.7839L96.1966 12.8441L95.8485 14.3757H96.5795V14.9326H96.9624V15.3155L96.7883 15.9072L96.9624 16.4641H97.5193L97.9022 15.6984L97.7282 15.3155L98.842 16.847H99.7818V16.4641H100.722V15.9072H101.105C101.105 16.789 101.36 17.3575 101.87 17.6128V16.673H102.427V17.0559L103.367 17.4387L104.899 17.8216L105.281 18.7614H104.69V19.1443L105.281 19.5272V20.119L104.69 20.293L104.516 20.6759L103.367 21.2676L102.427 20.8847L102.044 19.7361L102.81 17.8216H102.427C101.94 18.4482 101.696 19.1443 101.696 19.9101H100.93L100.374 19.5272V20.293L99.4337 20.6759L99.2249 19.9101H98.842L98.111 21.4417L99.9907 24.1567L99.7818 24.5396L101.87 24.7136L102.427 25.6882L102.81 25.8623L102.984 26.628L103.75 26.8369L104.133 28.1596L103.367 27.9855V29.1342H102.984V28.3684L102.253 29.1342H101.696L101.487 28.5425L100.722 28.3684L100.548 27.3938L99.9907 27.2198L99.0509 27.3938V27.7767L98.4591 27.0109L98.668 26.2451L97.9022 26.0711L97.1712 27.0109L96.0226 27.3938V27.7767L97.1712 28.1596V28.5425L96.7883 29.3082L97.7282 30.2829V31.2227L97.3453 32.9631L98.111 33.9029H97.3453L96.7883 33.7288V34.1117L96.9624 34.6686H96.5795V35.0515L96.7883 35.6433L95.8485 35.8173ZM96.5795 34.8775V34.2858H96.0226V34.8775H96.5795ZM116.594 34.1117V33.7288H116.211V34.1117H116.594ZM116.002 33.3459L115.445 33.1371V33.52L116.002 33.3459ZM116.594 32.1973L116.211 31.8144V32.1973H116.594ZM114.332 31.9884L113.949 31.6056V31.9884H114.332ZM96.0226 31.9884V31.4315H95.2568V31.9884H96.0226ZM96.9624 31.4315L96.4055 30.8398V31.2227L96.9624 31.4315ZM116.942 30.2829L116.385 29.6911V30.074L116.942 30.2829ZM108.275 29.9L108.101 29.1342L109.424 28.7513V29.1342L108.275 29.9ZM116.385 29.3082V28.7513H115.828V29.1342L116.385 29.3082ZM90.1749 28.5425V27.9855H89.6179V28.5425H90.1749ZM102.427 28.3684V27.9855L103.367 26.8369L102.81 26.628L102.636 27.0109L101.87 27.3938L101.696 28.1596L102.427 28.3684ZM108.832 26.8369V25.8623H108.275V26.628L108.832 26.8369ZM97.1712 26.2451L97.5193 25.3053H96.4055V25.8623L96.5795 26.454L97.1712 26.2451ZM95.4656 25.6882V25.3053H95.0828V25.6882H95.4656ZM108.658 25.6882L109.041 24.5396L109.598 23.9478H109.041L108.275 24.5396L108.101 25.8623L108.658 25.6882ZM90.5577 25.4794L90.1749 24.7136L88.8522 24.5396V24.9224L90.5577 25.4794ZM94.9087 23.182L94.317 22.0334H93.7601V22.4163L94.143 23.182H94.9087ZM108.101 22.7992V22.0334H107.544V22.7992H108.101ZM107.718 20.8847L108.101 20.119H107.718L107.335 20.8847H107.718ZM104.133 20.6759V19.7361H103.75L103.576 20.6759H104.133ZM97.7282 19.7361V19.1443H97.1712V19.7361H97.7282ZM100.548 19.1443V18.3786H99.9907V19.1443L100.374 19.5272L100.548 19.1443ZM116.385 17.8216L116.594 17.2299L115.619 16.847L115.445 17.8216H116.385ZM98.111 17.8216V17.0559L97.5193 16.847L97.3453 17.8216H98.111ZM117.325 17.4387V16.847H116.768V17.4387H117.325ZM108.832 17.0559L109.806 16.2901H109.215L108.658 16.4641L108.101 15.6984H107.161V16.2901L107.335 16.847L108.832 17.0559ZM114.332 16.673L114.506 15.5243H113.949V16.673H114.332ZM109.215 15.6984L109.424 14.5497L107.892 14.3757V14.9326L109.215 15.6984ZM110.155 15.6984L110.363 15.1414H109.981L109.806 15.6984H110.155ZM96.5795 15.6984V14.9326H96.1966L96.0226 15.5243L96.5795 15.6984ZM116.385 14.9326V14.3757H116.002V14.9326H116.385ZM96.0226 13.227V12.6353L95.0828 11.8695V12.2524L95.4656 13.227H96.0226ZM95.8485 11.4866V10.7208H95.0828V11.1037L95.8485 11.4866ZM103.367 11.4866V10.9297L103.75 10.1639H103.193L102.253 10.9297L102.636 11.1037V11.4866H103.367ZM110.537 11.3126V10.5468C110.05 10.4076 109.551 10.2103 109.041 9.95505V10.3379L109.215 10.7208H109.598V11.1037L110.537 11.3126ZM99.7818 10.7208L100.165 9.95505H99.4337L99.0509 10.1639L99.7818 10.7208ZM113.357 10.7208C113.867 10.2103 114.123 9.51415 114.123 8.63235L113.357 8.42351C113.241 9.18928 112.997 9.89704 112.626 10.5468L113.357 10.7208ZM119.205 10.7208L119.413 10.1639H118.857V10.7208H119.205ZM117.325 10.5468L116.942 10.1639V10.5468H117.325ZM116.385 10.1639L117.151 9.57217V8.42351L116.594 8.24947L116.211 9.78101L115.619 10.3379L116.385 10.1639ZM91.4976 9.95505L91.6716 9.39813L90.9406 9.18928V9.78101L91.4976 9.95505ZM92.6114 9.95505L92.8203 9.18928L92.2633 8.42351H91.6716V8.80639L92.6114 9.95505ZM108.832 9.95505L108.275 9.78101V10.3379H108.832V9.95505ZM118.091 9.78101L117.534 9.57217V9.95505L118.091 9.78101ZM112.417 9.39813L111.86 9.18928V9.57217L112.417 9.39813ZM110.746 8.80639V8.24947H110.363V8.80639H110.746ZM109.981 7.27485L109.598 6.89196V7.27485H109.981ZM101.487 6.50907L101.105 6.12619V6.50907H101.487ZM102.636 6.12619L102.81 5.56926H102.253V6.12619H102.636ZM98.668 5.18637L97.9022 4.80349V5.36041L98.668 5.18637ZM96.7883 4.97753L96.0226 4.21175V4.59464L96.7883 4.97753ZM103.193 4.97753V4.59464L102.984 4.21175L103.75 3.44598V4.21175L103.576 4.97753H103.193ZM101.87 4.59464V4.21175H101.487V4.59464H101.87ZM100.93 3.82887V3.44598L100.165 3.06309V3.44598L100.93 3.82887ZM98.111 2.68021L98.4591 1.91443H97.5193V2.85425L98.111 2.68021ZM96.1966 1.70559V0.939813L95.0828 0.765773V1.14866L96.1966 1.70559Z" fill="#483D3F"/>
<path d="M55.2317 40.2379L55.0576 39.855L55.4405 38.3235H54.8488V37.5577L55.7886 37.0008V36.235H55.2317L55.0576 35.0863L55.4405 33.3808H54.6747V32.9979L54.8488 32.4061H54.083V32.789H53.7001L52.7603 32.4061L52.2034 32.615L51.9945 33.1719H51.2636L50.6718 32.615L50.1149 32.789V33.1719H49.732L48.9662 32.9979C48.0844 33.3691 47.1446 33.4968 46.1468 33.3808L44.4412 32.9979L43.8495 33.1719L42.9097 32.789V32.4061H43.6754L45.5551 31.6752L45.938 31.8492C46.8198 31.5939 47.5855 31.2111 48.2353 30.7005L49.732 30.9094L50.1149 29.3778L49.558 28.0551L49.732 27.2894H50.4978V26.9065L49.9409 26.6976L49.558 25.549L50.2889 25.1661V24.6092L49.3491 24.0522V24.6092L49.1751 23.4605L49.3491 22.5207H50.1149V22.1378L49.3491 21.7549L49.1751 20.9891H49.9409V20.4322H49.558V18.6918L50.1149 18.5178V17.9261L49.3491 17.3691V16.9862L48.4093 16.7774L47.8524 16.9862L47.2607 16.7774L45.5551 17.752V17.3691L45.7639 16.7774L46.3208 16.6034V15.2807L46.1468 14.8978H45.5551L45.1722 15.6635L44.7893 17.3691L44.6153 16.6034H43.8495L43.4666 16.9862V16.4293L44.7893 15.6635L45.5551 13.9231H46.7037V14.306H47.4695V14.8978H48.0264C49.0475 14.132 50.1845 13.8071 51.4376 13.9231L51.9945 14.132V14.5149L51.8205 15.2807H52.2034L52.7603 14.306L53.352 14.132L53.5261 14.6889L54.083 14.8978V14.306L56.7632 13.7491L59.7915 14.132L60.7313 13.7491L62.9938 14.306V13.9231L62.6109 12.7745H62.9938V13.3662H63.3767L63.7596 12.4264L61.88 12.0435L61.4971 12.7745L60.3484 12.0435L59.7915 13.1574L58.8517 12.7745L57.8771 13.1574L57.1461 12.0435L55.7886 11.4518V12.2176L55.4405 11.6606L54.8488 11.4518L54.4659 12.2176L53.1432 11.4518L52.9691 10.512H54.083V10.1291L52.2034 9.36332L52.5863 9.15447L53.1432 9.36332V8.59754L52.5863 7.65773H52.9691V7.27484C52.4586 6.36984 52.2614 5.41842 52.3774 4.4206L53.352 0.0348053C59.4782 0.522116 65.6624 0.522116 71.9046 0.0348053L72.2875 2.29732H71.7306V2.6802L72.1135 3.44598L71.5217 3.65482V4.21175L71.7306 5.36041L72.2875 5.53445V8.04062L71.9046 8.59754L72.2875 9.36332L72.1135 9.7462H71.5217V8.98043H70.5819L70.4079 10.1291H69.8161L69.4681 9.92024L70.199 9.7462V9.15447L69.4681 8.98043V8.04062L69.8161 6.30022L69.6421 5.53445L70.5819 0.417692H70.199L69.6421 0.765771L68.8763 0.591731L68.7023 0.974618H68.3194L66.7879 0.208845C66.4166 0.71936 65.9177 0.905002 65.2911 0.765771L64.3513 0.417692L61.2882 0.974618L60.9053 0.765771L59.9655 0.208845V0.591731L58.2599 0.974618L55.9974 0.765771C55.2317 1.41552 54.9184 2.18129 55.0576 3.06309L56.3803 3.82886V4.21175H56.9372L57.703 4.03771L58.0859 4.59464L59.4086 4.76868L61.4971 4.21175L61.88 4.4206L62.6109 4.03771L63.3767 4.21175L63.9684 4.03771V4.4206H64.6994V3.82886H66.6138L66.9967 4.59464H67.5536L67.7625 3.44598H68.4935V4.03771L69.0852 4.59464L67.3796 5.36041L67.1708 5.7433H66.7879L66.0569 4.97752L65.4652 5.15156V5.91734H64.9082L63.5855 6.50907L61.4971 5.91734V6.30022C60.8937 6.74112 60.2556 6.81074 59.5826 6.50907L59.0257 7.066L58.4688 6.89196V6.50907H57.703L56.9372 6.12618V5.7433H56.3803L54.8488 5.91734V7.27484L55.2317 8.59754L54.8488 10.1291C56.4499 9.59537 58.0279 9.65338 59.5826 10.3031L60.7313 10.1291L61.2882 10.3031L63.9684 9.92024C65.1055 10.0595 66.1729 10.3147 67.1708 10.686V10.1291L68.1106 9.92024L68.3194 10.512L68.4935 10.8949H68.1106L67.9365 12.6004H67.1708L66.0569 12.2176V12.7745L65.674 12.2176H65.2911L64.5254 13.1574L63.7596 13.3662V13.7491L65.0823 14.5149L66.7879 15.0718L67.9365 14.8978L69.6421 15.2807V15.6635H70.199V15.2807L70.025 16.2205L71.1737 16.6034V16.2205L70.9648 15.6635L72.1135 15.2807L72.6704 15.4547L74.376 15.0718L75.1418 16.2205H74.376V17.3691L73.4362 17.752L73.2621 18.3089L73.4362 18.9007H72.6704L72.1135 17.752L71.5217 17.5432V18.5178H70.4079L69.6421 17.3691H69.0852V17.9261L69.6421 18.6918H69.2592L67.3796 18.5178L67.5536 17.9261L66.2309 17.752L65.4652 17.1603V17.752H65.0823L62.8198 16.7774L62.6109 16.2205L61.4971 17.1603H61.1142L60.5573 16.4293L58.6428 15.8376L58.0859 16.7774L58.2599 17.1603H56.9372L56.3803 16.4293H55.6145L56.1715 17.752H56.7632V18.5178L56.9372 19.4576L57.703 19.8405H58.6428L59.4086 19.6664V20.2234L60.3484 20.4322V21.7549H59.9655V23.4605H58.4688L58.2599 22.6947H57.703L57.3201 23.4605L58.4688 23.8434V24.9921L59.9655 25.3749V25.9319L59.1998 26.1407L59.0257 27.6723L59.9655 27.8463L60.1744 29.9348L59.9655 30.5265L60.1744 31.2923L59.7915 32.2321H60.3484V32.615L59.9655 33.3808H60.3484V34.1465L59.7915 35.2952L59.4086 35.4692L58.4688 35.8521V36.409L60.5573 36.6179V37.7665L60.1744 38.5323H59.7915L59.9655 37.7665L58.4688 37.0008V37.5577L58.8517 38.1494H58.2599V39.4721H58.8517L60.3484 39.0892L60.5573 40.2379H60.1744V39.681H59.0257L58.8517 40.2379H56.3803V39.681H55.6145V40.2379H55.2317ZM57.4942 39.855L56.9372 39.681V40.0639L57.4942 39.855ZM57.8771 38.1494L57.3201 37.3837L56.7632 38.3235L57.8771 38.1494ZM71.5217 37.0008V36.6179L70.9648 35.2952C69.8278 34.9007 68.7603 34.4482 67.7625 33.9377V33.3808L68.1106 32.789L66.9967 33.3808L66.6138 34.1465L66.2309 35.0863L65.0823 35.2952L64.6994 34.3206L64.3513 34.1465V33.5548L65.0823 33.3808V32.9979L64.6994 32.4061H65.0823L65.8481 32.9979L66.405 32.789V32.2321L66.2309 31.8492H66.9967V31.4663L66.6138 30.9094L66.7879 30.3177L66.6138 29.9348L67.5536 29.5519V29.169L66.2309 28.995C66.4862 28.2292 66.3006 27.7883 65.674 27.6723L65.4652 28.4032L64.9082 26.5236H64.3513L64.1425 27.4634H63.7596L63.3767 26.1407H62.9938L61.6711 26.5236V25.7578L62.2628 25.549L62.4369 24.9921H61.4971V24.6092L61.6711 24.0522L62.6109 23.8434L63.2027 24.0522L64.1425 23.4605L63.9684 24.2263C64.711 24.2031 65.4072 24.0174 66.0569 23.6694L66.7879 23.8434L66.9967 22.9036L67.9365 22.6947V23.4605H68.7023V23.0776H69.2592L70.4079 23.4605V23.0776H70.7908L72.1135 23.2865V22.9036H73.0533L73.8191 23.4605L73.9931 24.2263L74.9677 25.1661H75.5246L75.6987 26.6976H74.9677L74.2019 26.5236V27.0805L74.5848 27.8463H73.6102V28.995L73.4362 30.1436H73.0533L72.4964 29.9348L72.2875 30.7005L71.9046 31.2923H72.4964L73.0533 31.0834C73.8191 32.1045 74.26 33.2531 74.376 34.5294L74.2019 35.0863L74.7589 35.2952L73.9931 35.4692L73.6102 36.6179L72.6704 35.8521L72.1135 36.061L71.9046 37.0008H71.5217ZM58.8517 35.0863L59.0257 34.7035L59.4086 33.9377L58.4688 33.1719L58.2599 32.615H57.8771L57.4942 33.5548L57.8771 34.7035H57.4942L56.5544 34.3206V34.7035L58.2599 35.4692L58.8517 35.0863ZM59.1998 31.4663L58.8517 31.0834V31.4663H59.1998ZM52.9691 31.0834V30.7005H52.5863V31.0834H52.9691ZM57.703 30.7005L57.3201 30.3177V30.7005H57.703ZM58.6428 30.3177V29.5519L57.8771 29.3778V30.3177H58.6428ZM55.6145 29.9348L56.5544 29.7607V29.169L55.6145 28.995C55.4985 27.6026 55.0576 26.396 54.2918 25.3749H53.352L52.9691 26.9065L53.5261 27.6723L53.352 28.2292H52.9691V28.7861L53.5261 30.1436L55.6145 29.9348ZM73.0533 29.169L72.4964 28.995V29.3778L73.0533 29.169ZM57.703 28.7861V28.2292H57.1461V28.7861H57.703ZM73.2621 28.4032L72.6704 28.2292V28.6121L73.2621 28.4032ZM69.8161 28.0551L70.025 27.2894L69.4681 26.9065V26.5236L69.8161 26.1407L68.3194 25.549V24.9921H67.7625V25.7578L66.7879 24.7832H66.0569L65.4652 26.3148L66.405 26.5236V27.2894H66.9967L67.5536 27.0805V28.2292L69.2592 28.4032L69.8161 28.0551ZM51.8205 27.4634L52.2034 26.6976L51.4376 26.5236L50.6718 27.8463H51.2636L51.8205 27.4634ZM64.1425 25.7578V24.9921L63.2027 24.7832L62.6109 24.9921V25.549L64.1425 25.7578ZM55.2317 25.549V24.9921L53.909 24.6092V25.3749L55.2317 25.549ZM68.4935 24.4003L68.7023 23.8434L67.5536 23.6694V24.2263L68.4935 24.4003ZM56.7632 24.2263L56.9372 23.2865L56.1715 22.9036L55.7886 24.2263H56.7632ZM54.4659 24.0522L55.6145 23.2865V22.6947L55.4405 21.1632L55.7886 20.4322L55.4405 20.0493L56.1715 18.6918L55.6145 18.3089V17.9261H55.9974V17.3691H55.2317L54.2918 15.4547H53.7001V16.2205H52.9691L52.3774 15.4547H51.6464L51.2636 16.0464L50.4978 15.8376L50.2889 16.6034C50.7995 16.9746 51.0547 17.6128 51.0547 18.5178C51.5652 19.2836 52.331 19.5968 53.352 19.4576V19.8405L54.4659 19.6664L54.6747 20.2234H54.083V20.6063L54.8488 20.7803V21.1632L54.2918 21.372L53.5261 20.9891V21.372H52.9691V20.7803H52.2034L51.9945 21.7549L52.5863 23.0776L52.3774 23.8434L54.4659 24.0522ZM67.5536 23.4605V22.9036H66.9967V23.4605H67.5536ZM57.3201 22.1378L57.4942 21.5461H56.7632V22.3118L57.3201 22.1378ZM57.703 21.5461L58.0859 20.7803H58.4688V20.0493L56.7632 19.8405V20.6063L57.703 21.5461ZM58.6428 19.0747L57.8771 18.3089L59.4086 17.5432V17.1603L59.1998 16.6034H59.7915V17.5432H59.4086L59.1998 19.0747H58.6428ZM52.5863 17.5432L51.9945 17.3691V16.7774H52.3774L52.5863 17.5432ZM67.9365 16.9862L67.5536 16.6034V16.9862H67.9365ZM66.6138 16.7774L65.674 16.2205V16.9862L66.6138 17.1603V16.7774ZM72.8792 16.6034V16.2205H72.4964V16.6034H72.8792ZM61.1142 16.0464L60.5573 15.6635V16.0464H61.1142ZM47.0866 15.8376L46.7037 15.4547V15.8376H47.0866ZM61.2882 15.6635V15.2807L61.1142 13.9231H60.7313L60.3484 15.0718L61.2882 15.6635ZM47.6435 15.4547V15.0718L46.8778 14.6889V15.4547H47.6435ZM56.7632 15.0718L56.3803 14.6889L56.1715 15.2807L56.7632 15.0718ZM59.7915 14.8978L59.4086 14.5149V14.8978H59.7915ZM67.5536 11.8347L66.7879 11.4518L66.6138 12.0435L67.5536 11.8347ZM60.5573 11.8347V11.0689H59.9655V11.8347H60.5573ZM54.6747 11.6606V11.2777L53.909 11.0689L53.7001 11.6606H54.6747ZM57.1461 5.15156L56.5544 4.4206V4.97752L57.1461 5.15156Z" fill="#483D3F"/>
<path d="M4.14214 30.5265V30.1436L4.69906 27.0805L4.31618 26.1407L2.08847 24.9921L1.87963 24.4003L4.69906 22.9036L5.46484 23.2865L6.02176 21.372H5.08195V20.2234L5.46484 19.4576C5.58086 18.0653 5.26759 16.8586 4.52502 15.8376C2.90066 15.9768 1.46193 15.6635 0.208847 14.8978L0 14.132L0.556926 12.7745H3.93329L4.69906 12.9833L5.25599 11.4518L4.8731 8.59754L6.36984 7.44888C7.25164 9.23569 7.69254 11.2081 7.69254 13.3662L8.24947 13.5403L9.57217 12.9833L9.74621 13.7491H10.1291L10.512 12.9833L11.2778 12.7745L10.8949 11.6606L11.0689 11.0689H9.95505C10.396 9.44453 10.5816 7.79696 10.512 6.12618H11.4518L11.8347 4.97752L12.5656 6.50907H12.0087V7.066L13.1226 7.27484V8.04062L13.7143 8.21466V8.77158L13.1226 9.15447V9.7462L13.8883 14.132H14.2712L15.0022 13.7491L15.3851 14.5149L15.211 15.4547L15.768 16.7774L15.5939 17.1603H15.211L14.6541 16.9862C13.5171 17.6128 13.0762 18.5642 13.3314 19.8405L13.5055 21.7549H15.5939V22.5207L14.2712 22.9036L13.8883 24.6092L14.0624 25.549L13.7143 26.5236L13.8883 27.2894L13.7143 28.0551L13.8883 28.6121L13.5055 28.7861V29.3778L13.8883 30.1436L12.9485 30.5265L11.2778 30.1436L10.3379 30.3177L9.95505 30.1436V29.5519C10.4424 28.6701 10.628 27.7187 10.512 26.6976L10.1291 25.9319H7.69254C7.32126 27.3474 6.88036 28.7513 6.36984 30.1436L5.25599 30.3177L4.69906 30.1436L4.14214 30.5265ZM9.39813 22.9036C10.0247 22.6483 10.6512 22.3931 11.2778 22.1378L11.4518 21.372L10.8949 20.2234L10.3379 19.2836L10.512 17.1603H8.24947C8.08703 18.8311 7.90139 20.4902 7.69254 22.1378L9.39813 22.9036ZM15.0022 16.4293V16.0464L14.6541 16.4293H15.0022ZM9.95505 15.2807V14.6889H9.39813V15.2807H9.95505ZM5.08195 13.5403L4.69906 13.1574L4.52502 13.7491L5.08195 13.5403ZM12.2176 11.0689L11.6258 10.8949V11.2777L12.2176 11.0689ZM13.7143 6.12618L13.5055 5.36041L14.4453 5.15156V6.12618H13.7143Z" fill="#483D3F"/>
</svg>
