<svg width="1440" height="2000" viewBox="0 0 1440 2000" fill="none" xmlns="http://www.w3.org/2000/svg">
<g clip-path="url(#clip0_730_3930)">
<path fill-rule="evenodd" clip-rule="evenodd" d="M539.578 453.824C558.913 562.526 565.011 688.116 476.542 766.796C388.145 845.411 245.326 823.586 119.371 827.532C-11.4319 831.63 -165.255 872.051 -255.678 789.738C-345.509 707.963 -293.255 576.119 -280.916 463.146C-270.487 367.666 -262.197 270.781 -190.999 197.552C-114.726 119.103 -6.89722 55.2701 110.656 60.4025C223.954 65.3491 301.641 150.852 379.722 222.47C453.654 290.283 523.109 361.235 539.578 453.824Z" fill="#F0E4C6" fill-opacity="0.4" style="mix-blend-mode:multiply"/>
<path fill-rule="evenodd" clip-rule="evenodd" d="M1592.5 309.602C1651.75 385.166 1843.9 324.941 1850.61 420.727C1857.04 512.733 1667.71 469.523 1608.64 540.359C1555.83 603.692 1616.61 721.102 1554.71 775.586C1492.43 830.405 1377.86 852.387 1313.17 800.44C1243.33 744.371 1256.3 645.052 1215.11 565.53C1183.75 504.977 1137.38 477.18 1112.79 413.574C1084.22 339.667 1067.83 236.517 1125.35 182.018C1184.99 125.51 1288.52 162.505 1367.41 139.561C1443.23 117.509 1495.75 14.0607 1563.53 54.5825C1638.8 99.5861 1538.39 240.587 1592.5 309.602Z" fill="#B99C92" fill-opacity="0.5" style="mix-blend-mode:multiply"/>
<path fill-rule="evenodd" clip-rule="evenodd" d="M1511.93 1768.97C1427.02 1831.97 1312.16 1833.69 1207.37 1822.05C1103.85 1810.56 989.023 1787.11 927.077 1704.03C867.478 1624.09 924.204 1510.21 902.285 1412.88C880.039 1314.1 773.154 1233.53 798.997 1135.28C825.009 1036.4 929.675 972.661 1026.8 939.507C1114.42 909.598 1204.27 953.686 1295.82 965.697C1383.01 977.136 1478.83 956.429 1549.58 1008.1C1622.93 1061.65 1658.05 1153.01 1674.57 1242.28C1690.73 1329.62 1666.99 1415.39 1640.7 1500.55C1610.72 1597.63 1593.83 1708.21 1511.93 1768.97Z" fill="#F0E4C6" fill-opacity="0.8" style="mix-blend-mode:multiply"/>
<path fill-rule="evenodd" clip-rule="evenodd" d="M255.758 1255.73C283.43 1305.4 235.85 1376.56 243.541 1435.64C252.134 1501.65 323.458 1547.3 302.634 1615.81C281.422 1685.6 205.969 1731.19 141.639 1770.89C74.4749 1812.34 -9.54945 1876.19 -70.4603 1846.08C-136.123 1813.62 -111.281 1708.35 -130.862 1636.17C-140.641 1600.12 -140.416 1562.28 -156.368 1529.4C-186.656 1466.95 -302.496 1430.49 -264.875 1359.87C-228.08 1290.79 -119.085 1364 -49.3584 1328.51C14.3077 1296.1 31.204 1191 98.3281 1174.99C163.838 1159.36 226.461 1203.14 255.758 1255.73Z" fill="#D4AB8E" fill-opacity="0.5" style="mix-blend-mode:plus-darker"/>
<path d="M698.157 2008.89C825 1708 1022.46 1676.01 1234 1594.5C1423.85 1521.35 572.5 1694.5 1632 1269.5C1820.85 1193.75 1713.27 916.627 1826.8 810.987C1917.62 726.476 2020.86 765.06 2070.84 757.22" stroke="#483D3F" stroke-opacity="0.4" stroke-width="3"/>
<path d="M-332.499 476C84.5 603 49.987 399.054 328 265C538.5 163.5 592.396 161.538 705.361 -7.7031C818.326 -176.944 676.987 -408.301 775.935 -527.707C855.093 -623.233 962.446 -598.292 1011 -612.517" stroke="#483D3F" stroke-opacity="0.4" stroke-width="3"/>
</g>
<defs>
<clipPath id="clip0_730_3930">
<rect width="1440" height="2000" fill="white"/>
</clipPath>
</defs>
</svg>
