<svg width="1440" height="4000" viewBox="0 0 1440 4000" fill="none" xmlns="http://www.w3.org/2000/svg">
<g clip-path="url(#clip0_1468_4255)">
<path fill-rule="evenodd" clip-rule="evenodd" d="M764.951 1642.22C625.771 1775.18 404.574 1734.32 213.34 1755.57C84.2276 1769.92 -41.5426 1780.5 -166.688 1745.74C-285.212 1712.82 -391.153 1651.57 -477.278 1563.74C-566.627 1472.61 -610.853 1356.15 -662.962 1239.63C-742.853 1060.98 -922.057 889.149 -862.335 702.71C-803.725 519.745 -576.414 448.789 -392.206 394.394C-225.275 345.101 -40.877 339.865 116.725 413.606C258.324 479.86 284.721 669.544 406.191 767.96C566.762 898.056 850.645 880.582 929.118 1071.81C1006.09 1259.38 911.606 1502.13 764.951 1642.22Z" fill="#FEEBBA" fill-opacity="0.5" style="mix-blend-mode:plus-darker"/>
<path fill-rule="evenodd" clip-rule="evenodd" d="M308.792 2720.54C350.055 2861.58 511.872 2919.01 630.179 3006.06C710.055 3064.83 789.156 3119.84 885.153 3144.63C976.07 3168.11 1069.48 3168.05 1159.94 3142.85C1253.78 3116.71 1327.47 3056.59 1406.38 2999.44C1527.38 2911.82 1711.43 2866.61 1743.1 2720.54C1774.19 2577.19 1651.01 2443.5 1549.99 2337.22C1458.45 2240.9 1338.56 2167.05 1206.23 2155.64C1087.33 2145.4 997.489 2260.74 879.628 2279.44C723.829 2304.16 542.834 2184.24 417.974 2280.72C295.504 2375.36 265.313 2571.93 308.792 2720.54Z" fill="#F0E4C6" fill-opacity="0.4" style="mix-blend-mode:plus-darker"/>
<path fill-rule="evenodd" clip-rule="evenodd" d="M1248.03 425.176C1304.46 412.086 1347.96 363.821 1405.73 359.516C1469.87 354.737 1538.39 362.764 1591.1 399.611C1644.58 436.996 1666.57 502.857 1694.9 561.644C1724.93 623.965 1771.22 685.735 1761.99 754.293C1752.75 822.889 1699.95 878.703 1646.31 922.446C1598.33 961.577 1530.75 959.19 1475.79 987.702C1413.37 1020.09 1372.42 1101.78 1302.1 1101.03C1232.99 1100.28 1185.14 1031.83 1135.23 984.027C1089.28 940.02 1040.45 894.87 1022.99 833.691C1006.13 774.634 1038.99 714.857 1040.89 653.471C1043.06 582.959 987.577 497.766 1034.98 445.524C1083.75 391.775 1177.33 441.577 1248.03 425.176Z" fill="#F0E4C6" fill-opacity="0.4" style="mix-blend-mode:plus-darker"/>
<path fill-rule="evenodd" clip-rule="evenodd" d="M-146.293 2970.12C-94.7751 2914.57 -13.8811 2898.57 61.6961 2893.31C136.356 2888.13 220.607 2889.95 275.511 2940.81C328.335 2989.74 303.554 3077.69 332.098 3143.79C361.069 3210.88 447.376 3254.18 442.31 3327.08C437.21 3400.46 371.838 3459.07 307.687 3495.06C249.815 3527.52 180.437 3507.86 114.164 3511.15C51.0464 3514.27 -13.8547 3541.27 -70.7627 3513.79C-129.754 3485.31 -166.827 3425.14 -190.475 3364.04C-213.611 3304.28 -208.356 3240.48 -201.213 3176.79C-193.069 3104.17 -195.98 3023.69 -146.293 2970.12Z" fill="#FEEBBA" fill-opacity="0.5" style="mix-blend-mode:plus-darker"/>
<path fill-rule="evenodd" clip-rule="evenodd" d="M1381.48 2000.75C1342.78 1988.31 1325.98 1943.15 1291.67 1921.33C1264.68 1904.18 1232.49 1901.36 1203.6 1887.65C1152.93 1863.62 1086.4 1858.28 1057.46 1810.25C1029.14 1763.24 1017.13 1683.36 1059.46 1648.43C1111.26 1605.68 1191 1654.8 1257.47 1645.2C1286.1 1641.07 1306.39 1615.19 1334.58 1608.71C1364.97 1601.72 1397.78 1594.22 1426.53 1606.33C1455.31 1618.45 1464.54 1654.63 1489.17 1673.83C1525.31 1702.01 1578.99 1706.53 1604.16 1744.83C1632.59 1788.08 1650.92 1845.49 1634.18 1894.47C1617.45 1943.42 1566.57 1974.29 1518.89 1994.35C1475.89 2012.43 1425.89 2015.02 1381.48 2000.75Z" fill="#D4AB8E" fill-opacity="0.5" style="mix-blend-mode:multiply"/>
<path fill-rule="evenodd" clip-rule="evenodd" d="M1496.55 3626.35C1480.04 3696.37 1574.38 3763.95 1470.45 3859.65C1400.86 3913.65 1279.95 3925.65 1196.45 3878.65C1118.86 3834.97 1136.01 3692.49 1096.45 3651.15C941.449 3489.14 966.452 3282.15 1303.36 3296.18C1453.95 3327.64 1427.95 3377.14 1470.45 3424.14C1574.45 3476.64 1574.93 3434.37 1582.92 3492.99C1591.79 3558.1 1511.62 3562.4 1496.55 3626.35Z" fill="#B99C92" fill-opacity="0.5" style="mix-blend-mode:multiply"/>
</g>
<defs>
<clipPath id="clip0_1468_4255">
<rect width="1440" height="4000" fill="white"/>
</clipPath>
</defs>
</svg>
