<svg width="65" height="63" viewBox="0 0 65 63" fill="none" xmlns="http://www.w3.org/2000/svg">
<path fill-rule="evenodd" clip-rule="evenodd" d="M32.7688 0.0037373C39.6676 0.0709455 46.6587 1.237 52.2622 5.25089C57.8844 9.27823 61.5177 15.435 63.5316 22.0398C65.5162 28.5489 65.4885 35.4571 63.4521 41.9503C61.3983 48.4986 57.7596 54.642 52.0884 58.5264C46.5042 62.3511 39.5394 63.1921 32.7688 62.9661C26.1883 62.7464 19.8744 60.8648 14.3667 57.267C8.6334 53.5218 3.28641 48.7473 1.09037 42.2727C-1.11958 35.7571 0.382495 28.7458 2.46932 22.1899C4.5691 15.5934 7.40269 8.96446 12.9967 4.86836C18.6057 0.761262 25.8105 -0.0640498 32.7688 0.0037373Z" fill="#483D3F"/>
</svg>
