<svg width="62" height="35" viewBox="0 0 62 35" fill="none" xmlns="http://www.w3.org/2000/svg">
<path fill-rule="evenodd" clip-rule="evenodd" d="M61.9906 17.6309C62.1868 14.5226 59.2561 11.779 57.0878 8.97005C54.7516 5.94363 53.6953 1.95022 48.7798 0.516759C43.8193 -0.929805 38.0632 1.03264 32.7471 1.87184C28.5118 2.54041 24.985 4.05968 20.8454 4.92644C15.5133 6.0429 8.85268 5.2594 4.86482 7.70992C0.838118 10.1843 0.521617 14.1331 0.17068 17.6309C-0.195332 21.2789 -0.232449 25.1455 2.80032 28.2865C5.82143 31.4153 11.0062 33.7954 16.7051 34.7549C22.0071 35.6476 27.3172 33.8536 32.7471 33.3285C37.2944 32.8888 42.0357 33.2135 46.1242 31.9104C50.305 30.5778 53.3592 28.3047 56.0186 25.9113C58.8357 23.3759 61.7969 20.7014 61.9906 17.6309Z" fill="#78686B"/>
</svg>
